<svg width="192" height="100" viewBox="0 0 192 100" fill="none" xmlns="http://www.w3.org/2000/svg">
<rect width="192" height="100" fill="#FBFBFC"/>
<path d="M132.224 55.5142H59.7764V74.9998H132.224V55.5142Z" fill="#3D4346"/>
<path d="M132.224 53.644H59.7764V34.1972L96.0197 25L132.224 34.1972V53.644Z" fill="#3D4346"/>
<path d="M62.8154 50.8379V37.042H67.1413C68.7001 37.042 69.8303 37.3538 70.5707 37.9773C71.3112 38.5619 71.7009 39.4582 71.7009 40.5884C71.7009 41.3288 71.4671 41.9914 71.0774 42.498C70.6487 43.0046 70.0641 43.2774 69.3236 43.4333C70.259 43.5892 70.9604 43.9789 71.506 44.5635C72.0127 45.148 72.2465 45.8885 72.2465 46.7848C72.2465 48.0319 71.7788 49.0452 70.8435 49.7856C69.9082 50.5261 68.6222 50.9158 66.9464 50.9158L62.8154 50.8379ZM67.2192 39.3413H65.5045V42.3421H67.0243C67.531 42.3421 67.9986 42.1862 68.3883 41.8744C68.817 41.5627 68.9729 41.134 68.9729 40.6274C69.0119 39.8479 68.3883 39.3803 67.2192 39.3413ZM65.5434 48.5775H67.492C68.1155 48.5775 68.6222 48.4216 69.0119 48.0709C69.4016 47.7201 69.5964 47.2915 69.5964 46.7069C69.5964 46.1223 69.3626 45.6157 68.9729 45.226C68.5442 44.7973 67.9207 44.6024 67.1023 44.6024H65.5434V48.5775Z" fill="white"/>
<path d="M82.4576 49.6687C81.5612 50.5651 80.3141 50.9548 78.6384 50.9548C76.9626 50.9548 75.7155 50.5261 74.8192 49.6687C73.9228 48.7724 73.4941 47.4863 73.4941 45.7716V37.042H76.378V45.9664C76.378 46.8238 76.5729 47.5253 76.9626 47.954C77.3523 48.4216 77.8979 48.6555 78.6384 48.6555C79.3788 48.6555 79.9244 48.4216 80.3141 47.954C80.7428 47.4863 80.8987 46.8238 80.8987 45.9664V37.042H83.7826V45.7716C83.7436 47.4863 83.3149 48.7724 82.4576 49.6687Z" fill="white"/>
<path d="M96.409 43.4723C96.409 45.6936 95.7855 47.4863 94.4994 48.8503C93.2134 50.2143 91.4986 50.8768 89.3552 50.8768H85.6919V37.042H89.9398C91.8883 37.042 93.4862 37.6266 94.6553 38.8347C95.8244 40.0428 96.409 41.5627 96.409 43.4723ZM93.4472 43.3164C93.4472 42.0693 93.0965 41.095 92.4339 40.3935C91.7714 39.692 90.953 39.3023 90.0177 39.3023H88.4199V48.5385H89.5111C90.6023 48.5385 91.5376 48.0709 92.317 47.1356C93.0575 46.2003 93.4472 44.9532 93.4472 43.3164Z" fill="white"/>
<path d="M104.048 50.9546C102.021 50.9546 100.424 50.3311 99.2155 49.0451C98.0074 47.759 97.4229 46.0443 97.4229 43.9008C97.4229 41.7574 98.0074 40.0427 99.1376 38.7956C100.268 37.5485 101.866 36.886 103.892 36.886C105.217 36.886 106.62 37.1198 107.984 37.5875L107.633 39.8088C107.127 39.614 106.503 39.4581 105.685 39.3412C104.905 39.2243 104.282 39.1463 103.814 39.1463C102.723 39.1463 101.905 39.575 101.242 40.3934C100.619 41.2118 100.307 42.342 100.307 43.7839C100.307 45.2259 100.619 46.356 101.281 47.3303C101.944 48.2656 102.801 48.7333 103.853 48.7333C104.438 48.7333 105.022 48.6164 105.49 48.3046V45.6156H103.23V43.3552H108.374V49.9024C106.971 50.6039 105.529 50.9546 104.048 50.9546Z" fill="white"/>
<path d="M109.855 37.042V50.8379H118.039V48.5775H112.7V44.5245H117.571V42.1862H112.7V39.3413H118.039V37.042H109.855Z" fill="white"/>
<path d="M119.558 37.042V39.3413H122.949V50.8379H125.794V39.3413H129.223V37.042H119.558Z" fill="white"/>
<path d="M74.3516 72.3505V61.0099H70.6104V58.5547H80.7039V61.0099H76.9627V72.3505H74.3516Z" fill="white"/>
<path d="M90.1744 58.5156H92.7465V72.3115H90.1744V66.5048H84.6405V72.3115H82.0684V58.5156H84.6405V64.0885H90.1744V58.5156Z" fill="white"/>
<path d="M96.059 71.0254C95.1627 70.0122 94.7729 68.5702 94.7729 66.6217V58.5156H97.3451V66.7776C97.3451 67.8688 97.5789 68.6872 98.0076 69.3107C98.4363 69.8953 99.0988 70.1681 99.9172 70.1681C100.736 70.1681 101.359 69.8953 101.827 69.3107C102.294 68.7261 102.489 67.9077 102.489 66.7776V58.5156H105.061V66.6217C105.061 68.5313 104.633 70.0122 103.736 71.0254C102.84 72.0387 101.593 72.5453 99.9561 72.5453C98.2024 72.5063 96.9164 72.0387 96.059 71.0254Z" fill="white"/>
<path d="M107.01 72.3505V58.5547H109.621V72.3505H107.01Z" fill="white"/>
<path d="M113.284 72.1165C112.465 71.8437 111.764 71.454 111.218 70.9473L112.037 68.7649C113.167 69.7003 114.453 70.1679 115.895 70.1679C116.635 70.1679 117.22 70.051 117.649 69.7392C118.077 69.4275 118.233 69.0767 118.233 68.5701C118.233 68.1414 118.038 67.7907 117.649 67.5179C117.259 67.2451 116.596 67.0112 115.7 66.7774C114.648 66.5436 113.79 66.2318 113.206 65.8421C112.582 65.4913 112.115 65.0627 111.842 64.556C111.569 64.0494 111.413 63.4259 111.413 62.6464C111.413 61.828 111.608 61.0486 111.998 60.3861C112.387 59.7236 112.933 59.217 113.673 58.8272C114.414 58.4375 115.232 58.2427 116.129 58.2427C116.986 58.2427 117.804 58.3986 118.545 58.6714C119.324 58.9442 119.948 59.3339 120.415 59.8405L119.597 62.0229C118.545 61.0876 117.376 60.6199 116.129 60.6199C115.466 60.6199 114.921 60.7758 114.531 61.0876C114.102 61.3994 113.946 61.828 113.946 62.3347C113.946 62.6464 114.024 62.9192 114.18 63.1141C114.336 63.309 114.609 63.5038 114.921 63.6987C115.271 63.8546 115.778 64.0104 116.44 64.1663C117.96 64.556 119.052 65.0627 119.753 65.6862C120.415 66.3097 120.766 67.1281 120.766 68.2193C120.766 69.5054 120.338 70.5187 119.48 71.2981C118.584 72.0385 117.415 72.4283 115.856 72.4283C114.96 72.5062 114.102 72.3893 113.284 72.1165Z" fill="white"/>
</svg>
