<svg width="409" height="100" viewBox="0 0 409 100" fill="none" xmlns="http://www.w3.org/2000/svg">
<path d="M110 20.8H108.17L87.4902 68.8H83.1802V81.6901H88.3802V73.7701H130.73V81.6901H135.93V68.84H131.83L110 20.8ZM93.4402 68.8L109.09 31.7L125.59 68.84L93.4402 68.8ZM156.67 33.55C153.839 33.4782 151.027 34.0315 148.435 35.1705C145.842 36.3096 143.532 38.0064 141.67 40.14C138.135 43.984 136.209 49.0381 136.29 54.26C136.236 59.6164 138.286 64.7801 142 68.64C143.912 70.5839 146.191 72.1277 148.706 73.1816C151.22 74.2354 153.919 74.7781 156.645 74.7781C159.371 74.7781 162.07 74.2354 164.585 73.1816C167.099 72.1277 169.379 70.5839 171.29 68.64C174.997 64.7875 177.047 59.6361 177 54.2901C177.084 49.0587 175.158 43.9943 171.62 40.14C169.758 38.0163 167.452 36.3279 164.865 35.1943C162.278 34.0607 159.474 33.5096 156.65 33.58L156.67 33.55ZM169.85 62.28C168.565 64.6671 166.64 66.6482 164.29 68C161.953 69.305 159.322 69.99 156.645 69.99C153.969 69.99 151.337 69.305 149 68C146.664 66.6592 144.746 64.6964 143.46 62.3301C142.119 59.9076 141.43 57.1786 141.46 54.41C141.422 52.3333 141.799 50.2699 142.57 48.3413C143.341 46.4126 144.491 44.6578 145.95 43.18C147.329 41.7122 148.993 40.5423 150.841 39.7426C152.689 38.9429 154.682 38.5303 156.695 38.5303C158.709 38.5303 160.701 38.9429 162.549 39.7426C164.397 40.5423 166.062 41.7122 167.44 43.18C168.905 44.6548 170.059 46.4086 170.834 48.3377C171.609 50.2667 171.988 52.3316 171.95 54.41C171.939 57.1869 171.205 59.9129 169.82 62.32L169.85 62.28ZM209.57 50.1101H186.86V34.59H181.86V73.7701H186.86V54.9001H209.54V73.7701H214.54V34.59H209.54L209.57 50.1101ZM239.82 33.55C236.989 33.4782 234.177 34.0315 231.585 35.1705C228.992 36.3096 226.682 38.0064 224.82 40.14C221.286 43.9846 219.36 49.0382 219.44 54.26C219.388 59.6032 221.431 64.7543 225.13 68.6101C227.042 70.5539 229.321 72.0977 231.836 73.1516C234.35 74.2054 237.049 74.7481 239.775 74.7481C242.501 74.7481 245.2 74.2054 247.715 73.1516C250.229 72.0977 252.509 70.5539 254.42 68.6101C258.12 64.7543 260.162 59.6032 260.11 54.26C260.194 49.0287 258.268 43.9643 254.73 40.1101C252.869 37.9957 250.566 36.3153 247.985 35.1871C245.404 34.0589 242.606 33.5103 239.79 33.58L239.82 33.55ZM253 62.32C251.707 64.6937 249.778 66.6605 247.43 68C245.09 69.3104 242.452 69.9984 239.77 69.9984C237.088 69.9984 234.451 69.3104 232.11 68C229.774 66.6592 227.856 64.6964 226.57 62.3301C225.229 59.9076 224.54 57.1786 224.57 54.41C224.521 52.3342 224.888 50.2695 225.649 48.3375C226.409 46.4055 227.549 44.6451 229 43.16C230.379 41.6935 232.044 40.5248 233.892 39.7259C235.74 38.927 237.732 38.5149 239.745 38.5149C241.758 38.5149 243.75 38.927 245.598 39.7259C247.446 40.5248 249.111 41.6935 250.49 43.16C251.956 44.636 253.111 46.3915 253.886 48.3223C254.661 50.2531 255.04 52.32 255 54.4001C255.03 57.1686 254.341 59.8976 253 62.32ZM299.75 39.6C297.925 37.6723 295.72 36.1439 293.274 35.1112C290.828 34.0785 288.195 33.5639 285.54 33.6C282.538 33.557 279.572 34.2615 276.91 35.65C274.186 37.1484 271.845 39.2567 270.07 41.81V34.61H265.07V88.1H270.07V67C271.979 69.4145 274.383 71.3921 277.12 72.8C280.849 74.5964 285.05 75.1682 289.124 74.4336C293.197 73.699 296.934 71.6958 299.8 68.71C301.706 66.78 303.206 64.4874 304.211 61.9676C305.216 59.4479 305.705 56.7522 305.65 54.0401C305.689 51.3599 305.187 48.6995 304.173 46.2182C303.159 43.7369 301.655 41.4859 299.75 39.6ZM298.46 62.1501C297.129 64.5734 295.171 66.594 292.79 68C290.496 69.3805 287.868 70.1067 285.19 70.1C282.448 70.0955 279.755 69.3714 277.38 68C274.994 66.6871 273.026 64.7291 271.7 62.35C270.354 59.9007 269.665 57.1446 269.7 54.35C269.646 52.2559 270.012 50.1722 270.778 48.2225C271.545 46.2727 272.695 44.4968 274.16 43C275.573 41.5129 277.282 40.338 279.177 39.551C281.071 38.7639 283.109 38.3821 285.16 38.43C287.89 38.4131 290.573 39.137 292.924 40.5247C295.275 41.9124 297.206 43.9118 298.51 46.3101C299.883 48.722 300.605 51.4497 300.605 54.225C300.605 57.0004 299.883 59.7281 298.51 62.14L298.46 62.1501Z" fill="#5D605F"/>
<path d="M341.39 52.78C341.499 55.5513 341.318 58.3264 340.85 61.06C340.413 62.8062 339.608 64.4391 338.49 65.85C337.411 67.1758 336.043 68.2363 334.49 68.95C332.926 69.686 331.219 70.0684 329.49 70.07C327.408 70.057 325.357 69.5715 323.49 68.65C321.732 67.8863 320.21 66.6678 319.08 65.12C318.062 63.5439 317.434 61.7474 317.25 59.88C317.054 57.5221 316.984 55.1554 317.04 52.79V20.8H311.77V52.8C311.77 58.18 312.103 61.9 312.77 63.96C313.778 67.2953 315.936 70.1653 318.86 72.06C322.11 74.1628 325.921 75.2299 329.79 75.12C333.195 75.1893 336.535 74.1748 339.326 72.2228C342.118 70.2708 344.216 67.4824 345.32 64.26C346.345 60.526 346.81 56.6606 346.7 52.79V20.8H341.43L341.39 52.78ZM376.76 20.78H375.47L350.57 73.78H356.45L364.66 56.35H387.37L395.66 73.78H401.35L376.76 20.78ZM367.06 51.21L376.06 32.04L385.06 51.21H367.06Z" fill="#E62831"/>
<path fill-rule="evenodd" clip-rule="evenodd" d="M53.2801 20.67C53.3283 18.1581 52.3785 15.7295 50.6389 13.9168C48.8993 12.104 46.5119 11.0551 44.0001 11H43.6901C42.4438 11.0234 41.2143 11.2921 40.0718 11.7908C38.9294 12.2895 37.8964 13.0084 37.0318 13.9063C36.1673 14.8043 35.4881 15.8639 35.0331 17.0244C34.5781 18.1849 34.3562 19.4237 34.3801 20.67C34.3801 28.16 38.4401 29.35 41.1101 35.11C42.3359 38.0694 43.1729 41.1753 43.6001 44.35C43.8126 44.3243 44.0275 44.3243 44.2401 44.35C44.5823 41.1754 45.3701 38.0648 46.5801 35.11C49.2201 29.35 53.2801 28.16 53.2801 20.67ZM71.6401 24.9C70.3801 23.22 71.0001 24 71.6401 24.9V24.9ZM46.1701 45.19C46.3198 45.3476 46.4507 45.5221 46.5601 45.71C49.2297 44.1104 52.1067 42.8856 55.1101 42.07C61.1101 40.72 64.5201 43.32 70.2101 38.72C72.1697 37.0984 73.4316 34.7859 73.7349 32.2605C74.0383 29.7351 73.3599 27.1896 71.8401 25.15L72.4201 25.92L71.8401 25.15L71.7001 25L71.6501 24.93C70.9235 23.9352 70.002 23.0986 68.9417 22.4712C67.8815 21.8439 66.7047 21.4388 65.483 21.2807C64.2612 21.1226 63.0201 21.2148 61.8351 21.5516C60.6501 21.8884 59.546 22.4629 58.5901 23.24C52.9001 27.84 54.4801 31.9 51.7501 37.62C50.2636 40.3984 48.3843 42.948 46.1701 45.19ZM71.8401 25.19L71.6501 24.94L71.7001 25.01L71.8401 25.19ZM78.8401 56.44L78.9701 55.77L78.8401 56.44ZM71.7401 44C64.6701 42.52 62.7401 46.42 56.7401 48C53.7264 48.6522 50.6313 48.8444 47.5601 48.57C47.5415 48.7909 47.4979 49.0089 47.4301 49.22C50.3595 50.2867 53.1286 51.7504 55.6601 53.57C60.5601 57.42 60.8901 61.79 67.9601 63.27C69.1809 63.5122 70.4378 63.5074 71.6568 63.2559C72.8757 63.0044 74.0319 62.5113 75.0572 61.8058C76.0825 61.1002 76.956 60.1964 77.6264 59.1477C78.2967 58.0991 78.7502 56.9268 78.9601 55.7L79.0201 55.39C79.5375 52.9165 79.0652 50.3388 77.7042 48.2095C76.3433 46.0802 74.2022 44.569 71.7401 44ZM78.9401 55.72L79.0001 55.41L78.9401 55.72ZM79.1301 54.74L79.0001 55.4L79.1301 54.74ZM52.0001 58.38C49.6203 56.3156 47.5522 53.9174 45.8601 51.26C45.6827 51.3824 45.4914 51.4831 45.2901 51.56C46.2998 54.615 46.9082 57.7882 47.1001 61C47.2401 67.39 44.1501 70.36 47.4301 77C47.9542 78.1239 48.7015 79.1295 49.6266 79.9554C50.5517 80.7813 51.6351 81.4104 52.8111 81.8042C53.987 82.198 55.2308 82.3485 56.4667 82.2463C57.7026 82.1442 58.9048 81.7916 60.0001 81.21L59.7901 81.32L60.2401 81.08L60.4401 80.97L60.2401 81.07C62.4591 79.8414 64.1186 77.8041 64.873 75.3825C65.6275 72.9608 65.4187 70.3415 64.2901 68.07C61.0001 61.39 56.8701 62.25 52.0001 58.38ZM59.6201 81.38L59.1001 81.65L59.6201 81.38ZM31.5201 53.61C34.0515 51.7904 36.8207 50.3267 39.7501 49.26C39.6823 49.0489 39.6387 48.8309 39.6201 48.61C36.5601 48.8672 33.4788 48.6615 30.4801 48C24.4801 46.42 22.6001 42.52 15.4801 44C13.0169 44.5776 10.8786 46.0985 9.52479 48.2358C8.17098 50.3731 7.70969 52.9562 8.24008 55.43L8.08008 54.63L8.30008 55.74L8.24008 55.44L8.30008 55.75C8.50999 56.9768 8.96348 58.1491 9.6338 59.1977C10.3041 60.2464 11.1777 61.1502 12.203 61.8558C13.2282 62.5613 14.3845 63.0544 15.6034 63.3059C16.8223 63.5574 18.0793 63.5622 19.3001 63.32C26.3301 61.84 26.6501 57.47 31.5601 53.62L31.5201 53.61ZM8.30008 55.74C8.51008 56.86 8.70008 57.83 8.30008 55.74V55.74ZM27.5601 81.34L27.3201 81.21L27.5601 81.34ZM28.2401 81.7L27.5801 81.35L28.2401 81.7ZM26.9101 81L26.3001 80.67L26.9101 81ZM41.4401 51.26C39.7481 53.9175 37.6799 56.3157 35.3001 58.38C30.4001 62.24 26.3001 61.38 22.9901 68.06C21.8615 70.3315 21.6527 72.9508 22.4071 75.3725C23.1616 77.7941 24.8211 79.8314 27.0401 81.06L27.3101 81.21L27.0901 81.09L27.3101 81.21C28.4036 81.7851 29.6023 82.1325 30.8339 82.2312C32.0654 82.3299 33.3042 82.178 34.4754 81.7845C35.6465 81.391 36.7257 80.7641 37.6478 79.9418C38.5699 79.1194 39.3157 78.1187 39.8401 77C43.1201 70.33 40.0301 67.35 40.1701 61C40.3684 57.7873 40.9836 54.6141 42.0001 51.56C41.8023 51.4824 41.6143 51.3817 41.4401 51.26Z" fill="#E51B23"/>
<path fill-rule="evenodd" clip-rule="evenodd" d="M14.6603 25.1599C13.1434 27.1988 12.4669 29.742 12.7702 32.2651C13.0734 34.7882 14.3334 37.0986 16.2903 38.7199C21.9803 43.3199 25.3803 40.7199 31.3903 42.0699C34.3937 42.8854 37.2707 44.1102 39.9403 45.7099C40.0499 45.5222 40.1807 45.3477 40.3303 45.1899C38.1139 42.9386 36.2344 40.3788 34.7503 37.5899C32.0003 31.8699 33.6003 27.8199 27.9103 23.2099C26.9544 22.4328 25.8503 21.8584 24.6653 21.5215C23.4803 21.1847 22.2391 21.0925 21.0174 21.2506C19.7956 21.4087 18.6188 21.8138 17.5586 22.4412C16.4984 23.0685 15.5769 23.9051 14.8503 24.8999L14.6603 25.1599Z" fill="#5D605F"/>
</svg>
