<svg width="293" height="100" viewBox="0 0 293 100" fill="none" xmlns="http://www.w3.org/2000/svg">
<path fill-rule="evenodd" clip-rule="evenodd" d="M59.4755 3.04631C57.0595 3.12625 56.8423 3.17403 56.3566 3.73207C55.8587 4.3041 55.8051 4.64131 55.8186 7.11479C55.8253 8.33615 55.8895 10.2038 55.9613 11.2651C56.1257 13.6962 56.1256 14.8771 55.9603 16.9664C55.8549 18.3002 55.8426 19.0444 55.8983 20.7266C56.0044 23.934 55.9928 27.2472 55.7671 58.1899C55.7242 64.0705 55.719 69.0124 55.7554 69.1717C55.8842 69.7343 56.3893 70.4853 56.8215 70.7565L57.111 70.9381L62.8999 70.9864C67.4964 71.0248 68.743 71.0131 68.952 70.9296C69.3029 70.7896 70.0118 70.112 70.2029 69.734C70.5088 69.1291 70.5344 68.7441 70.5081 65.1397C70.4743 60.5032 70.4793 60.1861 70.6271 57.6852C70.7648 55.3531 70.794 55.2238 71.2745 54.8151C72.0111 54.1887 73.0365 54.1853 74.2497 54.8055C74.8851 55.1302 75.3671 55.8333 76.4455 58.0082C76.7867 58.6962 77.3666 59.7957 77.7343 60.4516C78.7815 62.3194 79.273 63.2893 79.735 64.3995C80.7825 66.9167 81.3824 68.0931 82.2378 69.3073C82.6881 69.9464 83.5081 70.718 83.7969 70.7743C83.918 70.798 84.1773 70.8547 84.3732 70.9006C85.0637 71.0618 85.6668 71.0781 87.5482 70.986C89.0998 70.91 90.0801 70.9171 92.8886 71.0247C94.7806 71.0971 96.5008 71.1341 96.7112 71.1068C97.4779 71.0071 98.0765 70.6129 98.336 70.0367C98.5459 69.5706 98.5388 68.6561 98.3199 67.9951C98.0836 67.281 97.7755 66.7287 94.7793 61.6483C93.3241 59.1808 91.8948 56.7205 91.603 56.1811C91.3114 55.6416 90.8097 54.7626 90.4884 54.2276C90.167 53.6927 89.6567 52.7369 89.3545 52.1036C89.021 51.4049 88.383 50.3055 87.7318 49.3072C86.4251 47.3044 85.9956 46.4623 85.9489 45.8125C85.9099 45.2674 86.0073 45.0326 86.5804 44.2902C87.4723 43.135 88.4393 41.4632 89.4925 39.2553C90.5934 36.9477 91.3276 35.0979 92.5431 31.5696C92.8963 30.5444 93.3285 29.3416 93.5036 28.8966C93.9553 27.7484 94.1046 27.0172 94.1056 25.9492C94.1066 24.8826 93.9826 24.4584 93.5326 23.9889C92.8634 23.2905 92.2206 23.1398 90.5097 23.2796C89.8536 23.3332 87.4272 23.404 85.1178 23.4368C80.4597 23.503 80.4276 23.5067 79.7135 24.0567C79.1071 24.5237 78.9219 25.0181 78.2648 27.9232C77.5921 30.8967 77.4479 31.3688 76.8068 32.6934C76.0553 34.2465 74.6544 36.072 73.9267 36.4464C73.4571 36.6881 72.7705 36.6354 72.3696 36.3269C71.7571 35.8557 71.2231 34.3062 70.933 32.1588C70.6118 29.7817 70.5957 29.0237 70.6105 17.0255C70.6248 5.52653 70.623 5.38202 70.4597 4.91963C70.0802 3.845 69.397 3.34996 67.9783 3.12197C67.2392 3.00321 62.1484 2.95789 59.4755 3.04631ZM210.639 4.9031C206.514 5.12599 205.133 5.46353 204.672 6.36142C204.307 7.07334 204.292 7.25996 204.259 11.4134C204.229 15.2735 204.233 15.4029 204.406 16.1015C204.641 17.0484 204.843 17.4649 205.23 17.7994C205.812 18.3018 205.793 18.3003 211.495 18.3003C217.175 18.3003 216.998 18.3146 217.665 17.8014C217.991 17.5506 218.531 16.7646 218.651 16.3675C218.704 16.1891 218.757 14.3331 218.79 11.4882C218.836 7.43629 218.827 6.85095 218.713 6.50691C218.499 5.85568 217.836 5.33128 216.859 5.04045C216.513 4.93756 215.902 4.90853 213.778 4.89438C212.32 4.88468 210.908 4.88863 210.639 4.9031ZM27.6366 22.3399C20.0195 22.8939 14.5373 26.2459 10.6371 32.7342C8.59484 36.1315 7.45264 39.8625 7.09112 44.317C6.95406 46.0054 6.9751 49.431 7.13083 50.7877C7.66503 55.4409 9.12049 59.0936 11.8664 62.6723C12.8841 63.9987 15.2084 66.328 16.4431 67.2589C18.1936 68.5789 20.1405 69.6388 21.9169 70.2392C25.5824 71.478 34.0204 72.0161 39.2373 71.3436C42.2747 70.9521 45.2241 70.1399 47.4191 69.0906C48.4847 68.5812 49.0993 68.1558 49.674 67.5296C50.048 67.1221 50.1681 66.9188 50.2982 66.473C50.5297 65.6799 50.6321 64.4359 50.6857 61.7676C50.7519 58.4799 50.6036 57.5408 49.8896 56.7225C48.9582 55.655 47.4842 55.5801 45.0162 56.4748C41.4155 57.78 40.0274 58.1482 38.7019 58.1495C38.2887 58.1498 37.492 58.2051 36.9314 58.2721C35.7413 58.4145 32.8833 58.4348 31.3378 58.3118C29.0054 58.1262 27.4368 57.7433 25.7917 56.958C24.2033 56.1997 23.1294 55.392 22.6766 54.6149C22.5006 54.3131 22.4592 54.139 22.4592 53.701C22.4592 53.236 22.4911 53.1179 22.6862 52.8598C22.9315 52.5355 23.3921 52.2312 23.9703 52.0118C24.304 51.8852 25.2954 51.8716 35.805 51.8499C43.4938 51.8339 47.4307 51.7972 47.7466 51.7383C48.3942 51.6175 49.1572 51.2409 49.613 50.8171C50.6393 49.8628 51.0668 48.6239 51.17 46.3052C51.2679 44.1022 50.9918 41.8907 50.2529 38.9604C49.6326 36.5002 48.9857 34.7124 48.0924 32.9892C47.1044 31.0831 46.1314 29.7552 44.5578 28.165C41.0692 24.6398 37.5965 22.9973 32.4879 22.4563C31.6137 22.3638 28.3768 22.2861 27.6366 22.3399ZM122.175 22.3735C116.078 22.7918 111.169 24.5379 107.173 27.7089C106.311 28.3925 104.588 30.1228 103.846 31.0485C102.027 33.3196 100.728 35.8502 99.7696 38.9853C98.7023 42.4779 98.3679 45.2973 98.6865 48.1147C98.8735 49.7685 99.516 53.8368 99.7132 54.6157C100.395 57.3078 101.744 59.8508 103.655 62.043C104.175 62.6391 107.875 66.1425 109.022 67.124C110.485 68.3763 112.498 69.5539 114.592 70.3825C117.816 71.658 121.04 72.1116 125.314 71.8906C129.262 71.6864 132.07 71.2644 134.188 70.5571C135.74 70.0389 139.373 68.0633 140.746 66.9911C141.451 66.4408 142.447 65.3471 143.368 64.1116C143.739 63.614 144.4 62.7628 144.837 62.2199C147.48 58.9353 148.859 55.8058 149.411 51.8442C149.722 49.6061 149.719 46.3529 149.403 44.1831C149.046 41.734 148.111 38.5343 147.294 36.9703C146.89 36.1972 143.866 31.2691 142.989 29.9551C142.068 28.5736 141.204 27.7601 139.338 26.517C136.069 24.3393 132.324 23.0112 128.004 22.4974C126.67 22.3387 123.625 22.274 122.175 22.3735ZM205.787 23.0589C204.92 23.3152 204.444 23.7594 204.262 24.4821C204.056 25.3034 204.032 31.0408 204.207 37.9244C204.39 45.1448 204.414 57.8286 204.255 63.3303C204.073 69.6173 204.268 70.3394 206.234 70.6386C206.605 70.6949 208.592 70.717 211.862 70.701C217.559 70.6732 217.431 70.6864 218.153 70.0453C218.772 69.4962 219.008 68.688 219.154 66.6201C219.26 65.1269 219.254 58.4433 219.147 57.7786C219.103 57.5072 219.037 55.009 219 52.227C218.96 49.2418 218.888 46.6464 218.822 45.894C218.739 44.9395 218.711 42.8214 218.711 37.4637C218.711 31.27 218.729 30.1315 218.85 28.9924C218.927 28.2686 219.014 27.1333 219.043 26.4695C219.088 25.4557 219.074 25.1913 218.957 24.8162C218.741 24.1219 218.311 23.6135 217.656 23.2762L217.097 22.9884L215.05 22.9924C213.924 22.9947 212.453 23.0109 211.78 23.0286C211.108 23.0462 209.567 23.0359 208.356 23.0056C206.643 22.9628 206.073 22.9746 205.787 23.0589ZM164.287 23.1942C162.752 23.2513 162.418 23.3253 161.824 23.7401C161.235 24.1518 160.695 25.0086 160.453 25.9132C160.172 26.9658 159.868 29.5574 159.803 31.4598C159.738 33.337 159.715 33.5404 159.326 35.6132C158.854 38.1283 158.7 39.2143 158.579 40.877C158.419 43.0683 158.239 44.2984 157.591 47.6212C156.705 52.1666 155.771 56.3831 155.441 57.3263C155.24 57.9016 154.933 58.3124 154.599 58.4512C154.434 58.5201 154.236 58.6328 154.159 58.7017C154.072 58.7801 153.736 58.8544 153.262 58.9C151.964 59.0251 151.499 59.3202 151.189 60.218C151.056 60.6032 151.038 60.9151 151.042 62.7545C151.044 63.908 151.077 65.8215 151.115 67.0068C151.165 68.5523 151.154 69.7385 151.077 71.2013C150.943 73.7478 150.937 77.39 151.066 77.8549C151.221 78.4125 151.485 78.7304 152.016 78.9982C152.493 79.2386 152.536 79.245 153.688 79.2435C154.338 79.2427 155.798 79.2088 156.934 79.1685C158.427 79.1152 159.631 79.1253 161.288 79.2047C163.832 79.3265 164.239 79.2915 164.795 78.9026C165.216 78.6085 165.482 78.1295 165.586 77.4767C165.633 77.1826 165.673 75.9428 165.674 74.7214C165.676 72.6674 165.689 72.4731 165.842 72.1321C166.052 71.6665 166.205 71.4959 166.597 71.2941C167.549 70.8039 169.349 70.7112 177.088 70.7537C184.026 70.7917 184.084 70.7954 184.85 71.2485C185.334 71.5344 185.873 72.1545 185.967 72.5328C186.007 72.6961 186.065 73.8942 186.094 75.1954C186.156 77.9598 186.199 78.1897 186.743 78.6959C187.336 79.2468 187.74 79.3233 189.601 79.2357C191.554 79.1438 194.763 79.142 196.778 79.2316C198.072 79.2891 198.392 79.28 198.721 79.176C199.681 78.8725 200.029 78.363 200.171 77.0559C200.279 76.057 200.222 70.6455 200.079 68.2651C200.01 67.1131 200.011 66.214 200.086 64.564C200.219 61.6322 200.178 60.7299 199.884 60.0703C199.486 59.179 198.849 58.7546 197.774 58.6657C197.242 58.6217 197.161 58.5906 196.927 58.3426C196.613 58.0098 196.229 57.0364 196.038 56.0913C195.914 55.4754 195.906 55.1522 195.971 53.3373C196.011 52.2064 196.045 47.247 196.045 42.3163C196.046 35.1485 196.069 33.1123 196.163 32.1588C196.329 30.4612 196.32 27.0389 196.147 26.2644C195.869 25.0198 195.182 24.0901 194.194 23.6203C193.131 23.1149 192.704 23.1011 187.565 23.4058L183.977 23.6185L181.735 23.4483C180.502 23.3547 178.861 23.2407 178.09 23.195C176.592 23.1061 166.667 23.1056 164.287 23.1942ZM244.597 23.1941C240.526 23.2512 239.961 23.2952 237.137 23.7754C234.189 24.2767 231.754 25.2218 230.015 26.5393C229.256 27.115 227.894 28.4408 226.788 29.6812C225.206 31.456 224.907 31.9631 224.542 33.4956C224.41 34.0496 224.12 35.0246 223.897 35.6623C223.674 36.3 223.429 37.1143 223.352 37.4717C223.002 39.101 223.329 43.1837 223.954 44.9893C224.172 45.617 225.115 47.7997 225.506 48.5791C226.122 49.8086 227.112 51.032 227.972 51.6278C228.17 51.7646 228.643 52.0338 229.025 52.2261C230.034 52.7354 230.444 53.0641 230.69 53.5616C230.925 54.0384 230.935 54.1125 230.812 54.5563C230.654 55.1331 229.939 55.7548 229.085 56.0591C228.73 56.1856 226.709 56.5309 225.763 56.6265C223.895 56.8155 223.169 58.3863 223.652 61.1919C223.827 62.2077 223.842 62.5122 223.828 64.7696C223.82 66.1266 223.769 67.7805 223.714 68.4449C223.585 70.0071 223.622 70.1432 224.341 70.7626C225.087 71.4044 225.361 71.4728 227.184 71.4718C231.007 71.4697 233.754 71.0074 236.186 69.9568C236.926 69.637 238.345 68.7971 239.257 68.1384C240.847 66.9904 241.242 66.6069 243.451 64.0705C246.15 60.9711 246.762 60.3335 247.514 59.8382C248.288 59.3279 248.798 59.14 249.568 59.08C250.422 59.0136 250.962 59.1507 251.363 59.5362C251.906 60.0588 251.935 60.2776 251.937 63.8593C251.939 67.8619 252.018 69.1825 252.288 69.7779C252.516 70.2815 252.893 70.6069 253.461 70.7907C253.782 70.8948 254.295 70.9149 256.338 70.9034C257.706 70.8959 259.343 70.8567 259.975 70.8165C260.608 70.7763 261.598 70.7633 262.176 70.7877C262.755 70.8121 263.883 70.794 264.683 70.7474C266.029 70.6691 266.173 70.6453 266.599 70.4303C267.367 70.0431 267.728 69.3441 267.926 67.866C268.104 66.5287 267.954 61.0798 267.545 54.0775C267.034 45.3138 267.055 46.3673 267.329 43.0154C267.438 41.6877 267.463 40.5397 267.446 37.6136C267.429 34.8179 267.455 33.5462 267.548 32.477C267.69 30.8448 267.708 28.4271 267.587 27.3474C267.399 25.6782 266.842 24.4645 265.965 23.8154C265.432 23.4202 265.028 23.2897 264.183 23.2393C263.002 23.1688 248.742 23.1359 244.597 23.1941ZM30.2481 34.2503C31.4722 34.3337 32.9202 34.8972 34.0279 35.7214C35.5083 36.8226 36.563 38.7447 36.2762 39.8187C36.0708 40.5884 35.6064 40.9193 34.5569 41.0435C32.2283 41.3194 26.4593 41.5237 25.1943 41.3751C22.8693 41.1019 21.942 40.3128 22.1817 38.8114C22.2986 38.0792 22.601 37.5512 23.3468 36.7773C25.0143 35.0471 26.37 34.3515 28.3296 34.2204C28.7781 34.1904 29.255 34.1755 29.3896 34.1871C29.5241 34.1989 29.9104 34.2273 30.2481 34.2503ZM124.994 35.8283C129.345 36.5805 132.944 39.9737 134.097 44.4105C134.379 45.4978 134.447 47.4748 134.244 48.6988C133.536 52.9706 130.243 56.508 126.241 57.2949C125.279 57.4841 123.354 57.4839 122.301 57.2946C118.297 56.5749 114.78 53.5612 113.626 49.8635C113.283 48.7642 113.141 47.7038 113.136 46.223C113.13 44.2369 113.383 43.1235 114.209 41.5008C115.195 39.5623 116.713 38.0882 118.869 36.9759C121.024 35.8638 123.028 35.4884 124.994 35.8283ZM178.607 35.9353C180.046 36.1036 180.747 36.5844 181.091 37.6384L181.276 38.204L181.33 46.9632C181.36 51.7808 181.355 55.8273 181.319 55.9556C181.11 56.6963 180.525 57.2415 179.615 57.5424C179.211 57.6761 178.748 57.6935 174.952 57.7183C170.83 57.7451 170.73 57.742 170.408 57.5763C170.065 57.3996 169.831 57.0573 169.832 56.7341C169.832 56.6301 169.96 55.9742 170.117 55.2767C170.915 51.7203 171.492 48.229 171.829 44.9071C171.946 43.7535 172.132 42.1806 172.243 41.4116C172.354 40.6426 172.498 39.5331 172.563 38.9462C172.628 38.3592 172.742 37.6849 172.816 37.4478C173.074 36.6184 173.739 36.0921 174.71 35.9484C175.321 35.8578 177.872 35.8493 178.607 35.9353ZM249.347 36.6349C250.539 36.8649 251.099 37.3096 251.673 38.482L251.976 39.1008V41.0375C251.976 43.1618 251.87 43.9587 251.477 44.7981C251.233 45.3185 250.948 45.5728 250.326 45.8259C249.86 46.0159 249.834 46.0172 246.88 45.9936C243.546 45.967 243.353 45.9422 242.274 45.4028C241.577 45.0547 240.579 44.2485 240.184 43.7141C239.764 43.1457 239.583 42.3846 239.586 41.206C239.59 40.03 239.666 39.7889 240.298 38.9442C241.596 37.2094 242.389 36.7471 244.312 36.6033C245.823 36.4903 248.691 36.5083 249.347 36.6349ZM109.233 82.1412C109.111 82.1599 108.934 82.2737 108.84 82.394C108.682 82.597 108.671 82.698 108.696 83.7944C108.73 85.3605 108.65 85.2901 110.409 85.2901H111.71L111.949 85.0497L112.187 84.8093V83.6164C112.187 82.4255 112.187 82.423 111.972 82.253C111.776 82.0972 111.658 82.0835 110.606 82.0948C109.973 82.1015 109.355 82.1224 109.233 82.1412ZM95.9617 83.6989C95.8945 83.7261 95.7547 83.8262 95.6512 83.9212C95.4662 84.0912 95.464 84.1135 95.52 85.2267L95.577 86.3593H95.2764C95.0661 86.3593 94.9159 86.4198 94.7758 86.5612C94.5832 86.7555 94.5757 86.8046 94.5757 87.866C94.5757 88.8573 94.5928 88.9909 94.7447 89.1857C94.8375 89.3049 94.9633 89.4024 95.0242 89.4024C95.085 89.4024 95.1924 89.4606 95.2629 89.5316C95.3744 89.6441 95.391 90.0264 95.391 92.4752C95.391 95.5 95.4248 95.8183 95.8314 96.6209C96.0593 97.0706 96.4724 97.4964 96.8027 97.622C96.929 97.67 97.516 97.7085 98.1073 97.7075C99.2658 97.7055 99.6576 97.6042 99.9976 97.2186C100.146 97.0507 100.159 96.9296 100.146 95.8958C100.137 95.2699 100.092 94.6841 100.044 94.5941C99.9551 94.4268 99.9265 94.4134 99.3214 94.2557C99.0673 94.1895 98.9499 94.1076 98.8934 93.9576C98.7907 93.6851 98.7934 90.5137 98.8966 90.1388C99.0241 89.6759 99.144 89.5764 99.7123 89.4615C100.395 89.3235 100.434 89.2426 100.454 87.9339C100.468 87.0385 100.451 86.8991 100.307 86.7034C100.175 86.5238 100.07 86.4786 99.7448 86.4612C98.9404 86.4178 98.9978 86.5101 98.9659 85.2104C98.9274 83.6402 98.983 83.6924 97.3251 83.6678C96.6425 83.6576 96.029 83.6716 95.9617 83.6989ZM32.2432 86.1989C30.5136 86.4304 29.6436 86.8054 28.8386 87.6662C28.5368 87.9889 28.1976 88.4603 28.0539 88.7568C27.3665 90.1744 27.2222 92.285 27.6863 94.1316C27.8805 94.9038 28.393 95.8921 28.8336 96.3438C29.2983 96.8203 30.1405 97.3908 30.7189 97.6207C31.4614 97.9159 33.2733 98.0548 33.9413 97.8677C34.4204 97.7336 34.4804 97.5059 34.4276 96.0232C34.4034 95.3447 34.3552 94.7581 34.3205 94.7197C34.2857 94.6813 33.9737 94.6178 33.6271 94.5786C31.7143 94.3622 30.4563 92.7503 30.9266 91.1182C31.2216 90.0947 31.6871 89.7702 33.062 89.6299C33.8274 89.5518 33.9715 89.5125 34.1707 89.3274L34.3996 89.1145L34.4186 87.8997C34.4375 86.6906 34.4366 86.6838 34.2261 86.4716C33.9009 86.1435 33.2874 86.0591 32.2432 86.1989ZM84.5878 86.2428C83.6755 86.3849 82.8197 86.6421 82.3655 86.9106C81.8268 87.229 81.0874 88.0364 80.7613 88.6622C80.244 89.6552 80.1148 90.3069 80.117 91.9109C80.1191 93.5243 80.2426 94.141 80.7983 95.3135C81.1906 96.1414 81.7822 96.7576 82.6808 97.2744C83.5473 97.7728 84.1162 97.9008 85.4982 97.9085C86.6127 97.9147 86.6607 97.9079 86.8639 97.7155C87.0737 97.5169 87.0746 97.5106 87.0746 96.178C87.0746 94.8886 87.068 94.8354 86.8933 94.712C86.7937 94.6416 86.5585 94.5839 86.3707 94.5839C85.8908 94.5839 85.1294 94.3275 84.677 94.0135C83.0562 92.8887 83.1276 90.2544 84.7916 89.7862C85.0383 89.7168 85.5454 89.635 85.9187 89.6044C86.4539 89.5605 86.6424 89.5096 86.811 89.3633C87.0204 89.1816 87.0253 89.1536 87.0583 87.9536C87.0899 86.8035 87.0815 86.7161 86.9195 86.5099C86.614 86.1211 85.8964 86.0389 84.5878 86.2428ZM13.2577 86.3251C11.9322 86.6488 10.7269 87.6621 10.075 89.001C9.52058 90.1398 9.41817 90.6174 9.41581 92.0754C9.41401 93.2201 9.43105 93.3621 9.6525 94.0437C10.2525 95.8905 11.8852 97.401 13.6252 97.719C14.5175 97.882 17.0157 97.8652 17.6936 97.6916C18.5176 97.4806 19.0925 97.2411 19.4034 96.9794L19.6871 96.7408L19.7137 95.6238C19.74 94.5219 19.7376 94.5041 19.534 94.2986C19.2557 94.0179 18.9488 94.0302 18.0533 94.3577C17.3335 94.621 17.3013 94.6251 15.8958 94.6251C14.5025 94.6251 14.4574 94.6196 13.98 94.3941C13.3683 94.1053 13.1236 93.8771 13.1236 93.5958C13.1236 93.2083 13.2988 93.1857 16.3113 93.1857C19.3755 93.1857 19.4315 93.1773 19.7061 92.6703C19.9134 92.2877 19.8883 90.9803 19.6567 90.1015C19.3646 88.9927 18.9758 88.2986 18.2271 87.5496C17.5081 86.8301 16.9853 86.5242 16.1261 86.3199C15.4751 86.165 13.9014 86.1679 13.2577 86.3251ZM46.8785 86.2518C45.6484 86.4604 44.5523 86.9906 43.7395 87.7702C43.0786 88.4042 42.7003 88.9959 42.3892 89.8827C42.0449 90.8642 41.95 91.6248 42.0632 92.4951C42.3235 94.497 42.6141 95.0655 44.0533 96.3883C45.3653 97.5942 46.5517 98.0137 48.3869 97.9204C48.925 97.8931 49.6079 97.8189 49.9042 97.7556C50.5343 97.621 51.6324 97.0864 52.064 96.7042C52.503 96.3153 53.4374 95.0666 53.6861 94.5364C54.269 93.2935 54.2757 91.4177 53.7025 89.9861C53.4086 89.2521 52.4638 87.8057 52.0392 87.4395C51.0915 86.6224 49.7099 86.1898 48.1015 86.2065C47.541 86.2124 46.9906 86.2327 46.8785 86.2518ZM64.9628 86.3266C64.2759 86.4753 63.0874 86.9728 62.888 87.1949C62.7588 87.3388 62.7327 87.5345 62.7089 88.5397C62.6827 89.6439 62.6916 89.7269 62.8516 89.8883C63.073 90.1116 63.357 90.1059 64.139 89.8622C65.3526 89.484 65.6874 89.4059 66.4796 89.3169C67.8435 89.1635 68.7295 89.4854 68.7295 90.1343C68.7295 90.4167 68.4765 90.4847 67.8154 90.3801C67.0625 90.261 65.2699 90.3375 64.6172 90.5165C62.624 91.0632 61.5621 92.6583 61.8681 94.646C62.1118 96.2285 63.1424 97.3761 64.6215 97.7118C65.1802 97.8386 67.305 97.8482 67.7196 97.7258C67.904 97.6714 68.1899 97.5344 68.355 97.4213C68.5201 97.3083 68.6824 97.2158 68.7156 97.2158C68.7488 97.2158 68.8442 97.3324 68.9276 97.4749L69.0793 97.7339L70.2897 97.6838C71.5197 97.6328 71.7615 97.5766 71.9037 97.3086C72.0094 97.1095 72.0862 90.7963 71.9981 89.548C71.9147 88.3656 71.716 87.8893 71.0496 87.2749C70.5072 86.7749 69.9297 86.4802 69.1766 86.3193C68.4125 86.1561 65.7284 86.1607 64.9628 86.3266ZM124.865 86.3267C122.693 86.8103 121.252 88.1753 120.63 90.3399C120.255 91.6476 120.404 93.4252 120.992 94.6357C121.272 95.2122 121.442 95.4251 122.222 96.1789C123.276 97.1977 123.996 97.6062 125.15 97.8392C126.442 98.1001 128.358 97.8791 129.431 97.3454C130.234 96.946 130.522 96.7025 131.188 95.8587C132.265 94.4945 132.527 93.7101 132.468 92.0343C132.439 91.2258 132.387 90.8698 132.224 90.3676C131.953 89.5335 130.991 87.9752 130.437 87.473C129.973 87.0526 129.117 86.6051 128.371 86.3934C127.674 86.1954 125.63 86.1565 124.865 86.3267ZM145.901 86.3302C145.587 86.3974 145.145 86.5567 144.92 86.6845L144.509 86.9167L144.207 86.638L143.906 86.3593H142.45C141.073 86.3593 140.985 86.3687 140.838 86.5324C140.689 86.6988 140.683 86.9161 140.675 92.0554C140.667 97.155 140.674 97.4124 140.818 97.5573C140.953 97.6941 141.118 97.7093 142.461 97.7093C143.622 97.7093 143.989 97.6833 144.112 97.5925C144.264 97.4807 144.271 97.3469 144.275 94.4054C144.281 90.7007 144.329 90.4287 145.054 90.0556C145.7 89.7233 146.546 89.9618 146.854 90.5627C147.209 91.2566 147.267 91.9071 147.218 94.6158C147.166 97.4983 147.178 97.5759 147.705 97.6755C148.14 97.7579 150.281 97.6674 150.483 97.558C150.579 97.5062 150.695 97.3432 150.741 97.1959C150.909 96.6509 150.885 90.5474 150.71 89.5318C150.556 88.6406 150.186 87.9129 149.576 87.304C148.6 86.3289 147.397 86.0103 145.901 86.3302ZM175.742 86.3307C173.549 86.8017 172.061 88.2243 171.452 90.4305C171.117 91.6458 171.289 93.5075 171.842 94.6427C172.078 95.1279 172.298 95.3995 173.051 96.1349C174.122 97.1821 174.88 97.6224 175.987 97.8412C176.743 97.9907 178.233 97.9482 179.156 97.7511C179.874 97.5979 180.82 97.126 181.321 96.671C181.826 96.213 182.682 95.0753 182.932 94.5287C183.422 93.46 183.494 91.7443 183.104 90.4305C182.861 89.6095 181.877 87.9838 181.316 87.4749C180.806 87.0125 179.903 86.5705 179.044 86.3632C178.201 86.1596 176.612 86.144 175.742 86.3307ZM209.059 86.315C206.977 86.7108 205.624 88.604 205.624 91.1212C205.624 92.0062 205.735 92.5899 206.006 93.1424C206.308 93.7588 206.992 94.6478 207.435 95.001C207.922 95.3894 208.873 95.6971 209.999 95.8303C210.849 95.9309 211.334 95.8662 212.217 95.5345C212.489 95.4325 212.599 95.4234 212.686 95.496C212.974 95.7372 212.673 96.4031 212.164 96.6518C211.831 96.8145 211.712 96.8246 210.599 96.7848C209.396 96.7418 209.394 96.7414 208.06 96.2795C207.326 96.0253 206.63 95.8174 206.514 95.8175C206.083 95.8178 206.004 96.0371 205.97 97.3219C205.934 98.7164 205.985 98.8458 206.736 99.2491C207.964 99.9094 209.458 100.114 211.783 99.9416C214.003 99.7766 215.248 99.167 215.864 97.9427L216.085 97.5037L216.121 92.1577L216.157 86.8116L215.966 86.6372C215.795 86.481 215.646 86.4577 214.539 86.4146C213.495 86.3739 213.287 86.3858 213.2 86.4907C212.964 86.7783 212.824 86.7808 212.294 86.5071C211.803 86.2537 211.734 86.2413 210.72 86.2214C210.069 86.2086 209.428 86.2447 209.059 86.315ZM258.54 86.3229C257.873 86.4678 256.638 86.9842 256.445 87.1989C256.323 87.3352 256.294 87.5512 256.269 88.5375C256.241 89.6455 256.249 89.7236 256.411 89.887C256.648 90.1265 256.864 90.1071 258.165 89.7287C259.65 89.2968 260.698 89.1761 261.406 89.3554C261.973 89.4991 262.29 89.7672 262.29 90.1032C262.29 90.4076 262.053 90.4898 261.456 90.392C260.716 90.2708 259.486 90.2883 258.652 90.4316C256.394 90.8198 255.127 92.4497 255.426 94.5822C255.653 96.1983 256.687 97.3725 258.182 97.7118C258.741 97.8386 260.866 97.8481 261.28 97.7258C261.465 97.6714 261.751 97.5344 261.916 97.4213C262.081 97.3083 262.243 97.2158 262.276 97.2158C262.309 97.2158 262.405 97.3324 262.488 97.4749L262.64 97.7339L263.85 97.6838C265.091 97.6324 265.322 97.5775 265.47 97.2986C265.582 97.0874 265.654 90.8214 265.559 89.54C265.472 88.3609 265.273 87.8861 264.61 87.2749C264.068 86.7749 263.49 86.4802 262.737 86.3193C261.982 86.158 259.289 86.1603 258.54 86.3229ZM109.089 86.3418C109.021 86.3632 108.902 86.4372 108.824 86.5061C108.691 86.6231 108.681 86.9881 108.681 91.9648C108.681 97.1884 108.684 97.3014 108.844 97.4626C108.995 97.6145 109.116 97.627 110.434 97.627C112.071 97.627 112.131 97.6039 112.231 96.9323C112.262 96.7246 112.245 94.8807 112.193 92.8346C112.128 90.312 112.123 88.7607 112.178 88.0154C112.301 86.3172 112.316 86.3327 110.529 86.3155C109.804 86.3085 109.156 86.3203 109.089 86.3418ZM196.667 86.3653C196.561 86.4081 196.199 86.6666 195.862 86.9399C195.525 87.2132 195.19 87.4253 195.117 87.4113C195.02 87.3927 194.977 87.2761 194.959 86.9774C194.945 86.7528 194.894 86.5219 194.847 86.4641C194.783 86.3871 194.412 86.3593 193.443 86.3593C191.978 86.3593 191.837 86.4009 191.697 86.8736C191.654 87.0205 191.615 88.2324 191.612 89.5669C191.606 91.7449 191.538 96.0954 191.503 96.5167C191.464 96.9916 191.531 97.2402 191.757 97.4689L191.996 97.7093H193.146C194.453 97.7093 194.807 97.6173 194.951 97.2403C195.009 97.0886 195.03 96.2118 195.012 94.6662C194.984 92.3458 194.986 92.3178 195.178 91.8898C195.5 91.171 196.314 90.6119 197.192 90.5062C198.243 90.3798 198.286 90.2898 198.286 88.2513C198.286 86.6935 198.285 86.6791 198.086 86.4789C197.915 86.3058 197.813 86.2778 197.373 86.2822C197.09 86.2851 196.773 86.3224 196.667 86.3653ZM237.273 86.6444L237.009 86.9478L237.032 91.1996L237.056 95.4513L237.319 95.9903C237.666 96.7026 238.359 97.3736 238.995 97.6136C239.869 97.9435 241.338 97.828 242.419 97.3444C243.053 97.0605 243.202 97.0738 243.509 97.442L243.765 97.7504L245.058 97.7738C246.23 97.795 246.375 97.7818 246.611 97.6336C246.962 97.4137 247.06 97.0234 246.979 96.1726C246.942 95.7902 246.957 94.735 247.015 93.67C247.07 92.6573 247.117 90.6889 247.12 89.2959L247.125 86.763L246.927 86.5632C246.731 86.3661 246.711 86.3637 245.379 86.3819C244.047 86.4002 244.027 86.4031 243.819 86.6137C243.512 86.9237 243.452 87.3235 243.552 88.4125C243.654 89.5231 243.591 92.6733 243.459 93.1215C243.234 93.8806 242.567 94.2997 241.642 94.2637C241.324 94.2512 240.82 93.76 240.599 93.2468L240.414 92.8156L240.515 89.7814C240.615 86.7498 240.615 86.7469 240.445 86.5758C240.29 86.4186 240.162 86.4018 238.906 86.3728L237.537 86.341L237.273 86.6444ZM15.5523 89.2554C16.0901 89.5087 16.4402 90.1266 16.2329 90.4565C16.155 90.5805 14.2457 90.7466 13.7759 90.6701C13.1956 90.5756 13.0421 90.4742 13.0421 90.1849C13.0421 89.8687 13.2588 89.5662 13.6685 89.3109C14.2196 88.9673 14.898 88.9473 15.5523 89.2554ZM48.807 89.5787C50.4026 90.1809 50.9705 92.2973 49.8909 93.6176C48.7893 94.9648 46.5234 94.6059 45.7292 92.9584C45.5799 92.6484 45.5406 92.4261 45.5374 91.8698C45.5336 91.2362 45.5569 91.1283 45.7859 90.7183C46.4008 89.6173 47.6555 89.1441 48.807 89.5787ZM127.335 89.6403C127.873 89.9173 128.3 90.3529 128.572 90.9028C129.017 91.8 128.881 92.8947 128.233 93.6374C127.746 94.1955 127.217 94.4377 126.488 94.4377C125.194 94.4377 124.135 93.5581 123.941 92.3222C123.731 90.9786 124.396 89.9147 125.721 89.4744C126.08 89.3554 126.957 89.4456 127.335 89.6403ZM178.04 89.5796C178.358 89.6996 178.644 89.8926 178.927 90.1784C180.488 91.7524 179.505 94.44 177.37 94.44C176.647 94.44 176.105 94.2319 175.589 93.7562C175.004 93.2166 174.776 92.6919 174.769 91.8642C174.765 91.3276 174.798 91.1747 175.01 90.7562C175.576 89.6392 176.868 89.1373 178.04 89.5796ZM211.868 89.7135C212.44 90.0081 212.718 90.4955 212.718 91.2038C212.718 92.2511 212.085 92.8035 210.877 92.8113C210.284 92.8152 210.179 92.7913 209.823 92.5689C209.336 92.2644 209.048 91.7633 209.05 91.2195C209.051 90.7698 209.404 90.086 209.755 89.8539C210.349 89.461 211.26 89.4005 211.868 89.7135ZM67.867 93.1117C68.3254 93.2401 68.648 93.5925 68.648 93.9649C68.648 94.733 68.1385 95.039 66.9588 94.9793C66.0183 94.9316 65.526 94.7219 65.3918 94.3119C65.2107 93.7582 65.5767 93.2817 66.3243 93.0982C66.7024 93.0053 67.5125 93.0124 67.867 93.1117ZM261.411 93.1071C261.578 93.1538 261.826 93.2865 261.962 93.4018C262.168 93.5775 262.209 93.6711 262.209 93.9773C262.209 94.7413 261.702 95.0408 260.519 94.9767C259.612 94.9276 259.133 94.7404 258.982 94.3767C258.841 94.0349 258.96 93.5639 259.235 93.3825C259.728 93.0563 260.763 92.9254 261.411 93.1071ZM159.691 94.2148C159.515 94.3919 159.468 94.874 159.5 96.1701C159.538 97.7093 159.441 97.627 161.279 97.6857C163.172 97.7461 163.052 97.8496 163.119 96.0986C163.147 95.371 163.145 94.6778 163.116 94.5579C163.017 94.1605 162.729 94.0904 161.198 94.0904C160.072 94.0904 159.791 94.1136 159.691 94.2148ZM224.915 94.2683C224.808 94.4226 224.785 94.7071 224.785 95.868C224.785 97.7844 224.645 97.6461 226.599 97.6586C227.745 97.6658 228.144 97.6419 228.225 97.5614C228.303 97.4832 228.338 97.0543 228.357 95.9542C228.39 93.9947 228.533 94.1402 226.537 94.106C225.063 94.0807 225.044 94.0826 224.915 94.2683Z" fill="#00A650"/>
<path d="M204.672 6.36142C205.133 5.46353 206.514 5.12599 210.639 4.9031C210.908 4.88863 212.32 4.88468 213.778 4.89438C215.902 4.90853 216.513 4.93756 216.859 5.04045C217.836 5.33128 218.499 5.85568 218.713 6.50691C218.827 6.85095 218.836 7.43629 218.79 11.4882C218.757 14.3331 218.704 16.1891 218.651 16.3675C218.531 16.7646 217.991 17.5506 217.665 17.8014C216.998 18.3146 217.175 18.3003 211.495 18.3003C205.793 18.3003 205.812 18.3018 205.23 17.7994C204.843 17.4649 204.641 17.0484 204.406 16.1015C204.233 15.4029 204.229 15.2735 204.259 11.4134C204.292 7.25996 204.307 7.07334 204.672 6.36142Z" fill="#00A650"/>
<path d="M204.672 6.36152C205.133 5.46363 206.514 5.12609 210.639 4.9032C210.908 4.88873 212.32 4.88478 213.778 4.89448C215.902 4.90863 216.513 4.93766 216.859 5.04055C217.836 5.33138 218.499 5.85578 218.713 6.50701C218.827 6.85105 218.836 7.43639 218.79 11.4883C218.757 14.3332 218.704 16.1892 218.651 16.3676C218.531 16.7647 217.991 17.5507 217.665 17.8015C216.998 18.3147 217.175 18.3004 211.495 18.3004C205.793 18.3004 205.812 18.3019 205.23 17.7995C204.843 17.465 204.641 17.0485 204.406 16.1016C204.233 15.403 204.229 15.2736 204.259 11.4135C204.292 7.26006 204.307 7.07344 204.672 6.36152Z" fill="#F26522"/>
<path fill-rule="evenodd" clip-rule="evenodd" d="M108.84 82.394C108.934 82.2737 109.111 82.1599 109.233 82.1412C109.355 82.1224 109.973 82.1016 110.606 82.0948C111.658 82.0835 111.776 82.0972 111.972 82.253C112.186 82.4231 112.187 82.4255 112.187 83.6164V84.8093L111.948 85.0497L111.71 85.2901H110.408L110.191 85.2903C109.43 85.2917 109.064 85.2924 108.884 85.1098C108.718 84.9409 108.712 84.6151 108.699 83.988L108.695 83.7944C108.671 82.698 108.682 82.597 108.84 82.394ZM95.651 83.9213C95.7546 83.8262 95.8943 83.7261 95.9616 83.6989C96.0288 83.6716 96.6424 83.6577 97.325 83.6679L97.4777 83.67H97.4778C98.2172 83.6802 98.5802 83.6853 98.7626 83.8693C98.9384 84.0467 98.9465 84.3904 98.9623 85.0656L98.9657 85.2104C98.967 85.2599 98.968 85.3073 98.9691 85.3529C98.9698 85.3845 98.9704 85.4151 98.9711 85.4449C98.9834 86.0149 98.9885 86.2538 99.1097 86.3594C99.1972 86.4355 99.345 86.4423 99.5993 86.4541C99.6444 86.4562 99.6927 86.4584 99.7446 86.4612C100.07 86.4786 100.174 86.5238 100.307 86.7034C100.451 86.8991 100.468 87.0385 100.454 87.9339C100.434 89.2426 100.394 89.3235 99.7121 89.4615C99.1438 89.5764 99.024 89.6759 98.8964 90.1388C98.7932 90.5137 98.7905 93.6851 98.8932 93.9576C98.9498 94.1076 99.0672 94.1895 99.3212 94.2557C99.9263 94.4134 99.9549 94.4269 100.044 94.5941C100.091 94.6841 100.137 95.2699 100.145 95.8958C100.159 96.9296 100.146 97.0507 99.9975 97.2186C99.6574 97.6042 99.2656 97.7055 98.1071 97.7075C97.5158 97.7085 96.9288 97.67 96.8026 97.622C96.4722 97.4964 96.0592 97.0706 95.8313 96.6209C95.4247 95.8183 95.3908 95.5 95.3908 92.4752C95.3908 90.0264 95.3742 89.6441 95.2627 89.5316C95.1922 89.4606 95.0848 89.4024 95.024 89.4024C94.9632 89.4024 94.8374 89.3049 94.7445 89.1857C94.5926 88.9909 94.5755 88.8574 94.5755 87.866C94.5755 86.8046 94.5831 86.7555 94.7757 86.5612C94.9157 86.4198 95.0659 86.3593 95.2763 86.3593H95.5768L95.5198 85.2267C95.4638 84.1135 95.466 84.0912 95.651 83.9213ZM28.8384 87.6662C29.6434 86.8054 30.5134 86.4304 32.2431 86.1989C33.2873 86.0591 33.9007 86.1435 34.226 86.4716C34.4364 86.6838 34.4373 86.6906 34.4184 87.8997L34.3995 89.1146L34.1705 89.3274C33.9713 89.5125 33.8272 89.5519 33.0618 89.6299C31.6869 89.7702 31.2215 90.0947 30.9265 91.1182C30.4561 92.7503 31.7142 94.3622 33.627 94.5786C33.9736 94.6178 34.2856 94.6813 34.3203 94.7197C34.355 94.7581 34.4032 95.3447 34.4274 96.0232C34.4803 97.5059 34.4203 97.7336 33.9412 97.8677C33.2732 98.0548 31.4613 97.9159 30.7187 97.6207C30.1403 97.3908 29.2981 96.8203 28.8334 96.3438C28.3928 95.8921 27.8803 94.9038 27.6862 94.1316C27.222 92.285 27.3663 90.1744 28.0537 88.7568C28.1975 88.4603 28.5366 87.9889 28.8384 87.6662ZM82.3654 86.9106C82.8195 86.6421 83.6754 86.385 84.5876 86.2428C85.8962 86.0389 86.6138 86.1211 86.9193 86.5099C87.0813 86.7161 87.0897 86.8035 87.0581 87.9536C87.0252 89.1536 87.0203 89.1816 86.8108 89.3633C86.6422 89.5096 86.4538 89.5605 85.9185 89.6044C85.5452 89.635 85.0381 89.7168 84.7915 89.7863C83.1274 90.2544 83.056 92.8887 84.6768 94.0136C85.1293 94.3275 85.8906 94.5839 86.3705 94.5839C86.5583 94.5839 86.7935 94.6416 86.8932 94.712C87.0678 94.8354 87.0744 94.8886 87.0744 96.178C87.0744 97.5106 87.0735 97.5169 86.8637 97.7156C86.6605 97.9079 86.6125 97.9147 85.498 97.9085C84.116 97.9008 83.5472 97.7728 82.6806 97.2744C81.7821 96.7576 81.1905 96.1414 80.7981 95.3135C80.2425 94.141 80.1189 93.5244 80.1168 91.9109C80.1146 90.307 80.2439 89.6552 80.7612 88.6622C81.0872 88.0364 81.8266 87.229 82.3654 86.9106ZM10.0748 89.001C10.7268 87.6622 11.932 86.6488 13.2576 86.3251C13.9012 86.1679 15.475 86.165 16.1259 86.3199C16.9851 86.5242 17.5079 86.8301 18.227 87.5496C18.9756 88.2986 19.3644 88.9927 19.6566 90.1015C19.8881 90.9803 19.9132 92.2877 19.7059 92.6703C19.4313 93.1773 19.3753 93.1857 16.3112 93.1857C13.2986 93.1857 13.1235 93.2083 13.1235 93.5958C13.1235 93.8771 13.3681 94.1053 13.9798 94.3941C14.4573 94.6196 14.5024 94.6251 15.8956 94.6251C17.3012 94.6251 17.3334 94.621 18.0531 94.3578C18.9486 94.0302 19.2555 94.0179 19.5338 94.2986C19.7375 94.5041 19.7398 94.5219 19.7136 95.6238L19.6869 96.7408L19.4033 96.9794C19.0924 97.2411 18.5174 97.4806 17.6934 97.6916C17.0155 97.8652 14.5174 97.882 13.6251 97.719C11.885 97.401 10.2523 95.8905 9.65233 94.0437C9.43089 93.3621 9.41385 93.2201 9.41564 92.0754C9.418 90.6174 9.52041 90.1398 10.0748 89.001ZM43.7393 87.7702C44.5521 86.9906 45.6483 86.4604 46.8784 86.2518C46.9905 86.2327 47.5408 86.2124 48.1014 86.2066C49.7098 86.1898 51.0914 86.6224 52.039 87.4395C52.4637 87.8057 53.4084 89.2521 53.7023 89.9861C54.2756 91.4177 54.2688 93.2935 53.6859 94.5364C53.4372 95.0666 52.5029 96.3153 52.0638 96.7042C51.6323 97.0865 50.5342 97.621 49.9041 97.7556C49.6077 97.8189 48.9249 97.8931 48.3867 97.9204C46.5516 98.0137 45.3652 97.5942 44.0531 96.3883C42.6139 95.0655 42.3233 94.497 42.063 92.4951C41.9498 91.6248 42.0447 90.8642 42.389 89.8827C42.7001 88.9959 43.0784 88.4042 43.7393 87.7702ZM62.8878 87.1949C63.0872 86.9728 64.2757 86.4753 64.9627 86.3266C65.7283 86.1607 68.4123 86.1561 69.1764 86.3193C69.9295 86.4802 70.507 86.7749 71.0495 87.2749C71.7158 87.8893 71.9145 88.3656 71.998 89.548C72.086 90.7963 72.0092 97.1095 71.9035 97.3086C71.7613 97.5766 71.5195 97.6328 70.2896 97.6838L69.0791 97.7339L68.9274 97.4749C68.844 97.3324 68.7486 97.2158 68.7154 97.2158C68.6822 97.2158 68.52 97.3083 68.3549 97.4213C68.1898 97.5344 67.9038 97.6714 67.7194 97.7258C67.3049 97.8482 65.18 97.8386 64.6213 97.7118C63.1423 97.3761 62.1116 96.2285 61.868 94.646C61.562 92.6583 62.6239 91.0632 64.617 90.5165C65.2697 90.3375 67.0623 90.2611 67.8152 90.3801C68.4764 90.4847 68.7294 90.4167 68.7294 90.1343C68.7294 89.4854 67.8433 89.1635 66.4794 89.3169C65.6873 89.4059 65.3525 89.484 64.1389 89.8622C63.3569 90.1059 63.0728 90.1116 62.8514 89.8883C62.6914 89.7269 62.6826 89.6439 62.7088 88.5397C62.7326 87.5345 62.7587 87.3388 62.8878 87.1949ZM120.63 90.3399C121.252 88.1753 122.692 86.8103 124.865 86.3267C125.63 86.1566 127.674 86.1954 128.371 86.3934C129.117 86.6051 129.973 87.0526 130.437 87.473C130.991 87.9752 131.952 89.5335 132.224 90.3676C132.387 90.8699 132.439 91.2258 132.468 92.0343C132.527 93.7102 132.265 94.4945 131.188 95.8588C130.522 96.7025 130.234 96.946 129.431 97.3454C128.358 97.8791 126.442 98.1001 125.15 97.8393C123.996 97.6062 123.275 97.1977 122.221 96.1789C121.442 95.4251 121.272 95.2122 120.992 94.6358C120.404 93.4253 120.254 91.6477 120.63 90.3399ZM144.919 86.6845C145.145 86.5568 145.587 86.3974 145.901 86.3303C147.397 86.0103 148.6 86.3289 149.576 87.304C150.186 87.9129 150.556 88.6406 150.71 89.5318C150.884 90.5474 150.909 96.651 150.74 97.1959C150.695 97.3432 150.579 97.5062 150.483 97.5581C150.28 97.6674 148.14 97.7579 147.705 97.6755C147.178 97.5759 147.166 97.4983 147.218 94.6158C147.267 91.9071 147.209 91.2567 146.854 90.5627C146.546 89.9619 145.7 89.7233 145.054 90.0556C144.329 90.4287 144.28 90.7007 144.275 94.4055C144.27 97.3469 144.264 97.4807 144.112 97.5925C143.989 97.6833 143.622 97.7093 142.461 97.7093C141.118 97.7093 140.953 97.6941 140.817 97.5573C140.674 97.4124 140.667 97.155 140.675 92.0554C140.682 86.9161 140.689 86.6988 140.838 86.5324C140.985 86.3687 141.073 86.3593 142.45 86.3593H143.906L144.207 86.638L144.509 86.9167L144.919 86.6845ZM171.452 90.4305C172.06 88.2243 173.549 86.8017 175.742 86.3307C176.612 86.144 178.2 86.1596 179.044 86.3632C179.903 86.5705 180.806 87.0125 181.316 87.4749C181.877 87.9838 182.861 89.6095 183.104 90.4305C183.494 91.7443 183.422 93.46 182.932 94.5287C182.682 95.0753 181.826 96.213 181.321 96.671C180.82 97.126 179.874 97.5979 179.156 97.7511C178.233 97.9482 176.743 97.9907 175.987 97.8412C174.88 97.6224 174.122 97.1821 173.05 96.1349C172.298 95.3995 172.078 95.1279 171.841 94.6427C171.289 93.5075 171.116 91.6458 171.452 90.4305ZM205.624 91.1212C205.624 88.604 206.977 86.7108 209.058 86.315C209.428 86.2447 210.069 86.2086 210.72 86.2214C211.734 86.2413 211.802 86.2537 212.294 86.5071C212.824 86.7808 212.964 86.7783 213.2 86.4907C213.287 86.3858 213.495 86.3739 214.539 86.4146C215.646 86.4577 215.795 86.481 215.966 86.6372L216.157 86.8116L216.121 92.1577L216.085 97.5037L215.864 97.9427C215.248 99.167 214.003 99.7767 211.783 99.9416C209.458 100.114 207.964 99.9094 206.736 99.2491C205.985 98.8458 205.934 98.7164 205.97 97.3219C206.004 96.0371 206.083 95.8178 206.513 95.8175C206.63 95.8174 207.326 96.0253 208.06 96.2795C209.394 96.7414 209.396 96.7418 210.599 96.7848C211.712 96.8246 211.83 96.8145 212.164 96.6518C212.673 96.4031 212.974 95.7372 212.686 95.4961C212.599 95.4234 212.489 95.4325 212.217 95.5345C211.333 95.8662 210.849 95.9309 209.999 95.8303C208.873 95.6971 207.922 95.3894 207.435 95.001C206.992 94.6478 206.308 93.7588 206.006 93.1424C205.734 92.59 205.624 92.0062 205.624 91.1212ZM256.445 87.1989C256.638 86.9842 257.872 86.4678 258.539 86.3229C259.288 86.1603 261.982 86.158 262.737 86.3193C263.49 86.4802 264.068 86.7749 264.61 87.2749C265.273 87.8861 265.472 88.3609 265.559 89.54C265.654 90.8214 265.582 97.0874 265.47 97.2986C265.322 97.5775 265.091 97.6324 263.85 97.6838L262.64 97.7339L262.488 97.4749C262.405 97.3324 262.309 97.2158 262.276 97.2158C262.243 97.2158 262.081 97.3083 261.916 97.4213C261.75 97.5344 261.464 97.6714 261.28 97.7258C260.866 97.8481 258.741 97.8386 258.182 97.7119C256.687 97.3725 255.653 96.1984 255.426 94.5822C255.127 92.4497 256.394 90.8198 258.652 90.4316C259.486 90.2883 260.716 90.2709 261.456 90.392C262.053 90.4898 262.29 90.4076 262.29 90.1032C262.29 89.7673 261.973 89.4991 261.406 89.3554C260.698 89.1761 259.65 89.2968 258.165 89.7287C256.864 90.1071 256.648 90.1265 256.411 89.887C256.249 89.7236 256.241 89.6455 256.269 88.5375C256.294 87.5512 256.323 87.3352 256.445 87.1989ZM108.823 86.5061C108.902 86.4372 109.021 86.3632 109.088 86.3418C109.156 86.3203 109.804 86.3085 110.529 86.3155L110.577 86.316H110.577C111.452 86.3244 111.882 86.3285 112.079 86.545C112.269 86.7548 112.239 87.1641 112.181 87.97L112.177 88.0154C112.123 88.7607 112.128 90.3121 112.192 92.8346C112.245 94.8807 112.262 96.7247 112.231 96.9323C112.131 97.6039 112.071 97.6271 110.434 97.6271C109.116 97.6271 108.995 97.6146 108.844 97.4626C108.684 97.3014 108.681 97.1884 108.681 91.9648C108.681 86.9881 108.69 86.6231 108.823 86.5061ZM195.862 86.9399C196.199 86.6666 196.561 86.4081 196.667 86.3653C196.773 86.3224 197.09 86.2851 197.373 86.2822C197.813 86.2778 197.914 86.3058 198.086 86.479C198.285 86.6791 198.286 86.6935 198.286 88.2513C198.286 90.2899 198.242 90.3798 197.192 90.5062C196.314 90.6119 195.5 91.171 195.178 91.8898C194.986 92.3178 194.984 92.3459 195.011 94.6662C195.029 96.2118 195.009 97.0886 194.951 97.2403C194.807 97.6173 194.453 97.7093 193.146 97.7093H191.996L191.757 97.4689C191.531 97.2403 191.464 96.9916 191.503 96.5167C191.538 96.0954 191.606 91.745 191.612 89.5669C191.615 88.2325 191.654 87.0205 191.697 86.8736C191.837 86.4009 191.978 86.3593 193.443 86.3593C194.411 86.3593 194.783 86.3871 194.847 86.4642C194.894 86.5219 194.944 86.7528 194.958 86.9775C194.977 87.2761 195.02 87.3927 195.117 87.4113C195.19 87.4253 195.525 87.2132 195.862 86.9399ZM237.008 86.9478L237.273 86.6444L237.537 86.341L238.906 86.3728C240.162 86.4018 240.29 86.4186 240.445 86.5758C240.615 86.7469 240.615 86.7498 240.514 89.7814L240.414 92.8156L240.599 93.2468C240.82 93.76 241.324 94.2512 241.642 94.2637C242.567 94.2997 243.234 93.8806 243.459 93.1215C243.591 92.6733 243.654 89.5231 243.552 88.4125C243.452 87.3235 243.511 86.9237 243.819 86.6137C244.027 86.4031 244.047 86.4002 245.379 86.3819C246.711 86.3637 246.731 86.3661 246.927 86.5633L247.125 86.763L247.12 89.2959C247.117 90.6889 247.07 92.6573 247.015 93.67C246.957 94.735 246.942 95.7902 246.978 96.1726C247.06 97.0234 246.962 97.4137 246.611 97.6336C246.375 97.7818 246.23 97.795 245.058 97.7738L243.765 97.7504L243.508 97.442C243.202 97.0738 243.053 97.0605 242.419 97.3444C241.338 97.828 239.869 97.9435 238.995 97.6136C238.359 97.3736 237.666 96.7026 237.319 95.9903L237.055 95.4513L237.032 91.1996L237.008 86.9478ZM16.2327 90.4565C16.4401 90.1266 16.0899 89.5087 15.5521 89.2554C14.8978 88.9473 14.2194 88.9673 13.6683 89.3109C13.2586 89.5662 13.0419 89.8687 13.0419 90.1849C13.0419 90.4742 13.1955 90.5756 13.7757 90.6701C14.2455 90.7466 16.1548 90.5805 16.2327 90.4565ZM49.8908 93.6176C50.9704 92.2973 50.4024 90.1809 48.8069 89.5787C47.6553 89.1441 46.4007 89.6173 45.7857 90.7184C45.5567 91.1284 45.5335 91.2362 45.5372 91.8698C45.5405 92.4261 45.5797 92.6484 45.7291 92.9584C46.5232 94.6059 48.7892 94.9648 49.8908 93.6176ZM128.572 90.9028C128.3 90.3529 127.873 89.9173 127.335 89.6403C126.957 89.4456 126.08 89.3554 125.721 89.4744C124.395 89.9147 123.73 90.9786 123.941 92.3222C124.135 93.5581 125.194 94.4377 126.487 94.4377C127.217 94.4377 127.745 94.1955 128.232 93.6374C128.88 92.8948 129.016 91.8 128.572 90.9028ZM178.927 90.1784C178.644 89.8926 178.358 89.6996 178.04 89.5796C176.868 89.1373 175.576 89.6392 175.01 90.7562C174.798 91.1747 174.764 91.3276 174.769 91.8642C174.776 92.6919 175.004 93.2166 175.589 93.7562C176.105 94.2319 176.647 94.44 177.369 94.44C179.505 94.44 180.488 91.7524 178.927 90.1784ZM212.718 91.2039C212.718 90.4955 212.44 90.0081 211.867 89.7135C211.259 89.4005 210.349 89.4611 209.754 89.8539C209.403 90.086 209.05 90.7698 209.049 91.2195C209.048 91.7633 209.336 92.2644 209.823 92.5689C210.179 92.7913 210.284 92.8152 210.877 92.8114C212.085 92.8035 212.718 92.2511 212.718 91.2039ZM68.6478 93.9649C68.6478 93.5925 68.3252 93.2401 67.8668 93.1117C67.5123 93.0125 66.7022 93.0053 66.3241 93.0982C65.5765 93.2817 65.2105 93.7582 65.3916 94.3119C65.5258 94.7219 66.0181 94.9316 66.9586 94.9793C68.1383 95.039 68.6478 94.7331 68.6478 93.9649ZM261.961 93.4018C261.825 93.2865 261.578 93.1538 261.411 93.1071C260.762 92.9254 259.728 93.0563 259.234 93.3826C258.96 93.5639 258.84 94.0349 258.982 94.3768C259.133 94.7405 259.612 94.9276 260.519 94.9767C261.702 95.0408 262.208 94.7413 262.208 93.9773C262.208 93.6711 262.168 93.5775 261.961 93.4018ZM159.5 96.1701C159.468 94.874 159.515 94.3919 159.691 94.2148C159.791 94.1136 160.072 94.0905 161.198 94.0905C162.729 94.0905 163.017 94.1605 163.116 94.5579C163.145 94.6778 163.147 95.371 163.119 96.0986C163.115 96.2 163.112 96.2952 163.109 96.3845C163.086 97.0489 163.074 97.3896 162.898 97.5584C162.712 97.7361 162.344 97.7231 161.588 97.6963C161.491 97.6928 161.388 97.6892 161.279 97.6857C161.189 97.6828 161.103 97.6803 161.022 97.6779C160.232 97.6544 159.86 97.6434 159.682 97.4522C159.524 97.2828 159.517 96.9719 159.505 96.3855L159.505 96.3831C159.503 96.3158 159.502 96.2449 159.5 96.1701ZM224.785 95.868C224.785 94.7071 224.808 94.4226 224.915 94.2683C225.044 94.0826 225.063 94.0807 226.537 94.106C226.673 94.1083 226.799 94.1098 226.916 94.1112L226.917 94.1112C227.661 94.1201 228.031 94.1244 228.211 94.3115C228.388 94.4963 228.38 94.8593 228.364 95.581C228.363 95.6315 228.362 95.6837 228.361 95.7378C228.359 95.8069 228.358 95.879 228.357 95.9542C228.338 97.0543 228.303 97.4832 228.224 97.5614C228.144 97.6419 227.745 97.6658 226.599 97.6586C226.468 97.6577 226.346 97.6576 226.233 97.6574C225.5 97.6565 225.135 97.656 224.955 97.4737C224.778 97.2937 224.78 96.9366 224.783 96.2271C224.784 96.1162 224.785 95.9967 224.785 95.868Z" fill="#F26522"/>
</svg>
