<svg width="280" height="100" viewBox="0 0 280 100" fill="none" xmlns="http://www.w3.org/2000/svg">
<path d="M82.9717 31.3404L73.601 40.7187C73.407 40.9135 73.1649 41.0533 72.8994 41.124C72.634 41.1946 72.3545 41.1936 72.0896 41.1209C71.8247 41.0483 71.5837 40.9066 71.3911 40.7104C71.1986 40.5142 71.0614 40.2704 70.9936 40.0038L69.0698 32.3885C68.9475 31.9085 68.698 31.4704 68.3477 31.1207C67.9974 30.7709 67.5592 30.5224 67.0795 30.4014L59.82 28.5839C59.5527 28.5165 59.308 28.3792 59.1111 28.1859C58.9142 27.9927 58.7721 27.7505 58.6995 27.4842C58.6268 27.2178 58.6262 26.9369 58.6977 26.6703C58.7692 26.4036 58.9101 26.1608 59.1062 25.9667L68.3741 16.6732C68.558 16.489 68.7849 16.3537 69.0342 16.2796C69.2836 16.2056 69.5474 16.1951 69.8018 16.2491L80.0316 18.4422C80.3292 18.5042 80.6022 18.652 80.8172 18.8672C81.0321 19.0825 81.1796 19.3559 81.2415 19.6539L83.4012 29.953C83.4471 30.2018 83.432 30.4581 83.3572 30.6997C83.2824 30.9414 83.1501 31.1612 82.9717 31.3404Z" fill="#53575A"/>
<path d="M94.1876 62.6989L62.1733 94.7596C61.8372 95.0959 61.4197 95.3391 60.9616 95.4655C60.5036 95.5919 60.0206 95.5971 59.5599 95.4806L53.0929 93.8448L76.1357 70.7686C76.8891 71.103 77.7141 71.2434 78.5355 71.177C79.3569 71.1107 80.1487 70.8397 80.8388 70.3888C81.529 69.9378 82.0956 69.3212 82.4872 68.595C82.8787 67.8689 83.0827 67.0562 83.0806 66.2309C83.0983 64.9328 82.6061 63.6798 81.71 62.7417C80.8138 61.8036 79.5856 61.2557 78.2898 61.216C76.9941 61.1762 75.7347 61.6479 74.783 62.5293C73.8312 63.4107 73.2633 64.6313 73.2017 65.928C73.1522 66.6663 73.2723 67.4062 73.5526 68.0908L48.9067 92.7846L16.844 84.6725C16.3699 84.5459 15.9385 84.2941 15.5948 83.9435C15.2511 83.5929 15.0077 83.1563 14.89 82.6793L4.08545 39.9256C3.96742 39.4634 3.97173 38.9784 4.09798 38.5184C4.22422 38.0584 4.46802 37.6392 4.80534 37.3024L36.8196 5.24163C37.1558 4.90535 37.5733 4.66214 38.0313 4.53578C38.4894 4.40941 38.9724 4.40422 39.433 4.52069L46.1722 6.25338L35.5795 16.8312C34.6008 16.4186 33.5155 16.3327 32.4843 16.586C31.4531 16.8393 30.5307 17.4185 29.8538 18.2377C29.1769 19.057 28.7814 20.0728 28.726 21.1347C28.6706 22.1966 28.9581 23.2482 29.546 24.1336C30.1339 25.0191 30.9909 25.6915 31.9902 26.0511C32.9894 26.4107 34.0777 26.4386 35.094 26.1304C36.1102 25.8223 37.0004 25.1946 37.6326 24.3403C38.2648 23.486 38.6055 22.4505 38.6042 21.3871C38.6055 20.7229 38.4717 20.0653 38.211 19.4545L49.7052 7.97395C49.9162 7.76322 50.1781 7.61066 50.4653 7.53105C50.7525 7.45145 51.0554 7.44749 51.3446 7.51957L62.1431 10.264C62.4384 10.3382 62.7087 10.4896 62.9263 10.7028C63.144 10.9159 63.3012 11.1832 63.3818 11.4772C63.4624 11.7712 63.4636 12.0814 63.3852 12.376C63.3068 12.6706 63.1516 12.939 62.9356 13.1538L50.7155 25.3917C50.5054 25.6018 50.2444 25.7537 49.958 25.8323C49.6716 25.9109 49.3698 25.9135 49.0821 25.84L44.5328 24.6889C44.0721 24.5724 43.5892 24.5776 43.1311 24.704C42.673 24.8304 42.2555 25.0736 41.9194 25.4098L24.9806 42.4035C24.6364 42.7363 24.385 43.1535 24.2513 43.6136C24.1176 44.0738 24.1062 44.5609 24.2184 45.0267L28.7495 62.9594L40.2437 51.4789C40.4018 51.3184 40.5902 51.191 40.7979 51.104C41.0056 51.0171 41.2285 50.9723 41.4536 50.9723C41.6787 50.9723 41.9016 51.0171 42.1093 51.104C42.317 51.191 42.5054 51.3184 42.6635 51.4789L48.5013 57.3252C48.6623 57.4831 48.7902 57.6716 48.8775 57.8797C48.9648 58.0877 49.0097 58.3112 49.0097 58.5368C49.0097 58.7625 48.9648 58.9859 48.8775 59.194C48.7902 59.402 48.6623 59.5906 48.5013 59.7485L37.2733 70.9504L54.4662 75.3184C54.9278 75.4348 55.4117 75.4296 55.8707 75.3033C56.3297 75.1769 56.7483 74.9338 57.0857 74.5975L74.0244 57.6341C74.3727 57.2977 74.6261 56.8752 74.7589 56.4092C74.8916 55.9432 74.8992 55.4504 74.7806 54.9806L73.728 50.7943C73.6525 50.4987 73.6552 50.1884 73.7358 49.8942C73.8165 49.5999 73.9722 49.3318 74.1878 49.1161L86.3413 36.9449C86.5602 36.721 86.8348 36.5597 87.1368 36.4778C87.4388 36.3959 87.7572 36.3964 88.059 36.4792C88.3607 36.562 88.6349 36.7241 88.853 36.9488C89.0711 37.1734 89.2253 37.4523 89.2996 37.7567L94.9378 60.0817C95.0503 60.5456 95.0403 61.0309 94.9088 61.4898C94.7773 61.9487 94.5287 62.3654 94.1876 62.6989Z" fill="#53575A"/>
<path d="M59.9116 45.6682C59.9116 46.8664 59.5568 48.0377 58.8921 49.034C58.2273 50.0303 57.2825 50.8068 56.1771 51.2654C55.0717 51.7239 53.8553 51.8439 52.6818 51.6101C51.5083 51.3764 50.4304 50.7994 49.5844 49.9521C48.7383 49.1048 48.1622 48.0253 47.9287 46.8501C47.6953 45.6749 47.8151 44.4568 48.273 43.3498C48.7309 42.2428 49.5063 41.2966 50.5011 40.6309C51.496 39.9652 52.6656 39.6099 53.8621 39.6099C55.4665 39.6099 57.0052 40.2482 58.1397 41.3843C59.2743 42.5205 59.9116 44.0614 59.9116 45.6682Z" fill="#53575A"/>
<path d="M160.025 35.9386C162.989 35.9386 165.851 35.8478 168.694 36.0356C169.166 36.0356 169.565 37.3199 170.092 38.1681C170.503 37.9137 171.053 37.5623 171.616 37.2351C177.23 34.0545 182.953 34.006 188.555 37.0231C192.348 39.0587 194.078 42.6513 194.604 46.7831C195.282 51.8721 195.034 56.8641 191.9 61.214C188.555 65.8608 183.764 67.1815 178.325 66.7574C175.165 66.5688 172.161 65.3155 169.801 63.2012C169.678 63.7763 169.595 64.3593 169.553 64.946C169.644 68.0599 169.735 71.18 169.886 74.294C169.946 75.4632 169.759 76.166 168.343 76.1115C166.02 76.0327 163.691 76.0691 161.368 76.1115C160.273 76.1115 159.729 75.8267 160.08 74.5969C160.221 74.002 160.278 73.3902 160.249 72.7794C160.249 61.4988 160.249 50.2181 160.249 38.9375C160.249 38.0348 160.122 37.1503 160.025 35.9386ZM176.607 59.5056C181.549 59.5056 183.975 57.6881 184.943 54.0531C185.175 53.1044 185.324 52.1376 185.391 51.1632C185.772 47.2556 183.848 43.7781 180.648 42.724C177.448 41.6698 174.429 42.1969 172.082 44.7596C169.426 47.6676 168.972 51.0966 170.509 54.6529C171.87 57.8274 174.417 59.4329 176.607 59.5056Z" fill="#E34581"/>
<path d="M206.801 38.6648C209.366 37.538 211.707 36.1324 214.242 35.5145C216.389 35.0481 218.611 35.0481 220.757 35.5145C225.53 36.4778 228.204 39.8886 228.283 44.7777C228.368 50.109 228.283 55.4404 228.331 60.7717C228.346 62.0549 228.443 63.3358 228.622 64.6066C228.803 65.9516 228.555 66.7089 226.958 66.6422C224.756 66.5453 222.548 66.5514 220.346 66.6422C218.876 66.7028 218.634 66.0364 218.676 64.746C218.834 59.5479 218.947 54.3478 219.015 49.1457C219.045 47.0435 219.051 44.7535 216.753 43.7538C214.454 42.7542 212.215 43.3237 210.201 44.7959C207.854 46.5043 206.372 48.5278 206.571 51.7084C206.886 56.1007 206.825 60.5173 206.976 64.9156C207.013 66.0182 206.801 66.6665 205.506 66.6362C203.183 66.5756 200.854 66.5816 198.531 66.6362C197.152 66.6362 196.856 66.0667 197.073 64.8187C197.255 63.7338 197.34 62.635 197.327 61.535C197.327 50.7431 197.327 39.9573 197.327 29.1775C197.302 28.078 197.207 26.9813 197.043 25.8938C196.922 24.9548 197.237 24.5125 198.217 24.5247C200.727 24.5247 203.238 24.5247 205.742 24.5247C207.249 24.5247 206.952 25.5182 206.916 26.4391C206.819 30.4134 206.747 34.3876 206.674 38.3619C206.692 38.5376 206.807 38.7012 206.801 38.6648Z" fill="#E34581"/>
<path d="M134.841 39.2648C135.706 38.659 136.329 38.2773 136.898 37.8351C140.764 34.8059 145.137 34.5939 149.602 35.7086C153.661 36.7203 156.226 40.4401 156.257 44.99C156.311 50.5091 156.287 56.0222 156.299 61.5413C156.299 62.2744 156.299 63.0135 156.365 63.7466C156.644 66.6425 156.65 66.6425 153.819 66.6425C152.04 66.6425 150.261 66.5698 148.495 66.6425C147.037 66.7212 146.589 66.1881 146.638 64.7341C146.807 59.536 146.886 54.3319 146.94 49.1278C146.94 47.0256 147.001 44.7052 144.696 43.7359C143.644 43.2964 142.492 43.1533 141.365 43.322C140.238 43.4907 139.179 43.9648 138.301 44.6931C135.948 46.4621 134.345 48.4796 134.581 51.7511C134.908 56.2039 134.841 60.6811 134.974 65.146C135.004 66.1093 134.762 66.6606 133.673 66.6485C131.254 66.6485 128.779 66.6061 126.329 66.6485C125.119 66.6485 124.998 65.976 125.011 64.9885C125.132 56.5069 125.283 47.9646 125.283 39.4526C125.283 35.9449 125.125 35.9449 128.664 35.9449C129.874 35.9449 131.121 36.0357 132.337 35.9449C133.994 35.7934 134.956 36.2114 134.641 38.1137C134.664 38.5037 134.731 38.8899 134.841 39.2648Z" fill="#E34581"/>
<path d="M257.096 43.8933H245.082C245.082 41.3609 245.033 38.9315 245.142 36.5021C245.142 36.181 245.959 35.6357 246.394 35.6357C253.908 35.6842 261.424 35.7912 268.941 35.9568C269.218 36.0326 269.471 36.1782 269.675 36.3797C269.879 36.5813 270.029 36.832 270.109 37.1079C270.275 38.7536 270.275 40.4119 270.109 42.0576C270.018 42.8088 269.371 43.554 268.832 44.178C265.021 48.5582 261.161 52.9081 257.338 57.2822C257.049 57.693 256.794 58.1265 256.576 58.5787C257.532 58.6453 258.227 58.7483 258.923 58.7301C262.462 58.6453 266.007 58.5484 269.54 58.403C270.556 58.3666 271.016 58.712 270.998 59.754C270.968 61.5291 270.919 63.3102 270.998 65.0793C271.077 66.5393 270.544 66.9816 269.092 66.9452C262.129 66.7938 255.178 66.7332 248.191 66.6423H247.828C246.618 66.6423 244.719 67.0785 244.398 66.5514C243.793 65.5397 244.162 63.9767 244.005 62.6559C243.727 60.3538 244.61 58.7362 246.213 57.0338C250.085 52.9686 253.636 48.6066 257.32 44.3598L257.096 43.8933Z" fill="#E34581"/>
<path d="M110.564 66.6424V24.5612C113.753 24.5612 116.965 24.5248 120.177 24.6278C120.474 24.6278 120.988 25.579 120.988 26.0879C120.939 38.459 120.788 50.8301 120.782 63.2012C120.782 66.6363 120.976 66.6363 117.485 66.6424H110.564Z" fill="#E34581"/>
<path d="M232.19 66.4667V36.072H241.966V66.4667H232.19Z" fill="#E34581"/>
<path d="M236.994 24.5429C238.204 24.4733 239.417 24.4935 240.624 24.6035C241.114 24.6823 241.501 25.4214 241.925 25.8636C241.961 25.9 241.925 25.9848 241.925 26.0454C242.251 31.6796 242.251 31.6796 236.48 31.6857C232.155 31.6857 232.149 31.6857 232.155 27.6811C232.155 24.0946 231.901 24.5732 235.306 24.5369C235.893 24.5308 236.444 24.5369 236.994 24.5429Z" fill="#E34581"/>
</svg>
