<svg width="192" height="100" viewBox="0 0 192 100" fill="none" xmlns="http://www.w3.org/2000/svg">
<rect width="192" height="100" fill="#FBFBFC"/>
<path d="M75.1665 42.904L71.5867 46.4704C71.5126 46.5444 71.4201 46.5976 71.3187 46.6245C71.2173 46.6513 71.1105 46.6509 71.0093 46.6233C70.9081 46.5957 70.816 46.5418 70.7425 46.4672C70.669 46.3926 70.6166 46.2999 70.5906 46.1985L69.8557 43.3025C69.809 43.12 69.7137 42.9534 69.5798 42.8204C69.446 42.6874 69.2786 42.5929 69.0954 42.5469L66.3221 41.8557C66.22 41.8301 66.1265 41.7779 66.0513 41.7044C65.9761 41.6309 65.9218 41.5388 65.894 41.4375C65.8663 41.3362 65.866 41.2294 65.8934 41.128C65.9207 41.0266 65.9745 40.9343 66.0494 40.8604L69.5899 37.3263C69.6602 37.2562 69.7469 37.2048 69.8421 37.1766C69.9374 37.1485 70.0382 37.1445 70.1354 37.165L74.0433 37.999C74.157 38.0226 74.2613 38.0788 74.3434 38.1606C74.4255 38.2425 74.4819 38.3465 74.5055 38.4598L75.3306 42.3764C75.3481 42.471 75.3423 42.5684 75.3138 42.6603C75.2852 42.7522 75.2346 42.8358 75.1665 42.904Z" fill="#3D4346"/>
<path d="M79.4525 54.829L67.2224 67.0211C67.094 67.1489 66.9345 67.2414 66.7595 67.2895C66.5845 67.3375 66.4 67.3395 66.224 67.2952L63.7535 66.6732L72.5563 57.8977C72.8441 58.0249 73.1592 58.0783 73.473 58.053C73.7868 58.0278 74.0893 57.9248 74.353 57.7533C74.6166 57.5818 74.8331 57.3473 74.9827 57.0712C75.1322 56.795 75.2102 56.486 75.2094 56.1721C75.2161 55.6785 75.0281 55.202 74.6857 54.8453C74.3434 54.4885 73.8742 54.2802 73.3792 54.265C72.8842 54.2499 72.4031 54.4293 72.0395 54.7645C71.6759 55.0997 71.459 55.5638 71.4354 56.0569C71.4165 56.3377 71.4624 56.6191 71.5695 56.8794L62.1542 66.27L49.9057 63.1851C49.7246 63.137 49.5598 63.0412 49.4285 62.9079C49.2972 62.7746 49.2042 62.6085 49.1592 62.4271L45.0317 46.1687C44.9866 45.993 44.9882 45.8085 45.0365 45.6336C45.0847 45.4586 45.1778 45.2993 45.3067 45.1712L57.5368 32.9791C57.6652 32.8512 57.8247 32.7587 57.9997 32.7107C58.1746 32.6626 58.3591 32.6606 58.5351 32.7049L61.1096 33.3638L57.063 37.3864C56.6891 37.2295 56.2745 37.1968 55.8806 37.2931C55.4866 37.3894 55.1343 37.6097 54.8757 37.9212C54.6171 38.2328 54.466 38.6191 54.4448 39.0229C54.4237 39.4267 54.5335 39.8266 54.7581 40.1633C54.9827 40.5001 55.3101 40.7558 55.6918 40.8925C56.0735 41.0293 56.4893 41.0399 56.8775 40.9227C57.2658 40.8055 57.6058 40.5668 57.8473 40.2419C58.0889 39.917 58.219 39.5233 58.2185 39.1189C58.219 38.8663 58.1679 38.6162 58.0683 38.384L62.4593 34.0181C62.5399 33.938 62.6399 33.88 62.7497 33.8497C62.8594 33.8194 62.9751 33.8179 63.0856 33.8453L67.2108 34.889C67.3236 34.9172 67.4269 34.9748 67.51 35.0558C67.5932 35.1369 67.6532 35.2385 67.684 35.3503C67.7148 35.4621 67.7153 35.5801 67.6853 35.6921C67.6554 35.8042 67.5961 35.9062 67.5136 35.9879L62.8452 40.6418C62.765 40.7217 62.6653 40.7794 62.5559 40.8093C62.4465 40.8392 62.3312 40.8402 62.2213 40.8122L60.4834 40.3745C60.3074 40.3302 60.1229 40.3322 59.9479 40.3802C59.7729 40.4283 59.6134 40.5208 59.485 40.6487L53.014 47.111C52.8825 47.2376 52.7865 47.3962 52.7354 47.5712C52.6843 47.7462 52.68 47.9314 52.7228 48.1086L54.4538 54.928L58.8448 50.5622C58.9052 50.5012 58.9772 50.4527 59.0565 50.4197C59.1359 50.3866 59.221 50.3696 59.307 50.3696C59.393 50.3696 59.4782 50.3866 59.5575 50.4197C59.6369 50.4527 59.7088 50.5012 59.7692 50.5622L61.9994 52.7854C62.0609 52.8455 62.1097 52.9172 62.1431 52.9963C62.1764 53.0754 62.1936 53.1604 62.1936 53.2462C62.1936 53.332 62.1764 53.417 62.1431 53.4961C62.1097 53.5752 62.0609 53.6469 61.9994 53.707L57.7101 57.9669L64.2781 59.6279C64.4544 59.6722 64.6393 59.6702 64.8146 59.6222C64.99 59.5741 65.1499 59.4817 65.2788 59.3538L71.7497 52.9029C71.8828 52.775 71.9796 52.6143 72.0303 52.4371C72.081 52.2599 72.0839 52.0725 72.0386 51.8939L71.6365 50.3019C71.6076 50.1895 71.6087 50.0715 71.6395 49.9596C71.6703 49.8477 71.7298 49.7457 71.8121 49.6637L76.455 45.0352C76.5386 44.9501 76.6435 44.8887 76.7589 44.8576C76.8743 44.8264 76.9959 44.8266 77.1112 44.8581C77.2265 44.8896 77.3312 44.9513 77.4145 45.0367C77.4979 45.1221 77.5568 45.2282 77.5851 45.3439L79.739 53.8337C79.782 54.0101 79.7782 54.1947 79.728 54.3692C79.6777 54.5437 79.5828 54.7021 79.4525 54.829Z" fill="#3D4346"/>
<path d="M66.3584 48.3525C66.3584 48.8081 66.2229 49.2535 65.9689 49.6324C65.715 50.0113 65.3541 50.3066 64.9318 50.481C64.5095 50.6553 64.0448 50.7009 63.5965 50.6121C63.1482 50.5232 62.7364 50.3037 62.4132 49.9815C62.09 49.6593 61.8699 49.2488 61.7807 48.8019C61.6916 48.355 61.7373 47.8918 61.9122 47.4708C62.0872 47.0498 62.3834 46.69 62.7634 46.4369C63.1435 46.1837 63.5903 46.0486 64.0474 46.0486C64.6603 46.0486 65.2481 46.2913 65.6815 46.7234C66.1149 47.1554 66.3584 47.7414 66.3584 48.3525Z" fill="#3D4346"/>
<path d="M104.605 44.6527C105.737 44.6527 106.83 44.6181 107.916 44.6896C108.097 44.6896 108.249 45.178 108.45 45.5005C108.607 45.4038 108.818 45.2701 109.033 45.1457C111.177 43.9362 113.364 43.9178 115.504 45.0651C116.953 45.8392 117.614 47.2054 117.815 48.7766C118.073 50.7119 117.979 52.6103 116.782 54.2644C115.504 56.0315 113.673 56.5338 111.596 56.3725C110.388 56.3007 109.241 55.8241 108.339 55.0201C108.292 55.2388 108.261 55.4605 108.245 55.6836C108.279 56.8678 108.314 58.0543 108.372 59.2385C108.395 59.6831 108.323 59.9504 107.782 59.9297C106.895 59.8997 106.005 59.9135 105.118 59.9297C104.699 59.9297 104.491 59.8214 104.625 59.3537C104.679 59.1274 104.701 58.8948 104.69 58.6625C104.69 54.3727 104.69 50.0829 104.69 45.7931C104.69 45.4498 104.642 45.1135 104.605 44.6527ZM110.939 53.6147C112.827 53.6147 113.754 52.9236 114.124 51.5413C114.212 51.1805 114.269 50.8128 114.295 50.4423C114.44 48.9563 113.706 47.6339 112.483 47.233C111.26 46.8322 110.107 47.0326 109.211 48.0071C108.196 49.113 108.023 50.417 108.61 51.7693C109.13 52.9766 110.103 53.5871 110.939 53.6147Z" fill="#3D4346"/>
<path d="M122.472 45.6891C123.452 45.2606 124.347 44.7261 125.315 44.4911C126.135 44.3137 126.984 44.3137 127.804 44.4911C129.627 44.8574 130.649 46.1545 130.679 48.0137C130.711 50.0411 130.679 52.0685 130.697 54.0959C130.703 54.5839 130.74 55.071 130.808 55.5543C130.878 56.0657 130.783 56.3537 130.173 56.3284C129.331 56.2915 128.488 56.2938 127.647 56.3284C127.085 56.3514 126.993 56.098 127.009 55.6073C127.069 53.6305 127.112 51.653 127.138 49.6748C127.15 48.8753 127.152 48.0045 126.274 47.6243C125.396 47.2442 124.541 47.4608 123.771 48.0206C122.874 48.6703 122.308 49.4398 122.384 50.6493C122.505 52.3196 122.482 53.9992 122.539 55.6718C122.553 56.0911 122.472 56.3376 121.978 56.3261C121.09 56.303 120.201 56.3053 119.313 56.3261C118.786 56.3261 118.673 56.1095 118.756 55.6349C118.825 55.2223 118.858 54.8045 118.853 54.3862C118.853 50.2822 118.853 46.1806 118.853 42.0812C118.843 41.6631 118.807 41.2461 118.745 40.8325C118.698 40.4754 118.819 40.3073 119.193 40.3119C120.152 40.3119 121.111 40.3119 122.068 40.3119C122.643 40.3119 122.53 40.6897 122.516 41.0399C122.479 42.5512 122.451 44.0626 122.424 45.5739C122.431 45.6407 122.475 45.7029 122.472 45.6891Z" fill="#3D4346"/>
<path d="M94.9823 45.9171C95.3128 45.6867 95.5508 45.5416 95.7681 45.3734C97.2448 44.2215 98.9157 44.1408 100.621 44.5647C102.172 44.9495 103.152 46.3641 103.163 48.0943C103.184 50.1931 103.175 52.2896 103.18 54.3884C103.18 54.6672 103.18 54.9483 103.205 55.227C103.311 56.3283 103.314 56.3283 102.232 56.3283C101.553 56.3283 100.873 56.3006 100.198 56.3283C99.6414 56.3582 99.4704 56.1555 99.4889 55.6026C99.5536 53.6259 99.5836 51.6468 99.6044 49.6678C99.6044 48.8684 99.6275 47.986 98.747 47.6174C98.3452 47.4502 97.9053 47.3958 97.4747 47.46C97.0442 47.5241 96.6394 47.7044 96.3042 47.9814C95.4052 48.6541 94.7928 49.4213 94.8829 50.6654C95.0077 52.3587 94.9823 54.0613 95.0332 55.7592C95.0447 56.1256 94.9523 56.3352 94.5363 56.3306C93.6119 56.3306 92.6666 56.3145 91.7307 56.3306C91.2685 56.3306 91.2222 56.0749 91.2268 55.6993C91.2731 52.4739 91.3308 49.2255 91.3308 45.9885C91.3308 44.6546 91.2708 44.6546 92.6227 44.6546C93.0849 44.6546 93.561 44.6891 94.0255 44.6546C94.6588 44.597 95.0262 44.756 94.906 45.4794C94.9148 45.6277 94.9404 45.7745 94.9823 45.9171Z" fill="#3D4346"/>
<path d="M141.687 47.6778H137.097C137.097 46.7148 137.078 45.7909 137.12 44.8671C137.12 44.7449 137.432 44.5376 137.598 44.5376C140.469 44.556 143.34 44.5967 146.212 44.6597C146.317 44.6885 146.414 44.7439 146.492 44.8205C146.57 44.8972 146.627 44.9925 146.658 45.0974C146.721 45.7233 146.721 46.3539 146.658 46.9797C146.623 47.2654 146.376 47.5488 146.17 47.7861C144.714 49.4518 143.24 51.1059 141.779 52.7693C141.669 52.9255 141.571 53.0904 141.488 53.2624C141.853 53.2877 142.119 53.3269 142.384 53.32C143.736 53.2877 145.091 53.2508 146.44 53.1955C146.829 53.1817 147.004 53.313 146.997 53.7093C146.986 54.3843 146.967 55.0617 146.997 55.7344C147.027 56.2896 146.824 56.4578 146.269 56.444C143.609 56.3864 140.954 56.3634 138.285 56.3288H138.146C137.684 56.3288 136.958 56.4947 136.836 56.2942C136.605 55.9095 136.746 55.3151 136.685 54.8129C136.579 53.9374 136.917 53.3223 137.529 52.6749C139.008 51.129 140.365 49.4702 141.772 47.8552L141.687 47.6778Z" fill="#3D4346"/>
<path d="M85.709 56.3288V40.3261C86.9269 40.3261 88.1541 40.3123 89.3812 40.3514C89.4945 40.3514 89.6909 40.7131 89.6909 40.9067C89.6724 45.6112 89.6147 50.3157 89.6123 55.0202C89.6123 56.3265 89.6863 56.3265 88.3528 56.3288H85.709Z" fill="#3D4346"/>
<path d="M132.172 56.2619V44.7034H135.907V56.2619H132.172Z" fill="#3D4346"/>
<path d="M134.007 40.3193C134.469 40.2929 134.932 40.3006 135.393 40.3424C135.581 40.3723 135.728 40.6534 135.89 40.8216C135.904 40.8354 135.89 40.8677 135.89 40.8907C136.015 43.0333 136.015 43.0333 133.81 43.0356C132.158 43.0356 132.156 43.0356 132.158 41.5127C132.158 40.1489 132.061 40.3309 133.362 40.317C133.586 40.3147 133.796 40.317 134.007 40.3193Z" fill="#3D4346"/>
</svg>
