<svg width="338" height="100" viewBox="0 0 338 100" fill="none" xmlns="http://www.w3.org/2000/svg">
<path d="M25.8984 12.0144L13.0935 11.9685L14.3553 14.9974L14.402 71.0786L13 74.2452H25.9451L24.5431 71.1245V44.2771V15.1351L25.8984 12.0144Z" fill="#626365"/>
<path d="M51.2277 64.3324L35.8524 42.9921L56.1814 19.9539C59.7331 16.0071 63.8924 13.2994 67.6778 12.611L68.1919 12.0603H48.7041L50.0593 15.1351L24.543 44.2771L40.1052 65.9845C45.9001 74.0617 50.293 79.477 57.3497 83.5156C63.6587 87.0953 71.8838 89.1145 80.9968 87.9672C81.1837 87.6001 81.4641 86.9576 81.6978 86.4986C74.4541 85.3513 67.7713 82.5518 63.0512 78.2838C59.4995 75.1631 56.7889 72.5013 51.2277 64.3324Z" fill="#626365"/>
<path d="M251.433 68.0038V46.3423H271.856L274.519 40.1009H251.433V18.2099H271.248L274.613 19.4032L277.744 12.0144H239.983L241.339 15.0892V71.0786L239.983 74.2452H274.519L277.791 66.627L274.286 68.0038H251.433Z" fill="#626365"/>
<path d="M320.599 68.0038H297.747V46.3423L297.7 15.2728L299.102 12.0144H286.297L287.652 15.0892V71.0786L286.297 74.2452H320.786L324.104 66.627L320.599 68.0038Z" fill="#626365"/>
<path d="M83.2397 68.371V46.7095H103.615L106.279 40.4681H83.2397V18.5771H103.008L106.373 19.7704L109.551 12.3816H71.79L73.0986 15.4564V71.4458L71.79 74.6124H106.279L109.597 66.9942L106.046 68.371H83.2397Z" fill="#626365"/>
<path d="M163.762 68.1415L147.312 45.2868C155.63 43.7723 163.014 38.6782 163.014 28.2605C163.014 17.8887 153.854 11.6473 138.806 11.8308L128.572 11.9226L117.449 12.0603L118.804 15.1351V71.1245L116.795 74.337H130.301L128.759 71.1245V17.338V17.2003L128.852 17.0626C135.301 16.4201 141.283 15.9612 145.396 17.751C149.041 19.3114 153.06 23.0287 153.06 28.2605C153.06 31.9778 151.798 34.7773 149.976 36.7048C145.723 41.1564 139.087 41.2482 131.843 40.1468L131.937 40.2845C131.563 40.2386 131.376 40.1927 131.376 40.1927L152.172 69.4265C155.817 75.3467 162.967 74.6583 169.323 74.4288L169.276 73.6945C168.202 73.4651 165.678 70.8492 163.762 68.1415Z" fill="#626365"/>
<path d="M222.458 15.3646V40.2386V41.9366V46.48V51.7118L186.754 12.1062L175.632 12.198L175.305 12.1521V12.198H173.342L176.566 15.8235V71.2163L175.164 74.4288H185.586L184.184 71.2163V46.48V40.2386V24.3137L209.84 52.9509C209.84 52.9509 209.887 52.9509 209.887 52.905L221.01 65.4797C221.43 66.0304 221.898 66.4893 222.365 66.9024V66.9942L229.048 74.3829L229.936 74.337V15.3646L231.385 12.1521H220.916L222.458 15.3646Z" fill="#626365"/>
</svg>
