<svg width="192" height="100" viewBox="0 0 192 100" fill="none" xmlns="http://www.w3.org/2000/svg">
<rect width="192" height="100" fill="#FBFBFC"/>
<g clip-path="url(#clip0_611_126)">
<path d="M41.8923 35.587L37.0355 35.5696L37.514 36.7184L37.5318 57.9897L37 59.1908H41.91L41.3782 58.0072V47.8241V36.7707L41.8923 35.587Z" fill="#3D4346"/>
<path d="M51.4993 55.431L45.6676 47.3368L53.3782 38.5985C54.7254 37.1015 56.303 36.0745 57.7388 35.8134L57.9337 35.6045H50.5421L51.0562 36.7708L41.3779 47.8242L47.2806 56.0577C49.4786 59.1213 51.1448 61.1753 53.8214 62.7071C56.2143 64.0649 59.3341 64.8308 62.7906 64.3956C62.8615 64.2564 62.9678 64.0127 63.0565 63.8386C60.309 63.4034 57.7742 62.3416 55.9839 60.7227C54.6368 59.5391 53.6087 58.5295 51.4993 55.431Z" fill="#3D4346"/>
<path d="M127.437 56.8234V48.6073H135.183L136.193 46.24H127.437V37.9369H134.952L136.228 38.3894L137.416 35.5869H123.094L123.608 36.7532V57.9897L123.094 59.1908H136.193L137.434 56.3012L136.104 56.8234H127.437Z" fill="#3D4346"/>
<path d="M153.671 56.8234H145.003V48.6073L144.985 36.8228L145.517 35.5869H140.66L141.174 36.7532V57.9897L140.66 59.1908H153.742L155 56.3012L153.671 56.8234Z" fill="#3D4346"/>
<path d="M63.6416 56.9628V48.7467H71.37L72.3804 46.3794H63.6416V38.0763H71.1396L72.4158 38.5288L73.6212 35.7263H59.2988L59.7951 36.8926V58.1291L59.2988 59.3302H72.3804L73.6389 56.4406L72.2918 56.9628H63.6416Z" fill="#3D4346"/>
<path d="M94.1835 56.8757L87.944 48.207C91.0992 47.6326 93.8999 45.7004 93.8999 41.7491C93.8999 37.8151 90.4256 35.4477 84.7179 35.5174L80.836 35.5522L76.6173 35.6044L77.1313 36.7707V58.0072L76.3691 59.2256H81.4919L80.9069 58.0072V37.6062V37.554L80.9424 37.5018C83.3885 37.2581 85.6574 37.084 87.2173 37.7629C88.5999 38.3547 90.1243 39.7647 90.1243 41.7491C90.1243 43.159 89.6457 44.2208 88.9544 44.9519C87.3414 46.6404 84.8243 46.6752 82.0768 46.2575L82.1123 46.3097C81.9705 46.2923 81.8996 46.2749 81.8996 46.2749L89.7875 57.3631C91.1701 59.6086 93.8821 59.3475 96.2928 59.2605L96.2751 58.9819C95.8674 58.8949 94.9102 57.9027 94.1835 56.8757Z" fill="#3D4346"/>
<path d="M116.446 36.8577V46.2923V46.9364V48.6596V50.644L102.904 35.6218L98.685 35.6566L98.5609 35.6392V35.6566H97.8164L99.0395 37.0318V58.042L98.5077 59.2605H102.461L101.929 58.042V48.6596V46.2923V40.2521L111.66 51.114C111.66 51.114 111.678 51.114 111.678 51.0966L115.897 55.8661C116.056 56.075 116.233 56.2491 116.411 56.4057V56.4406L118.945 59.2431L119.282 59.2257V36.8577L119.832 35.6392H115.861L116.446 36.8577Z" fill="#3D4346"/>
</g>
<defs>
<clipPath id="clip0_611_126">
<rect width="118" height="29" fill="white" transform="translate(37 35.5)"/>
</clipPath>
</defs>
</svg>
