<svg width="192" height="100" viewBox="0 0 192 100" fill="none" xmlns="http://www.w3.org/2000/svg">
<rect width="192" height="100" fill="#FBFBFC"/>
<path d="M97.7085 37.6101C96.0893 37.6101 94.7412 38.8795 94.7412 40.4983C94.7412 42.14 96.0893 43.409 97.7085 43.409C99.3934 43.409 100.719 42.14 100.719 40.4983C100.719 38.8795 99.3934 37.6101 97.7085 37.6101ZM105.415 37.6101C103.774 37.6101 102.449 38.8795 102.449 40.4983C102.449 42.14 103.774 43.409 105.415 43.409C107.078 43.409 108.427 42.14 108.427 40.4983C108.427 38.8795 107.078 37.6101 105.415 37.6101Z" fill="#3D4346"/>
<path d="M123.263 44.8779C119.798 44.8779 116.987 47.5916 116.987 50.9616C116.987 54.3323 119.799 57.0677 123.24 57.0677C125.152 57.0677 126.593 56.3014 127.875 55.1411C128.19 54.8573 128.122 54.5729 127.941 54.3987L126.614 53.1282C126.231 52.7558 126.052 52.9091 125.806 53.1282C125.265 53.6096 124.251 54.0259 123.263 54.0258C121.508 54.0258 120.092 52.6685 120.092 50.9616C120.092 49.2763 121.508 47.8974 123.24 47.8974C124.252 47.8974 125.265 48.3361 125.806 48.8174C126.052 49.036 126.231 49.1892 126.614 48.8174L127.941 47.5485C128.122 47.3731 128.19 47.0873 127.875 46.8029C126.593 45.6432 125.152 44.8779 123.263 44.8779ZM74.486 45.222C74.0803 45.222 73.8779 45.4194 73.8779 45.814V56.0996C73.8779 56.4929 74.0803 56.6917 74.486 56.6917H76.5531C76.9576 56.6917 77.1596 56.4929 77.1596 56.0996V52.3569L80.5968 56.2964C80.7997 56.5383 81.0017 56.6917 81.2937 56.6917H84.3055C84.6878 56.6917 84.8215 56.3184 84.6198 56.034L79.8791 50.344L83.6768 45.9004C83.9681 45.6166 83.7875 45.222 83.383 45.222H80.5301C80.2602 45.222 79.9914 45.3325 79.7664 45.5948L77.1596 48.923V45.814C77.1596 45.4194 76.9576 45.222 76.5531 45.222H74.486ZM86.3837 45.222C85.9564 45.222 85.755 45.4201 85.755 45.814V56.0996C85.755 56.4935 85.9564 56.6917 86.3837 56.6917H88.9905L93.9503 50.2224V56.0996C93.9503 56.4935 94.1295 56.6917 94.5567 56.6917H96.5619C96.9892 56.6917 97.1906 56.4935 97.1906 56.0996V45.814C97.1906 45.4201 96.9892 45.222 96.5619 45.222L93.8884 45.2236L88.9969 51.8241V45.814C88.9969 45.4201 88.8177 45.222 88.3904 45.222L86.3837 45.222ZM100.407 45.2252C99.9799 45.2252 99.7784 45.4218 99.7784 45.8157V56.1013C99.7784 56.4953 99.9799 56.6933 100.407 56.6933H102.609C103.036 56.6933 103.216 56.4953 103.216 56.1013V45.8157C103.216 45.4218 103.036 45.2252 102.609 45.2252L100.407 45.2252ZM106.585 45.2252C106.157 45.2252 105.954 45.4202 105.954 45.8141V56.1013C105.954 56.4953 106.157 56.6933 106.585 56.6933H112.516C116.718 56.6933 117.841 51.9895 114.494 50.4352C116.582 48.4871 115.19 45.2252 111.976 45.2252H106.585ZM129.389 45.2252C128.984 45.2252 128.781 45.4008 128.781 45.8157V47.8094C128.781 48.2249 128.984 48.4223 129.389 48.4223H131.955V56.1013C131.955 56.4953 132.158 56.6933 132.585 56.6933H134.787C135.214 56.6933 135.394 56.4953 135.394 56.1013V48.4223H137.959C138.362 48.4223 138.566 48.2249 138.566 47.8094V45.8157C138.566 45.4008 138.362 45.2252 137.959 45.2252H129.389ZM142.489 45.2252C142.142 45.2252 141.916 45.3845 141.822 45.6605L137.786 56.1221C137.663 56.437 137.846 56.6933 138.191 56.6933H140.671C140.878 56.6933 141.102 56.5393 141.169 56.3477L141.714 54.8116H141.717H145.98H145.982L146.528 56.3477C146.595 56.5393 146.819 56.6933 147.026 56.6933H149.506C149.851 56.6933 150.035 56.437 149.913 56.1221L145.874 45.6605C145.781 45.3845 145.556 45.2252 145.208 45.2252H142.489ZM151.66 45.2252C151.234 45.2252 151.03 45.4218 151.03 45.8157V56.1029C151.03 56.4963 151.234 56.6933 151.66 56.6933H153.862C154.289 56.6933 154.467 56.4963 154.467 56.1029V53.3715H156.357C159.008 53.3715 161.029 51.9542 161.029 49.3936C161.029 46.8282 158.963 45.2252 156.492 45.2252H151.66ZM109.145 47.7854H111.279C112.65 47.7854 112.672 49.5584 111.279 49.5584H109.145V47.7854ZM154.467 47.875H156.199C158.513 47.875 158.671 50.8321 156.244 50.8321H154.467V47.875ZM143.848 48.8127H143.851L145.05 52.1858H142.649L143.848 48.8127ZM109.145 51.989H111.976C113.706 51.989 113.818 54.1331 111.976 54.1331H109.145V51.989Z" fill="#3D4346"/>
<path fill-rule="evenodd" clip-rule="evenodd" d="M47.5678 34.4341C46.388 34.4341 45.4324 35.3695 45.4324 36.5238V44.1917C45.4324 45.3466 46.388 46.283 47.5678 46.283C48.7469 46.283 49.7015 45.3466 49.7015 44.1917V36.5238C49.7015 35.3695 48.7469 34.4341 47.5678 34.4341ZM32.9235 44.7309C32.0946 44.8005 31.3487 45.3437 31.0755 46.1678C30.7119 47.2666 31.3244 48.4465 32.4456 48.8032L39.89 51.173C41.0113 51.5297 42.2163 50.9287 42.581 49.8305C42.9453 48.7323 42.3318 47.5518 41.2093 47.1951L33.765 44.8269C33.4846 44.7376 33.1998 44.7077 32.9235 44.7309ZM62.212 44.7325C61.9357 44.7092 61.651 44.7374 61.3706 44.8269L53.9262 47.1967C52.805 47.5534 52.1919 48.7339 52.5561 49.8321C52.9209 50.9303 54.1243 51.5303 55.2455 51.173L62.6899 48.8049C63.8111 48.4482 64.4248 47.2677 64.06 46.1694C63.7873 45.3458 63.041 44.8026 62.212 44.7325ZM43.3002 55.1813C42.6155 55.1585 41.931 55.4581 41.4983 56.0422L36.8989 62.2459C36.2059 63.181 36.418 64.4895 37.372 65.1677C38.3249 65.8459 39.6612 65.637 40.3536 64.7037L44.9529 58.4984C45.6466 57.5645 45.4329 56.2585 44.4782 55.5798C44.1209 55.3252 43.711 55.195 43.3002 55.1813ZM51.8369 55.1813C51.4259 55.195 51.0151 55.3252 50.6573 55.5798C49.7038 56.2585 49.4911 57.5645 50.1842 58.4984L54.7835 64.7037C55.4758 65.637 56.8122 65.8459 57.7651 65.1677C58.7191 64.4895 58.9312 63.181 58.2382 62.2459L53.6388 56.0422C53.2061 55.4581 52.5219 55.1585 51.8369 55.1813Z" fill="#3D4346"/>
</svg>
