<svg width="451" height="100" viewBox="0 0 451 100" fill="none" xmlns="http://www.w3.org/2000/svg">
<path d="M161.123 30.3384V70.4261H193.156V63.4517L169.947 63.5123V53.6269H193.156V46.6524L169.947 46.5918V37.3128H193.156V30.3384H161.123Z" fill="black"/>
<path d="M233.105 70.426V30.2776H241.567V70.426H233.105Z" fill="black"/>
<path d="M122.744 30.2776L132.717 61.6321L143.233 30.2776H155.623V70.426H147.524V40.345L137.068 70.426H128.305L118.453 40.345V70.426H110.294V30.2776H122.744Z" fill="black"/>
<path d="M208.628 37.4339H195.875V30.2776H230.386V37.4339H217.089V70.426H208.628V37.4339Z" fill="black"/>
<path d="M329.203 30.3384V70.4261H361.236V63.4517H338.027V53.6269H361.236V46.6524L338.027 46.5918V37.3128H361.236V30.3384H329.203Z" fill="black"/>
<path d="M415.208 37.4339H402.455V30.2776H436.966V37.4339H423.669V70.426H415.208V37.4339Z" fill="black"/>
<path d="M274.264 59.085L257.825 30.2776H247.188V70.426H255.83L255.468 40.0418L272.693 70.426H282.423V30.2776H273.841L274.264 59.085Z" fill="black"/>
<path d="M305.934 60.1766L293.967 30.2776H284.357L301.824 70.426H310.588L327.209 30.2776H318.264L305.934 60.1766Z" fill="black"/>
<path d="M388.614 47.0768H377.493C373.988 47.0768 372.235 45.6213 372.235 42.7102C372.235 39.0714 374.23 37.4339 378.702 37.4339H399.493V30.2776H377.493C372.598 30.2776 369.032 31.2479 366.856 33.2493C364.56 35.19 363.472 38.3437 363.472 42.5889C363.472 50.5944 367.582 54.1119 376.829 54.1119H386.801C391.153 54.1119 392.724 55.3855 392.724 58.7211C392.724 61.996 390.971 63.2696 386.197 63.2696H365.104V70.426H387.526C397.196 70.426 401.548 66.6658 401.548 58.3572C401.548 54.2938 400.581 51.3828 398.587 49.6847C396.532 47.9259 393.208 47.0768 388.614 47.0768Z" fill="black"/>
<path d="M70.4643 15.783C70.4643 15.783 65.2061 13.5997 64.4808 13.2965C63.7556 12.9933 63.0303 12.9326 62.2446 13.1146C61.4589 13.2965 60.915 13.721 60.6128 14.0243C60.3106 14.3275 49.0085 25.6685 49.0085 25.6685C49.0085 25.6685 37.8273 14.4488 37.4647 14.0849C37.1021 13.721 36.679 13.3571 35.7724 13.1146C34.8658 12.872 34.0801 13.0539 33.5966 13.2965C33.1131 13.4784 28.278 15.5404 27.6132 15.783C26.9484 16.0256 26.344 16.5714 25.9209 17.2386C25.6187 17.7844 25.377 18.3909 25.377 19.1186C25.377 18.4515 25.377 34.8869 25.377 34.8869L35.7724 40.8909V27.1847L40.6075 32.0365C40.9702 32.4003 41.3932 32.6429 41.8767 32.8249C42.2394 32.9462 42.5416 33.0675 43.0855 33.0675C43.6295 33.0675 54.8711 33.0675 54.8711 33.0675C55.2941 33.0675 55.7172 33.0068 56.0799 32.8249C56.5029 32.6429 56.926 32.4003 57.4095 31.9152C57.893 31.43 62.1842 27.124 62.1842 27.124V40.8303L72.5796 34.8262C72.5796 34.8262 72.5796 20.7561 72.5796 19.1793C72.6401 17.5418 71.7335 16.3289 70.4643 15.783Z" fill="#ED1C24"/>
<path d="M8.03138 49.7455C8.03138 49.7455 8.75665 55.3856 8.87752 56.1741C8.9984 56.9625 9.3006 57.6296 9.84455 58.2361C10.3885 58.8425 11.0533 59.0851 11.4764 59.2064C11.8995 59.3277 27.3114 63.4517 27.3114 63.4517C27.3114 63.4517 23.2015 78.7954 23.0806 79.22C22.9598 79.7051 22.8389 80.251 23.0806 81.1607C23.3224 82.0704 23.9268 82.6768 24.3499 82.9801C24.7729 83.2833 28.9432 86.4976 29.4872 86.9221C30.0311 87.3467 30.8168 87.6499 31.6025 87.6499C32.2069 87.6499 32.8717 87.5286 33.4761 87.1647C32.8717 87.5286 47.0748 79.2806 47.0748 79.2806V67.2118L35.2288 74.065L36.9816 67.3938C37.1024 66.9086 37.1024 66.4234 37.042 65.8776C36.9816 65.4531 36.9211 65.2105 36.6189 64.6647C36.3167 64.1795 30.6959 54.4153 30.6959 54.4153C30.4542 54.0514 30.2124 53.7482 29.9102 53.5056C29.5476 53.2024 29.1245 52.9598 28.4597 52.7778C27.8553 52.5959 21.9323 51.0191 21.9323 51.0191L33.7783 44.1659L23.3828 38.1619C23.3828 38.1619 11.2346 45.1969 9.84455 45.9853C8.45445 46.8951 7.85007 48.3506 8.03138 49.7455Z" fill="#ED1C24"/>
<path d="M68.5303 86.9827C68.5303 86.9827 73.0632 83.5258 73.6676 83.0407C74.272 82.5555 74.695 81.949 74.9368 81.2213C75.1786 80.4328 75.0577 79.7657 74.9972 79.3412C74.8764 78.9167 70.7665 63.4517 70.7665 63.4517C70.7665 63.4517 86.0575 59.3276 86.541 59.2064C87.0246 59.0851 87.5685 58.9031 88.2333 58.236C88.8982 57.5689 89.1399 56.7805 89.2004 56.2346C89.2608 55.6888 89.9256 50.4732 90.0465 49.8061C90.1674 49.0783 90.0465 48.2899 89.6234 47.6228C89.3212 47.0769 88.8982 46.5918 88.2938 46.2279C88.8982 46.5918 74.695 38.3438 74.695 38.3438L64.2996 44.3478L76.1456 51.2009L69.4973 52.9597C69.0138 53.081 68.5907 53.3236 68.1677 53.6268C67.8655 53.8694 67.6237 54.112 67.382 54.5972C67.0798 55.0824 61.4589 64.8465 61.4589 64.8465C61.2776 65.2104 61.0963 65.5743 61.0359 65.9988C60.9754 66.484 60.9754 66.9692 61.1568 67.5757C61.3381 68.1821 62.9095 74.1255 62.9095 74.1255L51.0635 67.2724V79.3412C51.0635 79.3412 63.2117 86.3763 64.6018 87.1647C65.9314 88.0137 67.4424 87.8318 68.5303 86.9827Z" fill="#ED1C24"/>
</svg>
