<svg width="192" height="100" viewBox="0 0 192 100" fill="none" xmlns="http://www.w3.org/2000/svg">
<rect width="192" height="100" fill="#FBFBFC"/>
<g clip-path="url(#clip0_611_95)">
<path d="M74.5113 64.797L73.049 63.2865L76.1007 60.1342L77.5629 61.6447L74.5113 64.797ZM57.4728 66.8329V64.1403H70.3788V66.8329H57.4728ZM51.6238 41.1547L50.2252 39.6442L53.2768 36.4919L54.7391 38.0024L51.6238 41.1547ZM55.8199 39.0532L57.2821 40.5636L54.2305 43.716L52.7682 42.2055L55.8199 39.0532ZM56.7099 46.3429L55.2477 44.8324L58.2993 41.6801L59.7616 43.1906L56.7099 46.3429ZM67.8993 45.3578L65.9921 47.328L63.894 45.1608L61.796 47.328L59.8887 45.3578L63.894 41.2204L67.8993 45.3578ZM69.4887 41.6801L72.5404 44.8324L71.0781 46.3429L68.0265 43.1906L69.4887 41.6801ZM73.1126 37.9367L74.5748 36.4262L77.6265 39.5785L76.1642 41.089L73.1126 37.9367ZM75.0834 42.2711L73.6212 43.7816L70.5695 40.6293L72.0318 39.1188L75.0834 42.2711ZM70.5695 60.7253L73.6212 57.573L75.0834 59.0834L72.0318 62.2358L70.5695 60.7253ZM61.9868 58.0984L59.8887 55.9311L61.796 53.9609L63.894 56.1282L65.9921 53.9609L67.8993 55.9311L65.8013 58.0984L70.1245 62.5641H57.6636L61.9868 58.0984ZM59.7616 58.0984L58.2993 59.6088L55.2477 56.4565L56.7099 54.946L59.7616 58.0984ZM62.8132 50.6116L61.796 51.6624L60.7788 50.6116L61.796 49.5609L62.8132 50.6116ZM63.894 53.8296L62.8768 52.7788L63.894 51.7281L64.9113 52.7788L63.894 53.8296ZM67.0093 50.6116L65.9921 51.6624L64.9748 50.6116L65.9921 49.5609L67.0093 50.6116ZM68.0265 58.0984L71.0781 54.946L72.5404 56.4565L69.4887 59.6088L68.0265 58.0984ZM70.3152 47.8534V53.4356L68.9801 54.8147L67.0728 52.8445L69.1709 50.6773L67.0728 48.5101L68.9801 46.5399L70.3152 47.8534ZM63.894 47.3936L64.9113 48.4444L63.894 49.4952L62.8768 48.4444L63.894 47.3936ZM58.8079 46.4742L60.7152 48.4444L58.5536 50.6116L60.6517 52.7788L58.7444 54.749L57.4093 53.3699V47.7877L58.8079 46.4742ZM54.7391 63.2865L53.2768 64.797L50.2252 61.6447L51.6874 60.1342L54.7391 63.2865ZM52.7046 59.0178L54.1669 57.5073L57.2185 60.6596L55.7563 62.1701L52.7046 59.0178ZM79.7881 61.6447L71.9046 53.4356V47.7877L79.7881 39.6442L74.5113 34.1934L66.8821 42.0741L63.894 38.9218L60.906 42.0741L53.2768 34.1934L48.8265 38.7905L48 39.6442L55.8834 47.7877V53.4356L48 61.579L53.2768 67.0299L55.8834 64.3373V68.4747H71.9046V64.3373L74.5113 67.0299L79.7881 61.6447Z" fill="#3D4346"/>
<path d="M143.619 56.1936V39.1187H125.881V56.1936H131.094V43.5844H138.405V56.128H143.619V56.1936Z" fill="#3D4346"/>
<path d="M123.846 39.1187H117.933L114.627 43.5844L111.321 39.1187H105.409L111.703 47.5248L105.154 56.1936H111.067L114.627 51.4652L118.187 56.1936H124.1L117.615 47.5248L123.846 39.1187Z" fill="#3D4346"/>
<path d="M103.374 56.1936V39.1187H98.2879L93.7105 45.8173L89.133 39.1187H84.0469V56.1936H89.0058V46.8024L93.4561 53.2384H93.9648L98.4151 46.8024V56.1936H103.374Z" fill="#3D4346"/>
<path d="M85.3201 60.2654L84.9386 61.5132H85.7651L85.3201 60.2654ZM86.083 62.6953L85.9558 62.2356H84.6843L84.5572 62.6953H83.6035L84.8115 59.4116H85.8287L87.0366 62.6953H86.083Z" fill="#3D4346"/>
<path d="M87.5449 62.6953V59.4116H89.8972V60.134H88.3714V62.6953H87.5449Z" fill="#3D4346"/>
<path d="M92.4405 60.5281C92.4405 60.331 92.2498 60.1997 92.059 60.1997H91.4233V60.9221H92.059C92.2498 60.8564 92.4405 60.7251 92.4405 60.5281ZM90.5332 62.6953V59.4116H92.1226C92.8219 59.4116 93.2034 59.937 93.2034 60.5281C93.2034 61.1191 92.8219 61.6445 92.1226 61.6445H91.3597V62.7609H90.5332V62.6953Z" fill="#3D4346"/>
<path d="M96.254 61.0537C96.254 60.5283 95.9361 60.0686 95.3639 60.0686C94.8553 60.0686 94.4738 60.4626 94.4738 61.0537C94.4738 61.5791 94.7917 62.0388 95.3639 62.0388C95.9361 61.9731 96.254 61.5791 96.254 61.0537ZM93.7109 61.0537C93.7109 60.0686 94.4738 59.3462 95.4275 59.3462C96.3811 59.3462 97.1441 60.0686 97.1441 61.0537C97.1441 62.0388 96.4447 62.7612 95.4275 62.7612C94.4103 62.7612 93.7109 62.0388 93.7109 61.0537Z" fill="#3D4346"/>
<path d="M97.7793 62.6953V59.4116H98.6058V62.6953H97.7793Z" fill="#3D4346"/>
<path d="M101.531 62.6953V61.3818H100.196V62.6953H99.3691V59.4116H100.196V60.6594H101.531V59.4116H102.357V62.6953H101.531Z" fill="#3D4346"/>
<path d="M104.075 61.9729H105.346V60.134H104.52L104.393 61.1191C104.393 61.5132 104.266 61.7758 104.075 61.9729ZM102.994 61.9729C103.312 61.9072 103.503 61.7759 103.566 61.0534L103.757 59.4116H106.109V61.9729H106.491V63.352H105.664V62.7609H103.884V63.352H103.058V61.9729H102.994Z" fill="#3D4346"/>
<path d="M106.745 62.4985L107.063 61.8418C107.19 61.9074 107.317 61.9731 107.445 61.9731C107.635 61.9731 107.762 61.9074 107.826 61.7104L106.682 59.3462H107.635L108.335 60.8567L109.034 59.3462H109.988L108.716 61.9731C108.525 62.3672 108.207 62.6955 107.635 62.6955C107.254 62.7612 106.936 62.6955 106.745 62.4985Z" fill="#3D4346"/>
<path d="M110.178 61.0537C110.178 60.0029 110.941 59.3462 111.894 59.3462C112.657 59.3462 113.102 59.8059 113.293 60.1999L112.594 60.5283C112.466 60.2656 112.212 60.0686 111.894 60.0686C111.386 60.0686 111.004 60.4626 111.004 61.0537C111.004 61.5791 111.386 62.0388 111.894 62.0388C112.212 62.0388 112.466 61.8418 112.594 61.5791L113.293 61.9074C113.102 62.3015 112.657 62.7612 111.894 62.7612C110.941 62.7612 110.178 62.0388 110.178 61.0537Z" fill="#3D4346"/>
<path d="M114.628 62.6953V60.134H113.738V59.4116H116.345V60.134H115.455V62.6953H114.628Z" fill="#3D4346"/>
<path d="M118.824 60.5281C118.824 60.331 118.633 60.1997 118.443 60.1997H117.807V60.9221H118.443C118.633 60.8564 118.824 60.7251 118.824 60.5281ZM116.98 62.6953V59.4116H118.57C119.269 59.4116 119.651 59.937 119.651 60.5281C119.651 61.1191 119.269 61.6445 118.57 61.6445H117.807V62.7609H116.98V62.6953Z" fill="#3D4346"/>
<path d="M120.285 62.6953V59.4116H121.112V62.6953H120.285Z" fill="#3D4346"/>
<path d="M123.274 60.2656L122.893 61.5134H123.719L123.274 60.2656ZM124.101 62.6955L123.973 62.2358H122.702L122.575 62.6955H121.621L122.829 59.4119H123.846L125.054 62.6955H124.101Z" fill="#3D4346"/>
<path d="M125.309 61.9731C125.626 61.9731 125.817 61.7761 125.881 61.0537L126.072 59.4119H128.424V62.6955H127.597V60.1343H126.834L126.707 61.1194C126.58 62.4328 126.008 62.7612 125.309 62.7612V61.9731Z" fill="#3D4346"/>
<path d="M130.076 61.2505V61.9729H130.712C130.903 61.9729 131.094 61.8415 131.094 61.6445C131.094 61.4475 130.903 61.3161 130.712 61.3161H130.076V61.2505ZM130.076 59.4116V60.5281H130.839C131.539 60.5281 131.92 61.0534 131.92 61.6445C131.92 62.2356 131.539 62.7609 130.839 62.7609H129.25V59.4773H130.076V59.4116Z" fill="#3D4346"/>
<path d="M134.781 62.6953V61.3818H133.446V62.6953H132.619V59.4116H133.446V60.6594H134.781V59.4116H135.607V62.6953H134.781Z" fill="#3D4346"/>
<path d="M136.371 62.6955V59.4119H137.198V61.3821L138.469 59.4119H139.296V62.6955H138.469V60.6597L137.134 62.6955H136.371Z" fill="#3D4346"/>
<path d="M141.648 59.2803C141.33 59.2803 141.012 59.0832 140.821 58.8206L141.139 58.5579C141.266 58.7549 141.457 58.8206 141.648 58.8206C141.839 58.8206 142.029 58.6892 142.156 58.5579L142.474 58.8206C142.284 59.0832 142.029 59.2803 141.648 59.2803ZM140.186 62.6953V59.4116H141.012V61.3818L142.284 59.4116H143.11V62.6953H142.284V60.6594L140.948 62.6953H140.186Z" fill="#3D4346"/>
<path d="M85.9558 68.4089L85.2565 67.2925L84.5572 68.4089H83.6035L84.7479 66.7014L83.6671 65.0596H84.6207L85.2565 66.1103L85.8923 65.0596H86.8459L85.8287 66.6357L86.9095 68.3432H85.9558V68.4089Z" fill="#3D4346"/>
<path d="M89.7062 66.7671C89.7062 66.2417 89.3883 65.782 88.8162 65.782C88.3076 65.782 87.9261 66.176 87.9261 66.7671C87.9261 67.2925 88.244 67.7522 88.8162 67.7522C89.3248 67.6865 89.7062 67.2925 89.7062 66.7671ZM87.0996 66.7671C87.0996 65.782 87.8625 65.0596 88.8162 65.0596C89.7698 65.0596 90.5327 65.782 90.5327 66.7671C90.5327 67.7522 89.8334 68.4746 88.8162 68.4746C87.8625 68.4746 87.0996 67.7522 87.0996 66.7671Z" fill="#3D4346"/>
<path d="M90.8507 67.6867C91.1686 67.6867 91.3593 67.4897 91.4229 66.7673L91.6136 65.1255H93.9659V68.4091H93.1394V65.8479H92.3129L92.1858 66.833C92.0586 68.1465 91.4864 68.4748 90.7871 68.4748V67.6867H90.8507Z" fill="#3D4346"/>
<path d="M95.6813 67.6211H96.9528V65.7822H96.1263L95.9992 66.7673C95.9992 67.227 95.872 67.4897 95.6813 67.6211ZM94.6641 67.6867C94.9819 67.6211 95.1727 67.4897 95.2362 66.7673L95.427 65.1255H97.7793V67.6867H98.0972V69.0002H97.2707V68.4091H95.4905V69.0002H94.6641V67.6867Z" fill="#3D4346"/>
<path d="M98.6699 68.4091V65.1255H99.4964V67.0957L100.768 65.1255H101.594V68.4091H100.768V66.3733L99.4964 68.4091H98.6699Z" fill="#3D4346"/>
<path d="M104.582 68.4089V67.0954H103.311V68.4089H102.484V65.1252H103.311V66.373H104.582V65.0596H105.409V68.3432H104.582V68.4089Z" fill="#3D4346"/>
<path d="M106.236 68.4091V65.1255H108.589V65.8479H107.063V68.4091H106.236Z" fill="#3D4346"/>
</g>
<defs>
<clipPath id="clip0_611_95">
<rect width="96" height="38" fill="white" transform="translate(48 31)"/>
</clipPath>
</defs>
</svg>
