<svg width="192" height="100" viewBox="0 0 192 100" fill="none" xmlns="http://www.w3.org/2000/svg">
<rect width="192" height="100" fill="#FBFBFC"/>
<path d="M110.63 27.6155C110.585 27.6831 110.517 27.7056 110.472 27.6718C110.36 27.6155 109.672 28.3365 109.672 28.5168C109.672 28.5731 109.627 28.6294 109.571 28.6294C109.312 28.6294 109.21 30.263 109.255 33.8119C109.267 35.8285 109.323 37.586 109.368 37.7325C109.526 38.2958 109.977 38.9154 110.416 39.1745C111.407 39.7491 112.342 39.3548 112.973 38.1043C113.154 37.7325 113.176 37.3156 113.165 33.4401C113.165 28.7421 113.142 28.6069 112.455 27.9985C112.252 27.8183 112.061 27.6718 112.016 27.6718C111.982 27.6718 111.903 27.638 111.858 27.5817C111.734 27.4578 110.709 27.4803 110.63 27.6155Z" fill="#3D4346"/>
<path d="M103.88 32.6184C103.362 32.7761 102.235 33.8238 102.235 34.1393C102.235 34.1843 102.134 34.3195 102.01 34.4322C101.886 34.5449 101.785 34.7026 101.785 34.7814C101.785 34.8603 101.717 34.9955 101.627 35.0744C101.413 35.2997 101.154 35.8405 101.052 36.2573C101.019 36.4601 100.94 36.6291 100.883 36.6291C100.838 36.6291 100.726 36.8995 100.658 37.2149C100.579 37.5417 100.478 37.8684 100.421 37.936C100.365 38.0036 100.354 38.0937 100.399 38.1275C100.433 38.1726 100.41 38.2739 100.343 38.3528C100.264 38.4429 100.241 38.5443 100.286 38.5781C100.32 38.6232 100.298 38.7133 100.241 38.7922C100.174 38.8711 100.117 39.0175 100.106 39.1076C100.106 39.1978 100.061 39.4794 100.027 39.7273C99.9821 39.9751 99.9483 40.3131 99.9483 40.4708V40.775L99.5991 40.561C99.3963 40.4483 99.1372 40.3357 99.0245 40.3131C98.9006 40.3019 98.7316 40.2455 98.664 40.2005C98.5851 40.1441 98.5175 40.1329 98.5175 40.1779C98.5175 40.2117 98.3485 40.1667 98.1345 40.0765C97.9204 39.9864 97.436 39.885 97.0642 39.8399L96.377 39.7611V41.0004V42.2284L97.1994 42.3523C97.9993 42.4762 98.4387 42.5663 98.495 42.6001C98.5063 42.6227 98.5513 42.6339 98.6076 42.6452C98.8217 42.7015 99.7343 43.2198 99.9596 43.4226C100.095 43.5465 100.207 43.7718 100.207 43.907C100.207 44.0535 100.253 44.1887 100.309 44.2337C100.365 44.2675 100.455 44.4478 100.489 44.6393C100.602 45.1463 101.075 46.1828 101.458 46.7461C101.638 47.0165 101.785 47.2531 101.785 47.2869C101.785 47.3207 101.841 47.3995 101.897 47.4784C102.066 47.6812 102.359 48.0417 102.742 48.5149C103.193 49.0894 103.993 49.833 104.545 50.2161C104.793 50.3738 105.018 50.554 105.052 50.5991C105.142 50.7456 106.854 51.6243 106.854 51.5342C106.854 51.4891 106.9 51.5004 106.945 51.568C107.012 51.6806 107.981 52.0074 108.601 52.12C108.725 52.1426 108.826 52.1651 108.826 52.1764C108.826 52.3341 112.589 52.3904 113.276 52.244C113.49 52.1989 113.772 52.1538 113.896 52.1313C114.02 52.1088 114.256 52.0299 114.437 51.9623C114.606 51.8947 114.741 51.8722 114.741 51.906C114.741 51.951 114.808 51.9172 114.887 51.8496C114.977 51.782 115.079 51.7595 115.113 51.8046C115.158 51.8384 115.191 51.8046 115.191 51.7257C115.191 51.6468 115.225 51.6131 115.27 51.6468C115.304 51.6919 115.405 51.6694 115.496 51.6018C115.574 51.5342 115.642 51.5004 115.642 51.5455C115.642 51.6468 117.152 50.8695 117.354 50.678C117.433 50.5878 117.738 50.385 118.008 50.2048C119.281 49.4162 121.489 46.5996 121.793 45.3829C121.805 45.3378 121.827 45.2702 121.838 45.2139C121.85 45.1688 121.861 45.1012 121.85 45.0449C121.85 44.9998 121.895 44.966 121.962 44.966C122.019 44.966 122.052 44.921 122.019 44.8646C121.861 44.6168 122.334 44.5154 123.878 44.4929L125.5 44.4591L125.534 43.017C125.556 41.9242 125.534 41.5862 125.421 41.5749C125.342 41.5637 125.173 41.5411 125.049 41.5299C124.869 41.5073 123.585 41.4059 122.897 41.3721C122.819 41.3609 122.751 40.9666 122.706 40.3695C122.661 39.8287 122.605 39.2654 122.571 39.1076C122.526 38.9499 122.469 38.6232 122.436 38.3753C122.402 38.1275 122.3 37.7895 122.221 37.6205C122.131 37.4515 122.064 37.2825 122.064 37.2487C122.064 37.2149 122.064 37.1811 122.052 37.1586C122.052 37.1473 122.03 37.0459 122.007 36.9333C121.94 36.5728 121.185 35.0631 120.948 34.804C120.813 34.6688 120.712 34.4885 120.712 34.4097C120.712 34.3308 120.667 34.2632 120.599 34.2632C120.543 34.2632 120.486 34.1956 120.486 34.1167C120.486 34.0492 120.182 33.6886 119.833 33.3281C119.157 32.6521 118.864 32.517 117.952 32.517C117.422 32.5282 116.881 32.8775 116.588 33.4182C116.408 33.7562 116.408 33.8464 116.543 34.2857C116.701 34.8152 117.107 35.4687 117.591 35.9982C117.76 36.1897 117.895 36.4038 117.895 36.4826C117.895 36.5615 117.94 36.6291 118.008 36.6291C118.064 36.6291 118.109 36.6629 118.098 36.708C118.087 36.7643 118.199 37.0234 118.346 37.3051C118.774 38.0937 119.011 38.6345 118.954 38.6908C118.92 38.7133 118.954 38.8711 119.022 39.04C119.168 39.4344 119.27 39.885 119.27 40.2343C119.292 41.1017 119.191 42.1495 119.067 42.5213C118.988 42.7466 118.909 42.9832 118.898 43.0283C118.819 43.4 118.515 44.0309 118.042 44.8534C117.569 45.6645 115.969 47.208 115.428 47.3883C115.293 47.422 115.191 47.5122 115.191 47.5685C115.191 47.6248 115.146 47.6699 115.09 47.6699C115.034 47.6699 114.696 47.8051 114.335 47.9741C113.963 48.1318 113.625 48.2895 113.558 48.3121C112.533 48.6501 109.975 48.6839 109.22 48.3797C109.13 48.3346 109.018 48.3008 108.972 48.2895C108.916 48.267 108.86 48.2445 108.826 48.2332C108.792 48.2219 108.736 48.1994 108.691 48.1769C108.635 48.1656 108.353 48.053 108.06 47.9178C107.756 47.7826 107.463 47.6699 107.406 47.6699C107.35 47.6699 107.305 47.6136 107.305 47.5572C107.305 47.4896 107.226 47.4446 107.147 47.4446C107.057 47.4446 106.843 47.3207 106.674 47.1629C106.505 47.0052 106.336 46.8813 106.291 46.8813C106.111 46.8813 104.489 45.1125 104.489 44.921C104.489 44.8646 104.421 44.7294 104.342 44.6393C104.128 44.3802 103.463 42.8029 103.418 42.4199C103.362 42.0481 103.351 40.2343 103.407 39.7611C103.418 39.5808 103.475 39.4118 103.508 39.3668C103.553 39.333 103.587 39.1527 103.587 38.9837C103.587 38.8147 103.644 38.6345 103.7 38.6007C103.768 38.5556 103.79 38.488 103.756 38.4317C103.722 38.3753 103.745 38.3077 103.813 38.2627C103.869 38.2289 103.925 38.0712 103.925 37.9134C103.925 37.767 103.97 37.643 104.015 37.643C104.106 37.643 104.421 36.9671 104.387 36.8206C104.387 36.7756 104.432 36.7418 104.489 36.7418C104.556 36.7418 104.601 36.6629 104.601 36.5728C104.601 36.4826 104.658 36.4038 104.714 36.4038C104.781 36.4038 104.827 36.3249 104.827 36.2348C104.827 36.1447 104.872 36.0658 104.928 36.0658C105.018 36.0658 105.3 35.6602 105.739 34.8828C105.998 34.4097 106.111 33.6548 105.964 33.3732C105.773 33.0127 105.142 32.5958 104.714 32.5395C104.5 32.5057 104.128 32.5395 103.88 32.6184Z" fill="#3D4346"/>
<path d="M117.759 56.0657C116.847 56.6854 116.813 57.9585 117.703 58.6907C117.951 58.9048 118.751 58.9724 119.19 58.8259C119.956 58.5781 120.339 57.643 120.024 56.8093C119.787 56.1784 119.404 55.8967 118.706 55.8404C118.266 55.7954 118.086 55.8404 117.759 56.0657Z" fill="#3D4346"/>
<path d="M130.514 59.7256C130.423 59.7819 130.311 59.7932 130.266 59.7594C130.209 59.7369 130.108 59.7594 130.029 59.8157C129.95 59.8721 129.725 59.9622 129.522 60.0073C129.117 60.0861 128.317 60.4917 127.911 60.8184C127.325 61.2803 126.683 61.9338 126.683 62.069C126.683 62.1478 126.616 62.238 126.537 62.2718C126.447 62.3055 126.311 62.4971 126.232 62.7111C126.142 62.9252 126.041 63.1054 125.996 63.1054C125.962 63.1054 125.861 63.342 125.782 63.635C125.703 63.9391 125.579 64.2433 125.523 64.3222C125.455 64.4123 125.376 65.0432 125.354 65.7305C125.309 66.8571 125.354 67.2288 125.613 68.0625C125.816 68.7047 126.165 69.4145 126.356 69.5947C126.48 69.7074 126.57 69.8426 126.57 69.8989C126.57 70.1918 128.418 71.724 128.914 71.8367C129.207 71.9043 129.871 72.1634 130.052 72.2761C130.131 72.3324 130.773 72.3887 131.471 72.4113C132.53 72.4338 132.891 72.3887 133.657 72.1747C134.164 72.0282 134.637 71.8705 134.716 71.8254C135.099 71.5888 136.338 70.5862 136.473 70.3946C136.564 70.2707 136.721 70.0904 136.845 69.9891C136.958 69.8989 137.048 69.7637 137.048 69.6849C137.048 69.6173 137.149 69.4708 137.273 69.3581C137.397 69.2455 137.499 69.0652 137.499 68.9413C137.499 68.8286 137.555 68.7385 137.611 68.7385C137.679 68.7385 137.724 68.6709 137.724 68.5808C137.724 68.4907 137.78 68.2766 137.859 68.0963C137.938 67.9273 138.006 67.7246 138.017 67.6682C138.028 67.6006 138.051 67.533 138.062 67.4992C138.073 67.4654 138.107 67.2401 138.152 66.9923C138.276 66.0797 138.208 65.077 137.972 64.4574C137.915 64.2997 137.859 64.1532 137.859 64.1194C137.78 63.3871 136.361 61.224 135.955 61.2015C135.876 61.1902 135.809 61.1339 135.809 61.0775C135.809 61.0099 135.719 60.9311 135.617 60.886C135.505 60.8522 135.313 60.7283 135.189 60.6156C134.941 60.4016 133.893 59.9171 133.893 60.0298C133.893 60.0636 133.815 60.0298 133.724 59.9509C133.634 59.8721 133.555 59.8383 133.555 59.8721C133.555 59.9171 133.364 59.8721 133.127 59.7932C132.643 59.6242 130.761 59.5791 130.514 59.7256ZM133.386 62.3168C134.322 62.7787 134.952 63.3984 135.414 64.2771C135.707 64.863 135.73 64.9418 135.741 66.091C135.752 67.0148 135.719 67.1613 135.392 67.7809C134.603 69.3131 133.341 70.0792 131.64 70.0904C131.223 70.0904 130.885 70.0566 130.66 69.9891C130.638 69.9778 130.615 69.9891 130.604 70.0003C130.581 70.0116 130.446 69.944 130.288 69.8651C130.131 69.775 129.973 69.7187 129.928 69.7299C129.871 69.7412 129.838 69.6961 129.838 69.6285C129.838 69.5722 129.793 69.5497 129.725 69.5835C129.669 69.6173 129.612 69.5947 129.612 69.5384C129.612 69.4708 129.556 69.4145 129.488 69.4145C129.319 69.4145 128.373 68.4681 128.373 68.2991C128.373 68.2315 128.328 68.1752 128.26 68.1752C128.193 68.1752 128.159 68.1414 128.17 68.0851C128.182 68.04 128.114 67.8485 128.035 67.6682C127.956 67.4767 127.877 67.2964 127.866 67.2401C127.844 67.195 127.821 67.15 127.81 67.1275C127.765 67.0824 127.697 66.5641 127.686 66.091C127.663 65.5502 127.776 64.9644 127.945 64.6376C128.013 64.5137 128.069 64.3785 128.069 64.3447C128.069 64.3109 128.103 64.1757 128.159 64.0293C128.272 63.7363 129.601 62.3844 129.691 62.4745C129.725 62.5083 129.973 62.4182 130.243 62.2718C130.671 62.0464 130.885 62.0126 131.775 62.0239C132.643 62.0464 132.925 62.0915 133.386 62.3168Z" fill="#3D4346"/>
<path d="M117.443 66.5988V72.3445H118.626H119.809V66.5988V60.853H118.626H117.443V66.5988Z" fill="#3D4346"/>
<path d="M79.3608 29.3082C77.6597 29.5448 75.8458 30.2546 74.3474 31.2572C73.3335 31.9332 71.7337 33.6231 71.1028 34.6821C70.0099 36.5185 69.5706 37.9719 69.4804 40.0336L69.4128 41.4756H67.9144H66.4048V42.9965V44.5175H68.1848H69.9536L70.2578 45.2836C71.0014 47.12 72.8377 49.3732 74.415 50.4097C77.8512 52.6404 81.8507 53.0009 85.2868 51.4011C88.4301 49.9252 90.6157 47.503 92.238 43.7176C92.5309 43.0191 94.3448 42.2755 95.7756 42.2642H96.2488L96.2826 40.9686L96.3164 39.6618L95.9221 39.7181C95.708 39.7519 95.2236 39.8082 94.8518 39.8533C94.2885 39.9096 93.4548 40.1575 92.6436 40.5067C92.4859 40.5743 92.4521 40.4504 92.3958 39.6843C92.2042 37.2846 91.1114 34.7948 89.399 32.8908C88.0696 31.415 85.8501 30.1081 83.811 29.5898C82.5492 29.2631 80.555 29.1392 79.3608 29.3082ZM82.8646 33.195C85.591 33.9048 87.7879 36.0904 88.554 38.8844C88.8582 40.011 88.8357 41.9713 88.4977 43.0529C88.0696 44.4499 87.5175 45.3737 86.5148 46.3877C85.5121 47.4016 84.5658 47.9874 83.2139 48.4381C82.459 48.6859 82.1548 48.731 80.8818 48.731C79.5974 48.731 79.3045 48.6859 78.5159 48.4268C77.2428 48.01 76.2852 47.4129 75.2938 46.4327C74.3361 45.4864 73.739 44.5062 73.2997 43.1881C73.0518 42.4558 73.0067 42.1065 73.0067 40.9123C72.9955 39.3125 73.2095 38.4225 73.9193 37.0593C74.6967 35.5834 76.4091 34.0738 77.9864 33.4654C79.4735 32.9021 81.3211 32.8007 82.8646 33.195Z" fill="#3D4346"/>
<path d="M108.067 58.5403L108.033 61.1766L107.335 60.7372C104.778 59.1037 101.567 59.4754 99.4149 61.6385C98.5474 62.506 98.1418 63.2158 97.8376 64.41C97.1166 67.2265 98.2545 70.2346 100.564 71.6429C101.724 72.3414 102.355 72.4991 103.921 72.4991C105.499 72.5104 105.96 72.3864 107.312 71.564L108.033 71.1246L108.067 71.733L108.101 72.3414H109.273H110.456V64.1171V55.8928H109.273H108.09L108.067 58.5403ZM105.397 62.2018C106.208 62.506 106.794 62.9341 107.256 63.5763C109.059 66.0323 107.684 69.5248 104.71 70.0656C102.964 70.3811 101.15 69.3671 100.339 67.6321C100.091 67.1026 100.035 66.8322 100.035 66.0323C100.035 65.1648 100.068 64.9958 100.406 64.3199C100.857 63.4073 101.758 62.5398 102.603 62.2131C103.392 61.9089 104.62 61.8977 105.397 62.2018Z" fill="#3D4346"/>
<path d="M53.7876 66.088V72.4534H54.9705H56.1535V69.1411C56.1535 67.3273 56.2098 65.5698 56.2661 65.243C56.5816 63.5531 57.8997 62.3476 59.5446 62.2237C61.0205 62.1223 62.271 62.8434 62.9357 64.1953L63.3075 64.9614L63.3413 68.7017L63.3751 72.4534H64.558H65.7297V68.7017C65.7297 64.6459 65.6846 64.2291 65.0875 63.0011C64.9298 62.6744 64.4792 62.0547 64.0848 61.6379C62.8906 60.3873 61.4936 59.7902 59.7023 59.8015C58.5757 59.8015 57.911 59.993 56.7957 60.669L56.1535 61.0633V60.3873V59.7226H54.9705H53.7876V66.088Z" fill="#3D4346"/>
<path d="M87.3589 66.0357V72.3447H88.5418H89.7248V68.7959C89.7248 65.4949 89.736 65.2133 89.9614 64.6387C90.4233 63.3994 91.7076 62.3855 93.0145 62.2165L93.6003 62.1489L93.7918 61.3039C93.9045 60.842 94.0172 60.29 94.0622 60.0872L94.1298 59.7041L93.4764 59.783C92.4174 59.9182 91.257 60.2449 90.5021 60.6505C90.1078 60.8533 89.7473 61.0335 89.7022 61.0561C89.6459 61.0786 89.6121 60.7857 89.6121 60.4139V59.7267H88.4855H87.3589V66.0357Z" fill="#3D4346"/>
<path d="M74.867 60.128C73.8756 60.3984 72.9743 60.9391 72.2645 61.7165C71.5773 62.4713 70.89 63.7219 70.6985 64.5668C70.5183 65.3217 70.5521 67.2369 70.7436 67.9805C71.4308 70.6055 73.7291 72.4531 76.3091 72.4531C77.9426 72.4531 79.396 71.9236 80.6916 70.8759C81.0746 70.5604 81.3901 70.2562 81.3901 70.1999C81.3901 70.121 79.5424 68.9606 79.4072 68.9606C79.3847 68.9606 79.1256 69.1296 78.8327 69.3437C78.0328 69.8957 77.2892 70.1436 76.3767 70.1436C75.712 70.1436 75.4866 70.0872 74.9909 69.8168C73.9995 69.2648 73.2334 68.2058 72.9968 67.0679L72.918 66.7074H77.6835H82.4378L82.3702 65.885C82.2012 63.5979 80.8718 61.5024 79.0017 60.5561C77.8187 59.959 76.1401 59.7787 74.867 60.128ZM77.8751 62.5502C78.5961 62.9107 79.227 63.5303 79.5988 64.2514L79.8128 64.6795H76.4893H73.1658L73.3911 64.2288C74.0446 62.9558 75.1599 62.2235 76.5006 62.2122C77.0526 62.2009 77.323 62.2685 77.8751 62.5502Z" fill="#3D4346"/>
</svg>
