<svg width="192" height="100" viewBox="0 0 192 100" fill="none" xmlns="http://www.w3.org/2000/svg">
<rect width="192" height="100" fill="#FBFBFC"/>
<g clip-path="url(#clip0_1661_4357)">
<path fill-rule="evenodd" clip-rule="evenodd" d="M96.0002 19.5315C112.829 19.5315 126.469 33.3486 126.469 50.0001C126.469 66.8286 112.652 80.4686 96.0002 80.4686C79.1716 80.6458 65.3545 67.0058 65.3545 50.0001C65.3545 33.3486 79.1716 19.5315 96.0002 19.5315Z" fill="#3D4346"/>
<path fill-rule="evenodd" clip-rule="evenodd" d="M119.206 39.3716H119.56C119.383 40.2573 119.029 40.7887 118.498 41.3202C117.789 41.6744 117.08 41.8516 115.84 41.8516H114.778C110.88 41.6744 109.995 45.7487 110.349 48.9373C110.703 50.8859 111.412 52.8344 112.475 54.2516C113.538 55.3144 114.955 56.023 116.372 54.9602C117.435 54.0744 117.789 51.9487 117.789 50.8859C117.789 48.7602 117.08 45.5716 114.423 45.5716C113.715 45.5716 113.006 45.9259 112.298 46.6344C111.943 47.1659 111.766 48.2287 111.766 49.4687H111.235C110.88 46.9887 112.12 44.863 114.778 44.6859C117.966 44.6859 119.915 47.1659 119.915 50.3544C119.915 53.543 117.966 56.5544 114.778 56.5544C113.006 56.5544 111.766 56.023 110.703 54.6059C109.64 53.3659 109.286 51.4173 109.286 48.9373C109.286 45.7487 109.818 43.8002 110.703 42.383C111.766 40.9659 113.006 40.2573 114.955 40.2573H116.549C117.612 40.4344 118.32 40.2573 118.675 40.0802C118.852 39.903 119.206 39.7259 119.206 39.3716Z" fill="white"/>
<path fill-rule="evenodd" clip-rule="evenodd" d="M96.8858 44.6858L100.783 53.3658L104.326 45.3944L104.68 44.6858H107.692V45.0401H107.337C106.983 45.0401 106.452 45.3944 106.452 45.9258V52.4801V55.1372C106.452 55.6686 106.806 56.0229 107.337 56.0229H107.692V56.2001H105.743H103.617V55.8458H103.972C104.326 55.8458 104.857 55.4915 104.857 54.9601V52.3029V46.4572L100.429 56.2001H100.252L96.0001 46.2801V54.9601C96.0001 55.4915 96.3544 55.8458 96.7087 55.8458H96.8858V56.2001H94.9372H93.8744V55.8458H94.2287C94.583 55.8458 95.1144 55.4915 95.1144 54.9601V45.9258C95.1144 45.3944 94.9372 45.0401 94.2287 45.0401C93.6972 45.0401 93.1658 45.5715 92.8115 46.2801L88.7372 55.3144C88.383 56.0229 87.8515 56.3772 87.143 56.3772L86.2572 56.2001L86.0801 54.9601C86.4344 55.3144 86.7887 55.4915 86.9658 55.4915C87.4972 55.6686 87.8515 55.4915 88.0287 55.1372L88.5601 54.0744L84.8401 46.4572C84.4858 45.7486 84.1315 45.2172 83.6001 45.2172V44.8629H85.7258H87.3201V45.2172H86.9658C86.6115 45.2172 86.6115 45.7486 86.7887 46.1029L89.623 52.1258L92.2801 46.4572C92.6344 45.9258 92.2801 45.3944 91.9258 45.3944V45.0401H96.8858V44.6858Z" fill="white"/>
<path fill-rule="evenodd" clip-rule="evenodd" d="M80.0573 52.48V45.9257V45.5714H74.743V46.1028V52.6571V55.3143C74.743 55.8457 75.0973 56.2 75.4515 56.2H75.8058H73.8573H71.9087V55.8457H72.0858C72.4401 55.8457 72.7944 55.4914 72.7944 54.96V52.3028V45.7485C72.7944 45.2171 72.4401 44.8628 72.0858 44.8628H71.9087V44.5085H73.8573H74.2115H75.983H78.9944H80.4115H80.943H82.8915V44.8628H82.7144C82.3601 44.8628 82.0058 45.2171 82.0058 45.7485V52.3028V54.96C82.0058 55.4914 82.3601 55.8457 82.7144 55.8457H83.0687V56.2H81.1201H78.9944V55.8457H79.3487C79.703 55.8457 80.0573 55.4914 80.0573 54.96V52.48Z" fill="white"/>
</g>
<defs>
<clipPath id="clip0_1661_4357">
<rect width="62" height="62" fill="white" transform="translate(65 19)"/>
</clipPath>
</defs>
</svg>
