<svg width="192" height="100" viewBox="0 0 192 100" fill="none" xmlns="http://www.w3.org/2000/svg">
<rect width="192" height="100" fill="#FBFBFC"/>
<path d="M42.0053 65C50.2926 65 57.0107 58.2843 57.0107 50C57.0107 41.7157 50.2926 35 42.0053 35C33.7181 35 27 41.7157 27 50C27 58.2843 33.7181 65 42.0053 65Z" fill="#3D4346"/>
<path d="M35.0146 54.8595C33.396 55.1322 30.7713 54.205 30.4638 52.3554C30.1563 50.5058 32.3382 48.7678 33.9569 48.4926C34.7945 48.3512 35.6536 48.551 36.3452 49.0481C37.0367 49.5451 37.504 50.2987 37.6442 51.143C37.7845 51.9873 37.5863 52.8532 37.0931 53.5502C36.6 54.2472 35.8523 54.7181 35.0146 54.8595ZM34.1512 49.6529C32.9508 49.8537 31.4453 51.1554 31.6175 52.157C31.7897 53.1587 33.6223 53.8926 34.8154 53.6942C35.339 53.5953 35.8032 53.2934 36.1083 52.8533C36.4135 52.4131 36.5351 51.8699 36.4472 51.3404C36.3592 50.8108 36.0687 50.3372 35.638 50.0212C35.2073 49.7052 34.6708 49.5721 34.1438 49.6504L34.1512 49.6529Z" fill="white"/>
<path d="M46.4831 49.5962C46.5395 49.9383 46.6623 50.2658 46.8445 50.56C47.0266 50.8542 47.2646 51.1093 47.5448 51.3106C47.825 51.5119 48.1418 51.6555 48.4771 51.7331C48.8125 51.8108 49.1597 51.821 49.499 51.7631C49.8191 51.7056 50.1296 51.6029 50.4214 51.4582C50.7395 51.1214 50.9815 50.7192 51.1308 50.2792C51.2802 49.8393 51.3333 49.372 51.2865 48.9094C51.2398 48.4468 51.0943 47.9999 50.8601 47.5993C50.6258 47.1987 50.3084 46.854 49.9295 46.5887C49.5022 46.5045 49.0637 46.4945 48.6331 46.559C48.294 46.6161 47.9695 46.74 47.678 46.9235C47.3864 47.1071 47.1336 47.3467 46.9339 47.6287C46.7343 47.9108 46.5918 48.2297 46.5144 48.5673C46.437 48.9048 46.4264 49.2545 46.4831 49.5962Z" fill="white"/>
<path d="M50.0983 52.2587C49.2609 52.4007 48.4019 52.2017 47.7101 51.7053C47.0184 51.209 46.5506 50.456 46.4096 49.612C46.2687 48.768 46.4662 47.9022 46.9587 47.205C47.4511 46.5077 48.1982 46.0363 49.0356 45.8942C50.6567 45.6215 53.2814 46.5513 53.5864 48.3984C53.8914 50.2455 51.7169 51.986 50.0983 52.2587ZM49.2324 47.0521C48.7007 47.1418 48.2261 47.4408 47.9131 47.8832C47.6001 48.3256 47.4743 48.8753 47.5634 49.4112C47.6524 49.9471 47.949 50.4254 48.388 50.7409C48.8269 51.0564 49.3722 51.1832 49.9039 51.0934C51.1044 50.8926 52.6098 49.5909 52.4376 48.5893C52.2654 47.5876 50.4328 46.8537 49.2398 47.0521H49.2324Z" fill="white"/>
<path d="M50.8626 48.8569C50.8995 49.0776 50.9266 49.2957 50.9487 49.5139C51.0771 50.8659 50.9061 52.2298 50.4479 53.5071C49.9898 54.7844 49.2559 55.9432 48.2994 56.8999C48.2325 56.9722 48.1619 57.0409 48.0878 57.1057C47.668 57.5025 47.2108 57.8571 46.7226 58.1643C45.4593 58.9655 44.0197 59.4407 42.531 59.5479C41.0422 59.6552 39.5502 59.3912 38.1868 58.7792C38.0958 58.7395 38.0072 58.6974 37.9211 58.6553C37.4137 58.4101 36.9309 58.1162 36.4796 57.7776C34.7475 56.5025 33.5216 54.6483 33.021 52.5462C32.9718 52.3354 32.9251 52.1172 32.8882 51.8966C32.5295 49.5113 33.1157 47.0795 34.5203 45.126C35.9249 43.1725 38.0353 41.854 40.3959 41.455C42.7566 41.056 45.1782 41.6085 47.1383 42.9933C49.0983 44.3781 50.4395 46.4842 50.8724 48.8569H50.8626Z" fill="white"/>
<path d="M41.8699 58.4743C46.307 58.4743 49.904 54.849 49.904 50.3768C49.904 45.9047 46.307 42.2793 41.8699 42.2793C37.4329 42.2793 33.8359 45.9047 33.8359 50.3768C33.8359 54.849 37.4329 58.4743 41.8699 58.4743Z" fill="#3D4346"/>
<g opacity="0.4">
<path opacity="0.4" d="M46.1378 43.5166C47.7348 44.8117 48.7803 46.6731 49.0603 48.7197C49.3402 50.7663 48.8334 52.8433 47.6436 54.5257C46.4539 56.208 44.6711 57.3683 42.6603 57.7692C40.6495 58.17 38.5627 57.7811 36.8271 56.6819C37.6799 57.3734 38.6637 57.882 39.7185 58.1765C40.7732 58.471 41.8765 58.5453 42.9607 58.3946C44.0449 58.244 45.0871 57.8716 46.0234 57.3005C46.9597 56.7293 47.7704 55.9713 48.4056 55.0731C49.0409 54.1748 49.4873 53.1552 49.7176 52.0768C49.9479 50.9984 49.9572 49.884 49.7448 48.8018C49.5325 47.7197 49.103 46.6927 48.4828 45.7839C47.8625 44.875 47.0645 44.1035 46.1378 43.5166Z" fill="#3D4346"/>
</g>
<path d="M37.5995 57.2371C36.0025 55.942 34.957 54.0806 34.6771 52.034C34.3971 49.9874 34.9039 47.9103 36.0937 46.228C37.2835 44.5457 39.0662 43.3854 41.077 42.9845C43.0878 42.5837 45.1746 42.9726 46.9102 44.0718C46.0575 43.3803 45.0736 42.8717 44.0189 42.5772C42.9642 42.2826 41.8609 42.2084 40.7767 42.3591C39.6925 42.5097 38.6503 42.882 37.714 43.4532C36.7776 44.0244 35.967 44.7823 35.3317 45.6806C34.6965 46.5789 34.25 47.5985 34.0197 48.6769C33.7894 49.7553 33.7802 50.8697 33.9925 51.9518C34.2049 53.034 34.6344 54.061 35.2546 54.9698C35.8749 55.8787 36.6728 56.6502 37.5995 57.2371Z" fill="#3D4346"/>
<path d="M45.8729 53.4959C43.4342 54.4508 40.8271 54.8913 38.2128 54.7901C37.3863 54.7604 36.5819 54.2943 35.9571 53.6967C35.3379 53.1208 34.9152 52.3624 34.7493 51.5298C34.6865 51.1548 34.699 50.7709 34.786 50.4008C34.8731 50.0307 35.0329 49.682 35.256 49.3753C35.7013 48.7273 36.3817 48.282 37.1501 48.1356L44.7241 46.8562C45.4978 46.7414 46.2852 46.9382 46.9159 47.4042C47.2261 47.6211 47.49 47.8986 47.6919 48.2201C47.8939 48.5416 48.0299 48.9007 48.0917 49.2761C48.2049 50.1169 48.0498 50.9721 47.6489 51.7182C47.2554 52.4967 46.6429 53.1959 45.8729 53.4959Z" fill="white"/>
<g opacity="0.2">
<path opacity="0.2" d="M48.5436 49.276C48.6092 49.6824 48.6009 50.0975 48.519 50.5008C48.4389 50.9254 48.2989 51.3361 48.1032 51.7207C47.7047 52.4967 47.0947 53.1959 46.3247 53.4934C44.8814 54.0607 43.3746 54.4478 41.8379 54.6463C41.9997 54.484 42.2006 54.367 42.4209 54.3066C43.2745 54.0438 46.5264 53.8331 47.3997 52.3232C48.273 50.8132 49.1364 48.9488 47.4637 47.6298C46.9568 47.2346 46.3684 46.9592 45.7417 46.824C46.3281 46.8582 46.8928 47.0594 47.3702 47.4041C47.6799 47.6213 47.9433 47.8989 48.1449 48.2204C48.3464 48.5419 48.482 48.9008 48.5436 49.276Z" fill="white"/>
</g>
<path d="M39.5924 51.0762C39.6796 51.4066 39.6333 51.7583 39.4636 52.0544C39.2939 52.3504 39.0147 52.5666 38.6872 52.6555C38.3594 52.7434 38.0103 52.6967 37.7166 52.5257C37.4229 52.3547 37.2084 52.0732 37.1202 51.7431C37.033 51.4127 37.0793 51.0609 37.249 50.7649C37.4187 50.4689 37.6979 50.2527 38.0254 50.1638C38.3533 50.0759 38.7023 50.1226 38.996 50.2936C39.2897 50.4646 39.5042 50.746 39.5924 51.0762Z" fill="#3D4346"/>
<path d="M43.3771 50.6745C43.4831 50.6525 43.5931 50.6618 43.6939 50.7014C43.7947 50.741 43.8821 50.8091 43.9453 50.8976C43.9881 50.9596 44.0478 51.0079 44.1172 51.0365C44.1866 51.0651 44.2628 51.0728 44.3364 51.0588C44.436 51.0379 44.5233 50.9782 44.5795 50.8928C44.6357 50.8074 44.6562 50.7031 44.6365 50.6026C44.6247 50.549 44.6021 50.4983 44.5701 50.4538C44.4215 50.243 44.2155 50.08 43.9769 49.9847C43.7384 49.8893 43.4775 49.8657 43.2259 49.9165C42.9743 49.9674 42.7428 50.0907 42.5592 50.2714C42.3756 50.4521 42.2478 50.6825 42.1914 50.9348C42.1686 51.0348 42.1861 51.1398 42.2401 51.2267C42.294 51.3136 42.38 51.3754 42.4792 51.3985C42.5328 51.4096 42.588 51.4096 42.6416 51.3985C42.7145 51.3825 42.7814 51.3458 42.8342 51.2926C42.8869 51.2394 42.9234 51.172 42.9392 51.0985C42.9644 50.993 43.019 50.8971 43.0966 50.8219C43.1742 50.7468 43.2715 50.6956 43.3771 50.6745Z" fill="#3D4346"/>
<path d="M38.4719 48.2247L37.3182 48.4206C37.0408 47.0478 36.343 45.7973 35.3232 44.8454L36.1276 43.99C37.3293 45.1196 38.1492 46.6007 38.4719 48.2247Z" fill="white"/>
<path d="M44.9094 47.1362L43.7557 47.3321C43.5349 45.6911 43.8309 44.0217 44.6019 42.5593L45.64 43.1048C44.9829 44.3381 44.7273 45.7484 44.9094 47.1362Z" fill="white"/>
<path d="M40.0101 41.0147C36.1874 41.6619 36.4137 42.7503 36.4137 42.7503C36.4137 42.7503 37.1147 43.1197 37.924 44.3718C38.2213 44.8026 38.6636 45.11 39.1688 45.2371C39.6746 45.3797 40.2053 45.4092 40.7237 45.3236C41.2421 45.2379 41.7356 45.0392 42.1698 44.7412C42.6058 44.4559 42.9241 44.0206 43.0652 43.5164C43.4268 42.066 43.9705 41.4858 43.9705 41.4858C43.9705 41.4858 43.8327 40.3701 40.0101 41.0147Z" fill="#3D4346"/>
<g opacity="0.35">
<g opacity="0.35">
<path opacity="0.35" d="M43.0761 43.4966C43.4377 42.0462 43.9813 41.4685 43.9813 41.4685C43.9813 41.4685 43.8436 40.3677 40.0209 41.0148C38.4884 41.2628 37.6053 41.6024 37.0986 41.9049C36.9616 42.1054 36.8547 42.3251 36.7812 42.557C36.7812 42.557 40.4293 41.1388 41.9716 42.0909C43.514 43.0429 40.7121 45.3512 38.8229 44.7685C38.2153 44.5826 38.331 44.7685 38.7836 45.0809C38.9113 45.1415 39.0438 45.1912 39.1796 45.2297C39.6855 45.3723 40.2162 45.4019 40.7346 45.3162C41.2529 45.2306 41.7465 45.0318 42.1807 44.7338C42.6193 44.4457 42.9378 44.0055 43.0761 43.4966Z" fill="white"/>
</g>
</g>
<path d="M40.7752 45.6091C40.213 45.7066 39.6362 45.6753 39.0877 45.5173C38.5129 45.3726 38.0111 45.0195 37.6781 44.5256C36.9402 43.3678 36.2809 43.0082 36.276 43.0058L36.1555 42.9388L36.1235 42.8025C36.1104 42.6995 36.1178 42.595 36.1452 42.4949C36.1727 42.3949 36.2197 42.3014 36.2834 42.2198C36.7311 41.5603 37.9684 41.0545 39.9609 40.7173C41.9534 40.3801 43.2891 40.452 43.9238 40.9281C44.01 40.9842 44.0843 41.0568 44.1425 41.1419C44.2008 41.227 44.2418 41.3229 44.2633 41.424L44.2805 41.5628L44.1846 41.6644C44.1846 41.6644 43.6926 42.2223 43.3531 43.5611C43.1965 44.1366 42.8359 44.6341 42.3396 44.9595C41.8723 45.2901 41.3379 45.5119 40.7752 45.6091ZM36.736 42.6091C37.304 43.0494 37.7875 43.5905 38.1627 44.2058C38.4205 44.5783 38.8046 44.8429 39.2426 44.9496C39.7063 45.0764 40.1917 45.1007 40.6656 45.0207C41.1395 44.9406 41.5905 44.7582 41.9879 44.4859C42.3667 44.2408 42.6446 43.8655 42.7701 43.4297C42.9241 42.7227 43.2059 42.0503 43.6016 41.4463C43.3949 41.2628 42.6324 40.8711 40.0495 41.3074C37.5601 41.7289 36.9205 42.324 36.7606 42.5471L36.736 42.5942V42.6091Z" fill="white"/>
<g opacity="0.15">
<g opacity="0.15">
<path opacity="0.15" d="M35.2928 50.5132C35.3685 50.2135 35.4995 49.9309 35.679 49.6801C35.8631 49.4181 36.0922 49.1914 36.3555 49.0107C36.6177 48.8284 36.9154 48.7041 37.2287 48.6462L38.8178 48.376C38.8685 48.3675 38.9206 48.3738 38.9679 48.394C39.0152 48.4142 39.0558 48.4476 39.085 48.4903C39.1141 48.533 39.1306 48.5831 39.1325 48.6349C39.1345 48.6866 39.1217 48.7379 39.0958 48.7826C38.5079 49.8066 37.8658 51.4206 37.6198 53.7661C37.6171 53.8021 37.6072 53.8371 37.5908 53.8692C37.5743 53.9013 37.5517 53.9297 37.5242 53.9528C37.4967 53.9759 37.4648 53.9933 37.4306 54.0038C37.3963 54.0143 37.3603 54.0178 37.3247 54.014C37.2913 54.0107 37.2589 54.0015 37.2287 53.9867C36.8887 53.8109 36.5768 53.5844 36.3038 53.3148C35.7638 52.8182 35.3935 52.1621 35.246 51.4405C35.1977 51.1314 35.2137 50.8157 35.2928 50.5132Z" fill="white"/>
</g>
</g>
<path d="M75.1129 51.0674L76.8217 54.0019C76.9308 54.197 76.9907 54.416 76.9959 54.6399C76.9898 54.9869 76.8503 55.318 76.6068 55.5635C76.3632 55.8089 76.0347 55.9495 75.6904 55.9556C75.4578 55.9552 75.2295 55.8921 75.0292 55.773C74.8289 55.6538 74.6638 55.4829 74.5511 55.2778L72.4228 51.3864H70.4845V54.6399C70.4762 54.9931 70.3305 55.329 70.079 55.5751C69.8274 55.8212 69.49 55.9578 69.1394 55.9556C68.7945 55.9515 68.4648 55.8116 68.2209 55.5657C67.9769 55.3198 67.8381 54.9876 67.834 54.6399V44.8076C67.834 44.4092 67.9905 44.0271 68.2692 43.7447C68.5479 43.4622 68.9262 43.3025 69.3214 43.3004H73.657C74.1646 43.2601 74.6751 43.3209 75.1593 43.4794C75.6435 43.6379 76.0921 43.891 76.4793 44.2242C76.8664 44.5575 77.1846 44.9643 77.4158 45.4215C77.647 45.8787 77.7866 46.3773 77.8265 46.8889C77.8344 47.0403 77.8344 47.192 77.8265 47.3434C77.8771 48.1859 77.6334 49.0196 77.1376 49.6999C76.6419 50.3801 75.9256 50.864 75.1129 51.0674ZM70.4845 45.6528V49.0339H73.2614C73.7072 49.0808 74.1533 48.9477 74.5018 48.6637C74.8503 48.3797 75.0729 47.968 75.1208 47.5188C75.1247 47.4604 75.1247 47.4018 75.1208 47.3434C75.1208 47.1197 75.0769 46.8981 74.9918 46.6915C74.9066 46.4849 74.7817 46.2973 74.6244 46.1395C74.467 45.9817 74.2803 45.8567 74.0749 45.7719C73.8696 45.687 73.6496 45.6438 73.4277 45.6449H70.4766L70.4845 45.6528Z" fill="#3D4346"/>
<path d="M86.6808 52.0642H81.1425C81.2256 52.6832 81.5409 53.2465 82.0237 53.6381C82.5065 54.0298 83.1199 54.2199 83.7376 54.1694C84.3498 54.1547 84.9505 53.9992 85.494 53.7149C85.6388 53.6414 85.7986 53.6031 85.9608 53.6032C86.2191 53.5988 86.4688 53.6965 86.6566 53.8753C86.8444 54.0542 86.9553 54.3 86.9656 54.5601C86.9656 55.6367 84.6711 56.0673 83.4765 56.0673C82.2679 56.1347 81.0822 55.7156 80.1801 54.9021C79.2781 54.0886 78.7335 52.9474 78.6661 51.7292C78.6582 51.5832 78.6582 51.4367 78.6661 51.2907C78.645 50.6812 78.7437 50.0736 78.9565 49.5028C79.1692 48.9319 79.4919 48.4091 79.9058 47.9645C80.3198 47.5198 80.8169 47.162 81.3686 46.9117C81.9203 46.6614 82.5157 46.5236 83.1205 46.5061H83.3262C84.2652 46.484 85.1855 46.772 85.9469 47.3263C86.7082 47.8807 87.2689 48.6708 87.5431 49.5762C87.6937 50.0187 87.7815 50.4805 87.8042 50.9478C87.8053 51.096 87.7769 51.243 87.7206 51.38C87.6644 51.517 87.5813 51.6412 87.4766 51.7453C87.3718 51.8494 87.2474 51.9313 87.1107 51.986C86.974 52.0408 86.8278 52.0674 86.6808 52.0642ZM83.3024 48.4358C82.7474 48.4217 82.208 48.6219 81.7947 48.9955C81.3814 49.3691 81.1254 49.8878 81.0792 50.4454H85.5256C85.5029 49.8954 85.2675 49.3763 84.8697 48.9992C84.4719 48.6221 83.9434 48.417 83.3974 48.4279L83.3024 48.4358Z" fill="#3D4346"/>
<path d="M97.4387 48.2606L94.8121 54.8234C94.6802 55.1555 94.4532 55.4404 94.1602 55.6421C93.8671 55.8437 93.5212 55.9529 93.1664 55.9558C92.8098 55.9567 92.461 55.8502 92.1649 55.6498C91.8689 55.4495 91.639 55.1644 91.5049 54.8314L88.8703 48.2685C88.8154 48.1312 88.7834 47.9857 88.7754 47.8379C88.7857 47.5206 88.9191 47.2201 89.1469 47.0009C89.3748 46.7817 89.6788 46.6614 89.9937 46.6657C90.2232 46.6662 90.4472 46.7364 90.6364 46.8673C90.8255 46.9983 90.9711 47.1837 91.054 47.3994L93.1664 53.085L95.2709 47.4233C95.3467 47.1931 95.4919 46.9926 95.6862 46.8496C95.8805 46.7067 96.1143 46.6284 96.3548 46.6258C96.6661 46.6216 96.9665 46.7416 97.1903 46.9597C97.4142 47.1778 97.5433 47.4763 97.5495 47.7901C97.5515 47.9537 97.5134 48.1153 97.4387 48.2606Z" fill="#3D4346"/>
<path d="M106.563 52.0643H101.024C101.107 52.6833 101.423 53.2466 101.906 53.6382C102.388 54.0299 103.002 54.22 103.619 54.1695C104.232 54.1548 104.832 53.9993 105.376 53.7149C105.521 53.6414 105.68 53.6032 105.843 53.6033C106.101 53.5989 106.351 53.6966 106.538 53.8754C106.726 54.0543 106.837 54.3 106.847 54.5602C106.847 55.6368 104.553 56.0674 103.358 56.0674C102.15 56.1348 100.964 55.7157 100.062 54.9022C99.1599 54.0887 98.6154 52.9474 98.548 51.7293C98.54 51.5833 98.54 51.4368 98.548 51.2907C98.5269 50.6813 98.6255 50.0737 98.8383 49.5029C99.0511 48.932 99.3737 48.4092 99.7877 47.9646C100.202 47.5199 100.699 47.1621 101.25 46.9118C101.802 46.6615 102.398 46.5237 103.002 46.5062H103.216C104.154 46.4831 105.074 46.771 105.834 47.3256C106.595 47.8802 107.153 48.6708 107.425 49.5763C107.583 50.0168 107.671 50.4797 107.686 50.9479C107.687 51.0961 107.659 51.2431 107.602 51.3801C107.546 51.5171 107.463 51.6413 107.358 51.7454C107.254 51.8495 107.129 51.9314 106.993 51.9861C106.856 52.0409 106.71 52.0675 106.563 52.0643ZM103.176 48.428C102.621 48.4138 102.082 48.614 101.669 48.9876C101.255 49.3612 100.999 49.8799 100.953 50.4375H105.4C105.388 50.161 105.323 49.8894 105.208 49.6382C105.092 49.3871 104.929 49.1614 104.727 48.974C104.525 48.7866 104.288 48.6413 104.03 48.5462C103.772 48.4511 103.498 48.4082 103.224 48.42H103.176V48.428Z" fill="#3D4346"/>
<path d="M116.673 55.9555C116.364 55.9555 116.067 55.8322 115.848 55.6126C115.628 55.393 115.504 55.0949 115.502 54.7832V50.3495C115.561 49.9639 115.468 49.5702 115.241 49.2537C115.014 48.9373 114.673 48.7236 114.291 48.659C114.142 48.6351 113.99 48.6351 113.84 48.659C113.438 48.6636 113.042 48.7634 112.685 48.9504C112.327 49.1373 112.019 49.4063 111.783 49.7355V54.8072C111.783 55.1202 111.66 55.4204 111.44 55.6417C111.221 55.863 110.923 55.9873 110.612 55.9873C110.459 55.9884 110.306 55.9589 110.164 55.9006C110.021 55.8422 109.892 55.7562 109.782 55.6473C109.673 55.5385 109.586 55.409 109.526 55.2662C109.466 55.1234 109.435 54.9701 109.434 54.8151V47.8536C109.436 47.6979 109.468 47.5442 109.529 47.4012C109.591 47.2583 109.679 47.129 109.79 47.0208C109.902 46.9126 110.033 46.8276 110.176 46.7707C110.32 46.7138 110.474 46.6861 110.628 46.6893C110.935 46.6893 111.228 46.812 111.445 47.0303C111.662 47.2486 111.783 47.5448 111.783 47.8536V47.9891C112.178 47.5371 112.666 47.1769 113.212 46.9332C113.758 46.6895 114.351 46.5682 114.948 46.5777C116.926 46.5777 117.875 47.702 117.875 49.4723V54.8072C117.873 55.1209 117.748 55.4211 117.527 55.6422C117.306 55.8633 117.008 55.9874 116.697 55.9873L116.673 55.9555Z" fill="#3D4346"/>
<path d="M127.481 55.9557C127.327 55.9568 127.174 55.9273 127.032 55.8689C126.889 55.8106 126.76 55.7245 126.65 55.6157C126.541 55.5068 126.454 55.3773 126.394 55.2345C126.334 55.0917 126.303 54.9385 126.302 54.7835V54.6958C125.9 55.1368 125.411 55.4871 124.865 55.7235C124.32 55.96 123.731 56.0771 123.137 56.0673C121.159 56.0673 120.226 54.9749 120.226 53.2125V47.8139C120.232 47.5002 120.361 47.2017 120.585 46.9836C120.809 46.7654 121.109 46.6454 121.42 46.6497C121.726 46.6518 122.019 46.7751 122.235 46.993C122.451 47.2109 122.573 47.5058 122.575 47.8139V52.2716C122.514 52.6533 122.605 53.0441 122.829 53.3581C123.053 53.6721 123.391 53.8836 123.77 53.9462C123.925 53.9694 124.082 53.9694 124.237 53.9462C124.633 53.9379 125.023 53.8405 125.378 53.6612C125.732 53.4819 126.042 53.2251 126.286 52.9095V47.8139C126.288 47.6579 126.321 47.5038 126.382 47.3604C126.443 47.2171 126.531 47.0873 126.642 46.9784C126.753 46.8696 126.884 46.7838 127.028 46.726C127.172 46.6682 127.326 46.6396 127.481 46.6417C127.788 46.6417 128.082 46.7641 128.3 46.9822C128.518 47.2003 128.642 47.4965 128.644 47.806V54.8074C128.644 55.1212 128.521 55.4222 128.301 55.6448C128.082 55.8674 127.784 55.9935 127.473 55.9956L127.481 55.9557Z" fill="#3D4346"/>
<path d="M138.485 52.0641H132.947C133.032 52.6823 133.348 53.2445 133.83 53.6358C134.313 54.0271 134.925 54.2179 135.542 54.1693C136.154 54.1547 136.755 53.9992 137.299 53.7148C137.443 53.6413 137.603 53.6031 137.765 53.6032C138.024 53.5988 138.274 53.6965 138.461 53.8753C138.649 54.0541 138.76 54.2999 138.77 54.5601C138.77 55.6366 136.476 56.0672 135.281 56.0672C134.073 56.1347 132.887 55.7156 131.985 54.9021C131.083 54.0886 130.538 52.9473 130.471 51.7292C130.463 51.5831 130.463 51.4367 130.471 51.2906C130.45 50.6812 130.548 50.0736 130.761 49.5027C130.974 48.9319 131.297 48.4091 131.711 47.9644C132.125 47.5197 132.622 47.162 133.173 46.9117C133.725 46.6614 134.32 46.5235 134.925 46.506H135.139C136.077 46.4843 136.996 46.7727 137.756 47.3271C138.516 47.8815 139.075 48.6714 139.348 49.5761C139.506 50.0166 139.594 50.4795 139.609 50.9477C139.61 51.096 139.582 51.243 139.525 51.38C139.469 51.5169 139.386 51.6412 139.281 51.7453C139.177 51.8494 139.052 51.9312 138.915 51.986C138.779 52.0408 138.633 52.0673 138.485 52.0641ZM135.107 48.4358C134.552 48.4216 134.013 48.6219 133.6 48.9955C133.186 49.369 132.93 49.8877 132.884 50.4453H137.33C137.319 50.1688 137.254 49.8972 137.138 49.6461C137.023 49.395 136.86 49.1692 136.658 48.9819C136.455 48.7945 136.219 48.6491 135.961 48.554C135.703 48.4589 135.429 48.4161 135.155 48.4278L135.107 48.4358Z" fill="#3D4346"/>
<path d="M142.474 56.0515C142.175 56.0515 141.883 55.9622 141.634 55.7949C141.386 55.6275 141.192 55.3896 141.078 55.1113C140.964 54.833 140.934 54.5268 140.992 54.2313C141.05 53.9359 141.194 53.6645 141.405 53.4515C141.617 53.2385 141.886 53.0934 142.179 53.0346C142.472 52.9759 142.776 53.006 143.052 53.1213C143.328 53.2366 143.564 53.4318 143.73 53.6823C143.896 53.9328 143.985 54.2272 143.985 54.5285C143.979 54.9305 143.818 55.3143 143.536 55.5986C143.254 55.8829 142.873 56.0454 142.474 56.0515Z" fill="#3D4346"/>
<path d="M155.687 55.9557C155.409 55.9559 155.137 55.8716 154.907 55.7137C154.677 55.5558 154.5 55.3317 154.398 55.0706L153.915 53.715H148.583L148.076 55.0706C147.974 55.3342 147.794 55.5601 147.56 55.7182C147.327 55.8763 147.052 55.9592 146.771 55.9557C146.586 55.9547 146.403 55.917 146.232 55.8447C146.062 55.7724 145.907 55.6669 145.777 55.5344C145.647 55.4018 145.544 55.2448 145.475 55.0721C145.405 54.8995 145.369 54.7147 145.37 54.5283C145.362 54.3531 145.395 54.1783 145.465 54.018L149.105 44.6003C149.265 44.187 149.544 43.8316 149.906 43.5799C150.269 43.3283 150.698 43.1921 151.138 43.1889C151.614 43.151 152.09 43.2676 152.495 43.5215C152.901 43.7755 153.216 44.1535 153.393 44.6003L157.017 54.018C157.073 54.1822 157.102 54.3546 157.104 54.5283C157.104 54.9069 156.954 55.27 156.689 55.5377C156.423 55.8054 156.063 55.9557 155.687 55.9557ZM151.249 45.9719L149.303 51.3705H153.187L151.249 45.9719Z" fill="#3D4346"/>
<path d="M160.141 55.9558C159.796 55.9537 159.465 55.8144 159.221 55.5681C158.976 55.3218 158.838 54.9884 158.836 54.64V44.5047C158.862 44.1683 159.013 43.8541 159.258 43.6249C159.504 43.3956 159.826 43.2683 160.161 43.2683C160.496 43.2683 160.818 43.3956 161.064 43.6249C161.31 43.8541 161.461 44.1683 161.486 44.5047V54.64C161.478 54.9933 161.332 55.3291 161.081 55.5752C160.829 55.8213 160.492 55.958 160.141 55.9558Z" fill="#3D4346"/>
</svg>
