<svg width="385" height="100" viewBox="0 0 385 100" fill="none" xmlns="http://www.w3.org/2000/svg">
<path d="M50.721 89.8069C72.6583 89.8069 90.442 72.1654 90.442 50.4035C90.442 28.6415 72.6583 11 50.721 11C28.7837 11 11 28.6415 11 50.4035C11 72.1654 28.7837 89.8069 50.721 89.8069Z" fill="#08CFE8"/>
<path d="M32.2148 63.1689C27.9301 63.8853 20.9822 61.4495 20.1682 56.5908C19.3543 51.7321 25.1301 47.1665 29.4147 46.4436C31.6322 46.0722 33.9063 46.5971 35.7369 47.9028C37.5674 49.2085 38.8044 51.1881 39.1757 53.406C39.547 55.6239 39.0223 57.8985 37.7168 59.7294C36.4114 61.5603 34.4322 62.7975 32.2148 63.1689ZM29.9292 49.4917C26.7515 50.0192 22.7664 53.4385 23.2222 56.0698C23.678 58.701 28.5292 60.6288 31.6873 60.1078C33.0733 59.8481 34.3023 59.0549 35.11 57.8987C35.9176 56.7425 36.2397 55.3156 36.0069 53.9245C35.7741 52.5334 35.005 51.2892 33.8649 50.4591C32.7249 49.629 31.3047 49.2793 29.9096 49.4852L29.9292 49.4917Z" fill="#061E2D"/>
<path d="M62.5725 49.3419C62.7217 50.2405 63.0467 51.1009 63.529 51.8738C64.0112 52.6466 64.6412 53.3166 65.3829 53.8454C66.1245 54.3742 66.9632 54.7514 67.8509 54.9554C68.7386 55.1594 69.6577 55.1862 70.5558 55.0342C71.4033 54.883 72.2253 54.6133 72.9976 54.2331C73.8396 53.3484 74.4802 52.2919 74.8755 51.1362C75.2708 49.9805 75.4114 48.753 75.2877 47.5378C75.164 46.3226 74.7789 45.1486 74.1588 44.0963C73.5387 43.0441 72.6983 42.1384 71.6953 41.4416C70.5642 41.2204 69.4037 41.194 68.2637 41.3635C67.3662 41.5135 66.5071 41.8389 65.7353 42.3211C64.9636 42.8033 64.2943 43.4328 63.7658 44.1736C63.2374 44.9145 62.86 45.7522 62.6552 46.639C62.4505 47.5258 62.4224 48.4442 62.5725 49.3419Z" fill="#061E2D"/>
<path d="M72.1445 56.3367C69.9279 56.7098 67.6539 56.1869 65.8228 54.883C63.9916 53.5791 62.7533 51.6011 62.3803 49.3841C62.0072 47.167 62.53 44.8925 63.8336 43.061C65.1372 41.2295 67.1149 39.991 69.3315 39.6179C73.6226 38.9014 80.5706 41.3438 81.378 46.196C82.1854 51.0481 76.4291 55.6202 72.1445 56.3367ZM69.8524 42.6594C68.4449 42.8952 67.1887 43.6806 66.3601 44.8427C65.5316 46.0049 65.1985 47.4487 65.4343 48.8565C65.67 50.2643 66.4552 51.5208 67.6171 52.3495C68.7791 53.1782 70.2226 53.5113 71.6301 53.2755C74.8078 52.748 78.7928 49.3287 78.337 46.6975C77.8812 44.0662 73.03 42.1384 69.8719 42.6594H69.8524Z" fill="#061E2D"/>
<path d="M74.1628 47.401C74.2605 47.9806 74.3321 48.5538 74.3907 49.1269C74.7306 52.6785 74.2779 56.2613 73.0651 59.6166C71.8523 62.9719 69.9097 66.016 67.3776 68.529C67.2007 68.719 67.0138 68.8995 66.8177 69.0696C65.7064 70.1121 64.496 71.0435 63.2037 71.8506C59.8597 73.9552 56.0488 75.2035 52.108 75.4852C48.1671 75.7669 44.2176 75.0734 40.6083 73.4659C40.3674 73.3617 40.133 73.2509 39.9051 73.1402C38.5619 72.4963 37.284 71.7242 36.0892 70.8346C31.5041 67.4852 28.2591 62.6143 26.9339 57.0923C26.8036 56.5387 26.6799 55.9655 26.5822 55.3859C25.6327 49.1199 27.1845 42.7318 30.9027 37.6002C34.6209 32.4686 40.2073 29.005 46.4562 27.9568C52.7052 26.9087 59.1156 28.3602 64.304 31.9979C69.4924 35.6357 73.0427 41.168 74.1888 47.401H74.1628Z" fill="#061E2D"/>
<path d="M50.3637 72.6648C62.1091 72.6648 71.6307 63.1413 71.6307 51.3934C71.6307 39.6456 62.1091 30.1221 50.3637 30.1221C38.6182 30.1221 29.0967 39.6456 29.0967 51.3934C29.0967 63.1413 38.6182 72.6648 50.3637 72.6648Z" fill="#EDEFEF"/>
<g opacity="0.4">
<path opacity="0.4" d="M61.6612 33.3721C65.8886 36.7742 68.6562 41.6638 69.3972 47.04C70.1382 52.4162 68.7966 57.8724 65.6472 62.2917C62.4977 66.711 57.7786 69.7591 52.4558 70.8121C47.1329 71.8651 41.6089 70.8433 37.0146 67.9559C39.2719 69.7724 41.8763 71.1085 44.6683 71.8822C47.4602 72.6559 50.3808 72.8508 53.2508 72.4551C56.1208 72.0593 58.8796 71.0813 61.3582 69.5809C63.8367 68.0805 65.9826 66.0894 67.6643 63.7298C69.3459 61.3701 70.5277 58.6917 71.1373 55.8589C71.7469 53.0261 71.7714 50.0985 71.2093 47.2558C70.6472 44.4132 69.5103 41.7154 67.8685 39.3279C66.2266 36.9405 64.1142 34.9138 61.6612 33.3721Z" fill="#7B878D"/>
</g>
<path d="M39.0587 69.4149C34.8312 66.0128 32.0637 61.1231 31.3227 55.7469C30.5817 50.3707 31.9232 44.9145 35.0727 40.4952C38.2221 36.0759 42.9413 33.0278 48.2642 31.9748C53.587 30.9218 59.1109 31.9436 63.7052 34.831C61.448 33.0145 58.8435 31.6784 56.0516 30.9048C53.2596 30.1311 50.339 29.9361 47.4691 30.3319C44.5991 30.7276 41.8402 31.7057 39.3617 33.2061C36.8832 34.7065 34.7373 36.6976 33.0557 39.0572C31.3741 41.4168 30.1922 44.0952 29.5826 46.928C28.9729 49.7609 28.9485 52.6884 29.5106 55.5311C30.0727 58.3737 31.2096 61.0716 32.8515 63.459C34.4934 65.8464 36.6056 67.8732 39.0587 69.4149Z" fill="white"/>
<path d="M60.9569 59.5867C54.5014 62.095 47.6001 63.2521 40.6797 62.9864C38.4918 62.9083 36.3624 61.6838 34.7085 60.1142C33.0696 58.6012 31.9506 56.6089 31.5113 54.4219C31.3451 53.4367 31.3782 52.4282 31.6086 51.456C31.839 50.4839 32.262 49.5678 32.8527 48.7621C34.0314 47.0599 35.8325 45.8901 37.8667 45.5056L57.9159 42.1449C59.9639 41.8431 62.0483 42.3602 63.7178 43.5843C64.539 44.1542 65.2375 44.883 65.7721 45.7276C66.3067 46.5722 66.6666 47.5155 66.8304 48.5016C67.13 50.7102 66.7195 52.9569 65.6583 54.9169C64.6164 56.9619 62.9951 58.7986 60.9569 59.5867Z" fill="#061E2D"/>
<g opacity="0.2">
<path opacity="0.2" d="M68.0291 48.5016C68.2029 49.5691 68.1809 50.6594 67.964 51.719C67.7519 52.8342 67.3813 53.9133 66.8634 54.9234C65.8086 56.962 64.1937 58.7986 62.1555 59.5802C58.3348 61.0704 54.3461 62.0874 50.2783 62.6087C50.7067 62.1825 51.2385 61.875 51.8216 61.7164C54.0811 61.0261 62.6895 60.4725 65.0011 56.5061C67.3128 52.5397 69.5984 47.6419 65.1704 44.177C63.8287 43.1389 62.271 42.4155 60.6123 42.0603C62.1644 42.1502 63.6592 42.6787 64.923 43.5843C65.7429 44.1549 66.4402 44.8839 66.9737 45.7285C67.5072 46.5731 67.866 47.516 68.0291 48.5016Z" fill="white"/>
</g>
<path d="M44.333 53.2301C44.5638 54.098 44.4412 55.0221 43.9921 55.7997C43.5429 56.5774 42.8038 57.1452 41.9367 57.3788C41.069 57.6097 40.145 57.487 39.3675 57.0378C38.59 56.5885 38.0223 55.8493 37.7888 54.982C37.558 54.1141 37.6806 53.19 38.1298 52.4124C38.5789 51.6347 39.318 51.0668 40.1851 50.8333C41.0528 50.6024 41.9767 50.725 42.7542 51.1743C43.5317 51.6236 44.0995 52.3628 44.333 53.2301Z" fill="#08CFE8"/>
<path d="M54.3539 52.175C54.6344 52.1172 54.9257 52.1417 55.1926 52.2457C55.4595 52.3497 55.6907 52.5287 55.8581 52.7612C55.9715 52.9241 56.1295 53.0508 56.3132 53.1259C56.4969 53.201 56.6984 53.2213 56.8935 53.1845C57.1569 53.1296 57.3881 52.9729 57.5368 52.7486C57.6856 52.5242 57.7398 52.2502 57.6879 51.9861C57.6564 51.8453 57.5966 51.7123 57.512 51.5953C57.1186 51.0415 56.5732 50.6134 55.9418 50.3629C55.3103 50.1125 54.6199 50.0503 53.9538 50.1839C53.2878 50.3176 52.6748 50.6413 52.1888 51.116C51.7028 51.5907 51.3647 52.1961 51.2153 52.8589C51.1549 53.1214 51.2012 53.3972 51.3441 53.6256C51.487 53.854 51.7147 54.0163 51.9771 54.0768C52.1189 54.1061 52.2652 54.1061 52.4069 54.0768C52.6001 54.035 52.777 53.9384 52.9168 53.7987C53.0565 53.6589 53.153 53.4819 53.1948 53.2887C53.2615 53.0117 53.4061 52.7597 53.6115 52.5623C53.8169 52.3649 54.0745 52.2305 54.3539 52.175Z" fill="#08CFE8"/>
<path d="M41.3633 45.7404L38.3093 46.2549C37.5749 42.6487 35.7278 39.3639 33.0283 36.8632L35.1576 34.6162C38.3387 37.5837 40.5091 41.4743 41.3633 45.7404Z" fill="#061E2D"/>
<path d="M58.4034 42.8811L55.3495 43.3956C54.7651 39.085 55.5485 34.6996 57.5895 30.8582L60.3374 32.291C58.5979 35.5307 57.9214 39.2356 58.4034 42.8811Z" fill="#061E2D"/>
<path d="M45.4409 26.8005C35.3218 28.5004 35.9208 31.3595 35.9208 31.3595C35.9208 31.3595 37.7766 32.33 39.9189 35.619C40.7058 36.7507 41.8766 37.5584 43.2139 37.8921C44.553 38.2667 45.9578 38.3443 47.33 38.1193C48.7022 37.8943 50.0086 37.3722 51.158 36.5895C52.3122 35.8401 53.1546 34.6966 53.5283 33.3721C54.4855 29.562 55.9246 28.0379 55.9246 28.0379C55.9246 28.0379 55.56 25.1071 45.4409 26.8005Z" fill="#08CFE8"/>
<g opacity="0.35">
<g opacity="0.35">
<path opacity="0.35" d="M53.5539 33.32C54.5111 29.5099 55.9501 27.9924 55.9501 27.9924C55.9501 27.9924 55.5855 25.1006 45.4664 26.8005C41.4097 27.4518 39.072 28.3441 37.7306 29.1386C37.368 29.6653 37.085 30.2424 36.8906 30.8515C36.8906 30.8515 46.5474 27.1261 50.6302 29.6271C54.713 32.1281 47.2962 38.1917 42.2952 36.6611C40.6869 36.1726 40.9929 36.6611 42.191 37.4818C42.5291 37.6407 42.8798 37.7714 43.2395 37.8725C44.5786 38.2472 45.9833 38.3248 47.3555 38.0998C48.7277 37.8748 50.0342 37.3527 51.1836 36.5699C52.3445 35.813 53.1878 34.6568 53.5539 33.32Z" fill="#061E2D"/>
</g>
</g>
<path d="M47.465 38.869C45.9768 39.1252 44.45 39.0429 42.998 38.628C41.4765 38.2477 40.1482 37.3203 39.2668 36.0229C37.3133 32.9813 35.5682 32.0369 35.5552 32.0304L35.2361 31.8546L35.1514 31.4963C35.1168 31.2259 35.1363 30.9512 35.209 30.6884C35.2817 30.4257 35.406 30.18 35.5747 29.9658C36.7598 28.2333 40.0351 26.9047 45.3096 26.0189C50.584 25.1332 54.1198 25.3221 55.7998 26.5725C56.0279 26.7199 56.2247 26.9108 56.3789 27.1343C56.5331 27.3578 56.6416 27.6096 56.6984 27.8751L56.744 28.2399L56.4901 28.5069C56.4901 28.5069 55.1878 29.9723 54.2891 33.4893C53.8746 35.0009 52.92 36.308 51.6064 37.1626C50.3692 38.031 48.9547 38.6138 47.465 38.869ZM36.7728 30.9883C38.2764 32.145 39.5563 33.5664 40.5496 35.1827C41.2319 36.1613 42.2487 36.8563 43.4081 37.1366C44.6356 37.4698 45.9206 37.5335 47.175 37.3233C48.4294 37.1131 49.6234 36.6339 50.6752 35.9186C51.678 35.2746 52.4137 34.2889 52.7459 33.1441C53.1534 31.2869 53.8995 29.5206 54.9468 27.9337C54.3999 27.4518 52.3812 26.4227 45.544 27.569C38.9542 28.6762 37.2612 30.2393 36.8379 30.8255L36.7728 30.9493V30.9883Z" fill="#061E2D"/>
<g opacity="0.15">
<g opacity="0.15">
<path opacity="0.15" d="M32.9509 51.7515C33.1514 50.9644 33.4982 50.222 33.9732 49.5632C34.4605 48.8749 35.0669 48.2794 35.7639 47.8047C36.4581 47.3257 37.246 46.9994 38.0756 46.8473L42.282 46.1374C42.4163 46.1151 42.5541 46.1315 42.6793 46.1846C42.8046 46.2378 42.9121 46.3256 42.9892 46.4376C43.0664 46.5497 43.1101 46.6814 43.1152 46.8174C43.1202 46.9534 43.0865 47.088 43.0179 47.2055C41.4616 49.8953 39.762 54.1353 39.1109 60.2965C39.1036 60.3911 39.0774 60.4832 39.0339 60.5675C38.9904 60.6517 38.9305 60.7264 38.8576 60.7871C38.7848 60.8479 38.7006 60.8933 38.6099 60.9209C38.5192 60.9486 38.4238 60.9577 38.3295 60.9478C38.2413 60.9392 38.1553 60.9149 38.0756 60.8762C37.1753 60.4143 36.3499 59.8193 35.6272 59.1112C34.1977 57.8066 33.2176 56.0831 32.8271 54.1874C32.6993 53.3756 32.7415 52.5462 32.9509 51.7515Z" fill="white"/>
</g>
</g>
<path d="M138.361 53.2072L142.884 60.916C143.173 61.4283 143.332 62.0038 143.345 62.5918C143.329 63.5034 142.96 64.3732 142.315 65.018C141.671 65.6627 140.801 66.032 139.89 66.0482C139.274 66.047 138.67 65.8814 138.139 65.5683C137.609 65.2553 137.172 64.8062 136.874 64.2676L131.24 54.0452H126.109V62.5918C126.087 63.5197 125.701 64.402 125.036 65.0484C124.37 65.6949 123.476 66.0539 122.548 66.0482C121.635 66.0373 120.763 65.6697 120.117 65.0238C119.471 64.378 119.104 63.5051 119.093 62.5918V36.7633C119.093 35.7169 119.507 34.7131 120.245 33.9712C120.983 33.2293 121.984 32.8098 123.03 32.8042H134.507C135.851 32.6983 137.202 32.858 138.484 33.2744C139.766 33.6908 140.953 34.3557 141.978 35.231C143.003 36.1063 143.845 37.175 144.457 38.376C145.069 39.577 145.438 40.8869 145.544 42.2307C145.565 42.6284 145.565 43.0269 145.544 43.4247C145.678 45.6378 145.033 47.828 143.721 49.6149C142.408 51.4019 140.512 52.6729 138.361 53.2072ZM126.109 38.9838V47.8656H133.46C134.64 47.9888 135.821 47.6391 136.743 46.893C137.666 46.1469 138.255 45.0654 138.382 43.8855C138.392 43.7321 138.392 43.5781 138.382 43.4247C138.382 42.837 138.266 42.2551 138.04 41.7124C137.815 41.1696 137.484 40.6768 137.068 40.2622C136.651 39.8476 136.157 39.5194 135.613 39.2964C135.07 39.0734 134.487 38.9601 133.9 38.9628H126.088L126.109 38.9838Z" fill="#08CFE8"/>
<path d="M168.981 55.8258H154.32C154.54 57.4519 155.375 58.9317 156.653 59.9605C157.931 60.9893 159.555 61.4888 161.19 61.356C162.81 61.3175 164.4 60.9091 165.839 60.162C166.222 59.9689 166.645 59.8685 167.075 59.8687C167.758 59.8573 168.42 60.1138 168.917 60.5836C169.414 61.0533 169.707 61.699 169.734 62.3825C169.734 65.2104 163.661 66.3416 160.498 66.3416C157.299 66.5187 154.16 65.4178 151.773 63.2808C149.385 61.1439 147.943 58.1459 147.765 54.946C147.744 54.5623 147.744 54.1776 147.765 53.7939C147.709 52.193 147.97 50.5969 148.533 49.0973C149.097 47.5978 149.951 46.2245 151.046 45.0563C152.142 43.8882 153.458 42.9484 154.919 42.2909C156.379 41.6334 157.955 41.2713 159.556 41.2253H160.101C162.586 41.1672 165.022 41.9239 167.038 43.38C169.053 44.8362 170.537 46.9118 171.263 49.2902C171.662 50.4527 171.894 51.6656 171.954 52.8932C171.957 53.2826 171.882 53.6687 171.733 54.0286C171.584 54.3885 171.364 54.7148 171.087 54.9882C170.81 55.2617 170.481 55.4767 170.119 55.6206C169.757 55.7645 169.37 55.8342 168.981 55.8258ZM160.038 46.2946C158.569 46.2574 157.141 46.7834 156.047 47.7648C154.953 48.7461 154.275 50.1087 154.152 51.5734H165.923C165.863 50.1288 165.24 48.765 164.186 47.7744C163.133 46.7837 161.734 46.2451 160.289 46.2737L160.038 46.2946Z" fill="#08CFE8"/>
<path d="M197.463 45.8336L190.51 63.0736C190.161 63.9458 189.56 64.6943 188.784 65.224C188.009 65.7537 187.093 66.0406 186.154 66.0481C185.21 66.0506 184.287 65.7707 183.503 65.2444C182.719 64.7181 182.111 63.9694 181.756 63.0945L174.782 45.8546C174.636 45.4939 174.551 45.1117 174.53 44.7234C174.558 43.8899 174.911 43.1004 175.514 42.5246C176.117 41.9488 176.922 41.6326 177.755 41.6441C178.363 41.6453 178.956 41.8299 179.457 42.1738C179.957 42.5176 180.343 43.0047 180.562 43.5713L186.154 58.507L191.725 43.6341C191.925 43.0296 192.31 42.5028 192.824 42.1272C193.338 41.7517 193.957 41.5462 194.594 41.5394C195.418 41.5281 196.213 41.8434 196.806 42.4164C197.398 42.9894 197.74 43.7735 197.756 44.5977C197.762 45.0275 197.661 45.4519 197.463 45.8336Z" fill="#08CFE8"/>
<path d="M221.61 55.8258H206.95C207.17 57.4519 208.005 58.9317 209.283 59.9605C210.561 60.9893 212.184 61.4888 213.82 61.356C215.44 61.3175 217.03 60.9091 218.469 60.162C218.852 59.9689 219.275 59.8685 219.705 59.8688C220.388 59.8573 221.049 60.1138 221.547 60.5836C222.044 61.0534 222.337 61.699 222.364 62.3825C222.364 65.2104 216.291 66.3416 213.128 66.3416C209.929 66.5187 206.79 65.4178 204.402 63.2808C202.015 61.1439 200.573 58.1459 200.395 54.946C200.374 54.5623 200.374 54.1777 200.395 53.7939C200.339 52.193 200.6 50.5969 201.163 49.0974C201.726 47.5978 202.581 46.2245 203.676 45.0564C204.772 43.8882 206.088 42.9484 207.549 42.2909C209.009 41.6334 210.585 41.2713 212.186 41.2253H212.751C215.235 41.1648 217.67 41.921 219.683 43.3778C221.695 44.8346 223.174 46.9116 223.893 49.2902C224.312 50.4473 224.545 51.6633 224.584 52.8932C224.587 53.2826 224.512 53.6687 224.363 54.0286C224.214 54.3885 223.994 54.7148 223.717 54.9883C223.44 55.2617 223.111 55.4767 222.749 55.6206C222.387 55.7645 222 55.8342 221.61 55.8258ZM212.647 46.2737C211.177 46.2365 209.75 46.7624 208.656 47.7438C207.561 48.7252 206.884 50.0877 206.761 51.5525H218.532C218.502 50.8261 218.329 50.1126 218.024 49.4529C217.718 48.7933 217.286 48.2003 216.751 47.7081C216.216 47.2158 215.589 46.8339 214.906 46.5842C214.224 46.3345 213.499 46.2219 212.772 46.2528H212.647V46.2737Z" fill="#08CFE8"/>
<path d="M248.377 66.0482C247.559 66.0482 246.773 65.7245 246.193 65.1476C245.612 64.5707 245.283 63.7875 245.277 62.9689V51.322C245.435 50.309 245.187 49.2747 244.587 48.4434C243.987 47.6121 243.084 47.0508 242.073 46.8811C241.678 46.8183 241.275 46.8183 240.879 46.8811C239.814 46.8932 238.766 47.1554 237.82 47.6466C236.874 48.1377 236.057 48.8442 235.434 49.709V63.0317C235.434 63.854 235.107 64.6425 234.526 65.224C233.945 65.8054 233.156 66.132 232.334 66.132C231.927 66.1347 231.524 66.0573 231.147 65.904C230.77 65.7508 230.426 65.5247 230.137 65.2388C229.847 64.9529 229.616 64.6126 229.458 64.2375C229.299 63.8624 229.217 63.4598 229.214 63.0527V44.7653C229.219 44.3564 229.306 43.9526 229.468 43.5772C229.63 43.2017 229.865 42.8621 230.159 42.5778C230.452 42.2935 230.8 42.0702 231.18 41.9208C231.561 41.7713 231.968 41.6987 232.376 41.707C233.187 41.707 233.965 42.0292 234.538 42.6028C235.112 43.1763 235.434 43.9542 235.434 44.7653V45.1215C236.479 43.9341 237.769 42.9877 239.216 42.3476C240.662 41.7075 242.23 41.3888 243.811 41.4137C249.047 41.4137 251.56 44.3673 251.56 49.0177V63.0317C251.555 63.8559 251.224 64.6444 250.639 65.2252C250.054 65.8061 249.264 66.132 248.44 66.132L248.377 66.0482Z" fill="#08CFE8"/>
<path d="M276.986 66.0483C276.579 66.051 276.175 65.9735 275.798 65.8203C275.421 65.667 275.078 65.441 274.788 65.155C274.499 64.8691 274.268 64.5289 274.11 64.1538C273.951 63.7787 273.868 63.3761 273.866 62.9689V62.7385C272.803 63.8971 271.507 64.8173 270.063 65.4384C268.619 66.0594 267.06 66.3672 265.488 66.3415C260.252 66.3415 257.781 63.4717 257.781 58.8422V44.6607C257.798 43.8365 258.14 43.0523 258.732 42.4794C259.325 41.9064 260.12 41.5911 260.944 41.6023C261.753 41.6078 262.527 41.9318 263.1 42.5041C263.672 43.0765 263.996 43.8512 264.001 44.6607V56.3704C263.838 57.3731 264.079 58.3997 264.672 59.2245C265.265 60.0493 266.162 60.605 267.164 60.7694C267.573 60.8305 267.99 60.8305 268.399 60.7694C269.449 60.7477 270.481 60.4919 271.419 60.0208C272.358 59.5497 273.179 58.8751 273.824 58.0462V44.6607C273.829 44.2508 273.915 43.846 274.077 43.4694C274.239 43.0928 274.474 42.7518 274.767 42.4658C275.061 42.1799 275.408 41.9546 275.789 41.8028C276.17 41.6511 276.576 41.5758 276.986 41.5813C277.799 41.5813 278.579 41.9029 279.156 42.4758C279.733 43.0488 280.059 43.8267 280.065 44.6397V63.0318C280.065 63.856 279.739 64.6467 279.158 65.2314C278.578 65.8162 277.789 66.1475 276.965 66.153L276.986 66.0483Z" fill="#08CFE8"/>
<path d="M306.117 55.8259H291.457C291.681 57.4498 292.518 58.9266 293.794 59.9545C295.071 60.9824 296.692 61.4837 298.326 61.3561C299.947 61.3176 301.537 60.9092 302.976 60.1621C303.359 59.9691 303.782 59.8686 304.211 59.8689C304.895 59.8574 305.556 60.1139 306.053 60.5837C306.55 61.0535 306.844 61.6991 306.871 62.3826C306.871 65.2105 300.798 66.3417 297.635 66.3417C294.436 66.5189 291.297 65.4179 288.91 63.281C286.522 61.144 285.08 58.146 284.902 54.9461C284.88 54.5624 284.88 54.1778 284.902 53.794C284.846 52.1931 285.107 50.597 285.67 49.0975C286.233 47.5979 287.087 46.2246 288.183 45.0565C289.279 43.8883 290.595 42.9485 292.055 42.291C293.516 41.6336 295.092 41.2714 296.693 41.2254H297.258C299.741 41.1684 302.174 41.926 304.186 43.3823C306.198 44.8386 307.678 46.9136 308.4 49.2903C308.819 50.4474 309.052 51.6634 309.091 52.8933C309.094 53.2828 309.019 53.6689 308.87 54.0287C308.721 54.3886 308.501 54.7149 308.224 54.9884C307.947 55.2618 307.617 55.4768 307.255 55.6207C306.894 55.7646 306.507 55.8344 306.117 55.8259ZM297.174 46.2947C295.705 46.2576 294.278 46.7835 293.184 47.7649C292.09 48.7462 291.412 50.1088 291.289 51.5736H303.06C303.03 50.8471 302.857 50.1337 302.552 49.474C302.246 48.8143 301.813 48.2214 301.278 47.7292C300.744 47.2369 300.117 46.855 299.434 46.6053C298.752 46.3555 298.026 46.2429 297.3 46.2738L297.174 46.2947Z" fill="#08CFE8"/>
<path d="M316.673 66.2996C315.882 66.2996 315.108 66.065 314.451 65.6253C313.793 65.1857 313.28 64.5608 312.977 63.8297C312.675 63.0986 312.595 62.2942 312.75 61.518C312.904 60.7419 313.285 60.029 313.844 59.4695C314.404 58.9099 315.117 58.5289 315.893 58.3745C316.668 58.2201 317.473 58.2993 318.204 58.6022C318.935 58.905 319.559 59.4178 319.999 60.0758C320.438 60.7337 320.673 61.5073 320.673 62.2986C320.657 63.3547 320.23 64.363 319.483 65.1098C318.737 65.8567 317.729 66.2834 316.673 66.2996Z" fill="#08CFE8"/>
<path d="M351.649 66.0483C350.912 66.0488 350.192 65.8272 349.583 65.4124C348.974 64.9977 348.504 64.409 348.235 63.7231L346.957 60.162H332.841L331.501 63.7231C331.229 64.4157 330.753 65.009 330.136 65.4243C329.518 65.8397 328.789 66.0573 328.045 66.0483C327.556 66.0456 327.072 65.9464 326.62 65.7565C326.169 65.5665 325.76 65.2896 325.415 64.9414C325.071 64.5932 324.799 64.1806 324.614 63.7272C324.429 63.2737 324.336 62.7883 324.338 62.2986C324.316 61.8383 324.402 61.3791 324.59 60.958L334.224 36.2188C334.647 35.133 335.386 34.1993 336.346 33.5383C337.305 32.8773 338.441 32.5194 339.606 32.511C340.866 32.4116 342.125 32.7178 343.199 33.3849C344.273 34.0519 345.105 35.0449 345.575 36.2188L355.167 60.958C355.316 61.3893 355.394 61.8422 355.398 62.2986C355.398 63.2931 355.003 64.2469 354.299 64.9501C353.596 65.6533 352.643 66.0483 351.649 66.0483ZM339.899 39.8218L334.747 54.0034H345.03L339.899 39.8218Z" fill="#08CFE8"/>
<path d="M363.439 66.0483C362.524 66.0428 361.649 65.6768 361.002 65.0298C360.355 64.3828 359.989 63.5069 359.983 62.5919V35.9674C360.052 35.0836 360.451 34.2582 361.101 33.6561C361.752 33.054 362.605 32.7195 363.492 32.7195C364.378 32.7195 365.231 33.054 365.882 33.6561C366.532 34.2582 366.931 35.0836 366.999 35.9674V62.5919C366.977 63.5198 366.592 64.402 365.926 65.0485C365.26 65.695 364.367 66.054 363.439 66.0483Z" fill="#08CFE8"/>
</svg>
