<svg width="122" height="80" fill="none" xmlns="http://www.w3.org/2000/svg"><g clip-path="url(#clip0)"><path d="M50.358 43.156c-1.38-1.322-3.244-1.982-5.593-1.982H26.53V61.5l3.815 3.877V55.64h13.684c2.737 0 4.818-.614 6.243-1.843 1.426-1.229 2.139-3.002 2.139-5.32 0-2.215-.69-3.988-2.07-5.321h.017zm-6.26 9.007H30.344v-7.494H43.84c3.113 0 4.67 1.292 4.67 3.877 0 2.411-1.471 3.617-4.414 3.617zM60.604 64.073v-22.9h-3.797v19.04l3.797 3.86zM72.116 61.065v-6.903h9.887l3.421-3.495H72.116V44.67h15.617l3.421-3.495H68.302V64.56h19.551l3.421-3.495H72.116zM104.479 41.174L92.095 64.56l6.055-3.425 8.519-16.05 8.416 15.928 6.158 3.547-12.385-23.386h-4.379z" fill="#323234"/><path d="M6.466 32.358V2.695L3.233 0v35.627l3.233-3.269z" fill="#90C74B"/><path d="M6.466 32.358V2.695L3.233 0v35.627l3.233-3.269z" fill="url(#paint0_linear)"/><path d="M19.415 19.318v-5.912l-3.25-2.713v11.91l3.25-3.285z" fill="#90C74B"/><path d="M19.415 19.318v-5.912l-3.25-2.713v11.91l3.25-3.285z" fill="url(#paint1_linear)"/><path d="M12.932 25.82V8.033L9.699 5.338v23.769l3.233-3.287z" fill="#90C74B"/><path d="M12.932 25.82V8.033L9.699 5.338v23.769l3.233-3.287z" fill="url(#paint2_linear)"/><path d="M16.165 47.624V77.34l3.25 2.66V44.338l-3.25 3.286z" fill="#90C74B"/><path d="M16.165 47.624V77.34l3.25 2.66V44.338l-3.25 3.286z" fill="url(#paint3_linear)"/><path d="M3.25 60.787v5.842l3.233 2.678V57.414L3.25 60.787z" fill="#90C74B"/><path d="M3.25 60.787v5.842l3.233 2.678V57.414L3.25 60.787z" fill="url(#paint4_linear)"/><path d="M9.716 54.145v17.822l3.233 2.678V50.858l-3.233 3.287z" fill="#90C74B"/><path d="M9.716 54.145v17.822l3.233 2.678V50.858l-3.233 3.287z" fill="url(#paint5_linear)"/><path d="M22.648 41.087V16.03l-3.233 3.287V44.39l3.233-3.303z" fill="#5DB7E7"/><path d="M22.648 41.087V16.03l-3.233 3.287V44.39l3.233-3.303z" fill="url(#paint6_linear)"/><path d="M16.165 47.624V22.586l-3.233 3.27V50.91l3.233-3.287z" fill="#5DB7E7"/><path d="M16.165 47.624V22.586l-3.233 3.27V50.91l3.233-3.287z" fill="url(#paint7_linear)"/><path d="M9.716 54.162v-25.09l-3.233 3.286v25.09l3.233-3.286z" fill="#5DB7E7"/><path d="M9.716 54.162v-25.09l-3.233 3.286v25.09l3.233-3.286z" fill="url(#paint8_linear)"/><path d="M3.233 60.804V35.61L0 38.896v25.177l3.233-3.269z" fill="#5DB7E7"/><path d="M3.233 60.804V35.61L0 38.896v25.177l3.233-3.269z" fill="url(#paint9_linear)"/></g><defs><linearGradient id="paint0_linear" x1="4.849" y1="0" x2="4.849" y2="35.627" gradientUnits="userSpaceOnUse"><stop stop-color="#90C74B"/><stop offset="1" stop-color="#67A716"/></linearGradient><linearGradient id="paint1_linear" x1="17.79" y1="10.693" x2="17.79" y2="22.604" gradientUnits="userSpaceOnUse"><stop stop-color="#90C74B"/><stop offset="1" stop-color="#67A716"/></linearGradient><linearGradient id="paint2_linear" x1="11.315" y1="5.338" x2="11.315" y2="29.107" gradientUnits="userSpaceOnUse"><stop stop-color="#90C74B"/><stop offset="1" stop-color="#67A716"/></linearGradient><linearGradient id="paint3_linear" x1="17.79" y1="44.338" x2="17.79" y2="80" gradientUnits="userSpaceOnUse"><stop stop-color="#67A716"/><stop offset="1" stop-color="#90C74B"/></linearGradient><linearGradient id="paint4_linear" x1="4.866" y1="57.414" x2="4.866" y2="69.307" gradientUnits="userSpaceOnUse"><stop stop-color="#67A716"/><stop offset="1" stop-color="#90C74B"/></linearGradient><linearGradient id="paint5_linear" x1="11.332" y1="50.858" x2="11.332" y2="74.645" gradientUnits="userSpaceOnUse"><stop stop-color="#67A716"/><stop offset="1" stop-color="#90C74B"/></linearGradient><linearGradient id="paint6_linear" x1="21.031" y1="16.031" x2="21.031" y2="44.39" gradientUnits="userSpaceOnUse"><stop stop-color="#5DB7E7"/><stop offset="1" stop-color="#2886B8"/></linearGradient><linearGradient id="paint7_linear" x1="14.548" y1="22.586" x2="14.548" y2="50.911" gradientUnits="userSpaceOnUse"><stop stop-color="#5DB7E7"/><stop offset="1" stop-color="#2886B8"/></linearGradient><linearGradient id="paint8_linear" x1="8.099" y1="29.072" x2="8.099" y2="57.449" gradientUnits="userSpaceOnUse"><stop stop-color="#5DB7E7"/><stop offset="1" stop-color="#2886B8"/></linearGradient><linearGradient id="paint9_linear" x1="1.616" y1="35.61" x2="1.616" y2="64.073" gradientUnits="userSpaceOnUse"><stop stop-color="#5DB7E7"/><stop offset="1" stop-color="#2886B8"/></linearGradient><clipPath id="clip0"><path fill="#fff" d="M0 0h121.243v80H0z"/></clipPath></defs></svg>