<svg width="192" height="100" viewBox="0 0 192 100" fill="none" xmlns="http://www.w3.org/2000/svg">
<rect width="192" height="100" fill="#FBFBFC"/>
<g clip-path="url(#clip0_611_149)">
<path d="M87.1224 54.0017C87.1224 51.6825 87.1224 49.3718 87.1224 47.0526C87.1224 46.9008 87.114 46.749 87.1394 46.6056C87.2155 46.049 87.5031 45.6527 88.053 45.4671C89.804 44.8599 91.5974 44.4551 93.4499 44.3033C94.7527 44.1937 96.0554 44.2021 97.3496 44.3961C98.2971 44.5395 99.2107 44.7925 100.057 45.2394C101.715 46.1081 102.637 47.4996 102.95 49.3212C103.034 49.7934 103.06 50.2657 103.06 50.738C103.06 54.1956 103.06 57.6449 103.06 61.1026C103.06 61.17 103.06 61.2375 103.06 61.305C103.043 61.7941 102.823 62.0302 102.332 62.0387C101.3 62.0471 100.268 62.0471 99.236 62.0387C98.7708 62.0387 98.5424 61.8025 98.5086 61.3387C98.5001 61.2206 98.5086 61.0941 98.5086 60.9761C98.5086 57.8304 98.5086 54.6932 98.5086 51.5476C98.5086 51.1428 98.4832 50.7295 98.3563 50.3416C98.0095 49.3127 97.2397 48.773 96.2246 48.5453C95.3871 48.3598 94.5496 48.4188 93.7037 48.5031C93.3146 48.5369 92.9255 48.6212 92.5448 48.714C91.885 48.8658 91.6904 49.1188 91.6904 49.7934C91.6904 53.5294 91.6904 57.2738 91.6904 61.0098C91.6904 61.1194 91.6904 61.2291 91.6904 61.3387C91.6735 61.7941 91.4366 62.0387 90.9714 62.0471C90.43 62.0555 89.8802 62.0471 89.3388 62.0471C88.865 62.0471 88.3829 62.0555 87.9092 62.0471C87.3508 62.0387 87.1224 61.8025 87.1224 61.2459C87.1224 58.8256 87.1224 56.4136 87.1224 54.0017Z" fill="#3D4346"/>
<path d="M61.0593 62.0386C60.5433 62.0386 60.0273 62.047 59.5113 62.0386C58.9868 62.0301 58.8091 61.794 58.9529 61.2711C59.0545 60.8916 59.139 60.5121 59.1475 60.1158C59.1644 59.1122 58.7499 58.3363 57.9463 57.7629C57.3542 57.3412 56.6943 57.0545 56.0091 56.8352C54.8756 56.4726 53.7251 56.1352 52.5916 55.7726C51.6696 55.4774 50.7898 55.1064 49.9862 54.5582C48.6327 53.6305 47.956 52.3487 47.8798 50.721C47.736 47.7778 49.3771 45.6104 52.0756 44.649C53.3191 44.2105 54.6134 44.0587 55.9245 44.0924C58.014 44.1515 60.0188 44.5647 61.9137 45.4586C62.1844 45.5851 62.4466 45.7201 62.7088 45.8719C63.2502 46.1755 63.3856 46.555 63.1572 47.1284C63.0726 47.3393 62.9711 47.5501 62.878 47.7609C62.6158 48.3091 62.362 48.8657 62.0913 49.4139C61.7868 50.0379 61.2961 50.2066 60.6871 49.8777C59.672 49.3295 58.623 48.8573 57.4895 48.5874C56.3813 48.326 55.2647 48.2163 54.1396 48.4693C53.7928 48.5452 53.4629 48.6717 53.1668 48.8741C52.304 49.4729 52.2702 50.5186 53.0907 51.168C53.4545 51.4547 53.8774 51.6403 54.3173 51.8005C55.3747 52.1884 56.4744 52.4499 57.5487 52.7788C58.5469 53.0824 59.5366 53.4281 60.4587 53.9257C61.0931 54.2715 61.6853 54.6763 62.1928 55.1907C63.2671 56.2786 63.7324 57.6195 63.7747 59.1206C63.8001 59.7953 63.7409 60.47 63.5548 61.1278C63.5294 61.229 63.4955 61.3386 63.4617 61.4398C63.2925 61.8952 63.0895 62.0386 62.6073 62.047C62.0913 62.047 61.5753 62.0386 61.0593 62.0386Z" fill="#3D4346"/>
<path d="M127.438 52.7788C127.438 50.097 127.43 47.4152 127.438 44.7334C127.438 43.5443 127.624 42.3889 128.098 41.2842C128.927 39.3698 130.433 38.2735 132.438 37.8265C133.85 37.5145 135.272 37.5145 136.684 37.8096C136.71 37.8181 136.735 37.8181 136.76 37.8265C137.454 37.9867 137.606 38.2144 137.471 38.9228C137.353 39.5385 137.243 40.1457 137.124 40.7529C137.006 41.3854 136.786 41.5456 136.134 41.4528C135.627 41.3854 135.111 41.2926 134.595 41.301C134.307 41.3095 134.02 41.3432 133.749 41.4107C132.717 41.6552 132.116 42.4058 131.998 43.5443C131.972 43.7889 131.964 44.0335 131.956 44.278C131.947 44.5648 131.947 44.5732 132.235 44.5732C133.013 44.5732 133.783 44.5732 134.561 44.5732C135.136 44.5732 135.703 44.5732 136.278 44.5732C136.896 44.5732 137.107 44.7925 137.116 45.4081C137.124 46.1418 137.124 46.8671 137.116 47.6008C137.116 48.2164 136.896 48.4188 136.27 48.4188C134.975 48.4188 133.69 48.4188 132.395 48.4188C132.302 48.4188 132.209 48.4188 132.108 48.4188C132.006 48.4188 131.964 48.4694 131.964 48.5706C131.964 48.6802 131.964 48.7899 131.964 48.8995C131.964 52.9475 131.956 56.9955 131.972 61.0519C131.972 61.7266 131.803 62.0639 130.991 62.0386C130.095 62.0133 129.198 62.0133 128.301 62.0386C127.675 62.0555 127.43 61.6929 127.438 61.1784C127.447 58.387 127.438 55.5787 127.438 52.7788Z" fill="#3D4346"/>
<path d="M144.256 53.3016C144.256 55.8569 144.256 58.4207 144.256 60.976C144.256 61.0603 144.256 61.1362 144.256 61.2205C144.247 61.8277 144.036 62.0386 143.41 62.0386C142.623 62.0386 141.836 62.0386 141.041 62.0386C140.821 62.0386 140.61 62.047 140.39 62.0386C139.975 62.0217 139.738 61.8024 139.696 61.3892C139.679 61.2711 139.688 61.1446 139.688 61.0266C139.688 55.8822 139.688 50.7379 139.688 45.5851C139.688 44.7586 139.874 44.5815 140.686 44.5815C141.599 44.5815 142.505 44.5815 143.418 44.5815C144.027 44.5815 144.247 44.8008 144.256 45.4164C144.256 48.0476 144.256 50.6704 144.256 53.3016Z" fill="#3D4346"/>
<path d="M144.4 40.036C144.408 41.1914 143.833 42.0347 142.826 42.3215C142.268 42.4817 141.701 42.4733 141.143 42.313C140.018 41.9841 139.502 41.048 139.536 39.8758C139.544 39.6903 139.57 39.4963 139.612 39.3108C139.823 38.4421 140.365 37.8855 141.236 37.6831C141.811 37.5482 142.395 37.5735 142.962 37.7759C143.85 38.0964 144.281 38.7626 144.391 39.6734C144.408 39.7915 144.4 39.918 144.4 40.036Z" fill="#3D4346"/>
<path d="M52.4735 59.9641C52.4566 60.2255 52.4481 60.4617 52.3889 60.7062C52.1436 61.6255 51.543 62.1652 50.6209 62.3423C50.1387 62.4351 49.6481 62.4098 49.1744 62.258C48.4215 62.0134 47.914 61.5243 47.7109 60.7568C47.5587 60.1834 47.5671 59.6015 47.7532 59.0364C47.9986 58.3027 48.5146 57.8389 49.2674 57.6449C49.7919 57.51 50.3164 57.5269 50.8409 57.6618C51.7545 57.8979 52.372 58.6316 52.4566 59.5762C52.465 59.7111 52.4735 59.846 52.4735 59.9641Z" fill="#3D4346"/>
<path d="M82.8668 46.7996C82.833 46.1502 82.5454 45.6948 81.9025 45.4924C81.8602 45.484 81.8263 45.4671 81.784 45.4503C80.0922 44.8262 78.358 44.4214 76.5562 44.2865C75.2789 44.1937 74.0016 44.1853 72.7496 44.4804C69.662 45.2057 67.5472 47.0273 66.5659 50.0549C65.8046 52.4078 65.8892 54.786 66.6759 57.1136C67.2596 58.8509 68.3423 60.2255 69.9496 61.1616C71.2185 61.9037 72.6058 62.2579 74.0523 62.3423C75.7188 62.4435 77.3599 62.317 78.9925 61.9459C80.0161 61.7098 81.0058 61.3893 81.9701 60.9845C82.5115 60.7568 82.8076 60.3604 82.8583 59.7785C82.8668 59.6436 82.8668 59.5087 82.8668 59.3737C82.8668 57.3329 82.8668 55.2836 82.8668 53.2427C82.8668 51.2103 82.8668 49.1778 82.8668 47.1538C82.8668 47.0442 82.8753 46.9177 82.8668 46.7996ZM77.6644 57.7967C76.3786 58.2015 75.059 58.3702 73.7309 58.0244C72.4112 57.6786 71.5145 56.8353 71.0747 55.5619C70.5587 54.086 70.5502 52.5765 71.0662 51.1006C71.6414 49.4646 72.868 48.6128 74.5852 48.461C75.4988 48.3851 76.404 48.4694 77.2922 48.7056C77.3937 48.7309 77.5037 48.7646 77.6052 48.7983C78.1296 48.9923 78.3073 49.2369 78.3158 49.8019C78.3242 50.9826 78.3158 52.1548 78.3158 53.3355C78.3158 54.4993 78.3073 55.6631 78.3158 56.8269C78.3158 57.316 78.1127 57.6533 77.6644 57.7967Z" fill="#3D4346"/>
<path d="M123.674 50.426C122.896 47.7273 121.238 45.8045 118.581 44.8178C116.89 44.1937 115.138 44.0756 113.362 44.3961C110.689 44.8768 108.667 46.2936 107.466 48.7309C106.129 51.4464 106.062 54.2631 107.111 57.0799C108.016 59.5171 109.775 61.1194 112.245 61.929C113.726 62.4097 115.257 62.5109 116.796 62.2832C119.546 61.8869 121.627 60.4954 122.946 58.0497C123.741 56.5739 124.046 54.98 124.054 52.9644C124.046 52.3319 123.945 51.3705 123.674 50.426ZM119.013 55.6799C118.328 57.5437 116.695 58.3364 114.902 58.1678C114.436 58.1256 113.988 58.0413 113.557 57.8642C112.516 57.4341 111.814 56.6751 111.442 55.6293C110.892 54.0692 110.892 52.4921 111.459 50.9404C112.051 49.3128 113.421 48.4104 115.164 48.4357C115.57 48.4441 115.976 48.4779 116.374 48.5791C117.668 48.9164 118.556 49.7176 119.013 50.9488C119.588 52.5259 119.588 54.1198 119.013 55.6799Z" fill="#3D4346"/>
</g>
<defs>
<clipPath id="clip0_611_149">
<rect width="98" height="26" fill="white" transform="translate(47 37)"/>
</clipPath>
</defs>
</svg>
