<svg width="411" height="100" viewBox="0 0 411 100" fill="none" xmlns="http://www.w3.org/2000/svg">
<mask id="mask0_614_51" style="mask-type:luminance" maskUnits="userSpaceOnUse" x="5" y="3" width="95" height="94">
<path d="M99.021 3H5V97.0001H99.021V3Z" fill="white"/>
</mask>
<g mask="url(#mask0_614_51)">
<path d="M96.5833 50.8362L97.3359 49.9999L96.5833 49.1636C94.5108 46.8307 92.0697 44.8531 89.3577 43.3095C92.3154 40.1796 94.5633 36.4486 95.9477 32.3707L96.3157 31.3086L95.2911 30.8361C92.0238 29.29 88.506 28.3412 84.9044 28.0345C84.6953 28.0345 84.4861 27.9926 84.2729 27.9801C84.0597 27.9676 83.8548 27.9801 83.629 27.9801C83.282 27.9801 82.939 27.9508 82.592 27.9508H82.5544C82.0442 27.9508 81.5383 27.9508 81.0323 27.9969C80.8065 27.9969 80.5848 28.0261 80.3591 28.047L79.6859 28.1014C77.0438 28.3716 74.4551 29.0238 72.0002 30.0374C72.9045 27.8403 73.5201 25.5351 73.8317 23.1798C73.861 22.9498 73.886 22.7241 73.9111 22.4941C73.9363 22.2641 73.9572 22.0424 73.9782 21.8167C74.0241 21.2354 74.0617 20.65 74.0742 20.0687C74.0742 19.7761 74.0742 19.4792 74.0742 19.1864C74.0742 18.9732 74.0742 18.7682 74.0742 18.5383C74.0742 18.3083 74.0491 18.1202 74.0366 17.8985C73.8102 14.0312 72.8376 10.2442 71.1723 6.74648L70.6915 5.7262L69.6294 6.09416C65.5522 7.47565 61.821 9.72063 58.6906 12.6759C57.1471 9.96111 55.1697 7.51744 52.8364 5.44185L52.0001 4.69336L51.1639 5.44185C48.8306 7.51744 46.8532 9.96111 45.3097 12.6759C42.1895 9.71612 38.4687 7.46281 34.4002 6.06908L33.3339 5.7011L32.8531 6.7214C31.1917 10.2205 30.2191 14.0068 29.9888 17.8735C29.9888 18.0867 29.9595 18.2916 29.951 18.5132C29.9427 18.7349 29.951 18.9313 29.951 19.1613C29.951 19.6631 29.951 20.1649 29.9762 20.6625C29.9762 21.0388 30.0096 21.4151 30.0431 21.7916C30.0431 22.0173 30.085 22.2431 30.11 22.4689C30.1351 22.6948 30.1559 22.9248 30.1895 23.1547C30.4976 25.5104 31.1119 27.8157 32.0167 30.0124C29.5623 28.9978 26.9734 28.3456 24.3312 28.0763L23.6579 28.0219C23.4363 28.0219 23.2146 27.9843 22.9889 27.9718C22.7631 27.9593 22.5707 27.9718 22.3491 27.9467C22.0564 27.9467 21.7638 27.9467 21.4669 27.9467C21.17 27.9467 20.7476 27.9467 20.388 27.9801C20.1747 27.9801 19.9698 27.9801 19.7482 27.9801L19.1168 28.0345C15.5166 28.3421 12.0004 29.2909 8.73414 30.8361L7.71803 31.3169L8.08601 32.3791C9.46875 36.4576 11.7168 40.1891 14.676 43.3179C11.9639 44.8614 9.52301 46.839 7.45041 49.1719L6.69775 50.0082L7.45041 50.8445C9.53187 53.18 11.9828 55.1577 14.7053 56.6987C11.7307 59.8281 9.46835 63.564 8.07346 67.65L7.69295 68.708L8.73414 69.1846C12.6221 71.0434 16.8652 72.0417 21.1741 72.1117C20.3931 75.1201 20.1105 78.2363 20.3378 81.3361L20.4131 82.4608L21.5378 82.5069C21.956 82.5069 22.3741 82.532 22.7923 82.532C25.2084 82.5354 27.6151 82.2334 29.9552 81.633C30.1321 85.693 31.1277 89.6755 32.8822 93.3412L33.3632 94.3614L34.4253 93.9936C38.5186 92.6011 42.2649 90.3451 45.4101 87.3783C46.9418 90.0832 48.9068 92.5184 51.2265 94.5873L52.0628 95.3357L52.8991 94.5873C55.2168 92.5163 57.1814 90.0814 58.7157 87.3783C61.86 90.3442 65.6046 92.6002 69.6963 93.9936L70.7626 94.3614L71.2392 93.3412C72.9951 89.676 73.9909 85.6932 74.1663 81.633C76.4858 82.2196 78.8698 82.5132 81.2622 82.5069C81.6804 82.5069 82.0985 82.5069 82.5167 82.4818L83.6415 82.4358L83.7167 81.3111C83.94 78.2112 83.6575 75.0958 82.8805 72.0867C87.1894 72.0166 91.4326 71.0184 95.3204 69.1595L96.3408 68.6787L95.9728 67.6167C94.578 63.5305 92.3156 59.7946 89.3409 56.6652C92.0571 55.1308 94.5036 53.1616 96.5833 50.8362ZM93.9322 49.9999C92.0376 51.9644 89.8412 53.6131 87.4258 54.8839C85.0497 52.8149 82.3353 51.1699 79.4015 50.0208C82.3443 48.8682 85.0661 47.2158 87.4467 45.1368C89.8534 46.401 92.0428 48.0413 93.9322 49.9957V49.9999ZM10.0848 49.9999C11.9727 48.0472 14.159 46.4072 16.5619 45.1411C18.9479 47.2202 21.6754 48.8711 24.6239 50.0208C21.6889 51.1682 18.9731 52.8118 16.5954 54.8798C14.1788 53.6091 11.9809 51.9603 10.0848 49.9957V49.9999ZM23.7876 72.0155C26.6065 71.7885 29.3729 71.1241 31.9875 70.0461C30.8086 72.9012 30.1216 75.9352 29.9552 79.0195C27.6142 79.6811 25.1916 80.0106 22.7589 79.998C22.6784 77.2996 23.0255 74.6054 23.7876 72.0155ZM69.3994 91.2002C65.4354 89.6862 61.8832 87.2611 59.0292 84.1209C57.599 82.5266 56.3804 80.7544 55.4039 78.8481L53.0204 79.6844C54.0494 81.7558 55.3379 83.6879 56.8548 85.4339C55.5919 87.8306 53.956 90.0112 52.0085 91.8944C50.0636 90.01 48.4292 87.8295 47.1663 85.4339C48.6851 83.6861 49.9763 81.7527 51.0091 79.6802L48.6257 78.8439C47.6492 80.7502 46.4306 82.5224 45.0003 84.1168C42.1464 87.2569 38.594 89.6819 34.6302 91.1961C31.3895 83.5649 31.7032 75.3063 35.5459 68.4152L35.6839 68.1727C36.4032 67.7545 37.1014 67.2695 37.7746 66.7636L37.4402 63.8364C32.9585 67.5712 27.3047 69.6082 21.4709 69.5902C17.81 69.5767 14.1893 68.8258 10.8249 67.3824C14.1366 58.8521 20.9358 52.9479 29.4033 51.1917L28.7635 48.6827C20.6305 46.7508 14.0237 40.8257 10.8249 32.6383C12.1165 32.0899 13.4471 31.6384 14.8057 31.2876C16.4494 30.864 18.1295 30.5967 19.8235 30.4891L20.4716 30.4556H20.5678C20.8689 30.4556 21.17 30.4305 21.4709 30.4305C21.7721 30.4305 22.1819 30.4305 22.5331 30.4639H22.6878C25.3552 30.5862 27.9855 31.1368 30.4779 32.0948L34.2413 28.8206C33.319 26.5268 32.7441 24.1085 32.5352 21.6451C32.4893 21.0891 32.4641 20.5287 32.4516 19.9725C32.4516 19.7425 32.4516 19.5126 32.4516 19.2826C32.4516 19.0526 32.4516 18.8644 32.4516 18.6219C32.5785 15.2522 33.327 11.9349 34.6595 8.83723C40.5707 11.0691 45.4808 15.3544 48.4919 20.9092L51.9917 22.54C50.8452 19.6239 49.2058 16.9266 47.1454 14.5659C48.4125 12.1588 50.054 9.96824 52.0085 8.0762C53.9638 9.96539 55.6066 12.1531 56.8758 14.5575C54.8169 16.9193 53.1777 19.6164 52.0294 22.5317L55.5335 20.9008C58.5452 15.3484 63.4555 11.0661 69.3659 8.83723C70.6941 11.9358 71.4383 15.253 71.5613 18.6219C71.5613 18.8436 71.5613 19.0401 71.5613 19.2826C71.5613 19.5251 71.5613 19.7425 71.5613 19.9725C71.5613 20.5329 71.5277 21.0932 71.4776 21.6451C71.2744 24.1095 70.7035 26.5295 69.784 28.8248L73.5473 32.0989C76.0888 31.1241 78.7725 30.5718 81.4922 30.4639C81.8477 30.4639 82.2032 30.4305 82.5585 30.4305C82.914 30.4305 83.1565 30.4305 83.4576 30.4556H83.5579L84.206 30.4891C87.3039 30.6928 90.345 31.4196 93.2004 32.6383C90.0141 40.8257 83.4032 46.751 75.2744 48.6911L74.6304 51.2C83.1021 52.9562 89.8971 58.8563 93.2089 67.3907C89.8427 68.839 86.2189 69.5928 82.5544 69.6069C76.7206 69.625 71.0668 67.5878 66.5852 63.8532L66.2507 66.7802C66.9322 67.2862 67.6347 67.7587 68.3414 68.1894L68.4795 68.4362C72.3139 75.3273 72.6316 83.5689 69.391 91.2002H69.3994ZM74.0827 79.0195C73.9169 75.9346 73.2284 72.9002 72.0463 70.0461C74.6584 71.1222 77.4219 71.7867 80.2378 72.0155C80.9993 74.6056 81.3478 77.2994 81.2707 79.998C78.8378 80.0106 76.4154 79.6811 74.0742 79.0195H74.0827Z" fill="#CBA133"/>
<path d="M46.8193 60.0945L52.0086 63.3685L57.202 60.0945H52.0086H46.8193Z" fill="white"/>
<path d="M65.2354 42.2688L65.7206 40.6045L59.8747 41.3656L58.1938 44.5644L65.2354 42.2688Z" fill="white"/>
<path d="M30.9503 47.1232L31.1091 47.7337L32.0501 51.4093L32.2089 52.0197L32.2257 52.095L39.5433 60.0482L40.0116 64.1502L40.1413 65.2583L40.1831 65.6472L40.2708 66.4L40.8688 71.6143L50.7539 69.9583V65.5427L41.981 60.0943L45.9201 47.2361L36.7501 44.2421L35.5834 40.2488L28.9473 39.2996L30.9503 47.1232Z" fill="white"/>
<path d="M38.3018 40.6045L38.7868 42.2688L45.8285 44.5644L44.1475 41.3656L38.3018 40.6045Z" fill="white"/>
<path d="M72.0335 34.1266L71.5193 33.6749L68.2033 30.7772L67.7183 30.3507L58.4981 22.2971L55.6378 23.631L54.8225 24.0115L53.2753 24.7308L52.46 25.1112L52.0083 25.3203L51.5568 25.1112L50.7456 24.7308L49.1983 24.0115L48.383 23.631L45.5228 22.2971L36.3026 30.3507L35.8176 30.7772L32.5017 33.6749L31.9874 34.1266L28.96 36.7692L36.0852 37.7854L45.7612 39.044L49.1021 45.4083L45.3765 57.5848H52.0083H58.6444L54.9187 45.4083L58.2596 39.044L67.9357 37.7854L75.0609 36.7692L72.0335 34.1266Z" fill="white"/>
<path d="M63.7505 66.4L63.8382 65.6472L63.88 65.2583L64.0098 64.1502L64.478 60.0482L71.7956 52.095L71.8124 52.0197L71.9712 51.4093L72.912 47.7337L73.071 47.1232L75.0739 39.2996L68.4379 40.2488L67.2712 44.2421L58.1012 47.2361L62.0401 60.0943L53.2632 65.5427V69.9583L63.1525 71.6143L63.7505 66.4Z" fill="white"/>
<path d="M97.5199 51.6726L98.2683 50.8364L99.021 50.0001L98.2683 49.1638L97.5199 48.3275C95.6995 46.2896 93.6105 44.5087 91.3103 43.0337C93.8851 40.0213 95.8619 36.5458 97.1352 32.7932L97.499 31.7311L97.867 30.6649L96.8508 30.1881L95.8306 29.7073C92.4858 28.1096 88.884 27.1186 85.1928 26.7802C85.6842 24.3653 85.8794 21.8995 85.774 19.4375L85.7281 18.3127L85.6737 17.1962L84.5531 17.1209L83.4282 17.0457C82.7215 16.9997 82.0024 16.9746 81.304 16.9746C79.28 16.972 77.2609 17.1765 75.2784 17.5851C75.0116 13.6311 73.9986 9.7634 72.2928 6.18631L71.8203 5.1493L71.3395 4.13319L70.2775 4.50116L69.2112 4.86913C65.4614 6.14517 61.9888 8.12338 58.979 10.6981C57.5036 8.40189 55.7228 6.31711 53.6852 4.50116L52.8489 3.74849L52.0126 3L51.1763 3.74849L50.34 4.50116C48.3001 6.3211 46.5189 8.41176 45.0462 10.7149C42.0357 8.14095 38.5634 6.16282 34.814 4.88586L33.7477 4.51788L32.6857 4.14991L32.2007 5.1493L31.7324 6.18631C30.0266 9.7634 29.0136 13.6311 28.7468 17.5851C26.7643 17.1765 24.7454 16.972 22.7212 16.9746C22.0187 16.9746 21.3037 16.9997 20.5928 17.0457L19.4722 17.1209L18.3515 17.1962L18.3013 18.321L18.2553 19.4458C18.1492 21.9081 18.3458 24.3742 18.8408 26.7886C15.1495 27.1264 11.5476 28.1175 8.20302 29.7156L7.18275 30.1964L6.15409 30.6564L6.51788 31.7227L6.88586 32.7849C8.15911 36.5374 10.136 40.013 12.7107 43.0253C10.4105 44.5004 8.32154 46.2813 6.50116 48.319L5.74849 49.1555L5 49.9918L5.74849 50.828L6.50116 51.6643C8.32518 53.72 10.423 55.5154 12.7358 56.9999C10.1497 60.0139 8.16276 63.4938 6.88168 67.253L6.50952 68.29L6.14155 69.3563L7.15765 69.8371L8.17794 70.3138C11.7617 72.0309 15.6407 73.047 19.606 73.3077C19.0597 75.9764 18.8796 78.7069 19.0708 81.424L19.146 82.5446L19.2213 83.6695L20.3461 83.7156L21.4668 83.7615C21.8849 83.7615 22.3407 83.7865 22.7798 83.7865C24.7963 83.7881 26.8079 83.5879 28.7844 83.1887C29.1218 86.8907 30.1128 90.5036 31.7114 93.8597L32.1924 94.8759L32.6523 95.8878L33.7186 95.5199L34.7807 95.1562C38.5439 93.8648 42.0317 91.8792 45.063 89.302C46.5327 91.5937 48.3065 93.6757 50.3358 95.4906L51.1721 96.2433L52.0084 96.9918L52.8447 96.2433L53.6811 95.4906C55.7092 93.6757 57.4815 91.5937 58.9497 89.302C61.983 91.8784 65.472 93.8638 69.2362 95.1562L70.2983 95.5199L71.3646 95.8878L71.8413 94.8676L72.3221 93.8514C73.9207 90.4953 74.9118 86.8824 75.2493 83.1802C77.2291 83.5746 79.2435 83.7693 81.2621 83.7615C81.6803 83.7615 82.1403 83.7615 82.5709 83.7364L83.6958 83.6903L84.8207 83.6444L84.8959 82.5196L84.9712 81.3989C85.1527 78.6894 84.967 75.9676 84.4193 73.3077C88.3766 73.0484 92.2483 72.0365 95.8264 70.3263L96.8425 69.8496L97.8627 69.3688L97.4947 68.3025L97.1269 67.2403C95.8477 63.4805 93.8605 60.0001 91.2727 56.9874C93.5878 55.5091 95.6896 53.7209 97.5199 51.6726ZM82.8846 72.1034C83.6617 75.1125 83.9441 78.228 83.7209 81.3278L83.6457 82.4527L82.5208 82.4987C82.1027 82.4987 81.6845 82.5238 81.2664 82.5238C78.8504 82.5274 76.4437 82.2254 74.1034 81.6247C73.9281 85.685 72.9323 89.6678 71.1764 93.333L70.6997 94.3532L69.6334 93.9852C65.5417 92.592 61.7971 90.336 58.6528 87.3701C57.1185 90.0731 55.1539 92.508 52.8364 94.579L52.0001 95.3276L51.1638 94.579C48.844 92.5102 46.8791 90.0748 45.3474 87.3701C42.2021 90.3369 38.4559 92.5929 34.3625 93.9852L33.3005 94.3532L32.8195 93.333C31.065 89.6673 30.0694 85.6849 29.8925 81.6247C27.561 82.217 25.1643 82.5135 22.7588 82.507C22.3407 82.507 21.9225 82.507 21.5044 82.482L20.3796 82.4359L20.3043 81.3112C20.077 78.2112 20.3595 75.0951 21.1406 72.0868C16.8317 72.0168 12.5886 71.0185 8.70063 69.1596L7.69288 68.7081L8.06086 67.6459C9.45573 63.5599 11.7181 59.824 14.6927 56.6946C11.9702 55.1536 9.51928 53.176 7.43782 50.8406L6.68514 50.0043L7.43782 49.168C9.51041 46.8349 11.9513 44.8575 14.6634 43.3138C11.7042 40.185 9.45614 36.4536 8.0734 32.375L7.70543 31.313L8.73408 30.8363C12.0029 29.2901 15.5221 28.3413 19.1251 28.0346L19.7565 27.9802C19.9698 27.9802 20.1747 27.9802 20.3963 27.9802C20.3419 27.7712 20.2876 27.5621 20.2374 27.3573C20.1872 27.1524 20.1496 26.939 20.1036 26.7258C19.6055 24.3571 19.406 21.9352 19.5098 19.5169L19.5558 18.3963L20.6806 18.321C21.3664 18.2708 22.048 18.2499 22.7212 18.2499C24.7281 18.2482 26.7295 18.4585 28.6924 18.8771L29.3155 19.0193L29.9594 19.1824C29.9594 18.9692 29.9594 18.7643 29.9594 18.5343C29.9594 18.3043 29.9887 18.1161 29.997 17.8945C30.2274 14.0278 31.1999 10.2416 32.8613 6.74244L33.3421 5.72215L34.4086 6.09013C38.4797 7.47608 42.2048 9.72225 45.3306 12.676C46.8739 9.96124 48.8515 7.51757 51.1846 5.442L52.0209 4.69351L52.8573 5.442C55.1904 7.51757 57.168 9.96124 58.7114 12.676C61.8309 9.71532 65.5519 7.46187 69.6209 6.06921L70.6831 5.70125L71.1639 6.72153C72.8292 10.2193 73.8018 14.0063 74.0282 17.8736C74.0282 18.0868 74.0617 18.2918 74.0658 18.5134C74.07 18.735 74.0658 18.9315 74.0658 19.1614L74.7097 18.9984L75.3328 18.8563C77.2942 18.4378 79.2943 18.2276 81.2999 18.229C81.9772 18.229 82.6588 18.229 83.3446 18.3001L84.4694 18.3754L84.5153 19.4961C84.617 21.9142 84.4176 24.3358 83.9216 26.705C83.8757 26.9182 83.8338 27.1231 83.7878 27.3363C83.7419 27.5495 83.6791 27.7545 83.6247 27.9594C83.8381 27.9594 84.0428 27.9594 84.2687 27.9594C84.4945 27.9594 84.6869 27.997 84.9001 28.0137C88.5017 28.3205 92.0195 29.2693 95.287 30.8153L96.3072 31.2962L95.9393 32.3583C94.5549 36.4362 92.307 40.1672 89.3493 43.2971C92.0614 44.8407 94.5022 46.8183 96.5749 49.1512L97.3276 49.9875L96.5749 50.8238C94.4935 53.1593 92.0424 55.137 89.32 56.678C92.2946 59.8073 94.5569 63.5433 95.9519 67.6293L96.3197 68.6914L95.2912 69.1847C91.4076 71.0382 87.1705 72.0337 82.8678 72.1034H82.8846Z" fill="white"/>
<path d="M50.9375 77.0123L52.008 77.3926L53.0828 77.0123L55.5163 76.1467L59.8191 74.612V73.6001L52.008 72.2913L44.2012 73.6001V74.612L48.504 76.1467L50.9375 77.0123Z" fill="white"/>
<path d="M22.8132 27.3323C22.8676 27.5455 22.9219 27.7504 22.9846 27.9719C23.2104 27.9719 23.4321 28.0012 23.6536 28.0222L24.3269 28.0766C26.9691 28.3457 29.558 28.9979 32.0124 30.0125C31.1076 27.8159 30.4933 25.5105 30.1852 23.1549C30.1517 22.9249 30.1266 22.6991 30.1058 22.4692C30.0848 22.2392 30.0597 22.0175 30.0597 21.7917C29.8422 21.7248 29.6415 21.6662 29.4033 21.6078L28.7384 21.4572C26.7691 20.9844 24.7506 20.7472 22.7253 20.7505H21.981C21.9771 22.7532 22.2028 24.7496 22.6542 26.7007C22.7045 26.8931 22.7589 27.1231 22.8132 27.3323Z" fill="white"/>
<path d="M48.0395 78.6396L47.4457 78.4264L41.7003 76.3815V74.019L38.6896 74.5208L37.9621 68.1943L37.8826 67.4833L37.799 66.7683C37.1133 67.2743 36.4148 67.7469 35.7083 68.1775L35.5702 68.4201C31.7316 75.3278 31.4139 83.5696 34.6545 91.2008C38.6184 89.6866 42.1706 87.2617 45.0246 84.1215C46.455 82.5273 47.6734 80.7551 48.65 78.8487L48.0395 78.6396Z" fill="white"/>
<path d="M68.3375 68.1775C67.6182 67.7594 66.9157 67.2743 66.2466 66.7683L66.1631 67.4833L66.0835 68.1943L65.3559 74.5208L62.3412 74.019V76.3815L56.6 78.4264L56.0062 78.6396L55.4082 78.8487C56.3847 80.7551 57.6033 82.5273 59.0335 84.1215C61.8875 87.2617 65.4397 89.6866 69.4037 91.2008C72.6444 83.5696 72.3307 75.3112 68.4878 68.4243L68.3375 68.1775Z" fill="white"/>
<path d="M74.6135 51.1917L74.4587 51.8022L74.3041 52.4085L74.0657 53.3284L66.8778 61.1438L66.7398 62.3479L66.6519 63.1007L66.5684 63.845C71.05 67.5796 76.7036 69.6166 82.5374 69.5988C86.2019 69.5845 89.8257 68.8308 93.1919 67.3825C89.8801 58.8481 83.0853 52.9479 74.6135 51.1917Z" fill="white"/>
<path d="M37.3694 63.1007L37.2815 62.3479L37.1436 61.1438L29.9514 53.3284L29.7172 52.4085L29.5625 51.8022L29.4037 51.1917C20.9361 52.9479 14.1369 58.8522 10.8252 67.3825C14.1929 68.8305 17.8181 69.5842 21.4838 69.5988C27.3176 69.6166 32.9713 67.5796 37.4531 63.845L37.3694 63.1007Z" fill="white"/>
<path d="M52.4137 79.9111L51.9956 80.0575L51.5774 79.9111L50.9794 79.6979C49.9547 81.7629 48.6733 83.6906 47.166 85.4349C48.4289 87.8305 50.0633 90.011 52.0081 91.8954C53.9556 90.0122 55.5914 87.8316 56.8545 85.4349C55.3343 83.6881 54.0429 81.7546 53.0117 79.6812L52.4137 79.9111Z" fill="white"/>
<path d="M22.7504 79.9986C25.1812 80.005 27.6008 79.6699 29.9384 79.0034C30.1048 75.9191 30.7918 72.8851 31.9707 70.03C29.3624 71.112 26.6016 71.782 23.7875 72.0161C23.0225 74.6056 22.6725 77.2998 22.7504 79.9986Z" fill="white"/>
<path d="M79.4019 50.0204C82.3309 51.1696 85.0409 52.813 87.4136 54.8794C89.829 53.6085 92.0254 51.9598 93.92 49.9953C92.0344 48.042 89.8493 46.4017 87.4472 45.1365C85.0665 47.2154 82.3448 48.8678 79.4019 50.0204Z" fill="white"/>
<path d="M24.6234 50.0204C21.6806 48.8678 18.9588 47.2154 16.5782 45.1365C14.1753 46.4027 11.989 48.0428 10.1011 49.9953C11.9921 51.9585 14.1843 53.6071 16.5949 54.8794C18.9727 52.8114 21.6884 51.1678 24.6234 50.0204Z" fill="white"/>
<path d="M72.0381 70.0454C73.2203 72.8997 73.9088 75.9341 74.0746 79.019C76.413 79.6798 78.8326 80.0091 81.2625 79.9974C81.3424 77.2992 80.9968 74.6054 80.238 72.0149C77.4193 71.7869 74.653 71.1225 72.0381 70.0454Z" fill="white"/>
<path d="M56.5075 20.457L57.5277 19.9804L58.9119 19.3323L68.7719 27.9461L69.2777 28.3893L69.7753 28.8075C70.6973 26.5139 71.271 24.0954 71.4772 21.632C71.5273 21.076 71.5525 20.5156 71.5609 19.9594C71.5609 19.7294 71.5609 19.4994 71.5609 19.2694C71.5609 19.0395 71.5609 18.8513 71.5609 18.6088C71.4365 15.2441 70.6923 11.9313 69.3656 8.83667C63.4538 11.0676 58.5434 15.3531 55.5332 20.9087L56.5075 20.457Z" fill="white"/>
<path d="M34.2414 28.8242L34.739 28.4061L35.245 27.988L45.1133 19.3323L46.5058 19.9804L47.5262 20.4529L48.5003 20.9087C45.4873 15.3523 40.5739 11.0668 34.6596 8.83667C33.3315 11.9352 32.5872 15.2524 32.4644 18.6214C32.4644 18.843 32.4644 19.0395 32.4644 19.282C32.4644 19.5247 32.4644 19.742 32.4644 19.9719C32.4644 20.5323 32.502 21.0926 32.548 21.6447C32.7523 24.1087 33.323 26.5286 34.2414 28.8242Z" fill="white"/>
<path d="M52.0083 22.5522C53.1565 19.637 54.7957 16.94 56.8546 14.5782C55.5938 12.1678 53.958 9.97301 52.0083 8.07593C50.0531 9.96513 48.4101 12.1528 47.1411 14.5573C49.2014 16.918 50.8408 19.6153 51.9874 22.5314L52.0083 22.5522Z" fill="white"/>
<path d="M28.7638 48.6914L28.5882 47.9972L28.4084 47.2989L25.6068 36.3643L29.4162 33.019L29.9639 32.5423L30.4908 32.0825C27.9984 31.1245 25.3681 30.5739 22.7007 30.4516H22.5334C22.1821 30.4516 21.8268 30.4182 21.4713 30.4182C21.1158 30.4182 20.8692 30.4182 20.5681 30.4433H20.4845L19.8363 30.4766C18.1423 30.5843 16.4622 30.8517 14.8185 31.2753C13.4553 31.6296 12.1205 32.0853 10.8252 32.6385C14.024 40.8259 20.6308 46.751 28.7638 48.6914Z" fill="white"/>
<path d="M73.5474 32.099L74.0742 32.559L74.6221 33.0357L78.4314 36.3809L75.6298 47.3154L75.4501 48.0139L75.2745 48.7079C83.4033 46.7677 90.0141 40.8426 93.2004 32.6552C90.3438 31.4358 87.3013 30.7092 84.202 30.5059L83.5537 30.4723H83.4534C83.1523 30.4723 82.8554 30.4473 82.5543 30.4473C82.2533 30.4473 81.8435 30.4473 81.488 30.4808C78.7706 30.5837 76.0885 31.1303 73.5474 32.099Z" fill="white"/>
<path d="M80.3632 28.0214C80.589 28.0214 80.8106 27.9838 81.0364 27.9713C81.095 27.7579 81.1494 27.5531 81.2078 27.3314C81.2664 27.1097 81.3165 26.9133 81.3626 26.6958C81.8174 24.7452 82.0447 22.7484 82.04 20.7456H81.2998C79.273 20.7434 77.2532 20.982 75.2826 21.4564C75.0652 21.5066 74.8645 21.5609 74.6387 21.6195C74.4128 21.6781 74.1996 21.7365 73.9822 21.8034C73.9822 22.0293 73.9403 22.2551 73.9153 22.4809C73.8902 22.7066 73.8651 22.9366 73.8358 23.1666C73.5242 25.5221 72.9085 27.8271 72.0044 30.0244C74.4591 29.0106 77.048 28.3585 79.69 28.0883L80.3632 28.0214Z" fill="white"/>
<path d="M84.5239 19.496L84.4778 18.3754L83.353 18.3001C82.6672 18.2499 81.9857 18.229 81.3083 18.229C79.3027 18.2276 77.3027 18.4378 75.3412 18.8563L74.7183 18.9984L74.0742 19.1615C74.0742 19.4541 74.0742 19.751 74.0742 20.0438C74.0742 20.6251 74.0241 21.2104 73.978 21.7916C74.1955 21.7247 74.3962 21.6663 74.6346 21.6077C74.8729 21.5491 75.0528 21.4947 75.2785 21.4446C77.2492 20.9716 79.2691 20.7344 81.2958 20.7379H82.0359C82.0407 22.7408 81.8134 24.7376 81.3584 26.6882C81.3124 26.9014 81.258 27.1064 81.2037 27.3238C81.1493 27.5413 81.0909 27.742 81.0323 27.9635C81.5383 27.9342 82.0442 27.9176 82.5543 27.9176H82.592C82.9391 27.9176 83.282 27.9176 83.629 27.9469C83.6834 27.7377 83.7418 27.5287 83.7921 27.3238C83.8422 27.1189 83.8798 26.9057 83.9259 26.6923C84.4222 24.3276 84.6231 21.9104 84.5239 19.496Z" fill="#223A72"/>
<path d="M22.6539 26.6962C22.2025 24.7451 21.9766 22.7487 21.9807 20.746H22.725C24.7504 20.7441 26.7689 20.9827 28.738 21.4568L29.382 21.6199C29.5994 21.6785 29.8209 21.7369 30.0384 21.8038C30.005 21.4275 29.984 21.0512 29.9715 20.6749C29.9507 20.1773 29.9422 19.6755 29.9464 19.1737L29.3025 19.0106L28.6795 18.8685C26.7167 18.4498 24.7152 18.2395 22.7083 18.2412C22.0351 18.2412 21.3534 18.2412 20.6677 18.3123L19.5429 18.3876L19.4969 19.5082C19.3931 21.9266 19.5926 24.3484 20.0906 26.7172C20.1366 26.9304 20.1785 27.1353 20.2245 27.3485C20.2705 27.5618 20.329 27.7667 20.3833 27.9716C20.743 27.9716 21.1026 27.9381 21.4621 27.9381C21.8218 27.9381 22.0518 27.9381 22.3445 27.9381C22.5577 27.9381 22.7626 27.9381 22.9843 27.9632C22.9215 27.7499 22.8671 27.545 22.8128 27.3235C22.7584 27.1018 22.704 26.8928 22.6539 26.6962Z" fill="#223A72"/>
<path d="M74.0572 32.5582L73.5304 32.0982L69.7671 28.824L69.2695 28.4059L68.7635 27.9627L58.9119 19.332L57.5195 19.9802L56.4991 20.4569L55.5248 20.9084L52.0208 22.5393H51.9998L48.5 20.9084L47.5257 20.4527L46.5053 19.9802L45.1129 19.332L35.2529 27.9501L34.747 28.3683L34.2494 28.7864L30.486 32.0606L29.9591 32.5206L29.4114 32.9971L25.6021 36.3425L28.4036 47.277L28.5834 47.9753L28.759 48.6695L29.3989 51.1783L29.5577 51.7889L29.7125 52.3952L29.9466 53.3151L37.1388 61.1303L37.2767 62.3346L37.3646 63.0872L37.4483 63.8315L37.7827 66.7585L37.8664 67.4737L37.9458 68.1845L38.6734 74.511L41.6841 74.0094V76.3719L47.4295 78.4166L48.0233 78.6298L48.6213 78.839L51.0046 79.6753L51.6026 79.8885L52.0208 80.0348L52.4389 79.8885L53.0369 79.6753L55.4203 78.839L56.0183 78.6298L56.6121 78.4166L62.3533 76.3719V74.0177L65.3682 74.5195L66.0957 68.1928L66.1752 67.482L66.2588 66.767L66.5933 63.84L66.677 63.0957L66.7647 62.3429L66.9027 61.1387L74.0908 53.3234L74.3291 52.4035L74.4838 51.7972L74.6385 51.1866L75.2824 48.6778L75.458 47.9837L75.6379 47.2853L78.4395 36.3508L74.6302 33.0056L74.0572 32.5582ZM40.8688 71.6091L40.2708 66.3948L40.1829 65.6421L40.141 65.2533L40.0115 64.1494L39.5432 60.0432L32.2255 52.0983L32.2046 52.0231L32.05 51.4126L31.109 47.7328L30.9502 47.1222L28.9472 39.3028L35.5833 40.2478L36.7498 44.2413L45.92 47.2352L41.9809 60.0975L50.7621 65.5334V69.9616L40.8688 71.6091ZM38.3013 40.6033L44.1553 41.3602L45.8279 44.5632L38.7864 42.2634L38.3013 40.6033ZM46.819 60.0933H57.2016L52.0083 63.3675L46.819 60.0933ZM59.8192 74.6115L55.5165 76.142L53.0828 77.0075L52.0083 77.3922L50.9377 77.0075L48.5041 76.142L44.1972 74.6115V73.5953L52.0083 72.2908L59.8192 73.5953V74.6115ZM73.0663 47.1182L72.9115 47.7285L71.9707 51.4083L71.8117 52.0189V52.0941L64.4941 60.0389L64.0216 64.1452L63.8963 65.2491L63.8545 65.6379L63.7666 66.3907L63.1686 71.605L53.2627 69.9616V65.5419L62.0439 60.1058L58.1048 47.2435L67.2748 44.2371L68.4415 40.2438L75.0776 39.2988L73.0663 47.1182ZM58.1927 44.5632L59.8653 41.3602L65.7194 40.6033L65.2342 42.2759L58.1927 44.5632ZM75.0608 36.7647L67.9314 37.764L58.2553 39.0185L54.9102 45.387L58.6359 57.5635H45.3722L49.1021 45.387L45.7569 39.0185L36.0809 37.764L28.9723 36.7481L31.9997 34.1052L32.514 33.6578L35.83 30.7601L36.3151 30.342L45.531 22.2926L48.3913 23.6222L49.2276 24.0027L50.7704 24.722L51.5859 25.1025L52.0375 25.3115L52.4891 25.1025L53.3254 24.722L54.8726 24.0027L55.6879 23.6222L58.4938 22.2926L67.693 30.3462L68.1822 30.7643L71.4982 33.662L72.0126 34.1095L75.0608 36.7647Z" fill="#223A72"/>
</g>
<mask id="mask1_614_51" style="mask-type:luminance" maskUnits="userSpaceOnUse" x="122" y="23" width="280" height="54">
<path d="M401.388 23.3665H122.521V76.6332H401.388V23.3665Z" fill="white"/>
</mask>
<g mask="url(#mask1_614_51)">
<path d="M177.255 23.8804L163.191 75.596H172.25L175.319 63.8278H194.368L197.437 75.596H206.507L192.494 23.8804H177.255ZM177.393 55.6436L184.273 29.4221H185.51L192.378 55.6436H177.393Z" fill="#223A72"/>
<path d="M236.339 40.3546C234.091 39.0387 231.528 38.3727 228.931 38.4288C225.565 38.4288 223.057 39.0458 221.407 40.2797C219.952 41.2715 218.769 42.6182 217.967 44.1952H216.729V39.0921H208.475V75.5946H216.878V57.1187C216.878 53.4314 217.727 50.5785 219.427 48.5601C220.3 47.5598 221.382 46.771 222.598 46.2524C223.812 45.7339 225.127 45.4987 226.444 45.5645C227.552 45.4876 228.664 45.6375 229.714 46.0052C230.762 46.3728 231.727 46.9507 232.551 47.7043C233.961 49.1307 234.668 51.3346 234.668 54.3158V75.5946H243.081V53.7273C243.15 50.933 242.531 48.165 241.281 45.6715C240.159 43.4664 238.447 41.6242 236.339 40.3546Z" fill="#223A72"/>
<path d="M257.029 39.1033H248.625V75.5952H257.029V39.1033Z" fill="#223A72"/>
<path d="M252.785 23.3661C251.343 23.3317 249.944 23.8606 248.88 24.8426C248.356 25.3712 247.94 25.9991 247.657 26.6901C247.373 27.3814 247.228 28.1222 247.228 28.8705C247.228 29.6187 247.373 30.3596 247.657 31.0506C247.94 31.7419 248.356 32.3698 248.88 32.8984C249.969 33.8702 251.373 34.4063 252.827 34.4063C254.281 34.4063 255.684 33.8702 256.775 32.8984C257.781 31.8037 258.34 30.3648 258.34 28.8705C258.34 27.376 257.781 25.937 256.775 24.8426C255.689 23.8386 254.256 23.308 252.785 23.3661Z" fill="#223A72"/>
<path d="M309.022 39.906C307.144 38.9067 305.049 38.3991 302.926 38.4297C300.596 38.2848 298.278 38.8513 296.269 40.0557C294.743 41.1004 293.512 42.5267 292.693 44.196H291.551C290.72 42.5113 289.459 41.0819 287.899 40.0557C285.987 38.892 283.778 38.3261 281.549 38.4297C279.467 38.3271 277.4 38.8282 275.591 39.8738C274.267 40.6696 273.172 41.8019 272.417 43.1582H271.178V39.0929H262.871V75.5955H271.284V53.9421C271.134 51.6981 271.807 49.4771 273.178 47.705C273.847 46.9735 274.67 46.4018 275.585 46.0316C276.501 45.6616 277.485 45.5023 278.469 45.5654C279.334 45.4744 280.206 45.5807 281.023 45.8767C281.84 46.1728 282.581 46.6506 283.191 47.2753C283.8 47.8999 284.264 48.6552 284.544 49.485C284.826 50.3151 284.92 51.1985 284.819 52.0699V75.6061H293.149V53.9421C293 51.6915 293.691 49.4666 295.085 47.705C295.749 46.9845 296.561 46.4195 297.465 46.0498C298.367 45.6802 299.34 45.5149 300.313 45.5654C301.176 45.4744 302.049 45.5807 302.865 45.8767C303.683 46.1728 304.424 46.6506 305.033 47.2753C305.643 47.8999 306.106 48.6552 306.388 49.485C306.67 50.3151 306.763 51.1985 306.663 52.0699V75.6061H315.065V51.428C315.151 48.9367 314.581 46.467 313.413 44.2709C312.397 42.4186 310.871 40.903 309.022 39.906Z" fill="#223A72"/>
<path d="M350.644 66.3514V52.0264C350.644 47.4904 349.294 44.0312 346.591 41.6491C343.889 39.2669 340.174 38.0724 335.448 38.0652C332.739 37.9788 330.043 38.4672 327.531 39.4987C325.545 40.3453 323.779 41.6495 322.379 43.3074C321.105 44.8481 320.148 46.6301 319.563 48.5495L327.31 51.1384C327.641 49.4259 328.496 47.8617 329.754 46.6666C331.315 45.4061 333.287 44.7871 335.279 44.9334C337.765 44.9334 339.585 45.5325 340.76 46.7415C341.348 47.3644 341.804 48.1001 342.104 48.9051C342.404 49.7102 342.542 50.5678 342.507 51.4273V53.6526H332.083C329.635 53.6112 327.202 54.0471 324.918 54.9363C322.95 55.7071 321.24 57.0281 319.986 58.7449C318.75 60.5668 318.122 62.7414 318.199 64.95C318.122 67.2052 318.747 69.4278 319.986 71.3047C321.211 73.0512 322.894 74.4183 324.845 75.2524C327.028 76.2001 329.388 76.6669 331.764 76.6218C333.829 76.7136 335.888 76.3484 337.798 75.5519C339.075 74.9713 340.195 74.0912 341.067 72.9843C341.675 72.2107 342.191 71.3667 342.601 70.4703H343.851V70.6201C343.82 71.3174 343.956 72.0119 344.248 72.645C344.539 73.2779 344.976 73.8311 345.523 74.2574C346.768 75.1878 348.293 75.6597 349.841 75.5947H355.756V68.5767H352.687C351.323 68.5767 350.644 67.8278 350.644 66.3514ZM342.528 60.8097C342.578 62.0081 342.368 63.2028 341.915 64.3112C341.461 65.4197 340.774 66.4151 339.903 67.2287C338.022 68.8706 335.593 69.7272 333.109 69.6251C331.395 69.7293 329.695 69.2469 328.283 68.2556C327.724 67.8482 327.271 67.3086 326.966 66.684C326.659 66.0593 326.508 65.3686 326.527 64.6717C326.493 63.9987 326.629 63.3278 326.923 62.7231C327.218 62.1184 327.661 61.5998 328.21 61.2163C329.513 60.3723 331.044 59.9575 332.59 60.0288H342.528V60.8097Z" fill="#223A72"/>
<path d="M367.28 23.8804H358.878V75.596H367.28V23.8804Z" fill="#223A72"/>
<path d="M399.494 58.8193C398.1 57.2554 396.328 56.0833 394.351 55.4173C391.983 54.5816 389.552 53.9413 387.081 53.5022L384.805 53.0529C383.278 52.8663 381.799 52.3909 380.445 51.6515C379.939 51.3709 379.519 50.9527 379.236 50.4442C378.95 49.9358 378.813 49.3571 378.838 48.7735C378.819 48.181 378.96 47.5946 379.242 47.0752C379.525 46.5559 379.941 46.1227 380.445 45.8208C381.808 45.0356 383.367 44.6641 384.932 44.7511C386.632 44.6928 388.311 45.1431 389.759 46.0455C390.475 46.5661 391.073 47.2333 391.517 48.0039C391.96 48.7746 392.237 49.6311 392.33 50.5174L400.077 48.1531C399.333 45.1526 397.506 42.5421 394.954 40.8355C391.971 38.9154 388.477 37.9636 384.943 38.1075C380.71 38.1075 377.288 39.0667 374.678 40.9853C373.403 41.914 372.378 43.1503 371.697 44.5814C371.014 46.0126 370.697 47.5933 370.772 49.18C370.685 51.2568 371.346 53.2951 372.635 54.9144C373.967 56.4851 375.66 57.7012 377.567 58.4555C379.757 59.3648 382.034 60.046 384.362 60.4881L386.625 60.8519C388.366 61.1329 390.055 61.6813 391.631 62.4781C392.151 62.7674 392.58 63.1986 392.872 63.7225C393.162 64.2464 393.299 64.8419 393.271 65.4414C393.274 66.0788 393.119 66.7065 392.82 67.2672C392.519 67.8279 392.085 68.3037 391.557 68.6509C390.008 69.5941 388.208 70.0312 386.403 69.9027C384.966 69.9171 383.536 69.6931 382.17 69.2394C380.895 68.8021 379.768 68.0083 378.922 66.95C377.954 65.6479 377.324 64.1215 377.091 62.5102L369.376 64.4251C369.599 66.2461 370.202 67.9981 371.147 69.5644C372.093 71.1306 373.357 72.4752 374.858 73.5081C378.306 75.7008 382.333 76.7827 386.403 76.6105C390.989 76.6105 394.633 75.5906 397.335 73.5508C398.67 72.5378 399.737 71.209 400.444 69.6812C401.15 68.1533 401.474 66.4733 401.388 64.7889C401.503 62.6316 400.827 60.5072 399.494 58.8193Z" fill="#223A72"/>
<path d="M142.173 76.4089C138.541 76.5081 134.937 75.7382 131.654 74.1623C128.79 72.7371 126.427 70.4598 124.881 67.6363C123.238 64.5158 122.425 61.0175 122.521 57.4837V23.8804H131.252V57.719C131.252 61.1497 132.198 63.7992 134.088 65.668C135.983 67.5293 138.671 68.4601 142.173 68.4601C145.676 68.4601 148.417 67.5293 150.28 65.668C152.143 63.8065 153.084 61.1533 153.084 57.719V23.8804H161.815V57.4943C161.909 61.0206 161.108 64.5124 159.487 67.6363C157.952 70.462 155.59 72.7379 152.725 74.1516C149.431 75.7285 145.817 76.5016 142.173 76.4089Z" fill="#223A72"/>
</g>
</svg>
