<svg width="228" height="153" viewBox="0 0 228 153" fill="none" xmlns="http://www.w3.org/2000/svg">
<path d="M202.16 91.8H0.325684V146.055H202.16V91.8Z" fill="#3AAA35"/>
<path d="M202.16 86.5915H0.325684V32.4447L101.297 6.83618L202.16 32.4447V86.5915Z" fill="#3C3C3C"/>
<path d="M8.79419 78.7787V40.366H20.8456C25.1885 40.366 28.337 41.234 30.3999 42.9702C32.4628 44.5979 33.5485 47.0936 33.5485 50.2404C33.5485 52.3021 32.897 54.1468 31.8113 55.5575C30.617 56.9681 28.9885 57.7277 26.9256 58.1617C29.5313 58.5957 31.4856 59.6809 33.0056 61.3085C34.417 62.9362 35.0685 64.9979 35.0685 67.4936C35.0685 70.966 33.7656 73.7872 31.1599 75.8489C28.5542 77.9106 24.9713 78.9958 20.3028 78.9958L8.79419 78.7787ZM21.0628 46.7681H16.2856V55.1234H20.5199C21.9313 55.1234 23.2342 54.6894 24.3199 53.8213C25.5142 52.9532 25.9485 51.7596 25.9485 50.3489C26.057 48.1787 24.3199 46.8766 21.0628 46.7681ZM16.3942 72.4851H21.8228C23.5599 72.4851 24.9713 72.0511 26.057 71.0745C27.1428 70.0979 27.6856 68.9043 27.6856 67.2766C27.6856 65.6489 27.0342 64.2383 25.9485 63.1532C24.7542 61.9596 23.017 61.417 20.737 61.417H16.3942C16.3942 61.417 16.3942 72.4851 16.3942 72.4851Z" fill="white"/>
<path d="M63.5142 75.5234C61.017 78.0192 57.5427 79.1043 52.8742 79.1043C48.2056 79.1043 44.7313 77.9106 42.2342 75.5234C39.737 73.0277 38.5427 69.4468 38.5427 64.6723V40.366H46.577V65.2149C46.577 67.6021 47.1199 69.5553 48.2056 70.7489C49.2913 72.0511 50.8113 72.7021 52.8742 72.7021C54.937 72.7021 56.457 72.0511 57.5427 70.7489C58.737 69.4468 59.1713 67.6021 59.1713 65.2149V40.366H67.2056V64.6723C67.097 69.4468 65.9027 73.0277 63.5142 75.5234Z" fill="white"/>
<path d="M102.383 58.2702C102.383 64.4553 100.646 69.4468 97.0628 73.2447C93.4799 77.0426 88.7028 78.8872 82.7313 78.8872H72.5256V40.366H84.3599C89.7885 40.366 94.2399 41.9936 97.4971 45.3575C100.754 48.7213 102.383 52.9532 102.383 58.2702ZM94.1313 57.8362C94.1313 54.3638 93.1542 51.6511 91.3085 49.6979C89.4628 47.7447 87.1828 46.6596 84.5771 46.6596H80.1256V72.3766H83.1656C86.2056 72.3766 88.8113 71.0745 90.9828 68.4702C93.0456 65.866 94.1313 62.3936 94.1313 57.8362Z" fill="white"/>
<path d="M123.663 79.1042C118.017 79.1042 113.566 77.3681 110.2 73.7872C106.834 70.2064 105.206 65.4319 105.206 59.4638C105.206 53.4957 106.834 48.7212 109.983 45.2489C113.131 41.7766 117.583 39.9319 123.228 39.9319C126.92 39.9319 130.828 40.5829 134.628 41.8851L133.651 48.0702C132.24 47.5276 130.503 47.0936 128.223 46.7681C126.051 46.4425 124.314 46.2255 123.011 46.2255C119.971 46.2255 117.691 47.4191 115.846 49.6978C114.108 51.9766 113.24 55.1234 113.24 59.1383C113.24 63.1532 114.108 66.3 115.954 69.0127C117.8 71.617 120.188 72.9191 123.12 72.9191C124.748 72.9191 126.377 72.5936 127.68 71.7255V64.2383H121.383V57.9447H135.714V76.1744C131.806 78.1276 127.788 79.1042 123.663 79.1042Z" fill="white"/>
<path d="M139.84 40.366V78.7787H162.64V72.4851H147.766V61.2H161.337V54.6894H147.766V46.7681H162.64V40.366H139.84Z" fill="white"/>
<path d="M166.874 40.366V46.7681H176.32V78.7787H184.246V46.7681H193.8V40.366H166.874Z" fill="white"/>
<path d="M40.9314 138.677V107.1H30.5085V100.264H58.6285V107.1H48.2057V138.677H40.9314V138.677Z" fill="white"/>
<path d="M85.0113 100.155H92.177V138.568H85.0113V122.4H69.5942V138.568H62.4285V100.155H69.5942V115.672H85.0113V100.155Z" fill="white"/>
<path d="M101.406 134.987C98.9085 132.166 97.8228 128.151 97.8228 122.725V100.155H104.988V123.16C104.988 126.198 105.64 128.477 106.834 130.213C108.028 131.84 109.874 132.6 112.154 132.6C114.434 132.6 116.171 131.84 117.474 130.213C118.777 128.585 119.32 126.306 119.32 123.16V100.155H126.486V122.725C126.486 128.042 125.291 132.166 122.794 134.987C120.297 137.808 116.823 139.219 112.263 139.219C107.377 139.111 103.794 137.808 101.406 134.987Z" fill="white"/>
<path d="M131.914 138.677V100.264H139.189V138.677H131.914V138.677Z" fill="white"/>
<path d="M149.394 138.026C147.114 137.266 145.16 136.181 143.64 134.77L145.92 128.694C149.068 131.298 152.651 132.6 156.668 132.6C158.731 132.6 160.36 132.274 161.554 131.406C162.748 130.538 163.183 129.562 163.183 128.151C163.183 126.957 162.64 125.981 161.554 125.221C160.468 124.462 158.623 123.811 156.126 123.16C153.194 122.509 150.806 121.64 149.177 120.555C147.44 119.579 146.137 118.385 145.377 116.974C144.617 115.564 144.183 113.828 144.183 111.657C144.183 109.379 144.726 107.209 145.811 105.364C146.897 103.519 148.417 102.109 150.48 101.023C152.543 99.9383 154.823 99.3958 157.32 99.3958C159.708 99.3958 161.988 99.8298 164.051 100.589C166.223 101.349 167.96 102.434 169.263 103.845L166.983 109.921C164.051 107.317 160.794 106.015 157.32 106.015C155.474 106.015 153.954 106.449 152.868 107.317C151.674 108.185 151.24 109.379 151.24 110.789C151.24 111.657 151.457 112.417 151.891 112.96C152.326 113.502 153.086 114.045 153.954 114.587C154.931 115.021 156.343 115.455 158.188 115.889C162.423 116.974 165.463 118.385 167.417 120.121C169.263 121.857 170.24 124.136 170.24 127.174C170.24 130.755 169.046 133.577 166.657 135.747C164.16 137.809 160.903 138.894 156.56 138.894C154.063 139.111 151.674 138.785 149.394 138.026Z" fill="white"/>
</svg>
