<svg width="108" height="42" viewBox="0 0 108 42" fill="none" xmlns="http://www.w3.org/2000/svg">
<path d="M18.0029 5.44827C19.4874 5.69162 20.5953 6.13325 21.3263 6.78217C22.0574 7.4311 22.4924 8.15664 22.636 8.9678C22.7795 9.77896 22.6718 10.6307 22.3265 11.5184C21.9766 12.4062 21.4698 13.2174 20.806 13.9519C20.1423 14.6865 19.3664 15.2903 18.4828 15.759C17.5992 16.2322 16.6888 16.4665 15.7514 16.4665C14.9217 16.4665 14.2489 16.2682 13.7376 15.8762C13.2263 15.4796 12.872 15.0425 12.6747 14.5603C12.4773 14.0781 12.4459 13.641 12.576 13.2444C12.7061 12.8523 13.0021 12.6541 13.4595 12.6541C14.0695 12.6541 14.6974 12.5279 15.3433 12.2755C15.9846 12.0232 16.5856 11.7122 17.1418 11.3382C17.6979 10.9641 18.1823 10.5631 18.5994 10.1395C19.012 9.71136 19.2901 9.31029 19.4336 8.94076C19.5771 8.56672 19.5547 8.25578 19.3663 8.00342C19.1825 7.75106 18.7698 7.62488 18.1374 7.62488C17.2001 7.62488 16.2403 7.94934 15.258 8.59376C14.2758 9.24269 13.325 10.0944 12.41 11.1579C11.4906 12.2169 10.6295 13.4292 9.82216 14.7901C9.01486 16.1511 8.30622 17.5435 7.69625 18.9676C7.08628 20.3916 6.60638 21.7841 6.25655 23.145C5.90672 24.506 5.73628 25.7182 5.74974 26.7772C5.75871 27.8408 5.96951 28.697 6.37316 29.3414C6.77682 29.9903 7.43612 30.3103 8.35555 30.3103C9.8401 30.3103 11.1094 30.1075 12.1678 29.7019C13.2263 29.2963 14.1099 28.7961 14.8185 28.2058C15.5271 27.6154 16.0878 26.9935 16.5049 26.3491C16.9175 25.7047 17.236 25.1369 17.4557 24.6547C17.6531 24.1725 17.9042 23.8435 18.2092 23.6678C18.5142 23.492 18.7833 23.447 19.012 23.5371C19.2408 23.6272 19.3977 23.839 19.4874 24.177C19.5727 24.515 19.5188 24.9611 19.3215 25.5109C19.1017 26.0607 18.725 26.7232 18.1913 27.5028C17.6575 28.2824 16.9399 29.0305 16.0474 29.756C15.1504 30.4815 14.074 31.0944 12.8047 31.5991C11.5399 32.1038 10.0868 32.3562 8.44974 32.3562C7.07283 32.3562 5.9112 31.9281 4.96485 31.0719C4.01402 30.2157 3.29193 29.1026 2.78961 27.7326C2.28728 26.3626 2.00921 24.8034 1.95539 23.0639C1.90157 21.3199 2.06303 19.5669 2.44874 17.8004C2.82997 16.0339 3.43994 14.3305 4.28313 12.6856C5.12183 11.0408 6.19376 9.62123 7.48994 8.42702C8.78612 7.23282 10.311 6.34505 12.0557 5.76372C13.7914 5.17788 15.7783 5.07423 18.0029 5.44827Z" fill="#242938"/>
<path d="M27.7569 2.09098C27.9094 1.71694 28.1651 1.50514 28.5239 1.45107C28.8827 1.39699 29.2774 1.45107 29.7034 1.6133C30.1295 1.78003 30.5646 2.02338 31.0131 2.35235C31.4616 2.68132 31.8518 3.05986 32.1926 3.48797C32.529 3.91609 32.7892 4.35321 32.9596 4.80385C33.1345 5.2545 33.1659 5.6736 33.0583 6.07016C32.991 6.31351 32.7309 6.80922 32.2734 7.5663C31.8159 8.32338 31.2418 9.23819 30.5556 10.3107C29.8694 11.3833 29.0935 12.591 28.2323 13.9294C27.3712 15.2678 26.4877 16.6378 25.5817 18.0393C24.6757 19.4408 23.7921 20.8468 22.931 22.2483C22.0699 23.6498 21.2985 24.9566 20.6212 26.1599C21.2985 25.2405 22.043 24.2491 22.8637 23.1811C23.6845 22.1176 24.4828 21.1081 25.2722 20.1573C26.0571 19.2019 26.7882 18.3727 27.4654 17.6562C28.1426 16.9442 28.6988 16.4575 29.1338 16.1916C29.5061 15.9708 29.9591 15.9122 30.4928 16.0114C31.0265 16.1105 31.5244 16.3223 31.9818 16.6513C32.4393 16.9802 32.8071 17.3813 33.0807 17.85C33.3543 18.3187 33.426 18.8099 33.2915 19.3146C33.1838 19.7111 32.9372 20.2519 32.5559 20.9414C32.1747 21.6309 31.7486 22.3835 31.2777 23.1946C30.8068 24.0058 30.3269 24.8305 29.838 25.6596C29.3446 26.4933 28.9365 27.2369 28.6091 27.8948C28.2817 28.5528 28.0754 29.0845 27.9857 29.4901C27.896 29.8957 28.0171 30.0895 28.3445 30.0669C28.8468 30.0219 29.385 29.8101 29.9636 29.427C30.5421 29.044 31.0938 28.5798 31.6186 28.03C32.1433 27.4802 32.6232 26.8989 33.0583 26.286C33.4933 25.6732 33.8117 25.1234 34.0091 24.6412C34.2289 24.159 34.4845 23.83 34.7805 23.6543C35.0765 23.4785 35.3412 23.4335 35.5833 23.5236C35.8255 23.6137 35.987 23.821 36.0767 24.15C36.1619 24.479 36.0991 24.9161 35.8794 25.4659C35.682 26.0157 35.3232 26.6826 34.7985 27.4712C34.2737 28.2599 33.6458 29.0169 32.9147 29.738C32.1837 30.4635 31.3809 31.0809 30.5063 31.5946C29.6317 32.1084 28.7392 32.3697 27.8242 32.3697C27.0169 32.3697 26.4338 32.1579 26.075 31.7298C25.7162 31.3017 25.5054 30.7384 25.4516 30.0354C25.3978 29.3324 25.4606 28.5348 25.649 27.6335C25.8328 26.7367 26.075 25.8129 26.371 24.871C26.6671 23.9292 26.9765 22.9918 27.3039 22.059C27.6313 21.1262 27.9139 20.288 28.1561 19.5444C27.5865 20.0717 26.9676 20.7116 26.2903 21.4687C25.6131 22.2257 24.9269 23.0189 24.2272 23.8526C23.5275 24.6863 22.8458 25.5245 22.182 26.3672C21.5137 27.2099 20.9038 27.9895 20.3476 28.7015C19.7915 29.4135 19.3206 30.0354 18.9393 30.5581C18.5581 31.0854 18.289 31.4459 18.1365 31.6442C18.0468 32.0408 17.8629 32.2976 17.5804 32.4148C17.2978 32.5365 17.0152 32.5455 16.7282 32.4463C16.4456 32.3472 16.199 32.1444 15.9926 31.838C15.7863 31.5315 15.7235 31.135 15.8132 30.6528C15.9882 29.3594 16.3873 27.7957 17.0063 25.9661C17.6252 24.1545 18.3563 22.2302 19.195 20.2159C20.0337 18.197 20.9307 16.1781 21.8815 14.1457C22.8323 12.1178 23.7204 10.2612 24.5501 8.57124C25.3799 6.88132 26.0885 5.45729 26.676 4.29463C27.2636 3.13197 27.6269 2.40192 27.7569 2.09098Z" fill="#242938"/>
<path d="M44.5186 20.6755C44.7159 20.2609 45.0613 20.0176 45.5681 19.95C46.0704 19.8824 46.5772 19.95 47.0885 20.1483C47.5998 20.3466 48.0214 20.653 48.3488 21.0676C48.6762 21.4822 48.7615 21.9869 48.609 22.5817C48.5013 22.9738 48.304 23.4425 48.0214 23.9787C47.7389 24.515 47.4249 25.0648 47.0885 25.6236C46.7477 26.1824 46.4158 26.7367 46.0884 27.2865C45.761 27.8363 45.5008 28.323 45.3035 28.7511C45.1061 29.1792 45.0164 29.5126 45.0254 29.756C45.0344 29.9993 45.2048 30.1075 45.5322 30.085C46.0346 30.0399 46.5189 29.8281 46.9899 29.4451C47.4608 29.062 47.9003 28.5978 48.3174 28.0481C48.7301 27.4983 49.1023 26.9169 49.4297 26.3041C49.7571 25.6912 50.0173 25.1414 50.2146 24.6592C50.4344 24.177 50.69 23.8481 50.9816 23.6723C51.2776 23.4966 51.5422 23.4515 51.7844 23.5416C52.0266 23.6317 52.188 23.839 52.2733 24.168C52.3585 24.497 52.2957 24.9341 52.0759 25.4839C51.8786 26.0337 51.5691 26.7006 51.143 27.4893C50.7169 28.2779 50.2057 29.035 49.6047 29.756C49.0037 30.4815 48.3174 31.0989 47.5415 31.6127C46.7656 32.1264 45.9224 32.3878 45.003 32.3878C44.0656 32.3878 43.4153 32.0543 43.0565 31.3828C42.6977 30.7159 42.5138 29.8867 42.5138 28.8998C41.9038 29.8642 41.1862 30.6753 40.3699 31.3333C39.5537 31.9912 38.6297 32.2751 37.6027 32.1895C36.4904 32.1039 35.6158 31.7524 34.9834 31.135C34.351 30.5221 33.9294 29.7515 33.7231 28.8322C33.5168 27.9129 33.5168 26.8899 33.7231 25.7723C33.9294 24.6547 34.3241 23.5461 34.9027 22.4511C35.4812 21.356 36.2347 20.324 37.1631 19.3596C38.0915 18.3953 39.1769 17.6157 40.4193 17.0253C41.6616 16.435 43.0565 16.0699 44.5949 15.9393C46.1332 15.8086 47.7972 16.0249 49.5867 16.5972C49.9993 16.7279 50.3133 16.9442 50.5196 17.2371C50.7259 17.5345 50.8156 17.8139 50.7797 18.0753C50.7483 18.3367 50.5824 18.5485 50.2864 18.7017C49.9904 18.8549 49.5508 18.8684 48.9588 18.7333C47.9542 18.4899 46.9944 18.4584 46.0794 18.6341C45.1645 18.8099 44.3078 19.1253 43.5095 19.5895C42.7111 20.0491 41.989 20.6214 41.3342 21.3019C40.6794 21.9824 40.1008 22.6944 39.5985 23.438C39.0962 24.1815 38.6925 24.9296 38.3875 25.6732C38.0826 26.4167 37.8807 27.1017 37.7821 27.7281C37.6834 28.3545 37.6924 28.8727 37.8135 29.2918C37.9346 29.7064 38.1902 29.9498 38.5849 30.0174C39.0424 30.1075 39.4909 29.9723 39.9259 29.6208C40.361 29.2693 40.787 28.8006 41.2042 28.2058C41.6168 27.6154 42.007 26.9395 42.3658 26.1824C42.7246 25.4253 43.0475 24.6953 43.3301 23.9968C43.5274 23.2938 43.7292 22.6493 43.9355 22.0545C44.1508 21.4642 44.3437 21.0045 44.5186 20.6755Z" fill="#242938"/>
<path d="M68.1803 9.26068C68.5301 9.12999 68.7858 9.13901 68.9473 9.29223C69.1132 9.44544 69.1984 9.67077 69.2074 9.96819C69.2164 10.2656 69.1625 10.6171 69.0414 11.0227C68.9203 11.4283 68.7589 11.8248 68.5526 12.2079C68.3463 12.5909 68.1041 12.9244 67.8305 13.2128C67.5569 13.4967 67.2698 13.686 66.9649 13.7716C66.7899 13.8167 66.485 13.8618 66.0499 13.9023C65.6149 13.9474 65.0901 13.9969 64.4801 14.051C63.8702 14.1051 63.1884 14.1547 62.435 14.1997C61.6815 14.2448 60.9011 14.2989 60.0938 14.3665C59.4614 15.3984 58.7886 16.489 58.08 17.6381C57.3713 18.7873 56.6896 19.9364 56.0348 21.0766C55.38 22.2167 54.7835 23.3118 54.2497 24.3663C53.716 25.4208 53.2989 26.3581 53.0074 27.1783C52.7159 27.9984 52.5634 28.6699 52.5634 29.1836C52.5634 29.6974 52.7697 29.9993 53.1868 30.0894C53.6667 30.1796 54.1466 30.0354 54.6265 29.6613C55.1064 29.2873 55.5459 28.8141 55.9541 28.2283C56.3577 27.6469 56.73 27.0296 57.0664 26.3716C57.4027 25.7137 57.6718 25.1459 57.8692 24.6637C58.089 24.1815 58.3446 23.8525 58.6361 23.6768C58.9321 23.501 59.1968 23.456 59.439 23.5461C59.6767 23.6362 59.8426 23.8435 59.9278 24.1725C60.013 24.5015 59.9502 24.9386 59.7305 25.4884C59.5331 26.0381 59.2237 26.7186 58.7976 27.5298C58.3715 28.3409 57.8512 29.1206 57.2413 29.8641C56.6313 30.6077 55.9406 31.2341 55.1782 31.7388C54.4157 32.2435 53.5725 32.4643 52.6576 32.3967C51.7426 32.3291 51.0519 32.0362 50.5944 31.509C50.137 30.9817 49.8544 30.2877 49.7423 29.4225C49.6301 28.5572 49.666 27.5568 49.8409 26.4302C50.0159 25.2991 50.2939 24.1004 50.6752 22.8296C51.0564 21.5587 51.5094 20.2474 52.0341 18.9C52.5589 17.5525 53.1016 16.2321 53.6712 14.9388C53.0164 15.0064 52.4019 15.074 51.8233 15.1506C51.2448 15.2272 50.7245 15.3218 50.267 15.43C49.832 15.5156 49.4866 15.5246 49.2355 15.448C48.9843 15.3714 48.8363 15.2497 48.7914 15.0875C48.7466 14.9208 48.8094 14.7315 48.9708 14.5107C49.1323 14.2899 49.4104 14.0961 49.8051 13.9203C50.6124 13.5238 51.4286 13.2038 52.2584 12.9515C53.0881 12.6991 53.9492 12.4873 54.8463 12.3115C55.2813 11.3922 55.7074 10.518 56.1245 9.6978C56.5371 8.87313 56.9139 8.13407 57.2547 7.47613C57.5911 6.81819 57.8826 6.2639 58.1203 5.81326C58.3625 5.36261 58.533 5.05167 58.6451 4.87592C58.8424 4.50188 59.1026 4.28557 59.43 4.21798C59.7574 4.15038 60.1072 4.20896 60.4795 4.38021C60.8517 4.55596 61.2195 4.81283 61.5918 5.15532C61.964 5.4933 62.2825 5.87184 62.5561 6.29094C62.8296 6.70553 63.0315 7.14716 63.1615 7.60682C63.2916 8.06647 63.3051 8.49459 63.1929 8.89115C63.1481 9.0669 63.027 9.33729 62.8341 9.6978C62.6368 10.0583 62.3991 10.4909 62.112 10.9957C63.0718 10.7974 64.0496 10.5675 65.0408 10.3062C66.0499 10.0178 67.0904 9.67978 68.1803 9.26068Z" fill="#242938"/>
<path d="M75.8424 9.26068C76.1923 9.12999 76.4479 9.13901 76.6094 9.29223C76.7753 9.44544 76.8605 9.67077 76.8695 9.96819C76.8785 10.2656 76.8246 10.6171 76.7036 11.0227C76.5825 11.4283 76.421 11.8248 76.2147 12.2079C76.0084 12.5909 75.7662 12.9244 75.4926 13.2128C75.219 13.4967 74.932 13.686 74.627 13.7716C74.4521 13.8167 74.1471 13.8618 73.712 13.9023C73.277 13.9474 72.7522 13.9969 72.1423 14.051C71.5323 14.1051 70.8506 14.1547 70.0971 14.1997C69.3436 14.2448 68.5632 14.2989 67.7559 14.3665C67.1235 15.3984 66.4507 16.489 65.7421 17.6381C65.0335 18.7873 64.3517 19.9364 63.6969 21.0766C63.0421 22.2167 62.4456 23.3118 61.9119 24.3663C61.3781 25.4208 60.961 26.3581 60.6695 27.1783C60.3735 27.9984 60.2255 28.6699 60.2255 29.1836C60.2255 29.6974 60.4318 29.9993 60.8489 30.0894C61.3288 30.1796 61.8087 30.0354 62.2886 29.6613C62.7685 29.2873 63.208 28.8141 63.6162 28.2283C64.0198 27.6469 64.3921 27.0296 64.7285 26.3716C65.0648 25.7137 65.334 25.1459 65.5313 24.6637C65.7511 24.1815 66.0067 23.8525 66.2982 23.6768C66.5942 23.501 66.8589 23.456 67.1011 23.5461C67.3388 23.6362 67.5047 23.8435 67.5899 24.1725C67.6751 24.5015 67.6124 24.9386 67.3926 25.4884C67.1952 26.0381 66.8858 26.7186 66.4597 27.5298C66.0336 28.3409 65.5134 29.1206 64.9034 29.8641C64.2934 30.6077 63.6027 31.2341 62.8403 31.7388C62.0778 32.2435 61.2346 32.4643 60.3197 32.3967C59.4047 32.3291 58.714 32.0362 58.2565 31.509C57.7991 30.9817 57.5165 30.2877 57.4044 29.4225C57.2967 28.5572 57.3281 27.5568 57.5031 26.4302C57.678 25.2991 57.956 24.1004 58.3373 22.8296C58.7185 21.5587 59.1715 20.2474 59.6962 18.9C60.221 17.5525 60.7637 16.2321 61.3333 14.9388C60.6785 15.0064 60.064 15.074 59.4854 15.1506C58.9069 15.2272 58.3866 15.3218 57.9291 15.43C57.4941 15.5156 57.1487 15.5246 56.8976 15.448C56.6464 15.3714 56.4984 15.2497 56.4536 15.0875C56.4087 14.9208 56.4715 14.7315 56.633 14.5107C56.7944 14.2899 57.0725 14.0961 57.4672 13.9203C58.2745 13.5238 59.0908 13.2038 59.9205 12.9515C60.7502 12.6991 61.6114 12.4873 62.5084 12.3115C62.9434 11.3922 63.3695 10.518 63.7866 9.6978C64.1992 8.87313 64.576 8.13407 64.9168 7.47613C65.2532 6.81819 65.5447 6.2639 65.7825 5.81326C66.0246 5.36261 66.1951 5.05167 66.3072 4.87592C66.5046 4.50188 66.7647 4.28557 67.0921 4.21798C67.4195 4.15038 67.7693 4.20896 68.1416 4.38021C68.5139 4.55596 68.8816 4.81283 69.2539 5.15532C69.6261 5.4933 69.9446 5.87184 70.2182 6.29094C70.4918 6.70553 70.6936 7.14716 70.8237 7.60682C70.9537 8.06647 70.9672 8.49459 70.8551 8.89115C70.8102 9.0669 70.6891 9.33729 70.4962 9.6978C70.2989 10.0583 70.0612 10.4909 69.7741 10.9957C70.7339 10.7974 71.7117 10.5675 72.7029 10.3062C73.712 10.0178 74.7526 9.67978 75.8424 9.26068Z" fill="#242938"/>
<path d="M76.5951 16.6648C76.7252 16.2908 76.9315 16.0565 77.2185 15.9573C77.5011 15.8582 77.815 15.8537 78.1514 15.9393C78.4878 16.0249 78.8287 16.1917 79.165 16.4305C79.5014 16.6738 79.7929 16.9623 80.0307 17.3002C80.2729 17.6427 80.4388 18.0032 80.5375 18.3863C80.6361 18.7693 80.6092 19.1389 80.4567 19.4904C80.3491 19.7337 80.1518 20.2024 79.8692 20.9054C79.5866 21.6084 79.2233 22.4511 78.7883 23.438C78.3532 24.4249 77.8509 25.5155 77.2813 26.7097C76.7117 27.9039 76.0928 29.1161 75.4155 30.3464C76.0704 29.9318 76.6758 29.4766 77.232 28.9809C77.7881 28.4897 78.2949 27.9895 78.7524 27.4848C79.2099 26.9801 79.6135 26.4798 79.9634 25.9886C80.3132 25.4929 80.5868 25.0288 80.7797 24.5917C80.977 24.1771 81.2147 23.8977 81.5018 23.7535C81.7843 23.6092 82.04 23.5822 82.2687 23.6723C82.4974 23.7625 82.6679 23.9427 82.7755 24.2131C82.8831 24.488 82.8607 24.8215 82.7082 25.218C82.5109 25.7002 82.2014 26.2996 81.7753 27.0116C81.3493 27.7236 80.7662 28.4717 80.0217 29.2468C79.2817 30.0264 78.3846 30.7835 77.3396 31.518C76.2901 32.2526 75.0478 32.8835 73.6081 33.4108C72.868 34.5734 72.0876 35.664 71.2669 36.6824C70.4506 37.7009 69.6029 38.5571 68.7283 39.2466C67.8537 39.9361 66.9702 40.4273 66.0777 40.7112C65.1851 40.9951 64.2881 40.9951 63.3956 40.7112C62.5031 40.4273 61.8797 39.9451 61.5298 39.2646C61.18 38.5841 61.2248 37.8361 61.6599 37.0114C62.0949 36.1912 62.983 35.3665 64.3106 34.5464C65.6426 33.7262 67.5398 33.0187 70.0066 32.4238C70.0918 32.2932 70.1725 32.1535 70.2353 32.0138C70.3026 31.8696 70.3654 31.7253 70.4327 31.5676C69.9752 31.9191 69.4818 32.1715 68.9616 32.3247C68.4368 32.4779 67.8941 32.5005 67.3245 32.3923C66.5396 32.2391 65.9566 31.8921 65.5753 31.3558C65.1941 30.8195 64.9654 30.1481 64.8891 29.3504C64.8129 28.5483 64.8712 27.6335 65.0685 26.606C65.2659 25.5741 65.5484 24.497 65.9207 23.3659C66.293 22.2393 66.7415 21.0811 67.2617 19.8959C67.7865 18.7107 68.3426 17.5481 68.9302 16.408C69.1275 16.0114 69.3921 15.768 69.733 15.6689C70.0738 15.5698 70.4192 15.5743 70.7825 15.6869C71.1413 15.7951 71.5046 15.9934 71.8634 16.2773C72.2222 16.5612 72.5227 16.8811 72.7649 17.2326C73.0071 17.5841 73.164 17.9492 73.2403 18.3367C73.3165 18.7198 73.2762 19.0668 73.1237 19.3732C72.7335 20.0762 72.3074 20.8153 71.8454 21.5949C71.388 22.3745 70.9395 23.1451 70.5044 23.9157C70.0694 24.6818 69.6567 25.4253 69.2755 26.1374C68.8943 26.8494 68.5893 27.4848 68.3606 28.0436C68.1318 28.6024 68.0062 29.0756 67.9838 29.4586C67.9614 29.8417 68.0915 30.0805 68.3785 30.1661C68.7283 30.2968 69.0916 30.2607 69.4773 30.0489C69.8586 29.8417 70.2398 29.5217 70.621 29.0936C71.0022 28.6655 71.3835 28.1698 71.7647 27.5974C72.1459 27.0296 72.5003 26.4258 72.8277 25.7904C73.6126 24.3213 74.3885 22.6133 75.1509 20.6575L76.0659 21.2479C75.6532 22.717 75.1599 24.1095 74.5948 25.4253C74.3526 25.9977 74.088 26.57 73.792 27.1513C73.4959 27.7326 73.173 28.2959 72.8277 28.8457C72.4778 29.3955 72.1011 29.9047 71.6974 30.3734C71.2938 30.8466 70.8722 31.2432 70.4371 31.5721C71.3745 29.6659 72.3523 27.4623 73.3659 24.9612C74.384 22.4511 75.4604 19.6886 76.5951 16.6648ZM64.2209 38.7329C64.8532 38.9942 65.5395 38.7779 66.284 38.0749C67.024 37.3719 67.8448 36.2678 68.7373 34.7537C67.4725 35.1277 66.4679 35.5198 65.7278 35.9389C64.9878 36.3535 64.4496 36.75 64.1222 37.1241C63.7948 37.4981 63.6557 37.8271 63.6961 38.111C63.741 38.3904 63.9159 38.6022 64.2209 38.7329Z" fill="#242938"/>
<path d="M106.542 3.77172C106.497 3.59597 106.497 3.36614 106.358 3.12279C105.699 1.96464 103.492 2.12687 101.191 2.24404C98.8411 2.3612 96.4865 2.4964 94.3202 2.4288C89.6064 2.2891 86.9871 1.96464 86.9871 1.96464C85.4174 1.77086 84.3723 1.58159 83.574 2.24404C83.3094 2.46485 82.6366 3.14082 82.6994 5.95284C82.7129 6.6288 82.7981 7.66979 84.0853 12.4421C84.5338 14.1005 84.7222 14.7179 84.6863 15.7318C84.6459 16.8674 84.6011 17.967 83.9238 18.99C83.7983 19.1792 83.3273 19.8552 82.991 20.7835C82.8923 21.0539 82.7757 21.4189 82.9237 21.7885C83.0313 22.0633 83.2017 22.2436 83.4305 22.3292C83.6592 22.4149 83.9149 22.3878 84.1974 22.2481C84.48 22.1039 84.7222 21.8245 84.9195 21.4099C85.1169 20.9728 85.3905 20.5041 85.7358 20.0129C86.0856 19.5217 86.4893 19.0215 86.9468 18.5168C87.4042 18.0121 87.9111 17.5118 88.4672 17.0206C88.6959 16.8179 88.9336 16.6286 89.1803 16.4393C89.8979 16.1058 90.9788 15.6687 92.3378 15.3623C94.4099 14.8981 97.4238 14.6773 100.088 15.0829C100.622 15.164 101.644 15.137 103.685 15.0829C103.9 15.0784 104.268 15.0649 104.654 14.8531C105.407 14.4385 105.667 13.5822 105.806 13.091C106.708 9.9185 107.452 7.29125 106.542 3.77172ZM89.1086 10.3286C88.364 10.3286 87.7586 9.72022 87.7586 8.97215C87.7586 8.22408 88.364 7.61571 89.1086 7.61571C89.8531 7.61571 90.4586 8.22408 90.4586 8.97215C90.4586 9.72022 89.8531 10.3286 89.1086 10.3286ZM94.3157 10.3286C93.5712 10.3286 92.9657 9.72022 92.9657 8.97215C92.9657 8.22408 93.5712 7.61571 94.3157 7.61571C95.0602 7.61571 95.6657 8.22408 95.6657 8.97215C95.6657 9.72022 95.0602 10.3286 94.3157 10.3286ZM99.5184 10.3286C98.7738 10.3286 98.1684 9.72022 98.1684 8.97215C98.1684 8.22408 98.7738 7.61571 99.5184 7.61571C100.263 7.61571 100.868 8.22408 100.868 8.97215C100.868 9.72022 100.267 10.3286 99.5184 10.3286Z" fill="#242938"/>
</svg>
