<svg width="401" height="100" viewBox="0 0 401 100" fill="none" xmlns="http://www.w3.org/2000/svg">
<path d="M199.966 14.1816C195.26 14.1816 191.342 17.8512 191.342 22.5312C191.342 27.277 195.26 30.9456 199.966 30.9456C204.863 30.9456 208.714 27.277 208.714 22.5312C208.714 17.8512 204.863 14.1816 199.966 14.1816ZM222.363 14.1816C217.595 14.1816 213.744 17.8512 213.744 22.5312C213.744 27.277 217.595 30.9456 222.363 30.9456C227.196 30.9456 231.117 27.277 231.117 22.5312C231.117 17.8512 227.196 14.1816 222.363 14.1816Z" fill="#3D4346"/>
<path d="M274.237 35.1924C264.168 35.1924 255.997 43.0373 255.997 52.7797C255.997 62.5241 264.17 70.4319 274.172 70.4319C279.729 70.4319 283.916 68.2165 287.641 64.8624C288.558 64.042 288.36 63.2198 287.835 62.716L283.978 59.0431C282.865 57.9667 282.345 58.4098 281.629 59.0431C280.058 60.4348 277.11 61.6382 274.237 61.6382C269.136 61.6382 265.022 57.7143 265.022 52.7797C265.022 47.9077 269.138 43.9213 274.172 43.9213C277.111 43.9213 280.058 45.1897 281.629 46.5811C282.345 47.213 282.865 47.6559 283.978 46.5811L287.835 42.9129C288.36 42.4058 288.558 41.5796 287.641 40.7572C283.916 37.4047 279.728 35.1924 274.237 35.1924ZM132.473 36.1869C131.294 36.1869 130.706 36.7579 130.706 37.8985V67.6332C130.706 68.7703 131.294 69.3448 132.473 69.3448H138.481C139.657 69.3448 140.244 68.7703 140.244 67.6332V56.8135L150.234 68.2022C150.823 68.9014 151.411 69.3448 152.259 69.3448H161.012C162.124 69.3448 162.512 68.2657 161.926 67.4436L148.148 50.9942L159.185 38.1483C160.032 37.3279 159.507 36.1869 158.332 36.1869H150.04C149.255 36.1869 148.474 36.5066 147.82 37.2647L140.244 46.8865V37.8985C140.244 36.7579 139.657 36.1869 138.481 36.1869H132.473ZM167.053 36.1869C165.811 36.1869 165.225 36.7598 165.225 37.8985V67.6332C165.225 68.772 165.811 69.3448 167.053 69.3448H174.629L189.044 50.6426V67.6332C189.044 68.772 189.565 69.3448 190.807 69.3448H196.635C197.876 69.3448 198.462 68.772 198.462 67.6332V37.8985C198.462 36.7598 197.876 36.1869 196.635 36.1869L188.864 36.1917L174.648 55.2732V37.8986C174.648 36.7599 174.127 36.187 172.885 36.187L167.053 36.1869ZM207.81 36.1964C206.569 36.1964 205.983 36.7646 205.983 37.9033V67.6381C205.983 68.7771 206.569 69.3497 207.81 69.3497H214.21C215.452 69.3497 215.973 68.7771 215.973 67.6381V37.9033C215.973 36.7646 215.452 36.1964 214.21 36.1964L207.81 36.1964ZM225.764 36.1964C224.521 36.1964 223.932 36.76 223.932 37.8987V67.6381C223.932 68.7771 224.521 69.3497 225.764 69.3497H243.003C255.215 69.3497 258.479 55.7512 248.753 51.2581C254.822 45.6262 250.774 36.1964 241.434 36.1964H225.764ZM292.043 36.1964C290.867 36.1964 290.276 36.704 290.276 37.9033V43.6671C290.276 44.8681 290.867 45.4388 292.043 45.4388H299.5V67.6381C299.5 68.7771 300.092 69.3497 301.332 69.3497H307.732C308.972 69.3497 309.495 68.7771 309.495 67.6381V45.4388H316.951C318.123 45.4388 318.714 44.8681 318.714 43.6671V37.9033C318.714 36.704 318.123 36.1964 316.951 36.1964H292.043ZM330.116 36.1964C329.107 36.1964 328.452 36.6567 328.178 37.4546L316.448 67.6982C316.092 68.6087 316.623 69.3497 317.625 69.3497H324.832C325.435 69.3497 326.085 68.9044 326.281 68.3505L327.864 63.9097H327.873H340.263H340.267L341.855 68.3505C342.051 68.9044 342.701 69.3497 343.304 69.3497H350.511C351.513 69.3497 352.047 68.6087 351.692 67.6982L339.954 37.4546C339.684 36.6567 339.029 36.1964 338.02 36.1964H330.116ZM356.772 36.1964C355.532 36.1964 354.94 36.7646 354.94 37.9033V67.6427C354.94 68.7801 355.532 69.3497 356.772 69.3497H363.172C364.413 69.3497 364.93 68.7801 364.93 67.6427V59.7465H370.421C378.128 59.7465 384.001 55.6492 384.001 48.2467C384.001 40.8304 377.998 36.1964 370.813 36.1964H356.772ZM233.207 43.5977H239.409C243.393 43.5977 243.457 48.7231 239.409 48.7231H233.207V43.5977ZM364.93 43.8568H369.964C376.688 43.8568 377.148 52.4053 370.094 52.4053H364.93V43.8568ZM334.065 46.5675H334.075L337.559 56.3187H330.582L334.065 46.5675ZM233.207 55.7497H241.434C246.462 55.7497 246.788 61.9483 241.434 61.9483H233.207V55.7497Z" fill="#3D4346"/>
<path fill-rule="evenodd" clip-rule="evenodd" d="M54.2375 5C50.8086 5 48.0313 7.70414 48.0313 11.0413V33.2083C48.0313 36.547 50.8086 39.2542 54.2375 39.2542C57.6645 39.2542 60.4391 36.547 60.4391 33.2083V11.0413C60.4391 7.70414 57.6645 5 54.2375 5ZM11.6756 34.7671C9.26644 34.9685 7.09847 36.5387 6.30462 38.9211C5.24795 42.0977 7.02806 45.5086 10.2867 46.5398L31.923 53.3907C35.1818 54.4219 38.6841 52.6845 39.7441 49.5096C40.8028 46.3348 39.0198 42.9221 35.7574 41.8909L14.1212 35.0447C13.3065 34.7865 12.4787 34.7 11.6756 34.7671ZM96.7994 34.7719C95.9963 34.7044 95.1689 34.7861 94.3538 35.0448L72.7176 41.8956C69.459 42.9268 67.6771 46.3395 68.7355 49.5144C69.7958 52.689 73.2932 54.4237 76.5521 53.3908L98.1883 46.5446C101.447 45.5134 103.231 42.1007 102.17 38.9259C101.378 36.5449 99.2087 34.9744 96.7994 34.7719ZM41.8344 64.9784C39.8444 64.9123 37.8548 65.7785 36.5972 67.4671L23.2297 85.4014C21.2156 88.1047 21.8319 91.8875 24.6048 93.8481C27.3741 95.8087 31.2579 95.2047 33.2703 92.5066L46.6378 74.5677C48.6538 71.8679 48.0327 68.0924 45.2582 66.1302C44.2197 65.3945 43.0284 65.018 41.8344 64.9784ZM66.6452 64.9784C65.4507 65.0179 64.2567 65.3945 63.2169 66.1302C60.4457 68.0924 59.8275 71.8679 61.8418 74.5677L75.2093 92.5066C77.2214 95.2047 81.1056 95.8087 83.8749 93.8481C86.6477 91.8875 87.264 88.1047 85.2499 85.4014L71.8824 67.4671C70.6247 65.7785 68.6361 64.9124 66.6452 64.9784Z" fill="#3D4346"/>
</svg>
