<svg width="192" height="100" viewBox="0 0 192 100" fill="none" xmlns="http://www.w3.org/2000/svg">
<rect width="192" height="100" fill="#FBFBFC"/>
<g clip-path="url(#clip0_611_18)">
<path d="M74.8359 43.0359V56.9856H85.8869V54.5586L77.8802 54.5797V51.1398H85.8869V48.7128L77.8802 48.6917V45.4628H85.8869V43.0359H74.8359Z" fill="#3D4346"/>
<path d="M99.6689 56.9854V43.0146H102.588V56.9854H99.6689Z" fill="#3D4346"/>
<path d="M61.5951 43.0146L65.0355 53.9254L68.6636 43.0146H72.938V56.9854H70.144V46.5179L66.5368 56.9854H63.5134L60.1147 46.5179V56.9854H57.2998V43.0146H61.5951Z" fill="#3D4346"/>
<path d="M91.2247 45.5049H86.8252V43.0146H98.7311V45.5049H94.1439V56.9854H91.2247V45.5049Z" fill="#3D4346"/>
<path d="M132.822 43.0359V56.9856H143.873V54.5586H135.866V51.1398H143.873V48.7128L135.866 48.6917V45.4628H143.873V43.0359H132.822Z" fill="#3D4346"/>
<path d="M162.493 45.5049H158.094V43.0146H170V45.5049H165.412V56.9854H162.493V45.5049Z" fill="#3D4346"/>
<path d="M113.869 53.039L108.197 43.0146H104.527V56.9854H107.509L107.384 46.4124L113.326 56.9854H116.683V43.0146H113.723L113.869 53.039Z" fill="#3D4346"/>
<path d="M124.794 53.4189L120.666 43.0146H117.351L123.377 56.9854H126.4L132.134 43.0146H129.048L124.794 53.4189Z" fill="#3D4346"/>
<path d="M153.319 48.8604H149.482C148.273 48.8604 147.668 48.3539 147.668 47.3409C147.668 46.0747 148.356 45.5049 149.899 45.5049H157.072V43.0146H149.482C147.793 43.0146 146.563 43.3523 145.812 44.0487C145.02 44.7241 144.645 45.8215 144.645 47.2987C144.645 50.0845 146.062 51.3085 149.253 51.3085H152.693C154.194 51.3085 154.736 51.7517 154.736 52.9124C154.736 54.052 154.132 54.4952 152.484 54.4952H145.208V56.9854H152.943C156.279 56.9854 157.781 55.677 157.781 52.7858C157.781 51.3718 157.447 50.3588 156.759 49.7679C156.05 49.1559 154.903 48.8604 153.319 48.8604Z" fill="#3D4346"/>
<path d="M43.5597 37.9709C43.5597 37.9709 41.7457 37.2111 41.4954 37.1056C41.2452 37.0001 40.995 36.979 40.724 37.0423C40.4529 37.1056 40.2652 37.2533 40.161 37.3589C40.0567 37.4644 36.1576 41.4108 36.1576 41.4108C36.1576 41.4108 32.3002 37.5066 32.1751 37.38C32.05 37.2533 31.904 37.1267 31.5912 37.0423C31.2785 36.9579 31.0074 37.0212 30.8406 37.1056C30.6738 37.1689 29.0057 37.8865 28.7764 37.9709C28.547 38.0553 28.3385 38.2452 28.1925 38.4774C28.0883 38.6673 28.0049 38.8783 28.0049 39.1316C28.0049 38.8994 28.0049 44.6186 28.0049 44.6186L31.5912 46.7079V41.9384L33.2593 43.6267C33.3844 43.7533 33.5304 43.8378 33.6972 43.9011C33.8223 43.9433 33.9266 43.9855 34.1142 43.9855C34.3019 43.9855 38.1801 43.9855 38.1801 43.9855C38.3261 43.9855 38.4721 43.9644 38.5972 43.9011C38.7431 43.8378 38.8891 43.7533 39.0559 43.5845C39.2227 43.4157 40.7031 41.9173 40.7031 41.9173V46.6868L44.2895 44.5975C44.2895 44.5975 44.2895 39.7014 44.2895 39.1527C44.3103 38.5829 43.9976 38.1608 43.5597 37.9709Z" fill="#3D4346"/>
<path d="M22.0206 49.7891C22.0206 49.7891 22.2708 51.7518 22.3125 52.0262C22.3542 52.3005 22.4585 52.5327 22.6461 52.7437C22.8338 52.9547 23.0631 53.0391 23.2091 53.0814C23.3551 53.1236 28.672 54.5586 28.672 54.5586C28.672 54.5586 27.2542 59.8979 27.2125 60.0456C27.1708 60.2145 27.1291 60.4044 27.2125 60.721C27.2959 61.0375 27.5044 61.2486 27.6503 61.3541C27.7963 61.4596 29.235 62.5781 29.4227 62.7258C29.6103 62.8736 29.8814 62.9791 30.1525 62.9791C30.361 62.9791 30.5903 62.9369 30.7988 62.8102C30.5903 62.9369 35.4903 60.0667 35.4903 60.0667V55.8671L31.4035 58.2518L32.0082 55.9304C32.0499 55.7615 32.0499 55.5927 32.029 55.4028C32.0082 55.2551 31.9873 55.1706 31.8831 54.9807C31.7788 54.8119 29.8397 51.4141 29.8397 51.4141C29.7563 51.2875 29.6729 51.182 29.5686 51.0976C29.4435 50.9921 29.2976 50.9077 29.0682 50.8443C28.8597 50.781 26.8163 50.2323 26.8163 50.2323L30.9031 47.8476L27.3167 45.7583C27.3167 45.7583 23.1257 48.2064 22.6461 48.4807C22.1665 48.7973 21.958 49.3038 22.0206 49.7891Z" fill="#3D4346"/>
<path d="M42.8921 62.7469C42.8921 62.7469 44.456 61.5439 44.6645 61.3751C44.873 61.2063 45.0189 60.9952 45.1023 60.742C45.1857 60.4676 45.144 60.2355 45.1232 60.0878C45.0815 59.94 43.6636 54.5585 43.6636 54.5585C43.6636 54.5585 48.9389 53.1235 49.1057 53.0813C49.2725 53.0391 49.4602 52.9758 49.6895 52.7436C49.9189 52.5115 50.0023 52.2371 50.0232 52.0472C50.044 51.8572 50.2734 50.0423 50.3151 49.8102C50.3568 49.5569 50.3151 49.2826 50.1691 49.0504C50.0649 48.8605 49.9189 48.6917 49.7104 48.565C49.9189 48.6917 45.0189 45.8215 45.0189 45.8215L41.4326 47.9108L45.5194 50.2956L43.2257 50.9076C43.0589 50.9498 42.913 51.0342 42.767 51.1397C42.6628 51.2241 42.5794 51.3085 42.496 51.4774C42.3917 51.6462 40.4526 55.0439 40.4526 55.0439C40.39 55.1706 40.3275 55.2972 40.3066 55.4449C40.2858 55.6137 40.2858 55.7826 40.3483 55.9936C40.4109 56.2046 40.953 58.2728 40.953 58.2728L36.8662 55.8881V60.0878C36.8662 60.0878 41.0572 62.5358 41.5368 62.8102C41.9955 63.1056 42.5168 63.0423 42.8921 62.7469Z" fill="#3D4346"/>
</g>
<defs>
<clipPath id="clip0_611_18">
<rect width="148" height="26" fill="white" transform="translate(22 37)"/>
</clipPath>
</defs>
</svg>
