<svg width="249" height="100" viewBox="0 0 249 100" fill="none" xmlns="http://www.w3.org/2000/svg">
<path d="M71.9382 80.9769L68.4668 77.375L75.7115 69.8581L79.1829 73.4599L71.9382 80.9769ZM31.4887 85.8316V79.4108H62.1277V85.8316H31.4887ZM17.6031 24.5999L14.2826 20.998L21.5273 13.4811L24.9987 17.083L17.6031 24.5999ZM27.5645 19.5886L31.0359 23.1905L23.7912 30.7074L20.3198 27.1055L27.5645 19.5886ZM29.6775 36.9715L26.2061 33.3696L33.4508 25.8527L36.9222 29.4546L29.6775 36.9715ZM56.2414 34.6225L51.7135 39.3205L46.7327 34.1527L41.752 39.3205L37.2241 34.6225L46.7327 24.7565L56.2414 34.6225ZM60.0147 25.8527L67.2594 33.3696L63.788 36.9715L56.5433 29.4546L60.0147 25.8527ZM68.6177 16.9264L72.0892 13.3245L79.3338 20.8414L75.8624 24.4433L68.6177 16.9264ZM73.2966 27.2621L69.8252 30.864L62.5805 23.3471L66.0519 19.7452L73.2966 27.2621ZM62.5805 71.2675L69.8252 63.7506L73.2966 67.3524L66.0519 74.8694L62.5805 71.2675ZM42.2048 65.0034L37.2241 59.8355L41.752 55.1374L46.7327 60.3053L51.7135 55.1374L56.2414 59.8355L51.2607 65.0034L61.524 75.6524H31.9415L42.2048 65.0034ZM36.9222 65.0034L33.4508 68.6053L26.2061 61.0883L29.6775 57.4865L36.9222 65.0034ZM44.1669 47.1507L41.752 49.6563L39.3371 47.1507L41.752 44.645L44.1669 47.1507ZM46.7327 54.8242L44.3179 52.3186L46.7327 49.8129L49.1476 52.3186L46.7327 54.8242ZM54.1284 47.1507L51.7135 49.6563L49.2986 47.1507L51.7135 44.645L54.1284 47.1507ZM56.5433 65.0034L63.788 57.4865L67.2594 61.0883L60.0147 68.6053L56.5433 65.0034ZM61.9768 40.5734V53.8846L58.8072 57.1733L54.2793 52.4752L59.26 47.3073L54.2793 42.1394L58.8072 37.4413L61.9768 40.5734ZM46.7327 39.4771L49.1476 41.9828L46.7327 44.4884L44.3179 41.9828L46.7327 39.4771ZM34.6583 37.2847L39.1862 41.9828L34.0545 47.1507L39.0353 52.3186L34.5073 57.0166L31.3378 53.728V40.4168L34.6583 37.2847ZM24.9987 77.375L21.5273 80.9769L14.2826 73.4599L17.754 69.8581L24.9987 77.375ZM20.1689 67.1958L23.6403 63.594L30.885 71.1109L27.4136 74.7128L20.1689 67.1958ZM84.4655 73.4599L65.7501 53.8846V40.4168L84.4655 20.998L71.9382 8L53.8265 26.7923L46.7327 19.2754L39.639 26.7923L21.5273 8L10.9621 18.9622L9 20.998L27.7154 40.4168V53.8846L9 73.3033L21.5273 86.3014L27.7154 79.8806V89.7466H65.7501V79.8806L71.9382 86.3014L84.4655 73.4599Z" fill="#003A5D"/>
<path d="M236 60.4621V19.7454H193.891V60.4621H206.267V30.3943H223.624V60.3055H236V60.4621Z" fill="#003A5D"/>
<path d="M189.059 19.7451H175.023L167.174 30.3941L159.326 19.7451H145.289L160.231 39.7903L144.686 60.4618H158.722L167.174 49.1864L175.626 60.4618H189.663L174.268 39.7903L189.059 19.7451Z" fill="#003A5D"/>
<path d="M140.459 60.4618V19.7451H128.385L117.518 35.7186L106.651 19.7451H94.5762V60.4618H106.349V38.0676L116.914 53.4147H118.121L128.687 38.0676V60.4618H140.459Z" fill="#003A5D"/>
<path d="M97.5986 70.1711L96.693 73.1465H98.6551L97.5986 70.1711ZM99.4097 75.9654L99.1079 74.8692H96.0893L95.7874 75.9654H93.5234L96.3911 68.1353H98.806L101.674 75.9654H99.4097Z" fill="#003A5D"/>
<path d="M102.88 75.9654V68.1353H108.464V69.8579H104.842V75.9654H102.88Z" fill="#003A5D"/>
<path d="M114.503 70.7975C114.503 70.3277 114.05 70.0145 113.597 70.0145H112.088V71.7371H113.597C114.05 71.5805 114.503 71.2673 114.503 70.7975ZM109.975 75.9654V68.1353H113.748C115.408 68.1353 116.314 69.3881 116.314 70.7975C116.314 72.2069 115.408 73.4597 113.748 73.4597H111.937V76.122H109.975V75.9654Z" fill="#003A5D"/>
<path d="M123.556 72.0509C123.556 70.7981 122.801 69.7019 121.443 69.7019C120.235 69.7019 119.33 70.6415 119.33 72.0509C119.33 73.3037 120.084 74.4 121.443 74.4C122.801 74.2434 123.556 73.3037 123.556 72.0509ZM117.519 72.0509C117.519 69.7019 119.33 67.9792 121.594 67.9792C123.858 67.9792 125.669 69.7019 125.669 72.0509C125.669 74.4 124.009 76.1226 121.594 76.1226C119.179 76.1226 117.519 74.4 117.519 72.0509Z" fill="#003A5D"/>
<path d="M127.177 75.9654V68.1353H129.139V75.9654H127.177Z" fill="#003A5D"/>
<path d="M136.083 75.9654V72.8333H132.913V75.9654H130.951V68.1353H132.913V71.1107H136.083V68.1353H138.045V75.9654H136.083Z" fill="#003A5D"/>
<path d="M142.123 74.2428H145.142V69.8579H143.18L142.878 72.2069C142.878 73.1465 142.576 73.7729 142.123 74.2428ZM139.558 74.2428C140.312 74.0862 140.765 73.773 140.916 72.0503L141.369 68.1353H146.953V74.2428H147.859V77.5314H145.897V76.122H141.671V77.5314H139.709V74.2428H139.558Z" fill="#003A5D"/>
<path d="M148.462 75.4962L149.217 73.9301C149.519 74.0868 149.821 74.2434 150.123 74.2434C150.575 74.2434 150.877 74.0868 151.028 73.6169L148.312 67.9792H150.575L152.236 71.5811L153.896 67.9792H156.16L153.141 74.2434C152.689 75.183 151.934 75.966 150.575 75.966C149.67 76.1226 148.915 75.966 148.462 75.4962Z" fill="#003A5D"/>
<path d="M156.611 72.0509C156.611 69.5453 158.422 67.9792 160.686 67.9792C162.498 67.9792 163.554 69.0755 164.007 70.0151L162.347 70.7981C162.045 70.1717 161.441 69.7019 160.686 69.7019C159.479 69.7019 158.573 70.6415 158.573 72.0509C158.573 73.3037 159.479 74.4 160.686 74.4C161.441 74.4 162.045 73.9302 162.347 73.3037L164.007 74.0868C163.554 75.0264 162.498 76.1226 160.686 76.1226C158.422 76.1226 156.611 74.4 156.611 72.0509Z" fill="#003A5D"/>
<path d="M167.177 75.9654V69.8579H165.063V68.1353H171.252V69.8579H169.139V75.9654H167.177Z" fill="#003A5D"/>
<path d="M177.138 70.7975C177.138 70.3277 176.685 70.0145 176.232 70.0145H174.723V71.7371H176.232C176.685 71.5805 177.138 71.2673 177.138 70.7975ZM172.761 75.9654V68.1353H176.534C178.194 68.1353 179.1 69.3881 179.1 70.7975C179.1 72.2069 178.194 73.4597 176.534 73.4597H174.723V76.122H172.761V75.9654Z" fill="#003A5D"/>
<path d="M180.605 75.9654V68.1353H182.568V75.9654H180.605Z" fill="#003A5D"/>
<path d="M187.703 70.1713L186.797 73.1468H188.759L187.703 70.1713ZM189.665 75.9656L189.363 74.8694H186.344L186.042 75.9656H183.778L186.646 68.1355H189.061L191.929 75.9656H189.665Z" fill="#003A5D"/>
<path d="M192.532 74.243C193.287 74.243 193.74 73.7732 193.891 72.0506L194.343 68.1355H199.928V75.9656H197.966V69.8581H196.155L195.853 72.2072C195.551 75.3392 194.192 76.1222 192.532 76.1222V74.243Z" fill="#003A5D"/>
<path d="M203.851 72.5201V74.2428H205.36C205.813 74.2428 206.266 73.9296 206.266 73.4597C206.266 72.9899 205.813 72.6767 205.36 72.6767H203.851V72.5201ZM203.851 68.1353V70.7975H205.662C207.322 70.7975 208.228 72.0503 208.228 73.4597C208.228 74.8692 207.322 76.122 205.662 76.122H201.889V68.2919H203.851V68.1353Z" fill="#003A5D"/>
<path d="M215.018 75.9654V72.8333H211.849V75.9654H209.887V68.1353H211.849V71.1107H215.018V68.1353H216.98V75.9654H215.018Z" fill="#003A5D"/>
<path d="M218.794 75.9656V68.1355H220.756V72.8336L223.775 68.1355H225.737V75.9656H223.775V71.1109L220.605 75.9656H218.794Z" fill="#003A5D"/>
<path d="M231.321 67.8222C230.566 67.8222 229.812 67.3524 229.359 66.726L230.114 66.0996C230.415 66.5694 230.868 66.726 231.321 66.726C231.774 66.726 232.227 66.4128 232.528 66.0996L233.283 66.726C232.83 67.3524 232.227 67.8222 231.321 67.8222ZM227.85 75.9656V68.1354H229.812V72.8335L232.83 68.1354H234.792V75.9656H232.83V71.1109L229.661 75.9656H227.85Z" fill="#003A5D"/>
<path d="M99.1079 89.5898L97.4476 86.9275L95.7874 89.5898H93.5234L96.2402 85.5181L93.6744 81.603H95.9383L97.4476 84.1087L98.9569 81.603H101.221L98.806 85.3615L101.372 89.4332H99.1079V89.5898Z" fill="#003A5D"/>
<path d="M108.011 85.6747C108.011 84.4219 107.257 83.3257 105.898 83.3257C104.691 83.3257 103.785 84.2653 103.785 85.6747C103.785 86.9275 104.54 88.0237 105.898 88.0237C107.106 87.8671 108.011 86.9275 108.011 85.6747ZM101.823 85.6747C101.823 83.3257 103.634 81.603 105.898 81.603C108.162 81.603 109.974 83.3257 109.974 85.6747C109.974 88.0237 108.313 89.7464 105.898 89.7464C103.634 89.7464 101.823 88.0237 101.823 85.6747Z" fill="#003A5D"/>
<path d="M110.728 87.868C111.483 87.868 111.936 87.3982 112.086 85.6756L112.539 81.7605H118.124V89.5906H116.162V83.4831H114.199L113.898 85.8322C113.596 88.9642 112.237 89.7472 110.577 89.7472V87.868H110.728Z" fill="#003A5D"/>
<path d="M122.196 87.7114H125.215V83.3265H123.253L122.951 85.6756C122.951 86.7718 122.649 87.3982 122.196 87.7114ZM119.781 87.868C120.536 87.7114 120.989 87.3982 121.14 85.6756L121.592 81.7605H127.177V87.868H127.932V91.0001H125.969V89.5906H121.743V91.0001H119.781V87.868Z" fill="#003A5D"/>
<path d="M129.291 89.5906V81.7605H131.253V86.4586L134.272 81.7605H136.234V89.5906H134.272V84.736L131.253 89.5906H129.291Z" fill="#003A5D"/>
<path d="M143.327 89.5898V86.4577H140.309V89.5898H138.347V81.7596H140.309V84.7351H143.327V81.603H145.29V89.4332H143.327V89.5898Z" fill="#003A5D"/>
<path d="M147.255 89.5906V81.7605H152.839V83.4831H149.217V89.5906H147.255Z" fill="#003A5D"/>
</svg>
