<svg width="443" height="100" viewBox="0 0 443 100" fill="none" xmlns="http://www.w3.org/2000/svg">
<g clip-path="url(#clip0_7_370)">
<path d="M184.233 21.7998V78.1998H174.392V33.9415H174.26L156.677 78.1998H150.116L132.139 33.9415H132.007V78.1998H122.953V21.7998H137.125L153.396 63.5776H153.659L170.849 21.7998H184.233ZM192.369 26.1082C192.369 24.5415 192.894 23.236 194.075 22.1915C195.256 21.1471 196.568 20.6248 198.142 20.6248C199.848 20.6248 201.292 21.1471 202.341 22.1915C203.391 23.236 204.047 24.5415 204.047 26.1082C204.047 27.6748 203.522 28.9804 202.341 30.0248C201.16 31.0693 199.848 31.5915 198.142 31.5915C196.437 31.5915 195.124 31.0693 194.075 30.0248C193.025 28.8498 192.369 27.5443 192.369 26.1082ZM202.998 37.7276V78.1998H193.418V37.7276H202.998ZM231.997 71.2804C233.441 71.2804 235.015 71.0193 236.721 70.236C238.427 69.5832 240.002 68.6693 241.445 67.6248V76.5026C239.87 77.4165 238.165 78.0693 236.196 78.461C234.228 78.8526 232.128 79.1137 229.767 79.1137C223.73 79.1137 218.875 77.286 215.201 73.4998C211.396 69.7137 209.559 64.8832 209.559 59.1387C209.559 52.611 211.527 47.2582 215.332 43.0804C219.138 38.9026 224.518 36.8137 231.604 36.8137C233.441 36.8137 235.278 37.0748 236.984 37.4665C238.821 37.8582 240.264 38.511 241.314 39.0332V48.1721C239.87 47.1276 238.296 46.2137 236.852 45.6915C235.278 45.1693 233.703 44.7776 232.128 44.7776C228.323 44.7776 225.305 45.9526 222.943 48.4332C220.581 50.9137 219.531 54.1776 219.531 58.3554C219.531 62.4026 220.712 65.6665 222.943 67.886C225.174 70.1054 228.192 71.2804 231.997 71.2804ZM268.608 37.0749C269.395 37.0749 270.051 37.0749 270.707 37.2054C271.363 37.336 271.888 37.4665 272.282 37.5971V47.2582C271.757 46.8665 271.101 46.4748 270.051 46.2137C269.001 45.9526 267.952 45.6915 266.508 45.6915C264.146 45.6915 262.178 46.736 260.603 48.6943C259.029 50.6526 258.11 53.6554 258.11 57.8332V78.1998H248.531V37.7276H258.11V44.1248H258.241C259.16 41.9054 260.472 40.2082 262.178 38.9026C264.015 37.7276 266.115 37.0749 268.608 37.0749ZM272.807 58.6165C272.807 51.9582 274.775 46.6054 278.449 42.6887C282.255 38.7721 287.503 36.8137 294.196 36.8137C300.494 36.8137 305.481 38.6415 309.024 42.4276C312.567 46.2137 314.404 51.3054 314.404 57.7026C314.404 64.2304 312.435 69.4526 308.761 73.3693C304.956 77.286 299.838 79.2443 293.277 79.2443C286.979 79.2443 281.992 77.4165 278.318 73.761C274.644 69.9748 272.807 64.8832 272.807 58.6165ZM282.78 58.2248C282.78 62.4026 283.698 65.6665 285.666 67.886C287.635 70.1054 290.39 71.2804 293.933 71.2804C297.345 71.2804 300.101 70.236 301.938 67.886C303.775 65.6665 304.693 62.4026 304.693 57.9637C304.693 53.6554 303.775 50.3915 301.938 48.0415C300.101 45.8221 297.345 44.6471 294.065 44.6471C290.522 44.6471 287.897 45.8221 285.929 48.1721C283.698 50.6526 282.78 53.9165 282.78 58.2248ZM328.707 48.4332C328.707 49.7387 329.1 50.9137 330.019 51.6971C330.937 52.4804 332.775 53.3943 335.793 54.5693C339.598 56.136 342.354 57.8332 343.797 59.661C345.372 61.6193 346.159 63.8387 346.159 66.5804C346.159 70.3665 344.716 73.3693 341.697 75.7193C338.811 78.0693 334.743 79.1137 329.756 79.1137C328.051 79.1137 326.213 78.8526 324.114 78.461C322.014 78.0693 320.309 77.5471 318.865 76.8943V67.4943C320.571 68.6693 322.539 69.7137 324.508 70.3665C326.476 71.0193 328.313 71.411 330.019 71.411C332.118 71.411 333.824 71.1498 334.743 70.4971C335.793 69.8443 336.317 68.9304 336.317 67.4943C336.317 66.1887 335.793 65.1443 334.743 64.0998C333.693 63.186 331.594 62.1415 328.707 60.9665C325.164 59.5304 322.671 57.8332 321.227 56.0054C319.784 54.1776 318.996 51.8276 318.996 48.9554C318.996 45.2998 320.44 42.2971 323.327 39.9471C326.213 37.5971 330.019 36.4221 334.612 36.4221C336.055 36.4221 337.63 36.5526 339.336 36.9443C341.041 37.336 342.616 37.7276 343.797 38.1193V47.3887C342.485 46.6054 341.041 45.8221 339.336 45.1693C337.63 44.5165 335.924 44.2554 334.349 44.2554C332.512 44.2554 331.069 44.6471 330.15 45.2999C329.232 46.2137 328.707 47.1276 328.707 48.4332ZM350.227 58.6165C350.227 51.9582 352.195 46.6054 355.869 42.6887C359.675 38.7721 364.924 36.8137 371.616 36.8137C377.914 36.8137 382.901 38.6415 386.444 42.4276C389.987 46.2137 391.824 51.3054 391.824 57.7026C391.824 64.2304 389.855 69.4526 386.181 73.3693C382.376 77.286 377.258 79.2443 370.697 79.2443C364.399 79.2443 359.412 77.4165 355.738 73.761C352.195 69.9748 350.227 64.8832 350.227 58.6165ZM360.2 58.2248C360.2 62.4026 361.118 65.6665 363.086 67.886C365.055 70.1054 367.81 71.2804 371.353 71.2804C374.765 71.2804 377.521 70.236 379.358 67.886C381.195 65.6665 382.113 62.4026 382.113 57.9637C382.113 53.6554 381.195 50.3915 379.358 48.0415C377.521 45.8221 374.765 44.6471 371.485 44.6471C367.942 44.6471 365.317 45.8221 363.349 48.1721C361.249 50.6526 360.2 53.9165 360.2 58.2248ZM423.71 45.561H409.407V78.1998H399.697V45.561H392.873V37.7276H399.697V32.1137C399.697 27.936 401.14 24.411 403.896 21.6693C406.652 18.9276 410.195 17.6221 414.525 17.6221C415.706 17.6221 416.756 17.7526 417.674 17.7526C418.593 17.7526 419.38 18.0137 420.036 18.2748V26.4998C419.774 26.3693 419.117 26.1082 418.33 25.8471C417.543 25.586 416.624 25.4554 415.575 25.4554C413.606 25.4554 412.032 26.1082 410.982 27.2832C409.932 28.4582 409.407 30.4165 409.407 32.7665V37.5971H423.71V28.4582L433.289 25.586V37.5971H443V45.4304H433.289V64.361C433.289 66.8415 433.814 68.5387 434.602 69.5832C435.52 70.6276 436.964 71.1498 438.932 71.1498C439.457 71.1498 440.113 71.0193 440.9 70.7582C441.687 70.4971 442.344 70.236 442.868 69.8443V77.6776C442.212 78.0693 441.294 78.3304 439.85 78.5915C438.407 78.8526 437.095 78.9832 435.651 78.9832C431.583 78.9832 428.565 77.9387 426.597 75.8498C424.629 73.761 423.579 70.4971 423.579 66.1887L423.71 45.561Z" fill="#737373"/>
<path d="M44.8774 3H0V47.65H44.8774V3Z" fill="#F25022"/>
<path d="M94.4789 3H49.6016V47.65H94.4789V3Z" fill="#7FBA00"/>
<path d="M44.8774 52.3501H0V97.0001H44.8774V52.3501Z" fill="#00A4EF"/>
<path d="M94.4789 52.3501H49.6016V97.0001H94.4789V52.3501Z" fill="#FFB900"/>
</g>
<defs>
<clipPath id="clip0_7_370">
<rect width="443" height="100" fill="white"/>
</clipPath>
</defs>
</svg>
