<svg width="192" height="100" viewBox="0 0 192 100" fill="none" xmlns="http://www.w3.org/2000/svg">
<rect width="192" height="100" fill="#FBFBFC"/>
<g clip-path="url(#clip0_611_3)">
<path d="M85.8218 42.1039V57.8959H83.1337V45.5035H83.0979L78.2952 57.8959H76.5031L71.5929 45.5035H71.557V57.8959H69.084V42.1039H72.9548L77.3992 53.8016H77.4708L82.166 42.1039H85.8218ZM88.044 43.3102C88.044 42.8715 88.1874 42.506 88.5099 42.2135C88.8325 41.9211 89.1909 41.7749 89.621 41.7749C90.0869 41.7749 90.4812 41.9211 90.7679 42.2135C91.0547 42.506 91.2339 42.8715 91.2339 43.3102C91.2339 43.7489 91.0905 44.1144 90.7679 44.4069C90.4454 44.6993 90.0869 44.8455 89.621 44.8455C89.1551 44.8455 88.7967 44.6993 88.5099 44.4069C88.2232 44.0779 88.044 43.7123 88.044 43.3102ZM90.9471 46.5636V57.8959H88.3307V46.5636H90.9471ZM98.868 55.9584C99.2623 55.9584 99.6924 55.8853 100.158 55.666C100.624 55.4832 101.054 55.2273 101.449 54.9349V57.4206C101.019 57.6765 100.553 57.8593 100.015 57.969C99.4773 58.0786 98.9039 58.1517 98.2587 58.1517C96.6101 58.1517 95.2839 57.64 94.2804 56.5799C93.241 55.5197 92.7392 54.1672 92.7392 52.5587C92.7392 50.731 93.2768 49.2322 94.3162 48.0624C95.3556 46.8926 96.8251 46.3077 98.7605 46.3077C99.2623 46.3077 99.7641 46.3809 100.23 46.4905C100.732 46.6002 101.126 46.783 101.413 46.9292V49.4881C101.019 49.1956 100.588 48.9397 100.194 48.7935C99.7641 48.6473 99.334 48.5376 98.9039 48.5376C97.8645 48.5376 97.0401 48.8666 96.395 49.5612C95.7499 50.2557 95.4631 51.1696 95.4631 52.3394C95.4631 53.4726 95.7857 54.3865 96.395 55.008C97.0043 55.6294 97.8287 55.9584 98.868 55.9584ZM108.868 46.3809C109.083 46.3809 109.262 46.3809 109.441 46.4174C109.62 46.454 109.764 46.4905 109.871 46.5271V49.2322C109.728 49.1225 109.549 49.0129 109.262 48.9397C108.975 48.8666 108.689 48.7935 108.294 48.7935C107.649 48.7935 107.112 49.086 106.681 49.6343C106.251 50.1826 106 51.0234 106 52.1932V57.8959H103.384V46.5636H106V48.3549H106.036C106.287 47.7334 106.646 47.2582 107.112 46.8926C107.613 46.5636 108.187 46.3809 108.868 46.3809ZM110.015 52.4125C110.015 50.5482 110.552 49.0494 111.556 47.9527C112.595 46.8561 114.029 46.3077 115.857 46.3077C117.577 46.3077 118.939 46.8195 119.907 47.8796C120.875 48.9397 121.376 50.3654 121.376 52.1566C121.376 53.9844 120.839 55.4466 119.835 56.5433C118.796 57.64 117.398 58.1883 115.606 58.1883C113.886 58.1883 112.524 57.6765 111.52 56.653C110.516 55.5929 110.015 54.1672 110.015 52.4125ZM112.739 52.3029C112.739 53.4726 112.989 54.3865 113.527 55.008C114.065 55.6294 114.817 55.9584 115.785 55.9584C116.717 55.9584 117.47 55.666 117.971 55.008C118.473 54.3865 118.724 53.4726 118.724 52.2297C118.724 51.0234 118.473 50.1095 117.971 49.4515C117.47 48.8301 116.717 48.5011 115.821 48.5011C114.853 48.5011 114.136 48.8301 113.599 49.4881C112.989 50.1826 112.739 51.0965 112.739 52.3029ZM125.283 49.5612C125.283 49.9267 125.391 50.2557 125.641 50.4751C125.892 50.6944 126.394 50.9503 127.218 51.2793C128.258 51.718 129.011 52.1932 129.405 52.705C129.835 53.2533 130.05 53.8747 130.05 54.6424C130.05 55.7025 129.656 56.5433 128.831 57.2013C128.043 57.8593 126.932 58.1517 125.57 58.1517C125.104 58.1517 124.602 58.0786 124.029 57.969C123.455 57.8593 122.989 57.7131 122.595 57.5303V54.8983C123.061 55.2273 123.598 55.5197 124.136 55.7025C124.674 55.8853 125.176 55.995 125.641 55.995C126.215 55.995 126.681 55.9219 126.932 55.7391C127.218 55.5563 127.362 55.3004 127.362 54.8983C127.362 54.5327 127.218 54.2403 126.932 53.9479C126.645 53.692 126.072 53.3995 125.283 53.0705C124.315 52.6684 123.634 52.1932 123.24 51.6814C122.846 51.1696 122.631 50.5116 122.631 49.7074C122.631 48.6839 123.025 47.8431 123.814 47.1851C124.602 46.5271 125.641 46.1981 126.896 46.1981C127.29 46.1981 127.72 46.2346 128.186 46.3443C128.652 46.454 129.082 46.5636 129.405 46.6733V49.2687C129.046 49.0494 128.652 48.8301 128.186 48.6473C127.72 48.4645 127.254 48.3914 126.824 48.3914C126.322 48.3914 125.928 48.5011 125.677 48.6839C125.426 48.9397 125.283 49.1956 125.283 49.5612ZM131.161 52.4125C131.161 50.5482 131.699 49.0494 132.702 47.9527C133.742 46.8561 135.175 46.3077 137.003 46.3077C138.723 46.3077 140.085 46.8195 141.053 47.8796C142.021 48.9397 142.523 50.3654 142.523 52.1566C142.523 53.9844 141.985 55.4466 140.981 56.5433C139.942 57.64 138.544 58.1883 136.752 58.1883C135.032 58.1883 133.67 57.6765 132.666 56.653C131.699 55.5929 131.161 54.1672 131.161 52.4125ZM133.885 52.3029C133.885 53.4726 134.136 54.3865 134.673 55.008C135.211 55.6294 135.964 55.9584 136.931 55.9584C137.863 55.9584 138.616 55.666 139.118 55.008C139.62 54.3865 139.87 53.4726 139.87 52.2297C139.87 51.0234 139.62 50.1095 139.118 49.4515C138.616 48.8301 137.863 48.5011 136.967 48.5011C136 48.5011 135.283 48.8301 134.745 49.4881C134.172 50.1826 133.885 51.0965 133.885 52.3029ZM151.232 48.757H147.325V57.8959H144.673V48.757H142.809V46.5636H144.673V44.9917C144.673 43.822 145.067 42.835 145.82 42.0673C146.573 41.2996 147.54 40.9341 148.723 40.9341C149.046 40.9341 149.332 40.9706 149.583 40.9706C149.834 40.9706 150.049 41.0437 150.229 41.1169V43.4199C150.157 43.3833 149.978 43.3102 149.763 43.2371C149.548 43.164 149.297 43.1274 149.01 43.1274C148.472 43.1274 148.042 43.3102 147.755 43.6392C147.469 43.9682 147.325 44.5165 147.325 45.1745V46.5271H151.232V43.9682L153.848 43.164V46.5271H156.501V48.7204H153.848V54.021C153.848 54.7155 153.992 55.1907 154.207 55.4832C154.458 55.7756 154.852 55.9219 155.39 55.9219C155.533 55.9219 155.712 55.8853 155.927 55.8122C156.142 55.7391 156.322 55.666 156.465 55.5563V57.7496C156.286 57.8593 156.035 57.9324 155.641 58.0055C155.246 58.0786 154.888 58.1152 154.494 58.1152C153.383 58.1152 152.558 57.8227 152.021 57.2379C151.483 56.653 151.196 55.7391 151.196 54.5327L151.232 48.757Z" fill="#3D4346"/>
<path d="M47.7577 36.8401H35.5V49.3421H47.7577V36.8401Z" fill="#3D4346"/>
<path d="M61.3065 36.8401H49.0488V49.3421H61.3065V36.8401Z" fill="#3D4346"/>
<path d="M47.7577 50.6582H35.5V63.1602H47.7577V50.6582Z" fill="#3D4346"/>
<path d="M61.3065 50.658H49.0488V63.16H61.3065V50.658Z" fill="#3D4346"/>
</g>
<defs>
<clipPath id="clip0_611_3">
<rect width="121" height="28" fill="white" transform="translate(35.5 36)"/>
</clipPath>
</defs>
</svg>
