<svg width="246" height="100" viewBox="0 0 246 100" fill="none" xmlns="http://www.w3.org/2000/svg">
<path d="M81.8916 5.14964C79.4925 6.74906 78.043 9.1482 77.6931 12.1471C77.5432 13.5966 77.4432 28.3413 77.5432 44.9853C77.6931 72.7253 77.7431 75.3743 78.5928 76.8238C81.4917 82.2219 88.1394 83.4215 92.6877 79.4229C93.6374 78.5732 94.687 77.0737 94.9369 76.0741C95.3368 74.8245 95.4367 63.6286 95.3368 41.6865L95.1868 9.1482L93.7373 7.29887C91.988 4.94971 89.7888 4.00005 86.29 4.00005C84.2907 4.00005 83.1412 4.29995 81.8916 5.14964Z" fill="#EC1540"/>
<path d="M220.942 19.4946C217.293 21.194 215.394 24.1429 215.394 28.0915C215.394 36.0886 224.79 40.3371 230.988 35.089C235.336 31.4403 234.787 23.4431 229.938 20.2443C227.289 18.4449 223.791 18.1451 220.942 19.4946Z" fill="#EC1540"/>
<path d="M25.7119 19.8944C22.1132 21.5938 20.4638 24.2428 20.4638 28.1414C20.4638 30.8404 21.7134 33.2895 24.1125 35.1889C26.0118 36.7383 26.1118 36.7383 33.3592 37.0382C39.6069 37.2381 41.0564 37.488 43.0557 38.4377C47.9039 40.7868 50.7029 45.5351 50.3531 50.9332C50.0532 56.2313 47.5541 60.0799 42.8058 62.579C40.8065 63.6786 40.0568 63.7286 26.2118 63.9785C10.1675 64.2784 9.7177 64.3284 7.36855 67.5772C6.26894 69.1766 6.21896 69.6265 6.06901 79.9727C5.91907 90.5189 5.91907 90.7688 7.06865 92.4682C9.01795 95.3672 11.1672 96.4668 14.7159 96.4668C17.315 96.4668 18.1147 96.2669 19.8141 95.0173C22.6131 92.9681 23.4628 90.9188 23.4628 86.0206V81.972H30.4102C34.2589 81.972 39.1071 81.7221 41.2563 81.4222C53.5019 79.7228 62.7986 71.9756 67.0471 59.9799C68.4465 55.9814 68.7964 47.7343 67.7468 43.4859C64.9978 32.5398 57.2006 24.0429 46.7544 20.6941C43.3556 19.5945 41.5562 19.3446 35.2085 19.1446C28.5609 18.9947 27.4613 19.0447 25.7119 19.8944Z" fill="#EC1540"/>
<path d="M131.924 19.4945C121.877 20.894 114.13 25.9422 108.782 34.639C105.733 39.6372 104.684 43.6858 104.684 50.7332C104.684 57.3808 105.283 59.73 108.232 65.4779C111.781 72.2755 118.379 77.7735 126.076 80.2726C130.924 81.872 138.971 82.2219 143.07 81.0223C150.967 78.7232 152.166 68.2769 144.919 64.5783C142.87 63.5286 142.27 63.4786 138.122 63.7785C134.123 64.0285 133.273 63.9785 131.124 63.0288C125.676 60.5797 122.977 57.081 122.577 51.7829C122.227 47.9842 122.927 45.5851 125.276 42.3862C127.225 39.6872 130.824 37.6879 134.523 37.1881C139.271 36.5383 145.569 39.9371 147.618 44.1856C148.068 45.1852 150.467 52.8825 152.916 61.3294C155.365 69.7764 157.814 77.2737 158.314 77.9234C163.412 84.771 174.408 81.6221 174.408 73.2751C174.408 69.7264 166.012 41.0367 163.512 35.9885C161.213 31.3402 156.015 25.9422 151.417 23.3931C145.569 20.1443 138.072 18.6448 131.924 19.4945Z" fill="#EC1540"/>
<path d="M179.357 19.4945C176.058 20.4942 173.759 23.1432 173.209 26.7419C172.909 28.3913 173.759 31.7401 177.807 45.5851C181.106 56.6811 183.355 63.4287 184.405 65.328C186.904 69.7764 190.103 73.2252 194.451 76.0741L198.4 78.7232V84.3712C198.4 91.0188 199 92.8181 202.049 95.0173C203.748 96.2669 204.548 96.4668 207.147 96.4668C212.445 96.4668 215.544 93.4679 216.144 87.7199C216.743 82.1719 216.194 69.9264 215.294 68.227C213.894 65.6279 211.895 64.0285 208.946 63.2288C205.298 62.1791 201.699 59.5301 200.349 56.8811C199.75 55.6815 197.4 48.3341 195.101 40.487C192.802 32.6398 190.553 25.3924 190.103 24.3928C188.254 20.2442 183.705 18.145 179.357 19.4945Z" fill="#EC1540"/>
</svg>
