<svg width="345" height="100" viewBox="0 0 345 100" fill="none" xmlns="http://www.w3.org/2000/svg">
<path d="M138.008 62.5819C138.008 55.01 138.008 47.4656 138.008 39.8937C138.008 39.3981 137.981 38.9024 138.064 38.4344C138.312 36.6171 139.251 35.323 141.046 34.7172C146.762 32.7348 152.617 31.4131 158.665 30.9175C162.918 30.5596 167.17 30.5871 171.396 31.2204C174.488 31.6885 177.471 32.5145 180.233 33.9738C185.645 36.8098 188.655 41.353 189.677 47.3004C189.953 48.8423 190.036 50.3842 190.036 51.9261C190.036 63.2152 190.036 74.4767 190.036 85.7658C190.036 85.986 190.036 86.2063 190.036 86.4266C189.981 88.0236 189.263 88.7945 187.661 88.8221C184.292 88.8496 180.923 88.8496 177.554 88.8221C176.035 88.8221 175.289 88.0511 175.179 86.5367C175.151 86.1513 175.179 85.7382 175.179 85.3528C175.179 75.0825 175.179 64.8397 175.179 54.5694C175.179 53.2478 175.096 51.8986 174.682 50.632C173.55 47.2729 171.037 45.5107 167.723 44.7672C164.989 44.1615 162.255 44.3542 159.493 44.6296C158.223 44.7397 156.953 45.015 155.71 45.3179C153.556 45.8135 152.921 46.6396 152.921 48.8423C152.921 61.04 152.921 73.2652 152.921 85.4629C152.921 85.8208 152.921 86.1788 152.921 86.5367C152.865 88.0236 152.092 88.8221 150.573 88.8496C148.806 88.8771 147.011 88.8496 145.244 88.8496C143.697 88.8496 142.123 88.8771 140.577 88.8496C138.754 88.8221 138.008 88.0511 138.008 86.2339C138.008 78.3315 138.008 70.4567 138.008 62.5819Z" fill="black"/>
<path d="M52.9246 88.8221C51.2401 88.8221 49.5555 88.8496 47.871 88.8221C46.1588 88.7945 45.5789 88.0236 46.0484 86.3164C46.3798 85.0774 46.6559 83.8384 46.6835 82.5442C46.7388 79.2677 45.3856 76.7345 42.7621 74.8622C40.829 73.4855 38.675 72.5493 36.4382 71.8334C32.7377 70.6494 28.982 69.5481 25.2815 68.3641C22.2714 67.4004 19.3994 66.1889 16.7759 64.3992C12.3574 61.3704 10.1482 57.1852 9.89962 51.8711C9.43015 42.2616 14.7876 35.1853 23.5969 32.0464C27.6564 30.6146 31.8816 30.119 36.162 30.2291C42.983 30.4219 49.5279 31.7711 55.7138 34.6897C56.5975 35.1027 57.4536 35.5432 58.3097 36.0389C60.0771 37.0301 60.5189 38.2691 59.7733 40.1415C59.4971 40.8298 59.1658 41.5182 58.862 42.2065C58.0059 43.9963 57.1774 45.8135 56.2937 47.6033C55.2996 49.6408 53.6979 50.1915 51.7096 49.1176C48.3957 47.3279 44.9714 45.786 41.2709 44.9049C37.6532 44.0513 34.008 43.6934 30.3351 44.5194C29.2029 44.7672 28.1259 45.1802 27.1593 45.8411C24.3426 47.796 24.2321 51.2102 26.9108 53.3304C28.0983 54.2666 29.479 54.8723 30.9151 55.3955C34.367 56.662 37.957 57.5156 41.4642 58.5894C44.7228 59.5807 47.9538 60.7096 50.9639 62.3341C53.0351 63.463 54.9682 64.7846 56.6251 66.4642C60.1323 70.0162 61.6512 74.3941 61.7892 79.2952C61.8721 81.4979 61.6788 83.7007 61.0712 85.8484C60.9884 86.1788 60.8779 86.5367 60.7675 86.8671C60.2151 88.354 59.5524 88.8221 57.9783 88.8496C56.2937 88.8496 54.6092 88.8221 52.9246 88.8221Z" fill="black"/>
<path d="M269.624 58.5894C269.624 49.8335 269.596 41.0776 269.624 32.3217C269.624 28.4393 270.231 24.6671 271.778 21.0602C274.484 14.8099 279.399 11.2304 285.944 9.7711C290.556 8.75233 295.196 8.75234 299.807 9.71603C299.89 9.74357 299.973 9.74357 300.056 9.7711C302.32 10.2943 302.817 11.0377 302.376 13.3506C301.989 15.3606 301.63 17.343 301.243 19.3255C300.857 21.3906 300.139 21.9137 298.012 21.6108C296.355 21.3906 294.671 21.0877 292.986 21.1152C292.047 21.1428 291.108 21.2529 290.225 21.4732C286.856 22.2717 284.895 24.7222 284.508 28.4393C284.426 29.2378 284.398 30.0363 284.37 30.8348C284.343 31.771 284.343 31.7985 285.282 31.7985C287.822 31.7985 290.335 31.7985 292.876 31.7985C294.754 31.7985 296.604 31.7985 298.482 31.7985C300.498 31.7985 301.188 32.5144 301.216 34.5244C301.243 36.9199 301.243 39.2878 301.216 41.6833C301.216 43.6933 300.498 44.3541 298.454 44.3541C294.229 44.3541 290.031 44.3541 285.806 44.3541C285.503 44.3541 285.199 44.3541 284.867 44.3541C284.536 44.3541 284.398 44.5194 284.398 44.8498C284.398 45.2077 284.398 45.5657 284.398 45.9236C284.398 59.1401 284.37 72.3565 284.426 85.6005C284.426 87.8032 283.873 88.9046 281.222 88.822C278.295 88.7394 275.368 88.7394 272.44 88.822C270.397 88.8771 269.596 87.6931 269.624 86.0135C269.651 76.8997 269.624 67.7308 269.624 58.5894Z" fill="black"/>
<path d="M324.523 60.2966C324.523 68.6395 324.523 77.0099 324.523 85.3528C324.523 85.6281 324.523 85.876 324.523 86.1513C324.495 88.1338 323.805 88.8221 321.761 88.8221C319.193 88.8221 316.625 88.8221 314.029 88.8221C313.311 88.8221 312.621 88.8497 311.903 88.8221C310.549 88.767 309.776 88.0512 309.638 86.702C309.583 86.3165 309.61 85.9035 309.61 85.518C309.61 68.7221 309.61 51.9262 309.61 35.1028C309.61 32.4044 310.218 31.8262 312.869 31.8262C315.852 31.8262 318.806 31.8262 321.789 31.8262C323.777 31.8262 324.495 32.5421 324.523 34.5521C324.523 43.1428 324.523 51.7059 324.523 60.2966Z" fill="black"/>
<path d="M324.993 16.9851C325.021 20.7573 323.143 23.5108 319.857 24.4469C318.034 24.9701 316.184 24.9425 314.361 24.4194C310.689 23.3455 309.004 20.2892 309.114 16.462C309.142 15.8562 309.225 15.2229 309.363 14.6172C310.053 11.7812 311.821 9.96389 314.665 9.30307C316.543 8.86252 318.449 8.94512 320.299 9.60595C323.198 10.6522 324.607 12.8275 324.966 15.8012C325.021 16.1866 324.993 16.5997 324.993 16.9851Z" fill="#7A00E6"/>
<path d="M24.8951 82.0487C24.8398 82.9023 24.8122 83.6732 24.6189 84.4717C23.8181 87.4729 21.8574 89.2351 18.8473 89.8134C17.2732 90.1162 15.6715 90.0336 14.125 89.538C11.6672 88.7395 10.0103 87.1425 9.34753 84.6369C8.85045 82.7646 8.87806 80.8647 9.48561 79.0199C10.2865 76.6244 11.971 75.1101 14.4288 74.4768C16.141 74.0362 17.8531 74.0913 19.5653 74.5318C22.5478 75.3028 24.5637 77.6983 24.8398 80.7821C24.8675 81.2227 24.8951 81.6632 24.8951 82.0487Z" fill="#7A00E6"/>
<path d="M124.118 39.0676C124.007 36.9475 123.069 35.4606 120.97 34.7998C120.832 34.7723 120.721 34.7172 120.583 34.6621C115.06 32.6246 109.399 31.3029 103.517 30.8624C99.3468 30.5595 95.1768 30.532 91.0897 31.4957C81.0101 33.8636 74.1062 39.811 70.9028 49.6958C68.4174 57.3779 68.6935 65.1426 71.2618 72.742C73.1672 78.4141 76.702 82.9022 81.949 85.9585C86.0913 88.3815 90.6203 89.5379 95.3425 89.8133C100.783 90.1437 106.14 89.7307 111.47 88.5191C114.811 87.7482 118.043 86.7019 121.191 85.3802C122.958 84.6368 123.925 83.3427 124.09 81.4428C124.118 81.0023 124.118 80.5617 124.118 80.1212C124.118 73.4579 124.118 66.7671 124.118 60.1038C124.118 53.468 124.118 46.8323 124.118 40.224C124.118 39.8661 124.146 39.4531 124.118 39.0676ZM107.134 74.9723C102.937 76.2939 98.6288 76.8446 94.2931 75.7157C89.9851 74.5868 87.0579 71.8334 85.6219 67.6757C83.9373 62.8572 83.9097 57.9286 85.5942 53.1101C87.4721 47.7684 91.4764 44.9875 97.0823 44.4918C100.065 44.244 103.02 44.5194 105.919 45.2903C106.251 45.3729 106.61 45.4831 106.941 45.5932C108.653 46.2265 109.233 47.025 109.261 48.8698C109.288 52.7246 109.261 56.5519 109.261 60.4067C109.261 64.2064 109.233 68.0061 109.261 71.8059C109.261 73.4028 108.598 74.5042 107.134 74.9723Z" fill="black"/>
<path d="M257.335 50.9074C254.794 42.0964 249.382 35.8186 240.71 32.5971C235.187 30.5595 229.471 30.1741 223.672 31.2204C214.945 32.7898 208.345 37.4156 204.424 45.373C200.06 54.239 199.839 63.4355 203.264 72.6319C206.219 80.5893 211.963 85.8208 220.026 88.4641C224.859 90.0336 229.858 90.364 234.884 89.6205C243.859 88.3264 250.652 83.7833 254.96 75.7984C257.556 70.9799 258.55 65.7759 258.578 59.1952C258.55 57.1301 258.219 53.9912 257.335 50.9074ZM242.119 68.0612C239.882 74.1463 234.552 76.7345 228.698 76.1838C227.179 76.0462 225.715 75.7708 224.307 75.1926C220.91 73.7883 218.618 71.3103 217.403 67.896C215.608 62.8022 215.608 57.6533 217.458 52.587C219.391 47.2728 223.865 44.3267 229.554 44.4093C230.879 44.4368 232.205 44.547 233.503 44.8774C237.728 45.9787 240.628 48.5945 242.119 52.6145C243.997 57.7634 243.997 62.9674 242.119 68.0612Z" fill="black"/>
</svg>
