<svg width="558" height="100" viewBox="0 0 558 100" fill="none" xmlns="http://www.w3.org/2000/svg">
<path d="M390.424 39.9024V76.3255H380.645V41.0374C380.645 39.464 380.418 38.1489 379.972 37.0765C379.527 36.0041 378.901 35.2213 378.104 34.7203C377.299 34.2115 376.267 33.961 374.985 33.961C373.703 33.961 372.476 34.2741 371.295 34.9082C370.107 35.5344 369.036 36.3563 368.082 37.3583C367.699 37.8671 367.316 38.462 366.933 39.1509C366.55 39.8476 366.245 40.5677 366.019 41.3192C365.792 42.0785 365.683 42.8613 365.683 43.6832V76.3255H355.997V41.0374C355.997 39.4014 355.794 38.0628 355.372 37.0295C354.957 35.9884 354.316 35.2213 353.457 34.7203C352.597 34.2115 351.557 33.961 350.337 33.961C349.063 33.961 347.813 34.2741 346.601 34.9082C345.389 35.5344 344.334 36.3876 343.435 37.4522C343.052 38.0158 342.669 38.6186 342.286 39.2448C341.903 39.8789 341.598 40.6147 341.371 41.4601C341.152 42.3134 341.043 43.1431 341.043 43.965V76.3255H331.357V27.3621H340.847V33.4678C341.52 32.4424 342.239 31.5265 343.005 30.7046C344.506 29.0999 346.155 27.8944 347.945 27.0725C349.736 26.2584 351.557 25.8513 353.41 25.8513C356.794 25.8513 359.437 26.7907 361.321 28.6772C362.603 29.961 363.658 31.7614 364.479 34.0784C365.221 32.9512 366.034 31.9179 366.933 30.9864C368.528 29.3269 370.287 28.051 372.202 27.1664C374.125 26.2897 376.04 25.8513 377.955 25.8513C380.582 25.8513 382.802 26.4149 384.624 27.55C386.445 28.6772 387.868 30.2819 388.892 32.3563C389.916 34.4307 390.424 36.9513 390.424 39.9024Z" fill="#53565A"/>
<path d="M436.451 49.8125C436.451 45.9768 436.053 42.5795 435.255 39.6206C434.45 36.6695 433.317 34.1489 431.847 32.0745C430.377 30.0001 428.509 28.4423 426.242 27.4091C423.967 26.368 421.302 25.8513 418.23 25.8513C414.97 25.8513 412.14 26.4619 409.748 27.6909C407.348 28.912 405.3 30.6733 403.611 32.9747C401.915 35.2683 400.649 38.0158 399.82 41.2253C398.929 44.56 398.476 48.2391 398.476 52.2626C398.476 56.4192 398.874 60.0983 399.679 63.3077C400.477 66.5093 401.688 69.1865 403.322 71.3235C404.948 73.4605 406.981 75.0809 409.412 76.1846C411.835 77.2805 414.72 77.8363 418.042 77.8363C423.35 77.8363 427.501 76.4977 430.51 73.8206C433.512 71.1513 435.302 67.2686 435.873 62.1727H426.672C426.226 65.069 425.328 67.1904 423.983 68.5368C422.646 69.891 420.723 70.572 418.23 70.572C416.572 70.572 415.118 70.1415 413.868 69.2961C412.625 68.4428 411.554 67.253 410.655 65.7109C409.764 64.1688 409.107 62.2979 408.693 60.0983C408.356 58.2979 408.169 56.3174 408.153 54.1491H436.451V49.8125ZM408.356 47.6441C408.411 46.7753 408.497 45.9298 408.599 45.0923C408.88 42.7048 409.365 40.599 410.037 38.7752C410.702 36.9513 411.679 35.5344 412.961 34.5324C414.235 33.5226 415.931 33.0217 418.042 33.0217C420.02 33.0217 421.607 33.4913 422.787 34.4307C423.967 35.3779 424.866 36.7008 425.476 38.3994C426.078 40.0981 426.477 42.0942 426.672 44.3877C426.758 45.421 426.821 46.5091 426.875 47.6441H408.356Z" fill="#53565A"/>
<path d="M472.027 8.9585V32.3639C471.495 31.5576 470.909 30.8139 470.252 30.1407C468.876 28.7239 467.36 27.6593 465.695 26.9313C464.038 26.2112 462.247 25.8511 460.332 25.8511C457.518 25.8511 455.024 26.446 452.851 27.6437C450.678 28.8335 448.833 30.5791 447.332 32.8805C445.831 35.1741 444.682 37.9373 443.885 41.1781C443.08 44.4188 442.681 48.1136 442.681 52.2623C442.681 56.2233 443.033 59.8163 443.736 63.0179C444.44 66.2273 445.527 68.9201 446.996 71.0884C448.466 73.2567 450.256 74.9241 452.367 76.0904C454.477 77.249 456.908 77.836 459.66 77.836C461.638 77.836 463.49 77.4368 465.218 76.654C466.946 75.8634 468.556 74.7205 470.065 73.2098C470.823 72.4505 471.542 71.5816 472.222 70.6187V76.3253H481.806V8.9585H472.027ZM471.167 63.0648C470.393 65.3036 469.275 67.0179 467.805 68.2077C466.336 69.4054 464.577 70.0003 462.537 70.0003C460.997 70.0003 459.644 69.6559 458.456 68.9671C457.276 68.2704 456.267 67.2058 455.439 65.7576C454.673 64.2468 454.063 62.3447 453.617 60.0511C453.164 57.7497 452.945 55.0334 452.945 51.8866C452.945 48.7398 453.148 46.0079 453.57 43.683C453.985 41.3503 454.587 39.4481 455.392 37.9686C456.189 36.497 457.213 35.4089 458.456 34.7201C459.707 34.0234 461.13 33.679 462.724 33.679C464.194 33.679 465.523 33.9921 466.703 34.6261C467.884 35.2524 468.892 36.223 469.728 37.5459C470.557 38.8688 471.198 40.4892 471.644 42.407C472.089 44.3249 472.316 46.5402 472.316 49.0607V54.6264C472.316 58.0237 471.933 60.8339 471.167 63.0648Z" fill="#53565A"/>
<path d="M491.688 8.86475H501.662V18.8688H491.688V8.86475ZM491.781 27.3542H501.561V76.3176H491.781V27.3542Z" fill="#53565A"/>
<path d="M544.093 36.2233C543.483 33.8984 542.475 31.9649 541.068 30.4228C539.661 28.8807 537.902 27.7378 535.791 26.9785C533.681 26.2271 531.156 25.8513 528.216 25.8513C524.832 25.8513 521.924 26.3366 519.493 27.3073C517.061 28.2858 515.131 29.7653 513.692 31.7457C512.254 33.7262 511.245 36.2233 510.667 39.2448L519.399 40.192C519.907 37.734 520.821 35.9415 522.127 34.8142C523.44 33.6792 525.34 33.1156 527.833 33.1156C529.624 33.1156 531.078 33.4913 532.195 34.2428C533.313 35.0021 534.181 36.145 534.791 37.6871C535.393 39.2292 535.697 41.194 535.697 43.5893V45.9533L529.655 46.3212C526.528 46.5091 523.683 46.9788 521.126 47.7381C518.562 48.4896 516.389 49.562 514.599 50.9475C512.809 52.3252 511.441 54.0082 510.479 55.9887C509.518 57.977 509.041 60.3175 509.041 63.0181C509.041 65.2256 509.33 67.2373 509.901 69.0612C510.479 70.8851 511.371 72.4272 512.59 73.6797C513.802 74.94 515.271 75.8871 516.999 76.5134C518.726 77.1396 520.642 77.4527 522.752 77.4527C526.012 77.4527 528.889 76.5917 531.382 74.8617C533.141 73.6405 534.673 72.075 535.987 70.1493V76.3255H545V44.3408C545 41.2566 544.695 38.556 544.093 36.2233ZM535.697 58.3057C535.697 60.0044 535.455 61.5465 534.978 62.9242C534.501 64.3097 533.814 65.5387 532.915 66.6033C532.023 67.6757 530.952 68.5055 529.71 69.1082C528.459 69.7031 527.036 70.0006 525.441 70.0006C523.901 70.0006 522.643 69.7188 521.65 69.1552C520.657 68.5837 519.891 67.7227 519.352 66.5563C518.805 65.3978 518.531 63.9966 518.531 62.3606C518.531 60.4114 518.969 58.7754 519.829 57.4525C520.689 56.1296 522.002 55.0806 523.761 54.29C525.52 53.5072 527.74 53.0219 530.421 52.834L535.697 52.4348V58.3057Z" fill="#53565A"/>
<path d="M71.8756 75.7539C70.406 76.2001 68.952 76.5758 67.5137 76.8889C66.0753 77.202 64.6213 77.3586 63.1517 77.3586C60.4001 77.3586 58.1253 76.7793 56.343 75.613C54.5528 74.4545 53.2239 72.8184 52.364 70.7127C51.4963 68.5992 51.0664 66.0708 51.0664 63.1119V34.908H44.5469V27.3619H51.0664V14.1484H60.658V27.3619H70.6249V34.908H60.658V63.6833C60.658 64.8731 60.8456 65.9142 61.2287 66.791C61.6117 67.6755 62.1902 68.3644 62.9563 68.8732C63.7223 69.3742 64.59 69.6247 65.5437 69.6247C66.4427 69.6247 67.287 69.5307 68.0843 69.3428C68.8895 69.155 69.6712 68.9045 70.4373 68.5835L71.8756 75.7539Z" fill="#418FDE"/>
<path d="M39.8014 56.0826C40.6613 58.0083 41.0912 60.3488 41.0912 63.112C41.0912 66.071 40.3877 68.6542 38.9806 70.8538C37.5735 73.1161 35.6114 74.846 33.0864 76.0437C30.5615 77.2335 27.5363 77.8363 24.0264 77.8363C21.2747 77.8363 18.8279 77.4997 16.686 76.8422C14.5441 76.1846 12.7228 75.2374 11.2219 74.0085C9.72096 72.7873 8.52494 71.1826 7.62597 69.2021C6.73481 67.2217 6.18761 64.8733 6 62.1727H15.107C15.49 65.1316 16.4124 67.2687 17.8899 68.5837C19.3595 69.9066 21.3998 70.572 24.0264 70.572C26.52 70.572 28.4196 69.938 29.7329 68.6777C31.0383 67.4252 31.695 65.6952 31.695 63.4956C31.695 62.1101 31.4605 60.8968 30.9758 59.8635C30.499 58.8224 29.7485 57.977 28.7245 57.3116C27.7004 56.654 26.3559 56.0983 24.6986 55.6599L19.7113 54.4309C16.772 53.7421 14.3565 52.7871 12.4726 51.5581C10.5809 50.3291 9.15813 48.787 8.20444 46.9318C7.24293 45.0766 6.76608 42.8613 6.76608 40.2859C6.76608 37.3896 7.48526 34.8769 8.92362 32.7399C10.362 30.595 12.3397 28.912 14.8647 27.6909C17.3896 26.4619 20.2819 25.8513 23.5495 25.8513C26.9969 25.8513 29.8423 26.3523 32.078 27.3621C34.3137 28.3641 36.1039 29.8435 37.4484 31.7927C38.793 33.7418 39.7154 36.2937 40.2313 39.4327L31.4057 40.4738C30.8976 37.7654 30.0299 35.8475 28.8183 34.7203C27.6066 33.5853 25.7852 33.0217 23.3541 33.0217C20.9229 33.0217 19.0703 33.6166 17.7883 34.8142C16.5141 36.0041 15.8731 37.6088 15.8731 39.6206C15.8731 40.9435 16.0841 42.0629 16.4984 42.9709C16.9127 43.8868 17.6319 44.6382 18.656 45.2332C19.68 45.8359 21.0168 46.3525 22.6818 46.7909L28.146 48.2078C31.1556 49.0297 33.6258 50.063 35.5801 51.3233C37.5266 52.5835 38.9337 54.1648 39.8014 56.0826Z" fill="#418FDE"/>
<path d="M110.664 36.2233C110.054 33.8984 109.046 31.9649 107.639 30.4228C106.232 28.8807 104.473 27.7378 102.37 26.9785C100.259 26.2271 97.7344 25.8513 94.7951 25.8513C91.4025 25.8513 88.4945 26.3366 86.0633 27.3073C83.6322 28.2858 81.7014 29.7653 80.263 31.7457C78.8247 33.7262 77.8163 36.2233 77.2456 39.2448L85.9695 40.192C86.4777 37.734 87.3923 35.9415 88.7055 34.8142C90.011 33.6792 91.9184 33.1156 94.4042 33.1156C96.1944 33.1156 97.6484 33.4913 98.774 34.2428C99.8919 35.0021 100.752 36.145 101.362 37.6871C101.963 39.2292 102.268 41.194 102.268 43.5893V45.9533L96.2335 46.3212C93.0988 46.5091 90.2533 46.9788 87.6971 47.7381C85.1409 48.4896 82.9599 49.562 81.1776 50.9475C79.3875 52.3252 78.0117 54.0082 77.0502 55.9887C76.0887 57.977 75.6118 60.3175 75.6118 63.0181C75.6118 65.2256 75.9011 67.2373 76.4795 69.0612C77.0502 70.8851 77.9491 72.4272 79.1608 73.6797C80.3725 74.94 81.8421 75.8871 83.5697 76.5134C85.2973 77.1396 87.2125 77.4527 89.3231 77.4527C92.5828 77.4527 95.4596 76.5917 97.9532 74.8617C99.7121 73.6405 101.244 72.075 102.558 70.1493V76.3255H111.571V44.3408C111.571 41.2566 111.266 38.556 110.664 36.2233ZM102.268 58.3057C102.268 60.0044 102.034 61.5465 101.549 62.9242C101.072 64.3097 100.384 65.5387 99.4932 66.6033C98.5942 67.6757 97.5233 68.5055 96.2804 69.1082C95.0296 69.7031 93.6069 70.0006 92.0122 70.0006C90.48 70.0006 89.2137 69.7188 88.2209 69.1552C87.2281 68.5837 86.462 67.7227 85.9226 66.5563C85.3754 65.3978 85.1097 63.9966 85.1097 62.3606C85.1097 60.4114 85.5396 58.7754 86.3995 57.4525C87.2672 56.1296 88.5726 55.0806 90.3315 54.29C92.0904 53.5072 94.3104 53.0219 96.9995 52.834L102.268 52.4348V58.3057Z" fill="#418FDE"/>
<path d="M145.997 27.0724L144.747 35.8475C144.114 35.7222 143.488 35.6126 142.878 35.5187C142.269 35.4247 141.651 35.3778 141.01 35.3778C139.541 35.3778 138.133 35.7066 136.789 36.3641C135.452 37.0295 134.326 38.0158 133.435 39.3387C132.99 39.8475 132.607 40.4111 132.286 41.0373C131.966 41.6714 131.708 42.3446 131.52 43.0648C131.325 43.7928 131.231 44.5286 131.231 45.2801V76.3254H121.545V27.362H131.035V34.2114C132.192 32.3249 133.56 30.7358 135.116 29.4364C137.445 27.4873 139.892 26.5088 142.448 26.5088C143.089 26.5088 143.676 26.5558 144.223 26.6497C144.762 26.7436 145.356 26.8845 145.997 27.0724Z" fill="#418FDE"/>
<path d="M150.883 8.9585H160.662V76.3174H150.883V8.9585Z" fill="#418FDE"/>
<path d="M170.637 8.86475H180.612V18.8688H170.637V8.86475ZM170.739 27.3542H180.518V76.3176H170.739V27.3542Z" fill="#418FDE"/>
<path d="M218.111 27.3621V32.5128C217.517 31.6126 216.876 30.8064 216.188 30.094C214.781 28.6459 213.233 27.5813 211.537 26.8846C209.84 26.1957 208.074 25.8513 206.213 25.8513C202.57 25.8513 199.443 26.8533 196.817 28.8651C194.198 30.8846 192.166 33.7575 190.727 37.4992C189.289 41.2409 188.57 45.695 188.57 50.8536C188.57 54.564 188.937 57.9222 189.672 60.9437C190.407 63.9653 191.478 66.525 192.885 68.6307C194.292 70.7442 196.082 72.349 198.255 73.4449C200.428 74.5486 202.828 75.0965 205.447 75.0965C208.457 75.0965 211.169 74.2511 213.6 72.5525C215.211 71.4253 216.649 69.9849 217.915 68.2237V75.942C217.915 78.5878 217.579 80.7874 216.907 82.5487C216.235 84.31 215.265 85.6642 213.983 86.6035C212.701 87.5507 211.013 88.0204 208.902 88.0204C206.026 88.0204 203.884 87.4568 202.477 86.3217C201.069 85.1945 200.077 83.2062 199.506 80.3804H190.008C190.391 83.8403 191.306 86.6975 192.744 88.9676C194.183 91.2298 196.207 92.9128 198.834 94.0165C201.452 95.1124 204.681 95.6604 208.519 95.6604C211.779 95.6604 214.609 95.1751 217.009 94.2044C219.401 93.2259 221.386 91.8404 222.95 90.0478C224.513 88.2552 225.701 86.0243 226.499 83.355C227.296 80.6778 227.695 77.6093 227.695 74.1494V27.3621H218.111ZM217.243 60.0044C216.602 62.204 215.562 63.9653 214.124 65.2882C212.686 66.6033 210.849 67.2687 208.613 67.2687C206.44 67.2687 204.634 66.6816 203.196 65.523C201.757 64.3567 200.671 62.5328 199.936 60.0513C199.201 57.5621 198.834 54.3761 198.834 50.47C198.834 46.5717 199.201 43.3936 199.936 40.9435C200.671 38.4934 201.757 36.6695 203.196 35.4718C204.634 34.2741 206.44 33.6792 208.613 33.6792C210.982 33.6792 212.85 34.3524 214.226 35.7066C215.602 37.0608 216.602 38.8534 217.243 41.0844C217.884 43.3153 218.205 45.7889 218.205 48.4896V52.7401C218.205 55.3781 217.884 57.7969 217.243 60.0044Z" fill="#418FDE"/>
<path d="M274.777 40.6614V76.3253H264.998V41.9843C264.998 39.1506 264.435 37.1076 263.317 35.8473C262.199 34.5948 260.487 33.9608 258.189 33.9608C256.586 33.9608 255.101 34.2739 253.733 34.9079C252.357 35.5342 251.153 36.3874 250.137 37.452C249.621 38.0861 249.176 38.7279 248.793 39.3855C248.41 40.0509 248.089 40.7554 247.831 41.5068C247.573 42.2661 247.448 43.0802 247.448 43.9648V76.3253H237.763V8.9585H247.448V33.3032C248.175 32.3169 248.926 31.4402 249.699 30.6574C251.333 29.0214 253.123 27.8159 255.07 27.0253C257.024 26.2425 259.018 25.8511 261.066 25.8511C264.005 25.8511 266.483 26.446 268.5 27.6437C270.509 28.8335 272.057 30.5165 273.151 32.6848C274.238 34.861 274.777 37.5146 274.777 40.6614Z" fill="#418FDE"/>
<path d="M307.094 75.7539C305.624 76.2001 304.17 76.5758 302.732 76.8889C301.294 77.202 299.84 77.3586 298.37 77.3586C295.618 77.3586 293.351 76.7793 291.561 75.613C289.771 74.4545 288.442 72.8184 287.582 70.7127C286.715 68.5992 286.285 66.0708 286.285 63.1119V34.908H279.765V27.3619H286.285V14.1484H295.876V27.3619H305.851V34.908H295.876V63.6833C295.876 64.8731 296.064 65.9142 296.447 66.791C296.838 67.6755 297.408 68.3644 298.175 68.8732C298.941 69.3742 299.808 69.6247 300.762 69.6247C301.661 69.6247 302.505 69.5307 303.31 69.3428C304.108 69.155 304.889 68.9045 305.656 68.5835L307.094 75.7539Z" fill="#418FDE"/>
<path d="M313.042 75.8713H323.689V87.2766H313.042V75.8713Z" fill="#418FDE"/>
</svg>
