<svg width="192" height="100" viewBox="0 0 192 100" fill="none" xmlns="http://www.w3.org/2000/svg">
<rect width="192" height="100" fill="#FBFBFC"/>
<g clip-path="url(#clip0_1613_4421)">
<mask id="mask0_1613_4421" style="mask-type:luminance" maskUnits="userSpaceOnUse" x="16" y="37" width="160" height="26">
<path d="M176 37H16V63H176V37Z" fill="white"/>
</mask>
<g mask="url(#mask0_1613_4421)">
<path d="M25.6164 37H25.754C25.7412 37.2923 25.5659 37.5396 25.4686 37.8078C25.265 38.2696 25.2843 38.7827 25.281 39.2755C25.2868 39.6266 25.281 39.9859 25.3866 40.325C25.7732 41.4004 26.5911 42.3373 27.6567 42.7972C28.0266 42.9617 28.4299 43.0281 28.8292 43.0825C28.8324 43.8796 28.8375 44.6767 28.817 45.4731C28.7991 45.6521 28.8055 45.8539 28.6916 46.0045C28.5662 46.1177 28.378 46.0779 28.2257 46.1202C27.1812 46.4176 26.2539 47.1153 25.7111 48.0503C25.4493 48.478 25.3163 48.9657 25.203 49.449C24.2257 49.454 23.2484 49.4465 22.2711 49.4528C22.1335 48.9505 21.9895 48.4413 21.7099 47.9946C21.0346 46.8598 19.7681 46.0772 18.4298 46.0374C17.5748 46.002 16.7486 46.2974 16.0049 46.6896C16.1962 45.8989 16.4983 45.1391 16.8279 44.3952C18.4586 40.8076 21.7764 38.0236 25.6164 37Z" fill="#3D4346"/>
<path d="M32.6556 37H32.8041C34.2857 37.4068 35.6872 38.0805 36.9525 38.9421C38.5768 40.0529 39.9944 41.4915 40.9474 43.2103C41.5586 44.3103 42.109 45.4604 42.3977 46.6883C41.8991 46.4454 41.3941 46.1943 40.8405 46.1019C39.7161 45.8843 38.5084 46.2025 37.6303 46.9262C36.9045 47.5063 36.4188 48.3394 36.1839 49.2257C36.1429 49.3004 36.1596 49.4667 36.0341 49.449C35.0914 49.4534 34.1494 49.4484 33.2072 49.4509C33.1196 49.1435 33.046 48.8309 32.9263 48.5343C32.5468 47.5841 31.7814 46.7965 30.8444 46.3688C30.4098 46.1626 29.9337 46.0684 29.4639 45.976C29.4818 45.0309 29.4953 44.0858 29.5247 43.142C29.7928 43.0389 30.0879 43.018 30.3605 42.9237C31.1574 42.6897 31.8568 42.1798 32.3637 41.5339C32.7765 40.9911 33.1183 40.3515 33.1157 39.6557C33.1177 39.0908 33.1695 38.5081 32.9948 37.9616C32.8994 37.6345 32.6684 37.3473 32.6556 37Z" fill="#3D4346"/>
<path d="M92.0293 41.8514C93.0543 41.8507 94.0789 41.8514 95.1044 41.8514C95.7886 41.8583 96.4765 41.8184 97.1555 41.9254C98.1644 42.0696 99.1381 42.4688 99.9358 43.0995C100.984 43.9143 101.752 45.084 102.037 46.3757C102.326 47.5751 102.21 48.8575 101.741 49.9968C101.253 51.1702 100.354 52.1653 99.2459 52.8005C98.3229 53.3287 97.2523 53.5735 96.1902 53.5798C94.8034 53.5798 93.4161 53.5805 92.0293 53.5798C92.0293 49.6704 92.0293 45.7609 92.0293 41.8514ZM93.7912 43.6081C93.7931 46.3473 93.7874 49.0858 93.794 51.825C94.5304 51.8224 95.2663 51.8237 96.0022 51.8243C96.4955 51.8326 96.9931 51.7832 97.4683 51.6485C98.867 51.262 100.004 50.0726 100.308 48.6683C100.638 47.3018 100.219 45.7704 99.1899 44.7911C98.4431 44.0363 97.3834 43.6309 96.3227 43.6113C95.4786 43.6037 94.6353 43.6094 93.7912 43.6081Z" fill="#3D4346"/>
<path d="M146.14 42.4835C146.757 42.2254 147.533 42.66 147.625 43.3147C147.756 43.9669 147.16 44.6255 146.491 44.5837C145.905 44.5717 145.411 44.0277 145.442 43.4533C145.453 43.0301 145.739 42.6321 146.14 42.4835Z" fill="#3D4346"/>
<path d="M102.403 45.575C102.941 45.3574 103.47 45.1189 104.002 44.8899C105.002 47.0793 105.965 49.2858 106.974 51.4709C108.037 49.2637 109.104 47.0578 110.185 44.8589C110.714 45.1271 111.259 45.3662 111.787 45.6389C110.355 48.5527 108.942 51.4753 107.516 54.3928C107.259 54.9091 107.034 55.4499 106.67 55.9042C106.33 56.34 105.856 56.681 105.316 56.8271C104.66 57.0005 103.936 56.8448 103.386 56.4583C102.873 56.1249 102.525 55.6163 102.201 55.114C102.697 54.8123 103.184 54.4966 103.68 54.1942C103.956 54.5327 104.164 54.9812 104.608 55.133C104.84 55.2222 105.061 55.0539 105.203 54.8888C105.493 54.5396 105.659 54.1132 105.874 53.7185C105.905 53.6356 105.991 53.5439 105.924 53.4541C104.836 51.0312 103.749 48.6077 102.663 46.1842C102.575 45.9811 102.471 45.785 102.403 45.575Z" fill="#3D4346"/>
<path d="M114.239 46.1612C115.136 45.3313 116.404 44.9169 117.624 45.0795C118.525 45.1731 119.419 45.6027 119.942 46.3535C120.32 46.8894 120.476 47.5511 120.472 48.1976C120.471 49.9917 120.472 51.7857 120.471 53.5798C119.879 53.5804 119.287 53.5804 118.695 53.5798C118.693 51.7623 118.696 49.9455 118.694 48.128C118.693 47.744 118.572 47.3246 118.236 47.0975C117.771 46.7736 117.158 46.742 116.614 46.8356C115.559 47.0127 114.714 47.8857 114.439 48.8878C114.254 49.5064 114.316 50.1574 114.306 50.7932C114.306 51.7218 114.306 52.6511 114.306 53.5798C113.716 53.5722 113.126 53.5969 112.538 53.5665C112.551 50.7735 112.539 47.98 112.543 45.1864C113.098 45.1858 113.653 45.1858 114.209 45.187C114.218 45.5116 114.229 45.8361 114.239 46.1612Z" fill="#3D4346"/>
<path d="M123.746 45.375C124.841 45.0075 126.06 44.9208 127.174 45.2586C127.79 45.4516 128.373 45.7824 128.808 46.2606C129.208 46.7009 129.438 47.2867 129.442 47.8788C129.449 49.7748 129.436 51.6713 129.45 53.5672C128.896 53.5969 128.341 53.5717 127.787 53.5805C127.775 53.3572 127.766 53.1345 127.757 52.9112C126.806 53.5963 125.578 53.843 124.423 53.6627C123.476 53.547 122.533 53.1029 121.989 52.3046C121.444 51.5264 121.359 50.4491 121.811 49.609C122.24 48.8043 123.077 48.2704 123.958 48.0617C124.546 47.913 125.157 47.951 125.759 47.9465C126.402 47.9465 127.047 47.9472 127.69 47.9465C127.69 47.4898 127.278 47.1824 126.897 47.0103C126.142 46.6959 125.279 46.7452 124.506 46.966C124.011 47.0976 123.586 47.3848 123.148 47.6353C122.834 47.1425 122.517 46.651 122.202 46.1594C122.699 45.8659 123.192 45.5541 123.746 45.375ZM123.693 50.0803C123.471 50.2511 123.287 50.5042 123.295 50.7932C123.29 51.2443 123.647 51.6207 124.055 51.7744C125.16 52.1749 126.558 51.9402 127.308 50.9944C127.624 50.6421 127.723 50.1613 127.682 49.7027C126.786 49.7027 125.889 49.702 124.993 49.7027C124.537 49.7052 124.057 49.7925 123.693 50.0803Z" fill="#3D4346"/>
<path d="M133.744 45.3992C134.643 44.9753 135.712 44.9374 136.648 45.2638C137.231 45.4656 137.72 45.8831 138.036 46.4038C138.669 45.6801 139.564 45.1626 140.536 45.0696C141.339 44.9937 142.198 45.1202 142.874 45.5808C143.423 45.9527 143.792 46.5461 143.939 47.1818C144.081 47.7424 144.043 48.3231 144.048 48.895C144.048 50.455 144.046 52.0156 144.049 53.5756C143.456 53.5857 142.863 53.5781 142.27 53.58C142.269 51.7442 142.272 49.9084 142.269 48.0726C142.265 47.6677 142.165 47.1945 141.788 46.9693C141.334 46.7403 140.785 46.7479 140.304 46.8858C139.468 47.1388 138.867 47.8853 138.608 48.6868C138.371 49.3858 138.439 50.1304 138.43 50.8541C138.429 51.7632 138.43 52.6716 138.429 53.58C137.841 53.5743 137.252 53.5927 136.665 53.5705C136.674 51.7809 136.666 49.9906 136.669 48.201C136.671 47.843 136.635 47.4564 136.407 47.1623C136.254 46.956 135.997 46.8668 135.753 46.8238C135.161 46.7175 134.528 46.8567 134.045 47.2122C133.476 47.6335 133.087 48.2712 132.933 48.9538C132.797 49.4934 132.833 50.0526 132.828 50.603C132.828 51.5956 132.828 52.5875 132.828 53.58C132.241 53.5806 131.653 53.5806 131.067 53.58C131.073 50.7808 131.053 47.9815 131.077 45.1822C131.636 45.1974 132.197 45.1714 132.757 45.1961C132.754 45.4789 132.767 45.761 132.771 46.0432C133.07 45.7946 133.387 45.5624 133.744 45.3992Z" fill="#3D4346"/>
<path d="M151.997 45.1714C152.94 44.938 153.961 45.0386 154.834 45.4624C155.499 45.7989 156.033 46.3291 156.554 46.8466C156.117 47.2482 155.693 47.6651 155.259 48.07C154.886 47.7006 154.54 47.2862 154.06 47.0471C153.039 46.4999 151.681 46.8706 150.986 47.7613C150.226 48.6583 150.216 50.0773 150.974 50.9787C151.665 51.8688 153.007 52.242 154.035 51.7252C154.529 51.4924 154.881 51.0698 155.262 50.6972C155.692 51.1097 156.129 51.5152 156.556 51.9314C156.05 52.4046 155.56 52.9132 154.942 53.2478C153.663 53.933 152.039 53.8438 150.796 53.1201C149.775 52.5204 148.998 51.5063 148.745 50.3537C148.497 49.3289 148.66 48.218 149.17 47.2951C149.76 46.2411 150.803 45.4346 151.997 45.1714Z" fill="#3D4346"/>
<path d="M145.668 45.1826C146.254 45.1927 146.84 45.1788 147.425 45.1902C147.419 47.9869 147.424 50.7831 147.423 53.5798C146.835 53.5804 146.248 53.5804 145.661 53.5798C145.665 50.7811 145.65 47.9813 145.668 45.1826Z" fill="#3D4346"/>
<path d="M22.2852 50.0798C23.256 50.0804 24.2275 50.0754 25.1991 50.0823C25.2419 50.4518 25.2701 50.8281 25.3936 51.1831C25.6867 52.0389 26.2806 52.788 27.0359 53.2947C27.5549 53.6445 28.1776 53.7767 28.7773 53.926C28.7997 54.9135 28.8182 55.9016 28.8368 56.8891C28.0138 56.8303 27.2637 57.2737 26.6576 57.7798C25.8999 58.4156 25.2912 59.3259 25.2874 60.3374C25.2842 60.8245 25.2535 61.3205 25.3565 61.8007C25.441 62.2144 25.7302 62.5642 25.7603 62.9906C23.8416 62.4459 22.0144 61.547 20.4829 60.2729C18.2864 58.4732 16.689 55.9725 16.001 53.2352C16.4138 53.4453 16.8279 53.6692 17.2848 53.7723C18.2058 53.9906 19.2138 53.9121 20.0605 53.4794C21.0154 52.9746 21.7674 52.0959 22.1021 51.0774C22.2128 50.7554 22.2365 50.4138 22.2852 50.0798Z" fill="#3D4346"/>
<path d="M32.4131 52.3381C32.8567 51.6669 33.1997 50.8901 33.1875 50.0747C34.1635 50.0835 35.1402 50.0779 36.1168 50.0779C36.1725 51.3962 36.9629 52.619 38.0644 53.337C38.9955 53.8836 40.1546 54.031 41.1997 53.7539C41.6253 53.6463 42.0106 53.4325 42.3991 53.2364C41.4192 57.1472 38.5482 60.5487 34.8202 62.1833C34.1053 62.4883 33.3866 62.809 32.6275 62.9861C32.6967 62.5629 32.9604 62.2048 33.0518 61.788C33.128 61.4375 33.121 61.0763 33.1235 60.7195C33.1197 60.3305 33.1235 59.9325 32.9988 59.5593C32.5015 58.0917 31.089 56.97 29.5242 56.8353C29.4973 55.8776 29.4813 54.9186 29.4634 53.9601C30.5802 53.7488 31.729 53.2769 32.4131 52.3381Z" fill="#3D4346"/>
<path d="M49.9606 42.2904C51.2605 41.6161 52.8144 41.5844 54.2128 41.9463C54.8349 42.1031 55.4039 42.4106 55.9446 42.7446C56.3139 42.9673 56.6147 43.2779 56.9264 43.5702C56.5392 44.0136 56.1629 44.4665 55.7693 44.9043C55.5024 44.6557 55.2599 44.3729 54.9411 44.1857C54.5334 43.9396 54.104 43.7131 53.6336 43.6126C52.7049 43.405 51.6829 43.3968 50.8144 43.8245C50.4541 44.0225 50.0682 44.2976 49.9766 44.7196C49.9319 45.1428 50.2614 45.4983 50.6205 45.678C51.4973 46.1101 52.4355 46.4042 53.375 46.6693C54.0995 46.8812 54.8054 47.1608 55.4672 47.5214C55.7616 47.6846 56.056 47.8548 56.3062 48.0812C57.1107 48.7853 57.4569 49.9652 57.1402 50.9824C56.9411 51.6795 56.4611 52.2735 55.8717 52.6923C54.863 53.4198 53.5939 53.7285 52.3574 53.7165C51.3206 53.6779 50.2602 53.5058 49.3411 53.0061C48.7523 52.6885 48.1661 52.3355 47.7219 51.8307C47.6253 51.7137 47.4832 51.6238 47.4243 51.4834C47.8192 51.0747 48.2256 50.6749 48.6378 50.2834C48.7818 50.3668 48.8765 50.5136 48.9974 50.6262C49.3174 50.9805 49.7424 51.2158 50.1578 51.4429C50.8285 51.8086 51.6035 51.9237 52.3587 51.9591C53.1734 51.9629 54.0246 51.8123 54.7088 51.3505C55.0762 51.1032 55.4243 50.7483 55.4774 50.2922C55.5165 49.8127 55.2048 49.3648 54.7888 49.1415C53.9811 48.7025 53.1049 48.4026 52.2199 48.1566C51.4205 47.9339 50.6384 47.6441 49.9018 47.2627C49.3962 47.0147 48.9239 46.6686 48.6218 46.1898C48.2294 45.5736 48.0938 44.7873 48.3235 44.0889C48.5597 43.2804 49.2189 42.663 49.9606 42.2904Z" fill="#3D4346"/>
<path d="M83.4426 41.852C84.0294 41.8501 84.6162 41.8501 85.2035 41.852C85.2035 44.1155 85.2068 46.3795 85.2016 48.643C86.5324 47.3506 87.8404 46.0367 89.1641 44.7373C89.5805 45.1472 89.9959 45.5584 90.4113 45.9703C89.3996 46.9704 88.3983 47.9819 87.3794 48.9751C88.1666 49.8684 88.9747 50.7451 89.7794 51.6232C90.0253 51.9401 90.4593 51.7915 90.8035 51.8225C90.8073 52.407 90.803 52.9915 90.8064 53.576C90.3586 53.5729 89.8962 53.626 89.4661 53.4767C88.9737 53.3103 88.5925 52.9384 88.2525 52.5639C87.5456 51.7877 86.8258 51.0222 86.1269 50.239C85.805 50.5212 85.5159 50.8375 85.2054 51.1316C85.2016 51.9477 85.2064 52.7638 85.2035 53.5792C84.6167 53.5805 84.0294 53.5805 83.443 53.5798C83.4416 49.6703 83.4416 45.7615 83.4426 41.852Z" fill="#3D4346"/>
<path d="M61.699 45.1846C62.5854 44.9398 63.5484 45.0454 64.3869 45.4073C65.5596 45.9241 66.4569 46.9964 66.7797 48.2211C66.973 48.934 66.9877 49.6913 66.8149 50.4099C66.5343 51.6543 65.6607 52.7581 64.4965 53.311C63.632 53.714 62.6218 53.8361 61.6957 53.5817C61.153 53.4439 60.657 53.1718 60.2122 52.8404C60.2039 54.1935 60.2135 55.5466 60.2077 56.8998C59.6215 56.8992 59.0359 56.8973 58.4503 56.9011C58.4439 52.996 58.4464 49.0903 58.449 45.1852C58.9988 45.1859 59.5492 45.1897 60.0996 45.1833C60.1277 45.449 60.1258 45.7166 60.1354 45.9836C60.6071 45.6344 61.1204 45.325 61.699 45.1846ZM62.1809 46.8503C61.4737 46.997 60.874 47.4943 60.5329 48.1142C60.2199 48.6955 60.1303 49.3921 60.2935 50.031C60.4407 50.6667 60.8529 51.2323 61.4045 51.5872C61.9607 51.9383 62.6673 52.0528 63.3054 51.8788C64.0227 51.6998 64.6171 51.1589 64.92 50.4997C65.1608 49.9601 65.2253 49.3427 65.0872 48.7677C64.9433 48.1136 64.5264 47.5265 63.9605 47.1602C63.4404 46.8306 62.7837 46.7085 62.1809 46.8503Z" fill="#3D4346"/>
<path d="M69.8833 45.3479C70.9117 45.0189 72.0412 44.9366 73.0914 45.2175C73.8415 45.4269 74.5627 45.835 75.0289 46.4644C75.3295 46.8724 75.4933 47.3741 75.4994 47.8776C75.5032 49.7761 75.4952 51.6739 75.5032 53.5723C74.9501 53.59 74.3965 53.5761 73.8429 53.5799C73.8315 53.3661 73.8244 53.1523 73.8187 52.9384C73.6184 53.008 73.4588 53.1529 73.2675 53.2408C72.2985 53.7457 71.1467 53.8254 70.0875 53.5925C69.3834 53.4445 68.7106 53.0991 68.2396 52.5532C67.5901 51.8276 67.3893 50.7364 67.7615 49.8362C68.0241 49.1776 68.5791 48.669 69.2086 48.3527C69.7727 48.0687 70.4089 47.946 71.0389 47.9466C71.9415 47.9466 72.844 47.9479 73.747 47.946C73.7451 47.469 73.3026 47.1584 72.9029 46.9882C72.11 46.6839 71.2117 46.7522 70.4169 47.0128C69.9773 47.1482 69.6008 47.4165 69.2025 47.6341C68.892 47.1419 68.5729 46.6535 68.2615 46.162C68.7761 45.8451 69.3003 45.5282 69.8833 45.3479ZM69.786 50.0525C69.5491 50.2246 69.3468 50.4839 69.352 50.7863C69.3435 51.2045 69.6516 51.5657 70.02 51.7353C71.1652 52.2072 72.6679 51.9478 73.4213 50.9224C73.701 50.5801 73.7708 50.131 73.7394 49.7039C72.8393 49.7014 71.94 49.7021 71.0408 49.7027C70.6026 49.7065 70.1435 49.7881 69.786 50.0525Z" fill="#3D4346"/>
<path d="M80.3197 45.2866C80.9583 45.0354 81.6533 45.0437 82.329 45.0234C82.2691 45.6035 82.2031 46.183 82.1338 46.7625C81.7236 46.8011 81.3025 46.7966 80.9108 46.9352C80.1972 47.1743 79.6469 47.7525 79.3084 48.4022C78.9998 49.0012 78.8797 49.68 78.884 50.348C78.8873 51.4222 78.8802 52.4964 78.8878 53.5705C78.2995 53.5914 77.7108 53.5756 77.1225 53.5794C77.1263 50.7801 77.1145 47.9809 77.1292 45.1822C77.679 45.1892 78.2288 45.1898 78.7786 45.1816C78.8104 45.5333 78.8061 45.8863 78.8156 46.2387C79.2643 45.8496 79.7485 45.484 80.3197 45.2866Z" fill="#3D4346"/>
<path d="M168.783 53.5564C168.791 51.6485 168.765 49.7393 168.796 47.832C168.896 47.8358 168.996 47.8403 169.099 47.8447C169.097 48.5424 169.102 49.2408 169.096 49.9386C169.646 49.9095 170.212 49.8241 170.754 49.9671C171.315 50.1157 171.717 50.6275 171.822 51.1785C171.909 51.6662 171.871 52.185 171.667 52.6404C171.417 53.1927 170.858 53.6222 170.236 53.6431C169.749 53.6532 169.265 53.6071 168.783 53.5564ZM169.102 50.2467C169.099 51.2601 169.093 52.2735 169.105 53.287C169.44 53.3021 169.773 53.3382 170.11 53.3458C170.624 53.3667 171.13 53.044 171.338 52.5816C171.586 52.0338 171.625 51.3746 171.351 50.8293C171.168 50.4605 170.777 50.21 170.364 50.1897C169.942 50.1714 169.521 50.2163 169.102 50.2467Z" fill="#3D4346"/>
<path d="M158.207 49.0164C158.877 48.4003 159.864 48.5071 160.703 48.5711C160.702 48.6723 160.703 48.7729 160.705 48.8741C160.109 48.8468 159.483 48.7317 158.911 48.9538C158.485 49.1505 158.123 49.5136 157.985 49.9647C157.756 50.6871 157.76 51.4804 158 52.1997C158.141 52.6241 158.491 52.9563 158.887 53.1549C159.449 53.3858 160.074 53.282 160.666 53.2707C160.682 52.6235 160.664 51.9763 160.676 51.3292C160.25 51.314 159.824 51.3267 159.398 51.3222C159.395 51.2197 159.394 51.1173 159.394 51.0154C159.929 51.004 160.464 51.0135 160.999 51.0104C161.002 51.8587 160.999 52.7077 161.001 53.5566C160.397 53.5983 159.785 53.6351 159.182 53.5553C158.614 53.4819 158.106 53.122 157.808 52.6444C157.525 52.1174 157.474 51.5019 157.479 50.9155C157.511 50.2354 157.629 49.4655 158.207 49.0164Z" fill="#3D4346"/>
<path d="M172.828 48.5829C172.932 48.5792 173.036 48.576 173.146 48.5747C173.152 49.2655 173.134 49.957 173.153 50.6471C173.286 50.7205 173.475 50.6648 173.631 50.6807C174.317 50.6788 175.004 50.6813 175.691 50.6794C175.691 49.9791 175.692 49.2788 175.69 48.5785C175.792 48.5773 175.895 48.576 176 48.5753V53.5521C175.894 53.5501 175.79 53.5482 175.689 53.5451C175.691 52.6942 175.693 51.8434 175.689 50.9925C174.839 50.9963 173.99 50.9849 173.142 50.9982C173.153 51.8459 173.138 52.6942 173.151 53.5419C173.042 53.5438 172.935 53.5476 172.83 53.5533C172.83 51.8965 172.835 50.2397 172.828 48.5829Z" fill="#3D4346"/>
<path d="M162.538 50.3214C162.75 50.1284 162.981 49.9393 163.267 49.8665C163.904 49.692 164.71 49.9583 164.951 50.6074C165.234 50.1626 165.719 49.8077 166.269 49.8128C166.687 49.8286 167.152 49.9481 167.409 50.2999C167.634 50.6269 167.683 51.0369 167.702 51.4228C167.715 52.13 167.695 52.8379 167.712 53.5458C167.599 53.5527 167.487 53.5565 167.377 53.5591C167.369 52.8265 167.391 52.0927 167.366 51.3607C167.33 50.935 167.222 50.4131 166.784 50.2215C166.043 49.8893 165.101 50.4991 165.083 51.2943C165.09 52.0446 165.077 52.7961 165.091 53.5464C164.978 53.5527 164.866 53.5559 164.756 53.5585C164.753 52.8474 164.765 52.1363 164.75 51.4259C164.718 51.0071 164.642 50.5049 164.248 50.2657C163.634 49.9159 162.79 50.2847 162.547 50.9173C162.518 51.7948 162.543 52.6747 162.534 53.5533C162.426 53.5502 162.32 53.5464 162.214 53.542C162.223 52.3425 162.218 51.1431 162.216 49.9437C162.321 49.9412 162.425 49.938 162.533 49.9349C162.533 50.0633 162.534 50.1923 162.538 50.3214Z" fill="#3D4346"/>
<path opacity="0.76" d="M108.787 55.7054C109.62 55.1962 110.753 55.2671 111.565 55.7845C111.487 55.8939 111.409 56.0015 111.336 56.1128C110.818 55.7655 110.156 55.639 109.545 55.7757C109.215 55.8585 108.867 56.0357 108.732 56.3652C108.588 56.71 108.632 57.1788 108.955 57.4122C109.195 57.5716 109.477 57.6583 109.757 57.7203C110.298 57.8183 110.856 57.9328 111.329 58.2244C111.942 58.7096 111.893 59.7933 111.245 60.2317C110.869 60.4911 110.406 60.6132 109.95 60.6126C109.256 60.6201 108.528 60.4196 108.02 59.9325C108.096 59.8142 108.18 59.7016 108.273 59.596C108.646 60.0116 109.212 60.2077 109.762 60.2361C110.174 60.2627 110.613 60.1931 110.952 59.9458C111.445 59.5788 111.425 58.654 110.83 58.3978C110.116 58.0758 109.262 58.1479 108.609 57.681C107.983 57.1933 108.11 56.0957 108.787 55.7054Z" fill="#BFBFBF"/>
<path opacity="0.76" d="M118.62 55.4434C119.206 55.2992 119.855 55.3587 120.383 55.6592C120.959 55.9919 121.306 56.615 121.436 57.2482C121.552 57.8556 121.536 58.4957 121.342 59.086C121.152 59.6654 120.744 60.2025 120.161 60.4359C119.314 60.7769 118.22 60.6359 117.609 59.9242C117.088 59.3333 116.923 58.5147 116.969 57.7505C116.999 57.1609 117.182 56.5651 117.562 56.1033C117.826 55.773 118.208 55.544 118.62 55.4434ZM118.884 55.7711C118.463 55.8388 118.074 56.0786 117.837 56.429C117.499 56.9022 117.397 57.4987 117.405 58.0675C117.42 58.6337 117.556 59.227 117.935 59.6673C118.574 60.4416 119.945 60.4322 120.567 59.6433C120.939 59.184 121.059 58.5799 121.067 58.0042C121.063 57.4134 120.938 56.7934 120.552 56.3259C120.164 55.842 119.483 55.6547 118.884 55.7711Z" fill="#BFBFBF"/>
<path opacity="0.76" d="M127.005 55.4536C127.918 55.4523 128.831 55.453 129.744 55.4536C129.742 55.5751 129.742 55.6972 129.743 55.8192C128.978 55.8205 128.213 55.8192 127.448 55.8199C127.443 56.4828 127.451 57.1452 127.443 57.8081C128.143 57.8176 128.842 57.8101 129.543 57.8126C129.54 57.9353 129.539 58.058 129.539 58.1807C128.841 58.1858 128.142 58.1687 127.444 58.1896C127.448 58.9702 127.447 59.7515 127.445 60.5321C127.298 60.5321 127.152 60.5321 127.008 60.5321C127 58.8393 127.006 57.1465 127.005 55.4536Z" fill="#BFBFBF"/>
<path opacity="0.76" d="M134.748 55.8238C134.735 55.6985 134.734 55.5726 134.75 55.448C136 55.46 137.249 55.4493 138.499 55.4531C138.498 55.5752 138.498 55.6973 138.499 55.8193C137.947 55.8193 137.395 55.8213 136.843 55.8187C136.835 57.3901 136.843 58.9615 136.839 60.5329C136.691 60.5322 136.545 60.5322 136.399 60.5278C136.399 58.9608 136.396 57.3939 136.401 55.8276C135.85 55.8118 135.299 55.82 134.748 55.8238Z" fill="#BFBFBF"/>
<path opacity="0.76" d="M143.398 55.4536C143.554 55.453 143.711 55.4523 143.87 55.4536C144.301 56.8839 144.719 58.3187 145.151 59.7484C145.549 58.3889 145.938 57.0269 146.328 55.6655C146.356 55.5972 146.352 55.508 146.413 55.4574C146.564 55.4492 146.717 55.4542 146.87 55.4587C147.282 56.8921 147.683 58.3288 148.114 59.756C148.522 58.318 148.964 56.8896 149.384 55.4549C149.542 55.4523 149.7 55.453 149.86 55.453C149.352 57.1389 148.837 58.8228 148.322 60.5068C148.181 60.5669 148.011 60.5201 147.862 60.5239C147.461 59.112 147.043 57.7044 146.635 56.2943C146.195 57.6975 145.808 59.1183 145.39 60.5284C145.241 60.5315 145.093 60.5328 144.947 60.5353C144.422 58.8437 143.908 57.149 143.398 55.4536Z" fill="#BFBFBF"/>
<path opacity="0.76" d="M156.614 55.4536C156.765 55.4529 156.917 55.4529 157.07 55.4517C157.694 57.1432 158.316 58.8354 158.929 60.5308C158.776 60.5321 158.625 60.5321 158.475 60.5314C158.302 60.0659 158.139 59.5965 157.965 59.1308C157.216 59.1328 156.466 59.1283 155.717 59.1334C155.548 59.5996 155.381 60.0671 155.209 60.5321C155.056 60.5327 154.904 60.5321 154.754 60.527C155.373 58.8354 155.991 57.1439 156.614 55.4536ZM156.83 56.0216C156.513 56.9389 156.171 57.8486 155.839 58.7614C156.507 58.7608 157.175 58.7627 157.843 58.7602C157.503 57.848 157.195 56.9237 156.83 56.0216Z" fill="#BFBFBF"/>
<path opacity="0.76" d="M164.225 55.4537C164.885 55.4543 165.545 55.4429 166.206 55.4594C166.736 55.4644 167.231 55.8137 167.411 56.3058C167.623 56.8903 167.595 57.5989 167.218 58.1125C167.031 58.3719 166.728 58.5022 166.43 58.592C166.861 59.2316 167.279 59.88 167.694 60.5297C167.522 60.5354 167.353 60.5335 167.185 60.524C166.798 59.8882 166.383 59.2695 165.995 58.6344C165.554 58.6167 165.113 58.6306 164.672 58.6268C164.671 59.2607 164.673 59.8952 164.671 60.5297C164.522 60.5322 164.375 60.5322 164.228 60.5303C164.219 58.8381 164.226 57.1459 164.225 55.4537ZM164.678 55.8079C164.665 56.6253 164.675 57.442 164.672 58.2593C165.163 58.2568 165.654 58.265 166.145 58.2561C166.527 58.2542 166.878 57.9885 167 57.633C167.146 57.2123 167.141 56.7284 166.943 56.3241C166.801 56.0294 166.49 55.8364 166.163 55.8193C165.668 55.7991 165.173 55.8219 164.678 55.8079Z" fill="#BFBFBF"/>
<path opacity="0.76" d="M173.156 55.4537C174.104 55.4525 175.052 55.4537 176 55.4531V55.82C175.199 55.8206 174.399 55.8187 173.598 55.8206C173.596 56.4558 173.597 57.0909 173.597 57.726C174.334 57.7292 175.07 57.7242 175.807 57.7286C175.805 57.85 175.805 57.9709 175.807 58.093C175.07 58.098 174.334 58.0923 173.598 58.0961C173.593 58.7793 173.604 59.4626 173.591 60.1464C174.394 60.1691 175.197 60.1502 176 60.1565V60.5323C175.053 60.5323 174.106 60.5323 173.158 60.5323C173.152 58.8394 173.156 57.1466 173.156 55.4537Z" fill="#BFBFBF"/>
</g>
</g>
<defs>
<clipPath id="clip0_1613_4421">
<rect width="160" height="26" fill="white" transform="translate(16 37)"/>
</clipPath>
</defs>
</svg>
